<svg width="488" height="320" viewBox="0 0 488 320" fill="none" xmlns="http://www.w3.org/2000/svg">
<path d="M95.6254 118.054L64.4112 0H42.365L95.6254 201.435V278.31L22.0462 0H0L84.6023 320H95.6254H106.642H117.665V0H95.6254V118.054Z" fill="#00FFC4"/>
<path d="M488 320L403.397 0H392.374H381.351H370.328V319.993H392.374L450.562 261.783L465.954 319.993H488V320ZM431.002 187.778L392.381 226.397V41.6903L431.002 187.778ZM392.374 288.801V257.569L437.515 212.43L444.048 237.13L392.374 288.801Z" fill="#00FFC4"/>
<path d="M164.121 0H153.098H142.075V319.993H164.121L222.309 261.783L237.701 319.993H259.747L175.138 0H164.121ZM202.743 187.778L164.121 226.397V41.6903L202.743 187.778ZM164.121 288.801V257.569L209.262 212.43L215.796 237.13L164.121 288.801Z" fill="#00FFC4"/>
<path d="M351.257 197.718L298.984 0H287.961H276.938H265.915V319.993H287.961V260.653L308.213 240.403L329.258 319.993L351.257 319.832L325.648 222.969L333.747 214.87L351.257 197.718ZM287.961 229.482V41.6903L327.228 190.217L287.961 229.482Z" fill="#00FFC4"/>
</svg>
