<svg width="120" height="48" viewBox="0 0 120 48" fill="none" xmlns="http://www.w3.org/2000/svg">
<path fill-rule="evenodd" clip-rule="evenodd" d="M33.847 2.44076C37.5421 1.78345 41.3357 2.84431 44.1506 5.32216C47.5359 8.41884 48.7446 13.6523 47.4666 19.6821C47.4584 19.706 47.449 19.7295 47.4383 19.7525C47.4266 19.7899 47.4118 19.8264 47.3943 19.8615C47.3668 19.9166 47.3325 19.9681 47.2924 20.0148C47.2859 20.0226 47.281 20.0313 47.2762 20.04C47.2704 20.0507 47.2645 20.0613 47.2555 20.0703C47.2508 20.0749 47.2452 20.0779 47.2397 20.0809C47.2346 20.0837 47.2294 20.0865 47.225 20.0906C47.1729 20.1361 47.115 20.1745 47.0526 20.2047C47.0299 20.2189 47.0063 20.232 46.9822 20.2439C46.8943 20.2785 46.8008 20.2967 46.7062 20.2976H46.7058H46.7055L46.7047 20.2975C46.6509 20.2975 46.5972 20.2919 46.5445 20.281C46.532 20.2784 46.5214 20.2727 46.5107 20.267C46.5018 20.2622 46.4928 20.2574 46.4828 20.2544C46.3839 20.2219 46.2918 20.1718 46.2105 20.1068C46.2027 20.1002 46.194 20.0954 46.1853 20.0906C46.1748 20.0849 46.1643 20.0791 46.1555 20.0703L43.409 17.3299C42.7945 16.743 41.8258 16.743 41.2111 17.3299C40.6201 17.9133 40.5959 18.8585 41.1564 19.4712L41.1601 19.4771C41.1638 19.4812 41.1675 19.4852 41.1712 19.4893C41.1823 19.5014 41.1935 19.5135 41.2036 19.5265L45.6678 23.9721C45.8651 24.1679 45.9426 24.4539 45.8711 24.7222C45.7996 24.9906 45.59 25.2004 45.3214 25.2725C45.0527 25.3446 44.7659 25.268 44.5692 25.0716L40.1118 20.6306L40.1113 20.6299L40.1111 20.6299L40.11 20.6286C40.0686 20.5872 40.0354 20.5527 40.0041 20.5154L37.3797 17.8961C37.3764 17.893 37.3726 17.891 37.3687 17.8889C37.3647 17.8867 37.3606 17.8845 37.3572 17.8811C36.8561 17.3808 36.098 17.2935 35.5071 17.6191C35.7858 18.6147 35.9468 19.7115 35.9901 20.9096L36.2427 21.1634C36.2451 21.1658 36.2478 21.1678 36.2505 21.1698C36.2533 21.1719 36.2562 21.1739 36.2587 21.1765L36.2647 21.1855L43.4443 28.3443C43.7455 28.6479 43.7442 29.1374 43.4416 29.4395C43.1389 29.7416 42.6485 29.7428 42.3443 29.4423L35.9367 23.0478C35.8169 24.3479 35.5322 25.5187 35.0828 26.5601C35.0796 26.5674 35.0764 26.5747 35.0731 26.582L40.6195 32.1181C40.9232 32.4213 40.9232 32.9129 40.6195 33.2161C40.3156 33.5193 39.8231 33.5193 39.5193 33.2161L34.3086 28.0152C33.8107 28.7963 33.2177 29.4907 32.5296 30.0982C32.4341 30.1822 32.337 30.2644 32.2381 30.3447L37.3441 35.4408C37.3481 35.4447 37.3491 35.4501 37.3529 35.454C37.3549 35.456 37.3571 35.4573 37.3594 35.4587C37.3618 35.4601 37.3642 35.4614 37.3662 35.4636C37.3947 35.5015 37.4194 35.542 37.44 35.5847C37.47 35.6249 37.4963 35.668 37.5182 35.7133C37.5327 35.7612 37.5423 35.8105 37.5469 35.8605C37.5589 35.908 37.5663 35.9565 37.5691 36.0054C37.5523 36.1028 37.5313 36.1994 37.5065 36.2951C37.4823 36.3405 37.4536 36.3835 37.4211 36.4234C37.3991 36.4641 37.3734 36.5028 37.3442 36.5387C37.3429 36.5401 37.3413 36.5411 37.3397 36.542C37.3367 36.5437 37.3336 36.545 37.331 36.5475C37.329 36.5494 37.3277 36.5517 37.3263 36.554C37.325 36.5563 37.3236 36.5587 37.3214 36.5607C33.522 39.9669 29.4073 43.0057 25.0328 45.6362C24.7837 45.7879 24.4706 45.7879 24.2214 45.6362C19.8468 43.0057 15.7321 39.9669 11.9327 36.5607C11.9306 36.5587 11.9292 36.5564 11.9278 36.554C11.9265 36.5517 11.9251 36.5494 11.9231 36.5475C11.9212 36.5456 11.9189 36.5445 11.9167 36.5433C11.9143 36.542 11.9119 36.5407 11.9099 36.5387C11.8806 36.5028 11.8549 36.4641 11.833 36.4234C11.8004 36.3834 11.7718 36.3405 11.7476 36.2951C11.7313 36.2476 11.7196 36.1985 11.7128 36.1487C11.6776 36.0562 11.6755 35.9543 11.7071 35.8605C11.7118 35.8106 11.7214 35.7613 11.7358 35.7133C11.7577 35.668 11.7839 35.6249 11.814 35.5847C11.8346 35.542 11.8593 35.5015 11.8877 35.4636C11.8897 35.4615 11.892 35.4601 11.8944 35.4587C11.8967 35.4574 11.899 35.456 11.901 35.454C11.9029 35.4521 11.9041 35.4498 11.9053 35.4475C11.9065 35.4452 11.9078 35.4428 11.9098 35.4408L16.213 31.146C15.6424 30.3955 15.3037 29.4594 15.3037 28.4443V27.6574L9.73459 33.2161C9.53803 33.4122 9.25158 33.4888 8.98318 33.417C8.71478 33.3452 8.50509 33.136 8.43316 32.8681C8.36123 32.6001 8.4379 32.3143 8.63446 32.1181L14.6452 26.1189L14.6455 26.1184L14.6465 26.1177L15.3037 25.4616V21.8255C14.8812 21.7967 14.4485 21.9393 14.1195 22.2551L14.1007 22.274L6.90983 29.4425C6.71327 29.6386 6.42682 29.7152 6.15842 29.6434C5.89002 29.5716 5.68034 29.3624 5.60841 29.0944C5.53647 28.8265 5.61324 28.5407 5.8097 28.3445L14.0931 20.0765L14.1022 20.0704C14.7014 19.4628 14.6983 18.4868 14.0953 17.8829C13.4804 17.2944 12.5101 17.2944 11.8952 17.8829C11.8917 17.8863 11.8877 17.8884 11.8836 17.8906C11.8797 17.8927 11.8759 17.8947 11.8726 17.8978L9.17454 20.5905C9.16896 20.5962 9.16435 20.6025 9.15973 20.6087C9.15491 20.6153 9.15009 20.6218 9.14418 20.6277C9.14107 20.6307 9.13745 20.6327 9.13383 20.6346C9.13034 20.6364 9.12685 20.6383 9.12385 20.6411L4.68451 25.0717C4.48777 25.2681 4.20095 25.3446 3.93237 25.2726C3.66379 25.2005 3.4541 24.9907 3.38262 24.7223C3.31115 24.454 3.38864 24.1679 3.58593 23.9722L8.07441 19.4925C8.65734 18.8756 8.63555 17.9057 8.02564 17.3154C7.41572 16.7252 6.44378 16.7333 5.84389 17.3337L5.83478 17.3397L3.09818 20.0703C3.08929 20.0791 3.0788 20.0849 3.06829 20.0907C3.05963 20.0954 3.05094 20.1002 3.04312 20.1068C3.00273 20.1401 2.95897 20.1692 2.91256 20.1934C2.86762 20.2186 2.82012 20.2391 2.77089 20.2545C2.76091 20.2575 2.75198 20.2623 2.74308 20.267C2.73237 20.2728 2.7217 20.2785 2.70926 20.2811C2.68318 20.2827 2.65702 20.2829 2.63085 20.2817C2.60368 20.2885 2.57606 20.2939 2.54825 20.2978C2.53391 20.2978 2.51995 20.294 2.50596 20.2902C2.49478 20.2872 2.48358 20.2841 2.47213 20.283C2.37467 20.2734 2.27994 20.245 2.19324 20.1996C2.14784 20.1757 2.10499 20.1472 2.06534 20.1148C2.04218 20.1011 2.01984 20.0863 1.99833 20.0703C1.98912 20.0611 1.98316 20.0503 1.97719 20.0395C1.97236 20.0308 1.96752 20.022 1.96095 20.0141C1.89604 19.9333 1.84617 19.8416 1.81362 19.7432C1.81061 19.7334 1.80586 19.7246 1.80112 19.7158C1.79535 19.7051 1.7896 19.6944 1.787 19.682C0.509095 13.6523 1.7178 8.41884 5.10324 5.32216C7.91861 2.84522 11.7118 1.78445 15.4068 2.44076C19.2373 3.12483 22.5924 5.40996 24.6269 8.72065C26.6614 5.40996 30.0165 3.12483 33.847 2.44076ZM17.3504 32.2L13.5269 36.0158C16.9654 39.0264 20.6563 41.7372 24.5588 44.1187C28.4613 41.7373 32.1522 39.0264 35.5907 36.0158L30.8526 31.2874C30.1881 31.6633 29.4648 31.9768 28.6827 32.2279C27.2075 32.6859 25.5961 32.9149 23.8486 32.9149H19.779C18.8838 32.9149 18.0499 32.6523 17.3504 32.2ZM34.9924 16.1744C36.1195 15.7053 37.4489 15.9364 38.3531 16.8207C38.359 16.8258 38.3656 16.8294 38.3722 16.8329C38.3798 16.8371 38.3874 16.8412 38.3939 16.8477L39.2388 17.6909C39.3792 17.1642 39.6554 16.6835 40.0399 16.2966C41.2704 15.1243 43.2069 15.1243 44.4372 16.2966L46.1244 17.9799C46.8268 13.1273 45.7316 9.00754 43.0274 6.53449C40.5546 4.4001 37.2531 3.48481 34.0316 4.04051C30.5754 4.61292 27.5975 6.74758 25.5835 10.0794C26.6885 10.1811 27.7329 10.3847 28.7167 10.6902C30.2146 11.1482 31.4969 11.8467 32.5636 12.7856C33.5985 13.6775 34.4081 14.8071 34.9924 16.1744ZM23.4877 10.0032H18.2873C16.6395 10.0032 15.3037 11.3375 15.3037 12.9836V17.0395C15.2486 16.9741 15.1905 16.9106 15.1293 16.8491C13.9125 15.6882 11.9997 15.675 10.767 16.8191C10.7607 16.8246 10.7535 16.8285 10.7464 16.8324C10.7382 16.8369 10.7299 16.8414 10.723 16.8484L9.87157 17.6981C9.73648 17.1702 9.46294 16.6879 9.0792 16.3003C7.87155 15.0975 5.91847 15.0897 4.70116 16.2828C4.6981 16.2857 4.69456 16.2876 4.69103 16.2894C4.68731 16.2914 4.6836 16.2934 4.68047 16.2965L2.99319 17.9798C2.29087 13.1272 3.38595 9.00745 6.0902 6.53449C8.56283 4.40001 11.8644 3.48463 15.086 4.04051C18.5158 4.60846 21.4746 6.71502 23.4877 10.0032ZM28.8189 26.5257C27.5933 27.7166 25.8458 28.312 23.5762 28.312H20.4443V14.5718H23.5762C24.8018 14.5718 25.8571 14.7435 26.7422 15.087C27.6273 15.4077 28.3536 15.8771 28.921 16.4954C29.5111 17.0908 29.9423 17.8236 30.2146 18.6938C30.5097 19.5412 30.6572 20.4915 30.6572 21.5449C30.6572 23.6518 30.0444 25.312 28.8189 26.5257Z" fill="black"/>
<path fill-rule="evenodd" clip-rule="evenodd" d="M33.847 2.44076C37.5421 1.78345 41.3357 2.84431 44.1506 5.32216C47.5359 8.41884 48.7446 13.6523 47.4666 19.6821C47.4584 19.706 47.449 19.7295 47.4383 19.7525C47.4266 19.7899 47.4118 19.8264 47.3943 19.8615C47.3668 19.9166 47.3325 19.9681 47.2924 20.0148C47.2859 20.0226 47.281 20.0313 47.2762 20.04C47.2704 20.0507 47.2645 20.0613 47.2555 20.0703C47.2508 20.0749 47.2452 20.0779 47.2397 20.0809C47.2346 20.0837 47.2294 20.0865 47.225 20.0906C47.1729 20.1361 47.115 20.1745 47.0526 20.2047C47.0299 20.2189 47.0063 20.232 46.9822 20.2439C46.8943 20.2785 46.8008 20.2967 46.7062 20.2976H46.7058H46.7055L46.7047 20.2975C46.6509 20.2975 46.5972 20.2919 46.5445 20.281C46.532 20.2784 46.5214 20.2727 46.5107 20.267C46.5018 20.2622 46.4928 20.2574 46.4828 20.2544C46.3839 20.2219 46.2918 20.1718 46.2105 20.1068C46.2027 20.1002 46.194 20.0954 46.1853 20.0906C46.1748 20.0849 46.1643 20.0791 46.1555 20.0703L43.409 17.3299C42.7945 16.743 41.8258 16.743 41.2111 17.3299C40.6201 17.9133 40.5959 18.8585 41.1564 19.4712L41.1601 19.4771C41.1638 19.4812 41.1675 19.4852 41.1712 19.4893C41.1823 19.5014 41.1935 19.5135 41.2036 19.5265L45.6678 23.9721C45.8651 24.1679 45.9426 24.4539 45.8711 24.7222C45.7996 24.9906 45.59 25.2004 45.3214 25.2725C45.0527 25.3446 44.7659 25.268 44.5692 25.0716L40.1118 20.6306L40.1113 20.6299L40.1111 20.6299L40.11 20.6286C40.0686 20.5872 40.0354 20.5527 40.0041 20.5154L37.3797 17.8961C37.3764 17.893 37.3726 17.891 37.3687 17.8889C37.3647 17.8867 37.3606 17.8845 37.3572 17.8811C36.8561 17.3808 36.098 17.2935 35.5071 17.6191C35.7858 18.6147 35.9468 19.7115 35.9901 20.9096L36.2427 21.1634C36.2451 21.1658 36.2478 21.1678 36.2505 21.1698C36.2533 21.1719 36.2562 21.1739 36.2587 21.1765L36.2647 21.1855L43.4443 28.3443C43.7455 28.6479 43.7442 29.1374 43.4416 29.4395C43.1389 29.7416 42.6485 29.7428 42.3443 29.4423L35.9367 23.0478C35.8169 24.3479 35.5322 25.5187 35.0828 26.5601C35.0796 26.5674 35.0764 26.5747 35.0731 26.582L40.6195 32.1181C40.9232 32.4213 40.9232 32.9129 40.6195 33.2161C40.3156 33.5193 39.8231 33.5193 39.5193 33.2161L34.3086 28.0152C33.8107 28.7963 33.2177 29.4907 32.5296 30.0982C32.4341 30.1822 32.337 30.2644 32.2381 30.3447L37.3441 35.4408C37.3481 35.4447 37.3491 35.4501 37.3529 35.454C37.3549 35.456 37.3571 35.4573 37.3594 35.4587C37.3618 35.4601 37.3642 35.4614 37.3662 35.4636C37.3947 35.5015 37.4194 35.542 37.44 35.5847C37.47 35.6249 37.4963 35.668 37.5182 35.7133C37.5327 35.7612 37.5423 35.8105 37.5469 35.8605C37.5589 35.908 37.5663 35.9565 37.5691 36.0054C37.5523 36.1028 37.5313 36.1994 37.5065 36.2951C37.4823 36.3405 37.4536 36.3835 37.4211 36.4234C37.3991 36.4641 37.3734 36.5028 37.3442 36.5387C37.3429 36.5401 37.3413 36.5411 37.3397 36.542C37.3367 36.5437 37.3336 36.545 37.331 36.5475C37.329 36.5494 37.3277 36.5517 37.3263 36.554C37.325 36.5563 37.3236 36.5587 37.3214 36.5607C33.522 39.9669 29.4073 43.0057 25.0328 45.6362C24.7837 45.7879 24.4706 45.7879 24.2214 45.6362C19.8468 43.0057 15.7321 39.9669 11.9327 36.5607C11.9306 36.5587 11.9292 36.5564 11.9278 36.554C11.9265 36.5517 11.9251 36.5494 11.9231 36.5475C11.9212 36.5456 11.9189 36.5445 11.9167 36.5433C11.9143 36.542 11.9119 36.5407 11.9099 36.5387C11.8806 36.5028 11.8549 36.4641 11.833 36.4234C11.8004 36.3834 11.7718 36.3405 11.7476 36.2951C11.7313 36.2476 11.7196 36.1985 11.7128 36.1487C11.6776 36.0562 11.6755 35.9543 11.7071 35.8605C11.7118 35.8106 11.7214 35.7613 11.7358 35.7133C11.7577 35.668 11.7839 35.6249 11.814 35.5847C11.8346 35.542 11.8593 35.5015 11.8877 35.4636C11.8897 35.4615 11.892 35.4601 11.8944 35.4587C11.8967 35.4574 11.899 35.456 11.901 35.454C11.9029 35.4521 11.9041 35.4498 11.9053 35.4475C11.9065 35.4452 11.9078 35.4428 11.9098 35.4408L16.213 31.146C15.6424 30.3955 15.3037 29.4594 15.3037 28.4443V27.6574L9.73459 33.2161C9.53803 33.4122 9.25158 33.4888 8.98318 33.417C8.71478 33.3452 8.50509 33.136 8.43316 32.8681C8.36123 32.6001 8.4379 32.3143 8.63446 32.1181L14.6452 26.1189L14.6455 26.1184L14.6465 26.1177L15.3037 25.4616V21.8255C14.8812 21.7967 14.4485 21.9393 14.1195 22.2551L14.1007 22.274L6.90983 29.4425C6.71327 29.6386 6.42682 29.7152 6.15842 29.6434C5.89002 29.5716 5.68034 29.3624 5.60841 29.0944C5.53647 28.8265 5.61324 28.5407 5.8097 28.3445L14.0931 20.0765L14.1022 20.0704C14.7014 19.4628 14.6983 18.4868 14.0953 17.8829C13.4804 17.2944 12.5101 17.2944 11.8952 17.8829C11.8917 17.8863 11.8877 17.8884 11.8836 17.8906C11.8797 17.8927 11.8759 17.8947 11.8726 17.8978L9.17454 20.5905C9.16896 20.5962 9.16435 20.6025 9.15973 20.6087C9.15491 20.6153 9.15009 20.6218 9.14418 20.6277C9.14107 20.6307 9.13745 20.6327 9.13383 20.6346C9.13034 20.6364 9.12685 20.6383 9.12385 20.6411L4.68451 25.0717C4.48777 25.2681 4.20095 25.3446 3.93237 25.2726C3.66379 25.2005 3.4541 24.9907 3.38262 24.7223C3.31115 24.454 3.38864 24.1679 3.58593 23.9722L8.07441 19.4925C8.65734 18.8756 8.63555 17.9057 8.02564 17.3154C7.41572 16.7252 6.44378 16.7333 5.84389 17.3337L5.83478 17.3397L3.09818 20.0703C3.08929 20.0791 3.0788 20.0849 3.06829 20.0907C3.05963 20.0954 3.05094 20.1002 3.04312 20.1068C3.00273 20.1401 2.95897 20.1692 2.91256 20.1934C2.86762 20.2186 2.82012 20.2391 2.77089 20.2545C2.76091 20.2575 2.75198 20.2623 2.74308 20.267C2.73237 20.2728 2.7217 20.2785 2.70926 20.2811C2.68318 20.2827 2.65702 20.2829 2.63085 20.2817C2.60368 20.2885 2.57606 20.2939 2.54825 20.2978C2.53391 20.2978 2.51995 20.294 2.50596 20.2902C2.49478 20.2872 2.48358 20.2841 2.47213 20.283C2.37467 20.2734 2.27994 20.245 2.19324 20.1996C2.14784 20.1757 2.10499 20.1472 2.06534 20.1148C2.04218 20.1011 2.01984 20.0863 1.99833 20.0703C1.98912 20.0611 1.98316 20.0503 1.97719 20.0395C1.97236 20.0308 1.96752 20.022 1.96095 20.0141C1.89604 19.9333 1.84617 19.8416 1.81362 19.7432C1.81061 19.7334 1.80586 19.7246 1.80112 19.7158C1.79535 19.7051 1.7896 19.6944 1.787 19.682C0.509095 13.6523 1.7178 8.41884 5.10324 5.32216C7.91861 2.84522 11.7118 1.78445 15.4068 2.44076C19.2373 3.12483 22.5924 5.40996 24.6269 8.72065C26.6614 5.40996 30.0165 3.12483 33.847 2.44076ZM17.3504 32.2L13.5269 36.0158C16.9654 39.0264 20.6563 41.7372 24.5588 44.1187C28.4613 41.7373 32.1522 39.0264 35.5907 36.0158L30.8526 31.2874C30.1881 31.6633 29.4648 31.9768 28.6827 32.2279C27.2075 32.6859 25.5961 32.9149 23.8486 32.9149H19.779C18.8838 32.9149 18.0499 32.6523 17.3504 32.2ZM34.9924 16.1744C36.1195 15.7053 37.4489 15.9364 38.3531 16.8207C38.359 16.8258 38.3656 16.8294 38.3722 16.8329C38.3798 16.8371 38.3874 16.8412 38.3939 16.8477L39.2388 17.6909C39.3792 17.1642 39.6554 16.6835 40.0399 16.2966C41.2704 15.1243 43.2069 15.1243 44.4372 16.2966L46.1244 17.9799C46.8268 13.1273 45.7316 9.00754 43.0274 6.53449C40.5546 4.4001 37.2531 3.48481 34.0316 4.04051C30.5754 4.61292 27.5975 6.74758 25.5835 10.0794C26.6885 10.1811 27.7329 10.3847 28.7167 10.6902C30.2146 11.1482 31.4969 11.8467 32.5636 12.7856C33.5985 13.6775 34.4081 14.8071 34.9924 16.1744ZM23.4877 10.0032H18.2873C16.6395 10.0032 15.3037 11.3375 15.3037 12.9836V17.0395C15.2486 16.9741 15.1905 16.9106 15.1293 16.8491C13.9125 15.6882 11.9997 15.675 10.767 16.8191C10.7607 16.8246 10.7535 16.8285 10.7464 16.8324C10.7382 16.8369 10.7299 16.8414 10.723 16.8484L9.87157 17.6981C9.73648 17.1702 9.46294 16.6879 9.0792 16.3003C7.87155 15.0975 5.91847 15.0897 4.70116 16.2828C4.6981 16.2857 4.69456 16.2876 4.69103 16.2894C4.68731 16.2914 4.6836 16.2934 4.68047 16.2965L2.99319 17.9798C2.29087 13.1272 3.38595 9.00745 6.0902 6.53449C8.56283 4.40001 11.8644 3.48463 15.086 4.04051C18.5158 4.60846 21.4746 6.71502 23.4877 10.0032ZM28.8189 26.5257C27.5933 27.7166 25.8458 28.312 23.5762 28.312H20.4443V14.5718H23.5762C24.8018 14.5718 25.8571 14.7435 26.7422 15.087C27.6273 15.4077 28.3536 15.8771 28.921 16.4954C29.5111 17.0908 29.9423 17.8236 30.2146 18.6938C30.5097 19.5412 30.6572 20.4915 30.6572 21.5449C30.6572 23.6518 30.0444 25.312 28.8189 26.5257Z" fill="url(#paint0_linear_32005_4522)"/>
<path fill-rule="evenodd" clip-rule="evenodd" d="M33.847 2.44076C37.5421 1.78345 41.3357 2.84431 44.1506 5.32216C47.5359 8.41884 48.7446 13.6523 47.4666 19.6821C47.4584 19.706 47.449 19.7295 47.4383 19.7525C47.4266 19.7899 47.4118 19.8264 47.3943 19.8615C47.3668 19.9166 47.3325 19.9681 47.2924 20.0148C47.2859 20.0226 47.281 20.0313 47.2762 20.04C47.2704 20.0507 47.2645 20.0613 47.2555 20.0703C47.2508 20.0749 47.2452 20.0779 47.2397 20.0809C47.2346 20.0837 47.2294 20.0865 47.225 20.0906C47.1729 20.1361 47.115 20.1745 47.0526 20.2047C47.0299 20.2189 47.0063 20.232 46.9822 20.2439C46.8943 20.2785 46.8008 20.2967 46.7062 20.2976H46.7058H46.7055L46.7047 20.2975C46.6509 20.2975 46.5972 20.2919 46.5445 20.281C46.532 20.2784 46.5214 20.2727 46.5107 20.267C46.5018 20.2622 46.4928 20.2574 46.4828 20.2544C46.3839 20.2219 46.2918 20.1718 46.2105 20.1068C46.2027 20.1002 46.194 20.0954 46.1853 20.0906C46.1748 20.0849 46.1643 20.0791 46.1555 20.0703L43.409 17.3299C42.7945 16.743 41.8258 16.743 41.2111 17.3299C40.6201 17.9133 40.5959 18.8585 41.1564 19.4712L41.1601 19.4771C41.1638 19.4812 41.1675 19.4852 41.1712 19.4893C41.1823 19.5014 41.1935 19.5135 41.2036 19.5265L45.6678 23.9721C45.8651 24.1679 45.9426 24.4539 45.8711 24.7222C45.7996 24.9906 45.59 25.2004 45.3214 25.2725C45.0527 25.3446 44.7659 25.268 44.5692 25.0716L40.1118 20.6306L40.1113 20.6299L40.1111 20.6299L40.11 20.6286C40.0686 20.5872 40.0354 20.5527 40.0041 20.5154L37.3797 17.8961C37.3764 17.893 37.3726 17.891 37.3687 17.8889C37.3647 17.8867 37.3606 17.8845 37.3572 17.8811C36.8561 17.3808 36.098 17.2935 35.5071 17.6191C35.7858 18.6147 35.9468 19.7115 35.9901 20.9096L36.2427 21.1634C36.2451 21.1658 36.2478 21.1678 36.2505 21.1698C36.2533 21.1719 36.2562 21.1739 36.2587 21.1765L36.2647 21.1855L43.4443 28.3443C43.7455 28.6479 43.7442 29.1374 43.4416 29.4395C43.1389 29.7416 42.6485 29.7428 42.3443 29.4423L35.9367 23.0478C35.8169 24.3479 35.5322 25.5187 35.0828 26.5601C35.0796 26.5674 35.0764 26.5747 35.0731 26.582L40.6195 32.1181C40.9232 32.4213 40.9232 32.9129 40.6195 33.2161C40.3156 33.5193 39.8231 33.5193 39.5193 33.2161L34.3086 28.0152C33.8107 28.7963 33.2177 29.4907 32.5296 30.0982C32.4341 30.1822 32.337 30.2644 32.2381 30.3447L37.3441 35.4408C37.3481 35.4447 37.3491 35.4501 37.3529 35.454C37.3549 35.456 37.3571 35.4573 37.3594 35.4587C37.3618 35.4601 37.3642 35.4614 37.3662 35.4636C37.3947 35.5015 37.4194 35.542 37.44 35.5847C37.47 35.6249 37.4963 35.668 37.5182 35.7133C37.5327 35.7612 37.5423 35.8105 37.5469 35.8605C37.5589 35.908 37.5663 35.9565 37.5691 36.0054C37.5523 36.1028 37.5313 36.1994 37.5065 36.2951C37.4823 36.3405 37.4536 36.3835 37.4211 36.4234C37.3991 36.4641 37.3734 36.5028 37.3442 36.5387C37.3429 36.5401 37.3413 36.5411 37.3397 36.542C37.3367 36.5437 37.3336 36.545 37.331 36.5475C37.329 36.5494 37.3277 36.5517 37.3263 36.554C37.325 36.5563 37.3236 36.5587 37.3214 36.5607C33.522 39.9669 29.4073 43.0057 25.0328 45.6362C24.7837 45.7879 24.4706 45.7879 24.2214 45.6362C19.8468 43.0057 15.7321 39.9669 11.9327 36.5607C11.9306 36.5587 11.9292 36.5564 11.9278 36.554C11.9265 36.5517 11.9251 36.5494 11.9231 36.5475C11.9212 36.5456 11.9189 36.5445 11.9167 36.5433C11.9143 36.542 11.9119 36.5407 11.9099 36.5387C11.8806 36.5028 11.8549 36.4641 11.833 36.4234C11.8004 36.3834 11.7718 36.3405 11.7476 36.2951C11.7313 36.2476 11.7196 36.1985 11.7128 36.1487C11.6776 36.0562 11.6755 35.9543 11.7071 35.8605C11.7118 35.8106 11.7214 35.7613 11.7358 35.7133C11.7577 35.668 11.7839 35.6249 11.814 35.5847C11.8346 35.542 11.8593 35.5015 11.8877 35.4636C11.8897 35.4615 11.892 35.4601 11.8944 35.4587C11.8967 35.4574 11.899 35.456 11.901 35.454C11.9029 35.4521 11.9041 35.4498 11.9053 35.4475C11.9065 35.4452 11.9078 35.4428 11.9098 35.4408L16.213 31.146C15.6424 30.3955 15.3037 29.4594 15.3037 28.4443V27.6574L9.73459 33.2161C9.53803 33.4122 9.25158 33.4888 8.98318 33.417C8.71478 33.3452 8.50509 33.136 8.43316 32.8681C8.36123 32.6001 8.4379 32.3143 8.63446 32.1181L14.6452 26.1189L14.6455 26.1184L14.6465 26.1177L15.3037 25.4616V21.8255C14.8812 21.7967 14.4485 21.9393 14.1195 22.2551L14.1007 22.274L6.90983 29.4425C6.71327 29.6386 6.42682 29.7152 6.15842 29.6434C5.89002 29.5716 5.68034 29.3624 5.60841 29.0944C5.53647 28.8265 5.61324 28.5407 5.8097 28.3445L14.0931 20.0765L14.1022 20.0704C14.7014 19.4628 14.6983 18.4868 14.0953 17.8829C13.4804 17.2944 12.5101 17.2944 11.8952 17.8829C11.8917 17.8863 11.8877 17.8884 11.8836 17.8906C11.8797 17.8927 11.8759 17.8947 11.8726 17.8978L9.17454 20.5905C9.16896 20.5962 9.16435 20.6025 9.15973 20.6087C9.15491 20.6153 9.15009 20.6218 9.14418 20.6277C9.14107 20.6307 9.13745 20.6327 9.13383 20.6346C9.13034 20.6364 9.12685 20.6383 9.12385 20.6411L4.68451 25.0717C4.48777 25.2681 4.20095 25.3446 3.93237 25.2726C3.66379 25.2005 3.4541 24.9907 3.38262 24.7223C3.31115 24.454 3.38864 24.1679 3.58593 23.9722L8.07441 19.4925C8.65734 18.8756 8.63555 17.9057 8.02564 17.3154C7.41572 16.7252 6.44378 16.7333 5.84389 17.3337L5.83478 17.3397L3.09818 20.0703C3.08929 20.0791 3.0788 20.0849 3.06829 20.0907C3.05963 20.0954 3.05094 20.1002 3.04312 20.1068C3.00273 20.1401 2.95897 20.1692 2.91256 20.1934C2.86762 20.2186 2.82012 20.2391 2.77089 20.2545C2.76091 20.2575 2.75198 20.2623 2.74308 20.267C2.73237 20.2728 2.7217 20.2785 2.70926 20.2811C2.68318 20.2827 2.65702 20.2829 2.63085 20.2817C2.60368 20.2885 2.57606 20.2939 2.54825 20.2978C2.53391 20.2978 2.51995 20.294 2.50596 20.2902C2.49478 20.2872 2.48358 20.2841 2.47213 20.283C2.37467 20.2734 2.27994 20.245 2.19324 20.1996C2.14784 20.1757 2.10499 20.1472 2.06534 20.1148C2.04218 20.1011 2.01984 20.0863 1.99833 20.0703C1.98912 20.0611 1.98316 20.0503 1.97719 20.0395C1.97236 20.0308 1.96752 20.022 1.96095 20.0141C1.89604 19.9333 1.84617 19.8416 1.81362 19.7432C1.81061 19.7334 1.80586 19.7246 1.80112 19.7158C1.79535 19.7051 1.7896 19.6944 1.787 19.682C0.509095 13.6523 1.7178 8.41884 5.10324 5.32216C7.91861 2.84522 11.7118 1.78445 15.4068 2.44076C19.2373 3.12483 22.5924 5.40996 24.6269 8.72065C26.6614 5.40996 30.0165 3.12483 33.847 2.44076ZM17.3504 32.2L13.5269 36.0158C16.9654 39.0264 20.6563 41.7372 24.5588 44.1187C28.4613 41.7373 32.1522 39.0264 35.5907 36.0158L30.8526 31.2874C30.1881 31.6633 29.4648 31.9768 28.6827 32.2279C27.2075 32.6859 25.5961 32.9149 23.8486 32.9149H19.779C18.8838 32.9149 18.0499 32.6523 17.3504 32.2ZM34.9924 16.1744C36.1195 15.7053 37.4489 15.9364 38.3531 16.8207C38.359 16.8258 38.3656 16.8294 38.3722 16.8329C38.3798 16.8371 38.3874 16.8412 38.3939 16.8477L39.2388 17.6909C39.3792 17.1642 39.6554 16.6835 40.0399 16.2966C41.2704 15.1243 43.2069 15.1243 44.4372 16.2966L46.1244 17.9799C46.8268 13.1273 45.7316 9.00754 43.0274 6.53449C40.5546 4.4001 37.2531 3.48481 34.0316 4.04051C30.5754 4.61292 27.5975 6.74758 25.5835 10.0794C26.6885 10.1811 27.7329 10.3847 28.7167 10.6902C30.2146 11.1482 31.4969 11.8467 32.5636 12.7856C33.5985 13.6775 34.4081 14.8071 34.9924 16.1744ZM23.4877 10.0032H18.2873C16.6395 10.0032 15.3037 11.3375 15.3037 12.9836V17.0395C15.2486 16.9741 15.1905 16.9106 15.1293 16.8491C13.9125 15.6882 11.9997 15.675 10.767 16.8191C10.7607 16.8246 10.7535 16.8285 10.7464 16.8324C10.7382 16.8369 10.7299 16.8414 10.723 16.8484L9.87157 17.6981C9.73648 17.1702 9.46294 16.6879 9.0792 16.3003C7.87155 15.0975 5.91847 15.0897 4.70116 16.2828C4.6981 16.2857 4.69456 16.2876 4.69103 16.2894C4.68731 16.2914 4.6836 16.2934 4.68047 16.2965L2.99319 17.9798C2.29087 13.1272 3.38595 9.00745 6.0902 6.53449C8.56283 4.40001 11.8644 3.48463 15.086 4.04051C18.5158 4.60846 21.4746 6.71502 23.4877 10.0032ZM28.8189 26.5257C27.5933 27.7166 25.8458 28.312 23.5762 28.312H20.4443V14.5718H23.5762C24.8018 14.5718 25.8571 14.7435 26.7422 15.087C27.6273 15.4077 28.3536 15.8771 28.921 16.4954C29.5111 17.0908 29.9423 17.8236 30.2146 18.6938C30.5097 19.5412 30.6572 20.4915 30.6572 21.5449C30.6572 23.6518 30.0444 25.312 28.8189 26.5257Z" fill="url(#paint1_linear_32005_4522)"/>
<path fill-rule="evenodd" clip-rule="evenodd" d="M33.847 2.44076C37.5421 1.78345 41.3357 2.84431 44.1506 5.32216C47.5359 8.41884 48.7446 13.6523 47.4666 19.6821C47.4584 19.706 47.449 19.7295 47.4383 19.7525C47.4266 19.7899 47.4118 19.8264 47.3943 19.8615C47.3668 19.9166 47.3325 19.9681 47.2924 20.0148C47.2859 20.0226 47.281 20.0313 47.2762 20.04C47.2704 20.0507 47.2645 20.0613 47.2555 20.0703C47.2508 20.0749 47.2452 20.0779 47.2397 20.0809C47.2346 20.0837 47.2294 20.0865 47.225 20.0906C47.1729 20.1361 47.115 20.1745 47.0526 20.2047C47.0299 20.2189 47.0063 20.232 46.9822 20.2439C46.8943 20.2785 46.8008 20.2967 46.7062 20.2976H46.7058H46.7055L46.7047 20.2975C46.6509 20.2975 46.5972 20.2919 46.5445 20.281C46.532 20.2784 46.5214 20.2727 46.5107 20.267C46.5018 20.2622 46.4928 20.2574 46.4828 20.2544C46.3839 20.2219 46.2918 20.1718 46.2105 20.1068C46.2027 20.1002 46.194 20.0954 46.1853 20.0906C46.1748 20.0849 46.1643 20.0791 46.1555 20.0703L43.409 17.3299C42.7945 16.743 41.8258 16.743 41.2111 17.3299C40.6201 17.9133 40.5959 18.8585 41.1564 19.4712L41.1601 19.4771C41.1638 19.4812 41.1675 19.4852 41.1712 19.4893C41.1823 19.5014 41.1935 19.5135 41.2036 19.5265L45.6678 23.9721C45.8651 24.1679 45.9426 24.4539 45.8711 24.7222C45.7996 24.9906 45.59 25.2004 45.3214 25.2725C45.0527 25.3446 44.7659 25.268 44.5692 25.0716L40.1118 20.6306L40.1113 20.6299L40.1111 20.6299L40.11 20.6286C40.0686 20.5872 40.0354 20.5527 40.0041 20.5154L37.3797 17.8961C37.3764 17.893 37.3726 17.891 37.3687 17.8889C37.3647 17.8867 37.3606 17.8845 37.3572 17.8811C36.8561 17.3808 36.098 17.2935 35.5071 17.6191C35.7858 18.6147 35.9468 19.7115 35.9901 20.9096L36.2427 21.1634C36.2451 21.1658 36.2478 21.1678 36.2505 21.1698C36.2533 21.1719 36.2562 21.1739 36.2587 21.1765L36.2647 21.1855L43.4443 28.3443C43.7455 28.6479 43.7442 29.1374 43.4416 29.4395C43.1389 29.7416 42.6485 29.7428 42.3443 29.4423L35.9367 23.0478C35.8169 24.3479 35.5322 25.5187 35.0828 26.5601C35.0796 26.5674 35.0764 26.5747 35.0731 26.582L40.6195 32.1181C40.9232 32.4213 40.9232 32.9129 40.6195 33.2161C40.3156 33.5193 39.8231 33.5193 39.5193 33.2161L34.3086 28.0152C33.8107 28.7963 33.2177 29.4907 32.5296 30.0982C32.4341 30.1822 32.337 30.2644 32.2381 30.3447L37.3441 35.4408C37.3481 35.4447 37.3491 35.4501 37.3529 35.454C37.3549 35.456 37.3571 35.4573 37.3594 35.4587C37.3618 35.4601 37.3642 35.4614 37.3662 35.4636C37.3947 35.5015 37.4194 35.542 37.44 35.5847C37.47 35.6249 37.4963 35.668 37.5182 35.7133C37.5327 35.7612 37.5423 35.8105 37.5469 35.8605C37.5589 35.908 37.5663 35.9565 37.5691 36.0054C37.5523 36.1028 37.5313 36.1994 37.5065 36.2951C37.4823 36.3405 37.4536 36.3835 37.4211 36.4234C37.3991 36.4641 37.3734 36.5028 37.3442 36.5387C37.3429 36.5401 37.3413 36.5411 37.3397 36.542C37.3367 36.5437 37.3336 36.545 37.331 36.5475C37.329 36.5494 37.3277 36.5517 37.3263 36.554C37.325 36.5563 37.3236 36.5587 37.3214 36.5607C33.522 39.9669 29.4073 43.0057 25.0328 45.6362C24.7837 45.7879 24.4706 45.7879 24.2214 45.6362C19.8468 43.0057 15.7321 39.9669 11.9327 36.5607C11.9306 36.5587 11.9292 36.5564 11.9278 36.554C11.9265 36.5517 11.9251 36.5494 11.9231 36.5475C11.9212 36.5456 11.9189 36.5445 11.9167 36.5433C11.9143 36.542 11.9119 36.5407 11.9099 36.5387C11.8806 36.5028 11.8549 36.4641 11.833 36.4234C11.8004 36.3834 11.7718 36.3405 11.7476 36.2951C11.7313 36.2476 11.7196 36.1985 11.7128 36.1487C11.6776 36.0562 11.6755 35.9543 11.7071 35.8605C11.7118 35.8106 11.7214 35.7613 11.7358 35.7133C11.7577 35.668 11.7839 35.6249 11.814 35.5847C11.8346 35.542 11.8593 35.5015 11.8877 35.4636C11.8897 35.4615 11.892 35.4601 11.8944 35.4587C11.8967 35.4574 11.899 35.456 11.901 35.454C11.9029 35.4521 11.9041 35.4498 11.9053 35.4475C11.9065 35.4452 11.9078 35.4428 11.9098 35.4408L16.213 31.146C15.6424 30.3955 15.3037 29.4594 15.3037 28.4443V27.6574L9.73459 33.2161C9.53803 33.4122 9.25158 33.4888 8.98318 33.417C8.71478 33.3452 8.50509 33.136 8.43316 32.8681C8.36123 32.6001 8.4379 32.3143 8.63446 32.1181L14.6452 26.1189L14.6455 26.1184L14.6465 26.1177L15.3037 25.4616V21.8255C14.8812 21.7967 14.4485 21.9393 14.1195 22.2551L14.1007 22.274L6.90983 29.4425C6.71327 29.6386 6.42682 29.7152 6.15842 29.6434C5.89002 29.5716 5.68034 29.3624 5.60841 29.0944C5.53647 28.8265 5.61324 28.5407 5.8097 28.3445L14.0931 20.0765L14.1022 20.0704C14.7014 19.4628 14.6983 18.4868 14.0953 17.8829C13.4804 17.2944 12.5101 17.2944 11.8952 17.8829C11.8917 17.8863 11.8877 17.8884 11.8836 17.8906C11.8797 17.8927 11.8759 17.8947 11.8726 17.8978L9.17454 20.5905C9.16896 20.5962 9.16435 20.6025 9.15973 20.6087C9.15491 20.6153 9.15009 20.6218 9.14418 20.6277C9.14107 20.6307 9.13745 20.6327 9.13383 20.6346C9.13034 20.6364 9.12685 20.6383 9.12385 20.6411L4.68451 25.0717C4.48777 25.2681 4.20095 25.3446 3.93237 25.2726C3.66379 25.2005 3.4541 24.9907 3.38262 24.7223C3.31115 24.454 3.38864 24.1679 3.58593 23.9722L8.07441 19.4925C8.65734 18.8756 8.63555 17.9057 8.02564 17.3154C7.41572 16.7252 6.44378 16.7333 5.84389 17.3337L5.83478 17.3397L3.09818 20.0703C3.08929 20.0791 3.0788 20.0849 3.06829 20.0907C3.05963 20.0954 3.05094 20.1002 3.04312 20.1068C3.00273 20.1401 2.95897 20.1692 2.91256 20.1934C2.86762 20.2186 2.82012 20.2391 2.77089 20.2545C2.76091 20.2575 2.75198 20.2623 2.74308 20.267C2.73237 20.2728 2.7217 20.2785 2.70926 20.2811C2.68318 20.2827 2.65702 20.2829 2.63085 20.2817C2.60368 20.2885 2.57606 20.2939 2.54825 20.2978C2.53391 20.2978 2.51995 20.294 2.50596 20.2902C2.49478 20.2872 2.48358 20.2841 2.47213 20.283C2.37467 20.2734 2.27994 20.245 2.19324 20.1996C2.14784 20.1757 2.10499 20.1472 2.06534 20.1148C2.04218 20.1011 2.01984 20.0863 1.99833 20.0703C1.98912 20.0611 1.98316 20.0503 1.97719 20.0395C1.97236 20.0308 1.96752 20.022 1.96095 20.0141C1.89604 19.9333 1.84617 19.8416 1.81362 19.7432C1.81061 19.7334 1.80586 19.7246 1.80112 19.7158C1.79535 19.7051 1.7896 19.6944 1.787 19.682C0.509095 13.6523 1.7178 8.41884 5.10324 5.32216C7.91861 2.84522 11.7118 1.78445 15.4068 2.44076C19.2373 3.12483 22.5924 5.40996 24.6269 8.72065C26.6614 5.40996 30.0165 3.12483 33.847 2.44076ZM17.3504 32.2L13.5269 36.0158C16.9654 39.0264 20.6563 41.7372 24.5588 44.1187C28.4613 41.7373 32.1522 39.0264 35.5907 36.0158L30.8526 31.2874C30.1881 31.6633 29.4648 31.9768 28.6827 32.2279C27.2075 32.6859 25.5961 32.9149 23.8486 32.9149H19.779C18.8838 32.9149 18.0499 32.6523 17.3504 32.2ZM34.9924 16.1744C36.1195 15.7053 37.4489 15.9364 38.3531 16.8207C38.359 16.8258 38.3656 16.8294 38.3722 16.8329C38.3798 16.8371 38.3874 16.8412 38.3939 16.8477L39.2388 17.6909C39.3792 17.1642 39.6554 16.6835 40.0399 16.2966C41.2704 15.1243 43.2069 15.1243 44.4372 16.2966L46.1244 17.9799C46.8268 13.1273 45.7316 9.00754 43.0274 6.53449C40.5546 4.4001 37.2531 3.48481 34.0316 4.04051C30.5754 4.61292 27.5975 6.74758 25.5835 10.0794C26.6885 10.1811 27.7329 10.3847 28.7167 10.6902C30.2146 11.1482 31.4969 11.8467 32.5636 12.7856C33.5985 13.6775 34.4081 14.8071 34.9924 16.1744ZM23.4877 10.0032H18.2873C16.6395 10.0032 15.3037 11.3375 15.3037 12.9836V17.0395C15.2486 16.9741 15.1905 16.9106 15.1293 16.8491C13.9125 15.6882 11.9997 15.675 10.767 16.8191C10.7607 16.8246 10.7535 16.8285 10.7464 16.8324C10.7382 16.8369 10.7299 16.8414 10.723 16.8484L9.87157 17.6981C9.73648 17.1702 9.46294 16.6879 9.0792 16.3003C7.87155 15.0975 5.91847 15.0897 4.70116 16.2828C4.6981 16.2857 4.69456 16.2876 4.69103 16.2894C4.68731 16.2914 4.6836 16.2934 4.68047 16.2965L2.99319 17.9798C2.29087 13.1272 3.38595 9.00745 6.0902 6.53449C8.56283 4.40001 11.8644 3.48463 15.086 4.04051C18.5158 4.60846 21.4746 6.71502 23.4877 10.0032ZM28.8189 26.5257C27.5933 27.7166 25.8458 28.312 23.5762 28.312H20.4443V14.5718H23.5762C24.8018 14.5718 25.8571 14.7435 26.7422 15.087C27.6273 15.4077 28.3536 15.8771 28.921 16.4954C29.5111 17.0908 29.9423 17.8236 30.2146 18.6938C30.5097 19.5412 30.6572 20.4915 30.6572 21.5449C30.6572 23.6518 30.0444 25.312 28.8189 26.5257Z" fill="url(#paint2_linear_32005_4522)"/>
<path fill-rule="evenodd" clip-rule="evenodd" d="M103.404 25.9041C104.783 26.4848 106.268 26.7752 107.862 26.7752C109.455 26.7752 110.93 26.4848 112.287 25.9041C113.665 25.3233 114.849 24.5274 115.84 23.5164C116.852 22.5054 117.638 21.3116 118.197 19.935C118.779 18.5368 119.07 17.0419 119.07 15.4501C119.07 13.8368 118.779 12.3419 118.197 10.9652C117.638 9.58859 116.852 8.39477 115.84 7.38379C114.849 6.37281 113.665 5.57694 112.287 4.99616C110.93 4.41539 109.455 4.125 107.862 4.125C106.268 4.125 104.783 4.41539 103.404 4.99616C102.048 5.57694 100.864 6.37281 99.8515 7.38379C98.861 8.39477 98.0751 9.58859 97.4937 10.9652C96.9338 12.3419 96.6539 13.8368 96.6539 15.4501C96.6539 17.0419 96.9338 18.5368 97.4937 19.935C98.0751 21.3116 98.861 22.5054 99.8515 23.5164C100.864 24.5274 102.048 25.3233 103.404 25.9041ZM110.413 21.645C109.66 22.0107 108.809 22.1936 107.862 22.1936C106.914 22.1936 106.053 22.0107 105.278 21.645C104.524 21.2794 103.878 20.7846 103.34 20.1608C102.823 19.537 102.425 18.8165 102.145 17.9991C101.865 17.1817 101.725 16.3105 101.725 15.3856C101.725 14.4606 101.865 13.5895 102.145 12.7721C102.425 11.9547 102.823 11.2449 103.34 10.6426C103.878 10.0188 104.524 9.53481 105.278 9.19065C106.053 8.82498 106.914 8.64214 107.862 8.64214C108.809 8.64214 109.66 8.82498 110.413 9.19065C111.167 9.53481 111.802 10.0188 112.319 10.6426C112.857 11.2449 113.266 11.9547 113.546 12.7721C113.826 13.5895 113.966 14.4606 113.966 15.3856C113.966 16.3105 113.826 17.1817 113.546 17.9991C113.266 18.8165 112.857 19.537 112.319 20.1608C111.802 20.7846 111.167 21.2794 110.413 21.645ZM88.24 4.70574H82.846L74.8035 26.2267H79.9068L81.554 21.2901H89.1444L90.7916 26.2267H96.121L88.24 4.70574ZM85.3653 9.38421L87.9816 17.5151H82.6845L85.3653 9.38421ZM54.502 4.70574H62.6414C64.2994 4.70574 65.8282 4.92085 67.2278 5.35105C68.649 5.78125 69.8656 6.43731 70.8776 7.31923C71.9112 8.20115 72.7079 9.33043 73.2678 10.7071C73.8492 12.0837 74.1399 13.7078 74.1399 15.5791C74.1399 17.3645 73.8492 18.924 73.2678 20.2576C72.6864 21.5697 71.8789 22.6775 70.8453 23.5809C69.8333 24.4628 68.6167 25.1297 67.1955 25.5814C65.7959 26.0116 64.2671 26.2267 62.6091 26.2267H54.502V4.70574ZM62.3507 21.9031C64.5039 21.9031 66.162 21.3439 67.3247 20.2253C68.4875 19.0853 69.0689 17.5258 69.0689 15.5469C69.0689 14.5574 68.9289 13.6647 68.649 12.8689C68.3906 12.0515 67.9815 11.3631 67.4216 10.8039C66.8833 10.2231 66.1943 9.78215 65.3545 9.481C64.5147 9.15835 63.5134 8.99702 62.3507 8.99702H59.3791V21.9031H62.3507ZM92.7723 28.2751H89.192V31.2711H92.7723V28.2751ZM92.6561 32.8735H89.3083V43.7657H92.6561V32.8735ZM100.58 41.2344C100.999 41.2344 101.371 41.157 101.696 41.0021C102.022 40.8318 102.293 40.6073 102.51 40.3286C102.743 40.05 102.913 39.7403 103.022 39.3997C103.13 39.0436 103.184 38.6797 103.184 38.3081C103.184 37.9366 103.13 37.5804 103.022 37.2398C102.913 36.8837 102.743 36.5741 102.51 36.3109C102.293 36.0322 102.022 35.8154 101.696 35.6606C101.371 35.4903 100.999 35.4051 100.58 35.4051C100.162 35.4051 99.7823 35.4903 99.4413 35.6606C99.1158 35.8154 98.8446 36.0322 98.6276 36.3109C98.4106 36.5741 98.2401 36.8837 98.1161 37.2398C98.0076 37.5804 97.9534 37.9366 97.9534 38.3081C97.9534 38.6797 98.0076 39.0436 98.1161 39.3997C98.2401 39.7403 98.4106 40.05 98.6276 40.3286C98.8446 40.6073 99.1158 40.8318 99.4413 41.0021C99.7823 41.157 100.162 41.2344 100.58 41.2344ZM94.7218 38.3081C94.7218 37.503 94.8613 36.7521 95.1403 36.0554C95.4348 35.3432 95.8378 34.7239 96.3492 34.1975C96.8607 33.671 97.4729 33.2607 98.1859 32.9666C98.9143 32.6569 99.7125 32.5021 100.58 32.5021C101.448 32.5021 102.239 32.6569 102.952 32.9666C103.665 33.2607 104.277 33.671 104.788 34.1975C105.3 34.7239 105.695 35.3432 105.974 36.0554C106.269 36.7521 106.416 37.503 106.416 38.3081C106.416 39.1132 106.269 39.8719 105.974 40.5841C105.695 41.2808 105.3 41.8924 104.788 42.4188C104.277 42.9452 103.665 43.3633 102.952 43.6729C102.239 43.9826 101.448 44.1374 100.58 44.1374C99.7125 44.1374 98.9143 43.9826 98.1859 43.6729C97.4729 43.3633 96.8607 42.9452 96.3492 42.4188C95.8378 41.8924 95.4348 41.2808 95.1403 40.5841C94.8613 39.8719 94.7218 39.1132 94.7218 38.3081ZM108.445 32.8736H111.653L111.746 34.058C112.103 33.6245 112.568 33.2761 113.141 33.0129C113.73 32.7497 114.342 32.6181 114.978 32.6181C116.233 32.6181 117.225 32.9897 117.954 33.7329C118.698 34.4761 119.07 35.5753 119.07 37.0307V43.7657H115.722V37.4952C115.722 36.8914 115.567 36.4114 115.257 36.0553C114.962 35.6992 114.544 35.5211 114.001 35.5211C113.629 35.5211 113.304 35.5908 113.025 35.7302C112.746 35.854 112.514 36.0243 112.328 36.2411C112.142 36.4579 112.002 36.7133 111.909 37.0075C111.816 37.2862 111.77 37.5881 111.77 37.9132V43.7657H108.445V32.8736ZM80.3108 35.4978H78.5904V32.8735H80.3108V29.5757H83.6586V32.8735H86.4717V35.4978H83.6586V39.7943C83.6586 40.3207 83.7594 40.731 83.9608 41.0252C84.1778 41.3039 84.5111 41.4432 84.9605 41.4432C85.3015 41.4432 85.596 41.389 85.844 41.2807C86.092 41.1568 86.3245 41.0175 86.5414 40.8626L87.8899 42.9063C86.8359 43.7424 85.689 44.1605 84.4491 44.1605C83.6741 44.1605 83.0232 44.0443 82.4962 43.8121C81.9692 43.5953 81.543 43.2934 81.2175 42.9063C80.892 42.5038 80.6595 42.0238 80.5201 41.4665C80.3806 40.9091 80.3108 40.2898 80.3108 39.6085V35.4978ZM72.4384 43.7426C73.0119 43.5104 73.4846 43.1775 73.8566 42.744L73.9496 43.7658H77.0881V37.4256C77.0881 35.9238 76.6929 34.7316 75.9024 33.8491C75.112 32.9511 73.8876 32.5021 72.2292 32.5021C71.5782 32.5021 70.997 32.5485 70.4855 32.6414C69.9895 32.7189 69.5401 32.8272 69.1371 32.9666C68.7341 33.1059 68.3854 33.2608 68.0909 33.4311C67.7964 33.6014 67.5329 33.7717 67.3005 33.942L68.6721 35.9857C69.0131 35.7535 69.4238 35.5445 69.9043 35.3587C70.4003 35.1729 71.0202 35.08 71.7642 35.08C72.0432 35.08 72.3067 35.1109 72.5546 35.1729C72.8026 35.2193 73.0196 35.3122 73.2056 35.4516C73.4071 35.5754 73.5621 35.738 73.6706 35.9393C73.7946 36.1251 73.8566 36.3573 73.8566 36.636V36.8682C73.7326 36.8373 73.4691 36.814 73.0661 36.7986C72.6786 36.7831 72.2912 36.7753 71.9037 36.7753C71.1907 36.7753 70.5243 36.8605 69.9043 37.0308C69.2998 37.2011 68.7729 37.4566 68.3234 37.7972C67.8739 38.1223 67.5174 38.5326 67.254 39.0281C67.006 39.5235 66.882 40.0887 66.882 40.7235C66.882 41.3737 66.9982 41.9156 67.2307 42.3491C67.4787 42.7827 67.7809 43.131 68.1374 43.3942C68.5094 43.642 68.9046 43.82 69.3231 43.9284C69.7571 44.0368 70.1678 44.091 70.5553 44.091C71.2527 44.091 71.8804 43.9748 72.4384 43.7426ZM73.4148 38.912C73.6318 38.9275 73.7791 38.9429 73.8566 38.9584V39.8409C73.8566 40.1506 73.7946 40.4215 73.6706 40.6538C73.5466 40.886 73.3838 41.0796 73.1824 41.2344C72.9964 41.3892 72.7716 41.5131 72.5081 41.606C72.2602 41.6834 72.0044 41.7221 71.7409 41.7221C70.656 41.7221 70.1135 41.2731 70.1135 40.3751C70.1135 39.8951 70.3073 39.5235 70.6948 39.2603C71.0822 38.9971 71.7409 38.8655 72.6709 38.8655C72.9499 38.8655 73.1979 38.881 73.4148 38.912ZM54.502 32.8736H57.7103L57.8033 34.058C58.1597 33.6245 58.6247 33.2761 59.1982 33.0129C59.7871 32.7497 60.3993 32.6181 61.0348 32.6181C62.2902 32.6181 63.2822 32.9897 64.0106 33.7329C64.7546 34.4761 65.1266 35.5753 65.1266 37.0307V43.7657H61.7788V37.4952C61.7788 36.8914 61.6238 36.4114 61.3138 36.0553C61.0193 35.6992 60.6008 35.5211 60.0584 35.5211C59.6864 35.5211 59.3609 35.5908 59.0819 35.7302C58.8029 35.854 58.5705 36.0243 58.3845 36.2411C58.1985 36.4579 58.059 36.7133 57.966 37.0075C57.873 37.2862 57.8265 37.5881 57.8265 37.9132V43.7657H54.502V32.8736Z" fill="black"/>
<defs>
<linearGradient id="paint0_linear_32005_4522" x1="46.5616" y1="46.461" x2="6.91498" y2="10.9696" gradientUnits="userSpaceOnUse">
<stop stop-color="#5A81FF"/>
<stop offset="0.52" stop-color="#E40C5B"/>
<stop offset="1" stop-color="#FF4C3B"/>
</linearGradient>
<linearGradient id="paint1_linear_32005_4522" x1="50.5936" y1="46.5843" x2="10.6373" y2="4.7042" gradientUnits="userSpaceOnUse">
<stop stop-color="#A35AFF"/>
<stop offset="0.52" stop-color="#0C6FE4"/>
<stop offset="1" stop-color="#3BC4FF"/>
</linearGradient>
<linearGradient id="paint2_linear_32005_4522" x1="50.5936" y1="46.5843" x2="10.6373" y2="4.7042" gradientUnits="userSpaceOnUse">
<stop stop-color="#62E797"/>
<stop offset="0.52" stop-color="#449E68"/>
<stop offset="1" stop-color="#DBDD5F"/>
</linearGradient>
</defs>
</svg>
