<svg width="375" height="812" viewBox="0 0 375 812" fill="none" xmlns="http://www.w3.org/2000/svg">
<g opacity="0.5">
<rect width="130" height="130" fill="#7CD1E3"/>
<path fill-rule="evenodd" clip-rule="evenodd" d="M61.0676 51.2525L34.2637 3.85237C33.8808 3.17535 32.9056 3.17535 32.5227 3.85237L5.71877 51.2525C5.3418 51.9191 5.8234 52.7447 6.58923 52.7447H60.1972C60.963 52.7447 61.4446 51.9191 61.0676 51.2525ZM35.1341 3.36014C34.3684 2.00609 32.418 2.00609 31.6523 3.36014L4.8483 50.7602C4.09437 52.0935 5.05757 53.7447 6.58923 53.7447H60.1972C61.7288 53.7447 62.692 52.0935 61.9381 50.7602L35.1341 3.36014ZM57.1289 91.7316C57.1289 105.965 45.8648 117.463 32.019 117.463C18.1732 117.463 6.90906 105.965 6.90906 91.7316C6.90906 77.4981 18.1732 66 32.019 66C45.8648 66 57.1289 77.4981 57.1289 91.7316ZM58.1289 91.7316C58.1289 106.495 46.4391 118.463 32.019 118.463C17.5989 118.463 5.90906 106.495 5.90906 91.7316C5.90906 76.9681 17.5989 65 32.019 65C46.4391 65 58.1289 76.9681 58.1289 91.7316ZM71.1223 66H117.763C118.316 66 118.763 66.4477 118.763 67V113.649C118.763 114.202 118.316 114.649 117.763 114.649H71.1223C70.5701 114.649 70.1223 114.202 70.1223 113.649V67C70.1223 66.4477 70.5701 66 71.1223 66ZM69.1223 67C69.1223 65.8954 70.0178 65 71.1223 65H117.763C118.868 65 119.763 65.8954 119.763 67V113.649C119.763 114.754 118.868 115.649 117.763 115.649H71.1223C70.0178 115.649 69.1223 114.754 69.1223 113.649V67ZM103.2 47.695L103.199 47.6956L103.155 47.7345C101.369 49.3023 99.3472 51.0762 97.2502 52.9644C96.6924 53.4673 95.9753 53.7446 95.2323 53.7446C94.4889 53.7446 93.7721 53.4673 93.2136 52.9635C91.1008 51.0616 89.0661 49.276 87.2707 47.7005L87.27 47.6999L87.2666 47.6968C82.0056 43.0807 77.4626 39.0943 74.3016 35.1674C70.7682 30.7773 69.1223 26.6149 69.1223 22.0677C69.1223 17.6497 70.5937 13.5739 73.2646 10.5904C75.9678 7.57166 79.6773 5.90908 83.71 5.90908C86.7243 5.90908 89.4849 6.8903 91.9148 8.82527C92.8867 9.59918 93.7864 10.5104 94.6053 11.549C94.8199 11.8212 95.0289 12.1021 95.2323 12.3916C95.4357 12.1021 95.6447 11.8212 95.8593 11.549C96.6783 10.5102 97.5777 9.59923 98.5494 8.82527C100.98 6.8903 103.74 5.90908 106.755 5.90908C110.787 5.90908 114.496 7.57166 117.2 10.5904C119.871 13.5739 121.342 17.6497 121.342 22.0673C121.342 26.6149 119.697 30.7773 116.163 35.167C113.003 39.0941 108.46 43.08 103.2 47.695ZM70.1223 22.0677C70.1223 17.8685 71.5202 14.0382 74.0095 11.2575L74.0096 11.2574C76.5242 8.44938 79.9633 6.90908 83.71 6.90908C86.4906 6.90908 89.0331 7.80889 91.2918 9.60754L91.2919 9.60758C92.4375 10.5198 93.4847 11.6434 94.4139 12.9664L95.2322 14.1315L96.0506 12.9664C96.9802 11.643 98.027 10.5198 99.1723 9.60759C101.431 7.80888 103.974 6.90908 106.755 6.90908C110.501 6.90908 113.94 8.44939 116.455 11.2575C118.944 14.0382 120.342 17.8685 120.342 22.0673C120.342 26.3365 118.81 30.2843 115.384 34.5399L115.384 34.54C112.29 38.3851 107.822 42.3093 102.54 46.9439L102.54 46.944L102.495 46.9836C100.709 48.5507 98.6831 50.3285 96.5811 52.2212L96.5806 52.2217C96.2043 52.561 95.725 52.7446 95.2323 52.7446C94.7394 52.7446 94.2605 52.5611 93.8833 52.2209L93.8826 52.2203C91.7651 50.3141 89.7264 48.525 87.9318 46.9502L87.9261 46.9452L87.9261 46.9452C82.6431 42.3097 78.1755 38.3852 75.0806 34.5404C71.655 30.2843 70.1223 26.3364 70.1223 22.0677Z" fill="white"/>
<rect width="130" height="130" transform="translate(130)" fill="#7CD1E3"/>
<path fill-rule="evenodd" clip-rule="evenodd" d="M191.068 51.2525L164.264 3.85237C163.881 3.17535 162.906 3.17535 162.523 3.85237L135.719 51.2525C135.342 51.9191 135.823 52.7447 136.589 52.7447H190.197C190.963 52.7447 191.445 51.9191 191.068 51.2525ZM165.134 3.36014C164.368 2.00609 162.418 2.00609 161.652 3.36014L134.848 50.7602C134.094 52.0935 135.058 53.7447 136.589 53.7447H190.197C191.729 53.7447 192.692 52.0935 191.938 50.7602L165.134 3.36014ZM187.129 91.7316C187.129 105.965 175.865 117.463 162.019 117.463C148.173 117.463 136.909 105.965 136.909 91.7316C136.909 77.4981 148.173 66 162.019 66C175.865 66 187.129 77.4981 187.129 91.7316ZM188.129 91.7316C188.129 106.495 176.439 118.463 162.019 118.463C147.599 118.463 135.909 106.495 135.909 91.7316C135.909 76.9681 147.599 65 162.019 65C176.439 65 188.129 76.9681 188.129 91.7316ZM201.122 66H247.763C248.316 66 248.763 66.4477 248.763 67V113.649C248.763 114.202 248.316 114.649 247.763 114.649H201.122C200.57 114.649 200.122 114.202 200.122 113.649V67C200.122 66.4477 200.57 66 201.122 66ZM199.122 67C199.122 65.8954 200.018 65 201.122 65H247.763C248.868 65 249.763 65.8954 249.763 67V113.649C249.763 114.754 248.868 115.649 247.763 115.649H201.122C200.018 115.649 199.122 114.754 199.122 113.649V67ZM233.2 47.695L233.199 47.6956L233.155 47.7345C231.369 49.3023 229.347 51.0762 227.25 52.9644C226.692 53.4673 225.975 53.7446 225.232 53.7446C224.489 53.7446 223.772 53.4673 223.214 52.9635C221.101 51.0616 219.066 49.276 217.271 47.7005L217.27 47.6999L217.267 47.6968C212.006 43.0807 207.463 39.0943 204.302 35.1674C200.768 30.7773 199.122 26.6149 199.122 22.0677C199.122 17.6497 200.594 13.5739 203.265 10.5904C205.968 7.57166 209.677 5.90908 213.71 5.90908C216.724 5.90908 219.485 6.8903 221.915 8.82527C222.887 9.59918 223.786 10.5104 224.605 11.549C224.82 11.8212 225.029 12.1021 225.232 12.3916C225.436 12.1021 225.645 11.8212 225.859 11.549C226.678 10.5102 227.578 9.59923 228.549 8.82527C230.98 6.8903 233.74 5.90908 236.755 5.90908C240.787 5.90908 244.496 7.57166 247.2 10.5904C249.871 13.5739 251.342 17.6497 251.342 22.0673C251.342 26.6149 249.697 30.7773 246.163 35.167C243.003 39.0941 238.46 43.08 233.2 47.695ZM200.122 22.0677C200.122 17.8685 201.52 14.0382 204.01 11.2575L204.01 11.2574C206.524 8.44938 209.963 6.90908 213.71 6.90908C216.491 6.90908 219.033 7.80889 221.292 9.60754L221.292 9.60758C222.438 10.5198 223.485 11.6434 224.414 12.9664L225.232 14.1315L226.051 12.9664C226.98 11.643 228.027 10.5198 229.172 9.60759C231.431 7.80888 233.974 6.90908 236.755 6.90908C240.501 6.90908 243.94 8.44939 246.455 11.2575C248.944 14.0382 250.342 17.8685 250.342 22.0673C250.342 26.3365 248.81 30.2843 245.384 34.5399L245.384 34.54C242.29 38.3851 237.822 42.3093 232.54 46.9439L232.54 46.944L232.495 46.9836C230.709 48.5507 228.683 50.3285 226.581 52.2212L226.581 52.2217C226.204 52.561 225.725 52.7446 225.232 52.7446C224.739 52.7446 224.261 52.5611 223.883 52.2209L223.883 52.2203C221.765 50.3141 219.726 48.525 217.932 46.9502L217.926 46.9452L217.926 46.9452C212.643 42.3097 208.175 38.3852 205.081 34.5404C201.655 30.2843 200.122 26.3364 200.122 22.0677Z" fill="white"/>
<rect width="130" height="130" transform="translate(260)" fill="#7CD1E3"/>
<path fill-rule="evenodd" clip-rule="evenodd" d="M321.068 51.2525L294.264 3.85237C293.881 3.17535 292.906 3.17535 292.523 3.85237L265.719 51.2525C265.342 51.9191 265.823 52.7447 266.589 52.7447H320.197C320.963 52.7447 321.445 51.9191 321.068 51.2525ZM295.134 3.36014C294.368 2.00609 292.418 2.00609 291.652 3.36014L264.848 50.7602C264.094 52.0935 265.058 53.7447 266.589 53.7447H320.197C321.729 53.7447 322.692 52.0935 321.938 50.7602L295.134 3.36014ZM317.129 91.7316C317.129 105.965 305.865 117.463 292.019 117.463C278.173 117.463 266.909 105.965 266.909 91.7316C266.909 77.4981 278.173 66 292.019 66C305.865 66 317.129 77.4981 317.129 91.7316ZM318.129 91.7316C318.129 106.495 306.439 118.463 292.019 118.463C277.599 118.463 265.909 106.495 265.909 91.7316C265.909 76.9681 277.599 65 292.019 65C306.439 65 318.129 76.9681 318.129 91.7316ZM331.122 66H377.763C378.316 66 378.763 66.4477 378.763 67V113.649C378.763 114.202 378.316 114.649 377.763 114.649H331.122C330.57 114.649 330.122 114.202 330.122 113.649V67C330.122 66.4477 330.57 66 331.122 66ZM329.122 67C329.122 65.8954 330.018 65 331.122 65H377.763C378.868 65 379.763 65.8954 379.763 67V113.649C379.763 114.754 378.868 115.649 377.763 115.649H331.122C330.018 115.649 329.122 114.754 329.122 113.649V67ZM363.2 47.695L363.199 47.6956L363.155 47.7345C361.369 49.3023 359.347 51.0762 357.25 52.9644C356.692 53.4673 355.975 53.7446 355.232 53.7446C354.489 53.7446 353.772 53.4673 353.214 52.9635C351.101 51.0616 349.066 49.276 347.271 47.7005L347.27 47.6999L347.267 47.6968C342.006 43.0807 337.463 39.0943 334.302 35.1674C330.768 30.7773 329.122 26.6149 329.122 22.0677C329.122 17.6497 330.594 13.5739 333.265 10.5904C335.968 7.57166 339.677 5.90908 343.71 5.90908C346.724 5.90908 349.485 6.8903 351.915 8.82527C352.887 9.59918 353.786 10.5104 354.605 11.549C354.82 11.8212 355.029 12.1021 355.232 12.3916C355.436 12.1021 355.645 11.8212 355.859 11.549C356.678 10.5102 357.578 9.59923 358.549 8.82527C360.98 6.8903 363.74 5.90908 366.755 5.90908C370.787 5.90908 374.496 7.57166 377.2 10.5904C379.871 13.5739 381.342 17.6497 381.342 22.0673C381.342 26.6149 379.697 30.7773 376.163 35.167C373.003 39.0941 368.46 43.08 363.2 47.695ZM330.122 22.0677C330.122 17.8685 331.52 14.0382 334.01 11.2575L334.01 11.2574C336.524 8.44938 339.963 6.90908 343.71 6.90908C346.491 6.90908 349.033 7.80889 351.292 9.60754L351.292 9.60758C352.438 10.5198 353.485 11.6434 354.414 12.9664L355.232 14.1315L356.051 12.9664C356.98 11.643 358.027 10.5198 359.172 9.60759C361.431 7.80888 363.974 6.90908 366.755 6.90908C370.501 6.90908 373.94 8.44939 376.455 11.2575C378.944 14.0382 380.342 17.8685 380.342 22.0673C380.342 26.3365 378.81 30.2843 375.384 34.5399L375.384 34.54C372.29 38.3851 367.822 42.3093 362.54 46.9439L362.54 46.944L362.495 46.9836C360.709 48.5507 358.683 50.3285 356.581 52.2212L356.581 52.2217C356.204 52.561 355.725 52.7446 355.232 52.7446C354.739 52.7446 354.261 52.5611 353.883 52.2209L353.883 52.2203C351.765 50.3141 349.726 48.525 347.932 46.9502L347.926 46.9452L347.926 46.9452C342.643 42.3097 338.175 38.3852 335.081 34.5404C331.655 30.2843 330.122 26.3364 330.122 22.0677Z" fill="white"/>
<rect width="130" height="130" transform="translate(0 130)" fill="#7CD1E3"/>
<path fill-rule="evenodd" clip-rule="evenodd" d="M61.0676 181.252L34.2637 133.852C33.8808 133.175 32.9056 133.175 32.5227 133.852L5.71877 181.252C5.3418 181.919 5.8234 182.745 6.58923 182.745H60.1972C60.963 182.745 61.4446 181.919 61.0676 181.252ZM35.1341 133.36C34.3684 132.006 32.418 132.006 31.6523 133.36L4.8483 180.76C4.09437 182.093 5.05757 183.745 6.58923 183.745H60.1972C61.7288 183.745 62.692 182.093 61.9381 180.76L35.1341 133.36ZM57.1289 221.732C57.1289 235.965 45.8648 247.463 32.019 247.463C18.1732 247.463 6.90906 235.965 6.90906 221.732C6.90906 207.498 18.1732 196 32.019 196C45.8648 196 57.1289 207.498 57.1289 221.732ZM58.1289 221.732C58.1289 236.495 46.4391 248.463 32.019 248.463C17.5989 248.463 5.90906 236.495 5.90906 221.732C5.90906 206.968 17.5989 195 32.019 195C46.4391 195 58.1289 206.968 58.1289 221.732ZM71.1223 196H117.763C118.316 196 118.763 196.448 118.763 197V243.649C118.763 244.202 118.316 244.649 117.763 244.649H71.1223C70.5701 244.649 70.1223 244.202 70.1223 243.649V197C70.1223 196.448 70.5701 196 71.1223 196ZM69.1223 197C69.1223 195.895 70.0178 195 71.1223 195H117.763C118.868 195 119.763 195.895 119.763 197V243.649C119.763 244.754 118.868 245.649 117.763 245.649H71.1223C70.0178 245.649 69.1223 244.754 69.1223 243.649V197ZM103.2 177.695L103.199 177.696L103.155 177.735C101.369 179.302 99.3472 181.076 97.2502 182.964C96.6924 183.467 95.9753 183.745 95.2323 183.745C94.4889 183.745 93.7721 183.467 93.2136 182.964C91.1008 181.062 89.0661 179.276 87.2707 177.7L87.27 177.7L87.2666 177.697C82.0056 173.081 77.4626 169.094 74.3016 165.167C70.7682 160.777 69.1223 156.615 69.1223 152.068C69.1223 147.65 70.5937 143.574 73.2646 140.59C75.9678 137.572 79.6773 135.909 83.71 135.909C86.7243 135.909 89.4849 136.89 91.9148 138.825C92.8867 139.599 93.7864 140.51 94.6053 141.549C94.8199 141.821 95.0289 142.102 95.2323 142.392C95.4357 142.102 95.6447 141.821 95.8593 141.549C96.6783 140.51 97.5777 139.599 98.5494 138.825C100.98 136.89 103.74 135.909 106.755 135.909C110.787 135.909 114.496 137.572 117.2 140.59C119.871 143.574 121.342 147.65 121.342 152.067C121.342 156.615 119.697 160.777 116.163 165.167C113.003 169.094 108.46 173.08 103.2 177.695ZM70.1223 152.068C70.1223 147.869 71.5202 144.038 74.0095 141.258L74.0096 141.257C76.5242 138.449 79.9633 136.909 83.71 136.909C86.4906 136.909 89.0331 137.809 91.2918 139.608L91.2919 139.608C92.4375 140.52 93.4847 141.643 94.4139 142.966L95.2322 144.131L96.0506 142.966C96.9802 141.643 98.027 140.52 99.1723 139.608C101.431 137.809 103.974 136.909 106.755 136.909C110.501 136.909 113.94 138.449 116.455 141.258C118.944 144.038 120.342 147.869 120.342 152.067C120.342 156.336 118.81 160.284 115.384 164.54L115.384 164.54C112.29 168.385 107.822 172.309 102.54 176.944L102.54 176.944L102.495 176.984C100.709 178.551 98.6831 180.328 96.5811 182.221L96.5806 182.222C96.2043 182.561 95.725 182.745 95.2323 182.745C94.7394 182.745 94.2605 182.561 93.8833 182.221L93.8826 182.22C91.7651 180.314 89.7264 178.525 87.9318 176.95L87.9261 176.945L87.9261 176.945C82.6431 172.31 78.1755 168.385 75.0806 164.54C71.655 160.284 70.1223 156.336 70.1223 152.068Z" fill="white"/>
<rect width="130" height="130" transform="translate(130 130)" fill="#7CD1E3"/>
<path fill-rule="evenodd" clip-rule="evenodd" d="M191.068 181.252L164.264 133.852C163.881 133.175 162.906 133.175 162.523 133.852L135.719 181.252C135.342 181.919 135.823 182.745 136.589 182.745H190.197C190.963 182.745 191.445 181.919 191.068 181.252ZM165.134 133.36C164.368 132.006 162.418 132.006 161.652 133.36L134.848 180.76C134.094 182.093 135.058 183.745 136.589 183.745H190.197C191.729 183.745 192.692 182.093 191.938 180.76L165.134 133.36ZM187.129 221.732C187.129 235.965 175.865 247.463 162.019 247.463C148.173 247.463 136.909 235.965 136.909 221.732C136.909 207.498 148.173 196 162.019 196C175.865 196 187.129 207.498 187.129 221.732ZM188.129 221.732C188.129 236.495 176.439 248.463 162.019 248.463C147.599 248.463 135.909 236.495 135.909 221.732C135.909 206.968 147.599 195 162.019 195C176.439 195 188.129 206.968 188.129 221.732ZM201.122 196H247.763C248.316 196 248.763 196.448 248.763 197V243.649C248.763 244.202 248.316 244.649 247.763 244.649H201.122C200.57 244.649 200.122 244.202 200.122 243.649V197C200.122 196.448 200.57 196 201.122 196ZM199.122 197C199.122 195.895 200.018 195 201.122 195H247.763C248.868 195 249.763 195.895 249.763 197V243.649C249.763 244.754 248.868 245.649 247.763 245.649H201.122C200.018 245.649 199.122 244.754 199.122 243.649V197ZM233.2 177.695L233.199 177.696L233.155 177.735C231.369 179.302 229.347 181.076 227.25 182.964C226.692 183.467 225.975 183.745 225.232 183.745C224.489 183.745 223.772 183.467 223.214 182.964C221.101 181.062 219.066 179.276 217.271 177.7L217.27 177.7L217.267 177.697C212.006 173.081 207.463 169.094 204.302 165.167C200.768 160.777 199.122 156.615 199.122 152.068C199.122 147.65 200.594 143.574 203.265 140.59C205.968 137.572 209.677 135.909 213.71 135.909C216.724 135.909 219.485 136.89 221.915 138.825C222.887 139.599 223.786 140.51 224.605 141.549C224.82 141.821 225.029 142.102 225.232 142.392C225.436 142.102 225.645 141.821 225.859 141.549C226.678 140.51 227.578 139.599 228.549 138.825C230.98 136.89 233.74 135.909 236.755 135.909C240.787 135.909 244.496 137.572 247.2 140.59C249.871 143.574 251.342 147.65 251.342 152.067C251.342 156.615 249.697 160.777 246.163 165.167C243.003 169.094 238.46 173.08 233.2 177.695ZM200.122 152.068C200.122 147.869 201.52 144.038 204.01 141.258L204.01 141.257C206.524 138.449 209.963 136.909 213.71 136.909C216.491 136.909 219.033 137.809 221.292 139.608L221.292 139.608C222.438 140.52 223.485 141.643 224.414 142.966L225.232 144.131L226.051 142.966C226.98 141.643 228.027 140.52 229.172 139.608C231.431 137.809 233.974 136.909 236.755 136.909C240.501 136.909 243.94 138.449 246.455 141.258C248.944 144.038 250.342 147.869 250.342 152.067C250.342 156.336 248.81 160.284 245.384 164.54L245.384 164.54C242.29 168.385 237.822 172.309 232.54 176.944L232.54 176.944L232.495 176.984C230.709 178.551 228.683 180.328 226.581 182.221L226.581 182.222C226.204 182.561 225.725 182.745 225.232 182.745C224.739 182.745 224.261 182.561 223.883 182.221L223.883 182.22C221.765 180.314 219.726 178.525 217.932 176.95L217.926 176.945L217.926 176.945C212.643 172.31 208.175 168.385 205.081 164.54C201.655 160.284 200.122 156.336 200.122 152.068Z" fill="white"/>
<rect width="130" height="130" transform="translate(260 130)" fill="#7CD1E3"/>
<path fill-rule="evenodd" clip-rule="evenodd" d="M321.068 181.252L294.264 133.852C293.881 133.175 292.906 133.175 292.523 133.852L265.719 181.252C265.342 181.919 265.823 182.745 266.589 182.745H320.197C320.963 182.745 321.445 181.919 321.068 181.252ZM295.134 133.36C294.368 132.006 292.418 132.006 291.652 133.36L264.848 180.76C264.094 182.093 265.058 183.745 266.589 183.745H320.197C321.729 183.745 322.692 182.093 321.938 180.76L295.134 133.36ZM317.129 221.732C317.129 235.965 305.865 247.463 292.019 247.463C278.173 247.463 266.909 235.965 266.909 221.732C266.909 207.498 278.173 196 292.019 196C305.865 196 317.129 207.498 317.129 221.732ZM318.129 221.732C318.129 236.495 306.439 248.463 292.019 248.463C277.599 248.463 265.909 236.495 265.909 221.732C265.909 206.968 277.599 195 292.019 195C306.439 195 318.129 206.968 318.129 221.732ZM331.122 196H377.763C378.316 196 378.763 196.448 378.763 197V243.649C378.763 244.202 378.316 244.649 377.763 244.649H331.122C330.57 244.649 330.122 244.202 330.122 243.649V197C330.122 196.448 330.57 196 331.122 196ZM329.122 197C329.122 195.895 330.018 195 331.122 195H377.763C378.868 195 379.763 195.895 379.763 197V243.649C379.763 244.754 378.868 245.649 377.763 245.649H331.122C330.018 245.649 329.122 244.754 329.122 243.649V197ZM363.2 177.695L363.199 177.696L363.155 177.735C361.369 179.302 359.347 181.076 357.25 182.964C356.692 183.467 355.975 183.745 355.232 183.745C354.489 183.745 353.772 183.467 353.214 182.964C351.101 181.062 349.066 179.276 347.271 177.7L347.27 177.7L347.267 177.697C342.006 173.081 337.463 169.094 334.302 165.167C330.768 160.777 329.122 156.615 329.122 152.068C329.122 147.65 330.594 143.574 333.265 140.59C335.968 137.572 339.677 135.909 343.71 135.909C346.724 135.909 349.485 136.89 351.915 138.825C352.887 139.599 353.786 140.51 354.605 141.549C354.82 141.821 355.029 142.102 355.232 142.392C355.436 142.102 355.645 141.821 355.859 141.549C356.678 140.51 357.578 139.599 358.549 138.825C360.98 136.89 363.74 135.909 366.755 135.909C370.787 135.909 374.496 137.572 377.2 140.59C379.871 143.574 381.342 147.65 381.342 152.067C381.342 156.615 379.697 160.777 376.163 165.167C373.003 169.094 368.46 173.08 363.2 177.695ZM330.122 152.068C330.122 147.869 331.52 144.038 334.01 141.258L334.01 141.257C336.524 138.449 339.963 136.909 343.71 136.909C346.491 136.909 349.033 137.809 351.292 139.608L351.292 139.608C352.438 140.52 353.485 141.643 354.414 142.966L355.232 144.131L356.051 142.966C356.98 141.643 358.027 140.52 359.172 139.608C361.431 137.809 363.974 136.909 366.755 136.909C370.501 136.909 373.94 138.449 376.455 141.258C378.944 144.038 380.342 147.869 380.342 152.067C380.342 156.336 378.81 160.284 375.384 164.54L375.384 164.54C372.29 168.385 367.822 172.309 362.54 176.944L362.54 176.944L362.495 176.984C360.709 178.551 358.683 180.328 356.581 182.221L356.581 182.222C356.204 182.561 355.725 182.745 355.232 182.745C354.739 182.745 354.261 182.561 353.883 182.221L353.883 182.22C351.765 180.314 349.726 178.525 347.932 176.95L347.926 176.945L347.926 176.945C342.643 172.31 338.175 168.385 335.081 164.54C331.655 160.284 330.122 156.336 330.122 152.068Z" fill="white"/>
<rect width="130" height="130" transform="translate(0 260)" fill="#7CD1E3"/>
<path fill-rule="evenodd" clip-rule="evenodd" d="M61.0676 311.252L34.2637 263.852C33.8808 263.175 32.9056 263.175 32.5227 263.852L5.71877 311.252C5.3418 311.919 5.8234 312.745 6.58923 312.745H60.1972C60.963 312.745 61.4446 311.919 61.0676 311.252ZM35.1341 263.36C34.3684 262.006 32.418 262.006 31.6523 263.36L4.8483 310.76C4.09437 312.093 5.05757 313.745 6.58923 313.745H60.1972C61.7288 313.745 62.692 312.093 61.9381 310.76L35.1341 263.36ZM57.1289 351.732C57.1289 365.965 45.8648 377.463 32.019 377.463C18.1732 377.463 6.90906 365.965 6.90906 351.732C6.90906 337.498 18.1732 326 32.019 326C45.8648 326 57.1289 337.498 57.1289 351.732ZM58.1289 351.732C58.1289 366.495 46.4391 378.463 32.019 378.463C17.5989 378.463 5.90906 366.495 5.90906 351.732C5.90906 336.968 17.5989 325 32.019 325C46.4391 325 58.1289 336.968 58.1289 351.732ZM71.1223 326H117.763C118.316 326 118.763 326.448 118.763 327V373.649C118.763 374.202 118.316 374.649 117.763 374.649H71.1223C70.5701 374.649 70.1223 374.202 70.1223 373.649V327C70.1223 326.448 70.5701 326 71.1223 326ZM69.1223 327C69.1223 325.895 70.0178 325 71.1223 325H117.763C118.868 325 119.763 325.895 119.763 327V373.649C119.763 374.754 118.868 375.649 117.763 375.649H71.1223C70.0178 375.649 69.1223 374.754 69.1223 373.649V327ZM103.2 307.695L103.199 307.696L103.155 307.735C101.369 309.302 99.3472 311.076 97.2502 312.964C96.6924 313.467 95.9753 313.745 95.2323 313.745C94.4889 313.745 93.7721 313.467 93.2136 312.964C91.1008 311.062 89.0661 309.276 87.2707 307.7L87.27 307.7L87.2666 307.697C82.0056 303.081 77.4626 299.094 74.3016 295.167C70.7682 290.777 69.1223 286.615 69.1223 282.068C69.1223 277.65 70.5937 273.574 73.2646 270.59C75.9678 267.572 79.6773 265.909 83.71 265.909C86.7243 265.909 89.4849 266.89 91.9148 268.825C92.8867 269.599 93.7864 270.51 94.6053 271.549C94.8199 271.821 95.0289 272.102 95.2323 272.392C95.4357 272.102 95.6447 271.821 95.8593 271.549C96.6783 270.51 97.5777 269.599 98.5494 268.825C100.98 266.89 103.74 265.909 106.755 265.909C110.787 265.909 114.496 267.572 117.2 270.59C119.871 273.574 121.342 277.65 121.342 282.067C121.342 286.615 119.697 290.777 116.163 295.167C113.003 299.094 108.46 303.08 103.2 307.695ZM70.1223 282.068C70.1223 277.869 71.5202 274.038 74.0095 271.258L74.0096 271.257C76.5242 268.449 79.9633 266.909 83.71 266.909C86.4906 266.909 89.0331 267.809 91.2918 269.608L91.2919 269.608C92.4375 270.52 93.4847 271.643 94.4139 272.966L95.2322 274.131L96.0506 272.966C96.9802 271.643 98.027 270.52 99.1723 269.608C101.431 267.809 103.974 266.909 106.755 266.909C110.501 266.909 113.94 268.449 116.455 271.258C118.944 274.038 120.342 277.869 120.342 282.067C120.342 286.336 118.81 290.284 115.384 294.54L115.384 294.54C112.29 298.385 107.822 302.309 102.54 306.944L102.54 306.944L102.495 306.984C100.709 308.551 98.6831 310.328 96.5811 312.221L96.5806 312.222C96.2043 312.561 95.725 312.745 95.2323 312.745C94.7394 312.745 94.2605 312.561 93.8833 312.221L93.8826 312.22C91.7651 310.314 89.7264 308.525 87.9318 306.95L87.9261 306.945L87.9261 306.945C82.6431 302.31 78.1755 298.385 75.0806 294.54C71.655 290.284 70.1223 286.336 70.1223 282.068Z" fill="white"/>
<rect width="130" height="130" transform="translate(130 260)" fill="#7CD1E3"/>
<path fill-rule="evenodd" clip-rule="evenodd" d="M191.068 311.252L164.264 263.852C163.881 263.175 162.906 263.175 162.523 263.852L135.719 311.252C135.342 311.919 135.823 312.745 136.589 312.745H190.197C190.963 312.745 191.445 311.919 191.068 311.252ZM165.134 263.36C164.368 262.006 162.418 262.006 161.652 263.36L134.848 310.76C134.094 312.093 135.058 313.745 136.589 313.745H190.197C191.729 313.745 192.692 312.093 191.938 310.76L165.134 263.36ZM187.129 351.732C187.129 365.965 175.865 377.463 162.019 377.463C148.173 377.463 136.909 365.965 136.909 351.732C136.909 337.498 148.173 326 162.019 326C175.865 326 187.129 337.498 187.129 351.732ZM188.129 351.732C188.129 366.495 176.439 378.463 162.019 378.463C147.599 378.463 135.909 366.495 135.909 351.732C135.909 336.968 147.599 325 162.019 325C176.439 325 188.129 336.968 188.129 351.732ZM201.122 326H247.763C248.316 326 248.763 326.448 248.763 327V373.649C248.763 374.202 248.316 374.649 247.763 374.649H201.122C200.57 374.649 200.122 374.202 200.122 373.649V327C200.122 326.448 200.57 326 201.122 326ZM199.122 327C199.122 325.895 200.018 325 201.122 325H247.763C248.868 325 249.763 325.895 249.763 327V373.649C249.763 374.754 248.868 375.649 247.763 375.649H201.122C200.018 375.649 199.122 374.754 199.122 373.649V327ZM233.2 307.695L233.199 307.696L233.155 307.735C231.369 309.302 229.347 311.076 227.25 312.964C226.692 313.467 225.975 313.745 225.232 313.745C224.489 313.745 223.772 313.467 223.214 312.964C221.101 311.062 219.066 309.276 217.271 307.7L217.27 307.7L217.267 307.697C212.006 303.081 207.463 299.094 204.302 295.167C200.768 290.777 199.122 286.615 199.122 282.068C199.122 277.65 200.594 273.574 203.265 270.59C205.968 267.572 209.677 265.909 213.71 265.909C216.724 265.909 219.485 266.89 221.915 268.825C222.887 269.599 223.786 270.51 224.605 271.549C224.82 271.821 225.029 272.102 225.232 272.392C225.436 272.102 225.645 271.821 225.859 271.549C226.678 270.51 227.578 269.599 228.549 268.825C230.98 266.89 233.74 265.909 236.755 265.909C240.787 265.909 244.496 267.572 247.2 270.59C249.871 273.574 251.342 277.65 251.342 282.067C251.342 286.615 249.697 290.777 246.163 295.167C243.003 299.094 238.46 303.08 233.2 307.695ZM200.122 282.068C200.122 277.869 201.52 274.038 204.01 271.258L204.01 271.257C206.524 268.449 209.963 266.909 213.71 266.909C216.491 266.909 219.033 267.809 221.292 269.608L221.292 269.608C222.438 270.52 223.485 271.643 224.414 272.966L225.232 274.131L226.051 272.966C226.98 271.643 228.027 270.52 229.172 269.608C231.431 267.809 233.974 266.909 236.755 266.909C240.501 266.909 243.94 268.449 246.455 271.258C248.944 274.038 250.342 277.869 250.342 282.067C250.342 286.336 248.81 290.284 245.384 294.54L245.384 294.54C242.29 298.385 237.822 302.309 232.54 306.944L232.54 306.944L232.495 306.984C230.709 308.551 228.683 310.328 226.581 312.221L226.581 312.222C226.204 312.561 225.725 312.745 225.232 312.745C224.739 312.745 224.261 312.561 223.883 312.221L223.883 312.22C221.765 310.314 219.726 308.525 217.932 306.95L217.926 306.945L217.926 306.945C212.643 302.31 208.175 298.385 205.081 294.54C201.655 290.284 200.122 286.336 200.122 282.068Z" fill="white"/>
<rect width="130" height="130" transform="translate(260 260)" fill="#7CD1E3"/>
<path fill-rule="evenodd" clip-rule="evenodd" d="M321.068 311.252L294.264 263.852C293.881 263.175 292.906 263.175 292.523 263.852L265.719 311.252C265.342 311.919 265.823 312.745 266.589 312.745H320.197C320.963 312.745 321.445 311.919 321.068 311.252ZM295.134 263.36C294.368 262.006 292.418 262.006 291.652 263.36L264.848 310.76C264.094 312.093 265.058 313.745 266.589 313.745H320.197C321.729 313.745 322.692 312.093 321.938 310.76L295.134 263.36ZM317.129 351.732C317.129 365.965 305.865 377.463 292.019 377.463C278.173 377.463 266.909 365.965 266.909 351.732C266.909 337.498 278.173 326 292.019 326C305.865 326 317.129 337.498 317.129 351.732ZM318.129 351.732C318.129 366.495 306.439 378.463 292.019 378.463C277.599 378.463 265.909 366.495 265.909 351.732C265.909 336.968 277.599 325 292.019 325C306.439 325 318.129 336.968 318.129 351.732ZM331.122 326H377.763C378.316 326 378.763 326.448 378.763 327V373.649C378.763 374.202 378.316 374.649 377.763 374.649H331.122C330.57 374.649 330.122 374.202 330.122 373.649V327C330.122 326.448 330.57 326 331.122 326ZM329.122 327C329.122 325.895 330.018 325 331.122 325H377.763C378.868 325 379.763 325.895 379.763 327V373.649C379.763 374.754 378.868 375.649 377.763 375.649H331.122C330.018 375.649 329.122 374.754 329.122 373.649V327ZM363.2 307.695L363.199 307.696L363.155 307.735C361.369 309.302 359.347 311.076 357.25 312.964C356.692 313.467 355.975 313.745 355.232 313.745C354.489 313.745 353.772 313.467 353.214 312.964C351.101 311.062 349.066 309.276 347.271 307.7L347.27 307.7L347.267 307.697C342.006 303.081 337.463 299.094 334.302 295.167C330.768 290.777 329.122 286.615 329.122 282.068C329.122 277.65 330.594 273.574 333.265 270.59C335.968 267.572 339.677 265.909 343.71 265.909C346.724 265.909 349.485 266.89 351.915 268.825C352.887 269.599 353.786 270.51 354.605 271.549C354.82 271.821 355.029 272.102 355.232 272.392C355.436 272.102 355.645 271.821 355.859 271.549C356.678 270.51 357.578 269.599 358.549 268.825C360.98 266.89 363.74 265.909 366.755 265.909C370.787 265.909 374.496 267.572 377.2 270.59C379.871 273.574 381.342 277.65 381.342 282.067C381.342 286.615 379.697 290.777 376.163 295.167C373.003 299.094 368.46 303.08 363.2 307.695ZM330.122 282.068C330.122 277.869 331.52 274.038 334.01 271.258L334.01 271.257C336.524 268.449 339.963 266.909 343.71 266.909C346.491 266.909 349.033 267.809 351.292 269.608L351.292 269.608C352.438 270.52 353.485 271.643 354.414 272.966L355.232 274.131L356.051 272.966C356.98 271.643 358.027 270.52 359.172 269.608C361.431 267.809 363.974 266.909 366.755 266.909C370.501 266.909 373.94 268.449 376.455 271.258C378.944 274.038 380.342 277.869 380.342 282.067C380.342 286.336 378.81 290.284 375.384 294.54L375.384 294.54C372.29 298.385 367.822 302.309 362.54 306.944L362.54 306.944L362.495 306.984C360.709 308.551 358.683 310.328 356.581 312.221L356.581 312.222C356.204 312.561 355.725 312.745 355.232 312.745C354.739 312.745 354.261 312.561 353.883 312.221L353.883 312.22C351.765 310.314 349.726 308.525 347.932 306.95L347.926 306.945L347.926 306.945C342.643 302.31 338.175 298.385 335.081 294.54C331.655 290.284 330.122 286.336 330.122 282.068Z" fill="white"/>
<rect width="130" height="130" transform="translate(0 390)" fill="#7CD1E3"/>
<path fill-rule="evenodd" clip-rule="evenodd" d="M61.0676 441.252L34.2637 393.852C33.8808 393.175 32.9056 393.175 32.5227 393.852L5.71877 441.252C5.3418 441.919 5.8234 442.745 6.58923 442.745H60.1972C60.963 442.745 61.4446 441.919 61.0676 441.252ZM35.1341 393.36C34.3684 392.006 32.418 392.006 31.6523 393.36L4.8483 440.76C4.09437 442.093 5.05757 443.745 6.58923 443.745H60.1972C61.7288 443.745 62.692 442.093 61.9381 440.76L35.1341 393.36ZM57.1289 481.732C57.1289 495.965 45.8648 507.463 32.019 507.463C18.1732 507.463 6.90906 495.965 6.90906 481.732C6.90906 467.498 18.1732 456 32.019 456C45.8648 456 57.1289 467.498 57.1289 481.732ZM58.1289 481.732C58.1289 496.495 46.4391 508.463 32.019 508.463C17.5989 508.463 5.90906 496.495 5.90906 481.732C5.90906 466.968 17.5989 455 32.019 455C46.4391 455 58.1289 466.968 58.1289 481.732ZM71.1223 456H117.763C118.316 456 118.763 456.448 118.763 457V503.649C118.763 504.202 118.316 504.649 117.763 504.649H71.1223C70.5701 504.649 70.1223 504.202 70.1223 503.649V457C70.1223 456.448 70.5701 456 71.1223 456ZM69.1223 457C69.1223 455.895 70.0178 455 71.1223 455H117.763C118.868 455 119.763 455.895 119.763 457V503.649C119.763 504.754 118.868 505.649 117.763 505.649H71.1223C70.0178 505.649 69.1223 504.754 69.1223 503.649V457ZM103.2 437.695L103.199 437.696L103.155 437.735C101.369 439.302 99.3472 441.076 97.2502 442.964C96.6924 443.467 95.9753 443.745 95.2323 443.745C94.4889 443.745 93.7721 443.467 93.2136 442.964C91.1008 441.062 89.0661 439.276 87.2707 437.7L87.27 437.7L87.2666 437.697C82.0056 433.081 77.4626 429.094 74.3016 425.167C70.7682 420.777 69.1223 416.615 69.1223 412.068C69.1223 407.65 70.5937 403.574 73.2646 400.59C75.9678 397.572 79.6773 395.909 83.71 395.909C86.7243 395.909 89.4849 396.89 91.9148 398.825C92.8867 399.599 93.7864 400.51 94.6053 401.549C94.8199 401.821 95.0289 402.102 95.2323 402.392C95.4357 402.102 95.6447 401.821 95.8593 401.549C96.6783 400.51 97.5777 399.599 98.5494 398.825C100.98 396.89 103.74 395.909 106.755 395.909C110.787 395.909 114.496 397.572 117.2 400.59C119.871 403.574 121.342 407.65 121.342 412.067C121.342 416.615 119.697 420.777 116.163 425.167C113.003 429.094 108.46 433.08 103.2 437.695ZM70.1223 412.068C70.1223 407.869 71.5202 404.038 74.0095 401.258L74.0096 401.257C76.5242 398.449 79.9633 396.909 83.71 396.909C86.4906 396.909 89.0331 397.809 91.2918 399.608L91.2919 399.608C92.4375 400.52 93.4847 401.643 94.4139 402.966L95.2322 404.131L96.0506 402.966C96.9802 401.643 98.027 400.52 99.1723 399.608C101.431 397.809 103.974 396.909 106.755 396.909C110.501 396.909 113.94 398.449 116.455 401.258C118.944 404.038 120.342 407.869 120.342 412.067C120.342 416.336 118.81 420.284 115.384 424.54L115.384 424.54C112.29 428.385 107.822 432.309 102.54 436.944L102.54 436.944L102.495 436.984C100.709 438.551 98.6831 440.328 96.5811 442.221L96.5806 442.222C96.2043 442.561 95.725 442.745 95.2323 442.745C94.7394 442.745 94.2605 442.561 93.8833 442.221L93.8826 442.22C91.7651 440.314 89.7264 438.525 87.9318 436.95L87.9261 436.945L87.9261 436.945C82.6431 432.31 78.1755 428.385 75.0806 424.54C71.655 420.284 70.1223 416.336 70.1223 412.068Z" fill="white"/>
<rect width="130" height="130" transform="translate(130 390)" fill="#7CD1E3"/>
<path fill-rule="evenodd" clip-rule="evenodd" d="M191.068 441.252L164.264 393.852C163.881 393.175 162.906 393.175 162.523 393.852L135.719 441.252C135.342 441.919 135.823 442.745 136.589 442.745H190.197C190.963 442.745 191.445 441.919 191.068 441.252ZM165.134 393.36C164.368 392.006 162.418 392.006 161.652 393.36L134.848 440.76C134.094 442.093 135.058 443.745 136.589 443.745H190.197C191.729 443.745 192.692 442.093 191.938 440.76L165.134 393.36ZM187.129 481.732C187.129 495.965 175.865 507.463 162.019 507.463C148.173 507.463 136.909 495.965 136.909 481.732C136.909 467.498 148.173 456 162.019 456C175.865 456 187.129 467.498 187.129 481.732ZM188.129 481.732C188.129 496.495 176.439 508.463 162.019 508.463C147.599 508.463 135.909 496.495 135.909 481.732C135.909 466.968 147.599 455 162.019 455C176.439 455 188.129 466.968 188.129 481.732ZM201.122 456H247.763C248.316 456 248.763 456.448 248.763 457V503.649C248.763 504.202 248.316 504.649 247.763 504.649H201.122C200.57 504.649 200.122 504.202 200.122 503.649V457C200.122 456.448 200.57 456 201.122 456ZM199.122 457C199.122 455.895 200.018 455 201.122 455H247.763C248.868 455 249.763 455.895 249.763 457V503.649C249.763 504.754 248.868 505.649 247.763 505.649H201.122C200.018 505.649 199.122 504.754 199.122 503.649V457ZM233.2 437.695L233.199 437.696L233.155 437.735C231.369 439.302 229.347 441.076 227.25 442.964C226.692 443.467 225.975 443.745 225.232 443.745C224.489 443.745 223.772 443.467 223.214 442.964C221.101 441.062 219.066 439.276 217.271 437.7L217.27 437.7L217.267 437.697C212.006 433.081 207.463 429.094 204.302 425.167C200.768 420.777 199.122 416.615 199.122 412.068C199.122 407.65 200.594 403.574 203.265 400.59C205.968 397.572 209.677 395.909 213.71 395.909C216.724 395.909 219.485 396.89 221.915 398.825C222.887 399.599 223.786 400.51 224.605 401.549C224.82 401.821 225.029 402.102 225.232 402.392C225.436 402.102 225.645 401.821 225.859 401.549C226.678 400.51 227.578 399.599 228.549 398.825C230.98 396.89 233.74 395.909 236.755 395.909C240.787 395.909 244.496 397.572 247.2 400.59C249.871 403.574 251.342 407.65 251.342 412.067C251.342 416.615 249.697 420.777 246.163 425.167C243.003 429.094 238.46 433.08 233.2 437.695ZM200.122 412.068C200.122 407.869 201.52 404.038 204.01 401.258L204.01 401.257C206.524 398.449 209.963 396.909 213.71 396.909C216.491 396.909 219.033 397.809 221.292 399.608L221.292 399.608C222.438 400.52 223.485 401.643 224.414 402.966L225.232 404.131L226.051 402.966C226.98 401.643 228.027 400.52 229.172 399.608C231.431 397.809 233.974 396.909 236.755 396.909C240.501 396.909 243.94 398.449 246.455 401.258C248.944 404.038 250.342 407.869 250.342 412.067C250.342 416.336 248.81 420.284 245.384 424.54L245.384 424.54C242.29 428.385 237.822 432.309 232.54 436.944L232.54 436.944L232.495 436.984C230.709 438.551 228.683 440.328 226.581 442.221L226.581 442.222C226.204 442.561 225.725 442.745 225.232 442.745C224.739 442.745 224.261 442.561 223.883 442.221L223.883 442.22C221.765 440.314 219.726 438.525 217.932 436.95L217.926 436.945L217.926 436.945C212.643 432.31 208.175 428.385 205.081 424.54C201.655 420.284 200.122 416.336 200.122 412.068Z" fill="white"/>
<rect width="130" height="130" transform="translate(260 390)" fill="#7CD1E3"/>
<path fill-rule="evenodd" clip-rule="evenodd" d="M321.068 441.252L294.264 393.852C293.881 393.175 292.906 393.175 292.523 393.852L265.719 441.252C265.342 441.919 265.823 442.745 266.589 442.745H320.197C320.963 442.745 321.445 441.919 321.068 441.252ZM295.134 393.36C294.368 392.006 292.418 392.006 291.652 393.36L264.848 440.76C264.094 442.093 265.058 443.745 266.589 443.745H320.197C321.729 443.745 322.692 442.093 321.938 440.76L295.134 393.36ZM317.129 481.732C317.129 495.965 305.865 507.463 292.019 507.463C278.173 507.463 266.909 495.965 266.909 481.732C266.909 467.498 278.173 456 292.019 456C305.865 456 317.129 467.498 317.129 481.732ZM318.129 481.732C318.129 496.495 306.439 508.463 292.019 508.463C277.599 508.463 265.909 496.495 265.909 481.732C265.909 466.968 277.599 455 292.019 455C306.439 455 318.129 466.968 318.129 481.732ZM331.122 456H377.763C378.316 456 378.763 456.448 378.763 457V503.649C378.763 504.202 378.316 504.649 377.763 504.649H331.122C330.57 504.649 330.122 504.202 330.122 503.649V457C330.122 456.448 330.57 456 331.122 456ZM329.122 457C329.122 455.895 330.018 455 331.122 455H377.763C378.868 455 379.763 455.895 379.763 457V503.649C379.763 504.754 378.868 505.649 377.763 505.649H331.122C330.018 505.649 329.122 504.754 329.122 503.649V457ZM363.2 437.695L363.199 437.696L363.155 437.735C361.369 439.302 359.347 441.076 357.25 442.964C356.692 443.467 355.975 443.745 355.232 443.745C354.489 443.745 353.772 443.467 353.214 442.964C351.101 441.062 349.066 439.276 347.271 437.7L347.27 437.7L347.267 437.697C342.006 433.081 337.463 429.094 334.302 425.167C330.768 420.777 329.122 416.615 329.122 412.068C329.122 407.65 330.594 403.574 333.265 400.59C335.968 397.572 339.677 395.909 343.71 395.909C346.724 395.909 349.485 396.89 351.915 398.825C352.887 399.599 353.786 400.51 354.605 401.549C354.82 401.821 355.029 402.102 355.232 402.392C355.436 402.102 355.645 401.821 355.859 401.549C356.678 400.51 357.578 399.599 358.549 398.825C360.98 396.89 363.74 395.909 366.755 395.909C370.787 395.909 374.496 397.572 377.2 400.59C379.871 403.574 381.342 407.65 381.342 412.067C381.342 416.615 379.697 420.777 376.163 425.167C373.003 429.094 368.46 433.08 363.2 437.695ZM330.122 412.068C330.122 407.869 331.52 404.038 334.01 401.258L334.01 401.257C336.524 398.449 339.963 396.909 343.71 396.909C346.491 396.909 349.033 397.809 351.292 399.608L351.292 399.608C352.438 400.52 353.485 401.643 354.414 402.966L355.232 404.131L356.051 402.966C356.98 401.643 358.027 400.52 359.172 399.608C361.431 397.809 363.974 396.909 366.755 396.909C370.501 396.909 373.94 398.449 376.455 401.258C378.944 404.038 380.342 407.869 380.342 412.067C380.342 416.336 378.81 420.284 375.384 424.54L375.384 424.54C372.29 428.385 367.822 432.309 362.54 436.944L362.54 436.944L362.495 436.984C360.709 438.551 358.683 440.328 356.581 442.221L356.581 442.222C356.204 442.561 355.725 442.745 355.232 442.745C354.739 442.745 354.261 442.561 353.883 442.221L353.883 442.22C351.765 440.314 349.726 438.525 347.932 436.95L347.926 436.945L347.926 436.945C342.643 432.31 338.175 428.385 335.081 424.54C331.655 420.284 330.122 416.336 330.122 412.068Z" fill="white"/>
<rect width="130" height="130" transform="translate(0 520)" fill="#7CD1E3"/>
<path fill-rule="evenodd" clip-rule="evenodd" d="M61.0676 571.252L34.2637 523.852C33.8808 523.175 32.9056 523.175 32.5227 523.852L5.71877 571.252C5.3418 571.919 5.8234 572.745 6.58923 572.745H60.1972C60.963 572.745 61.4446 571.919 61.0676 571.252ZM35.1341 523.36C34.3684 522.006 32.418 522.006 31.6523 523.36L4.8483 570.76C4.09437 572.093 5.05757 573.745 6.58923 573.745H60.1972C61.7288 573.745 62.692 572.093 61.9381 570.76L35.1341 523.36ZM57.1289 611.732C57.1289 625.965 45.8648 637.463 32.019 637.463C18.1732 637.463 6.90906 625.965 6.90906 611.732C6.90906 597.498 18.1732 586 32.019 586C45.8648 586 57.1289 597.498 57.1289 611.732ZM58.1289 611.732C58.1289 626.495 46.4391 638.463 32.019 638.463C17.5989 638.463 5.90906 626.495 5.90906 611.732C5.90906 596.968 17.5989 585 32.019 585C46.4391 585 58.1289 596.968 58.1289 611.732ZM71.1223 586H117.763C118.316 586 118.763 586.448 118.763 587V633.649C118.763 634.202 118.316 634.649 117.763 634.649H71.1223C70.5701 634.649 70.1223 634.202 70.1223 633.649V587C70.1223 586.448 70.5701 586 71.1223 586ZM69.1223 587C69.1223 585.895 70.0178 585 71.1223 585H117.763C118.868 585 119.763 585.895 119.763 587V633.649C119.763 634.754 118.868 635.649 117.763 635.649H71.1223C70.0178 635.649 69.1223 634.754 69.1223 633.649V587ZM103.2 567.695L103.199 567.696L103.155 567.735C101.369 569.302 99.3472 571.076 97.2502 572.964C96.6924 573.467 95.9753 573.745 95.2323 573.745C94.4889 573.745 93.7721 573.467 93.2136 572.964C91.1008 571.062 89.0661 569.276 87.2707 567.7L87.27 567.7L87.2666 567.697C82.0056 563.081 77.4626 559.094 74.3016 555.167C70.7682 550.777 69.1223 546.615 69.1223 542.068C69.1223 537.65 70.5937 533.574 73.2646 530.59C75.9678 527.572 79.6773 525.909 83.71 525.909C86.7243 525.909 89.4849 526.89 91.9148 528.825C92.8867 529.599 93.7864 530.51 94.6053 531.549C94.8199 531.821 95.0289 532.102 95.2323 532.392C95.4357 532.102 95.6447 531.821 95.8593 531.549C96.6783 530.51 97.5777 529.599 98.5494 528.825C100.98 526.89 103.74 525.909 106.755 525.909C110.787 525.909 114.496 527.572 117.2 530.59C119.871 533.574 121.342 537.65 121.342 542.067C121.342 546.615 119.697 550.777 116.163 555.167C113.003 559.094 108.46 563.08 103.2 567.695ZM70.1223 542.068C70.1223 537.869 71.5202 534.038 74.0095 531.258L74.0096 531.257C76.5242 528.449 79.9633 526.909 83.71 526.909C86.4906 526.909 89.0331 527.809 91.2918 529.608L91.2919 529.608C92.4375 530.52 93.4847 531.643 94.4139 532.966L95.2322 534.131L96.0506 532.966C96.9802 531.643 98.027 530.52 99.1723 529.608C101.431 527.809 103.974 526.909 106.755 526.909C110.501 526.909 113.94 528.449 116.455 531.258C118.944 534.038 120.342 537.869 120.342 542.067C120.342 546.336 118.81 550.284 115.384 554.54L115.384 554.54C112.29 558.385 107.822 562.309 102.54 566.944L102.54 566.944L102.495 566.984C100.709 568.551 98.6831 570.328 96.5811 572.221L96.5806 572.222C96.2043 572.561 95.725 572.745 95.2323 572.745C94.7394 572.745 94.2605 572.561 93.8833 572.221L93.8826 572.22C91.7651 570.314 89.7264 568.525 87.9318 566.95L87.9261 566.945L87.9261 566.945C82.6431 562.31 78.1755 558.385 75.0806 554.54C71.655 550.284 70.1223 546.336 70.1223 542.068Z" fill="white"/>
<rect width="130" height="130" transform="translate(130 520)" fill="#7CD1E3"/>
<path fill-rule="evenodd" clip-rule="evenodd" d="M191.068 571.252L164.264 523.852C163.881 523.175 162.906 523.175 162.523 523.852L135.719 571.252C135.342 571.919 135.823 572.745 136.589 572.745H190.197C190.963 572.745 191.445 571.919 191.068 571.252ZM165.134 523.36C164.368 522.006 162.418 522.006 161.652 523.36L134.848 570.76C134.094 572.093 135.058 573.745 136.589 573.745H190.197C191.729 573.745 192.692 572.093 191.938 570.76L165.134 523.36ZM187.129 611.732C187.129 625.965 175.865 637.463 162.019 637.463C148.173 637.463 136.909 625.965 136.909 611.732C136.909 597.498 148.173 586 162.019 586C175.865 586 187.129 597.498 187.129 611.732ZM188.129 611.732C188.129 626.495 176.439 638.463 162.019 638.463C147.599 638.463 135.909 626.495 135.909 611.732C135.909 596.968 147.599 585 162.019 585C176.439 585 188.129 596.968 188.129 611.732ZM201.122 586H247.763C248.316 586 248.763 586.448 248.763 587V633.649C248.763 634.202 248.316 634.649 247.763 634.649H201.122C200.57 634.649 200.122 634.202 200.122 633.649V587C200.122 586.448 200.57 586 201.122 586ZM199.122 587C199.122 585.895 200.018 585 201.122 585H247.763C248.868 585 249.763 585.895 249.763 587V633.649C249.763 634.754 248.868 635.649 247.763 635.649H201.122C200.018 635.649 199.122 634.754 199.122 633.649V587ZM233.2 567.695L233.199 567.696L233.155 567.735C231.369 569.302 229.347 571.076 227.25 572.964C226.692 573.467 225.975 573.745 225.232 573.745C224.489 573.745 223.772 573.467 223.214 572.964C221.101 571.062 219.066 569.276 217.271 567.7L217.27 567.7L217.267 567.697C212.006 563.081 207.463 559.094 204.302 555.167C200.768 550.777 199.122 546.615 199.122 542.068C199.122 537.65 200.594 533.574 203.265 530.59C205.968 527.572 209.677 525.909 213.71 525.909C216.724 525.909 219.485 526.89 221.915 528.825C222.887 529.599 223.786 530.51 224.605 531.549C224.82 531.821 225.029 532.102 225.232 532.392C225.436 532.102 225.645 531.821 225.859 531.549C226.678 530.51 227.578 529.599 228.549 528.825C230.98 526.89 233.74 525.909 236.755 525.909C240.787 525.909 244.496 527.572 247.2 530.59C249.871 533.574 251.342 537.65 251.342 542.067C251.342 546.615 249.697 550.777 246.163 555.167C243.003 559.094 238.46 563.08 233.2 567.695ZM200.122 542.068C200.122 537.869 201.52 534.038 204.01 531.258L204.01 531.257C206.524 528.449 209.963 526.909 213.71 526.909C216.491 526.909 219.033 527.809 221.292 529.608L221.292 529.608C222.438 530.52 223.485 531.643 224.414 532.966L225.232 534.131L226.051 532.966C226.98 531.643 228.027 530.52 229.172 529.608C231.431 527.809 233.974 526.909 236.755 526.909C240.501 526.909 243.94 528.449 246.455 531.258C248.944 534.038 250.342 537.869 250.342 542.067C250.342 546.336 248.81 550.284 245.384 554.54L245.384 554.54C242.29 558.385 237.822 562.309 232.54 566.944L232.54 566.944L232.495 566.984C230.709 568.551 228.683 570.328 226.581 572.221L226.581 572.222C226.204 572.561 225.725 572.745 225.232 572.745C224.739 572.745 224.261 572.561 223.883 572.221L223.883 572.22C221.765 570.314 219.726 568.525 217.932 566.95L217.926 566.945L217.926 566.945C212.643 562.31 208.175 558.385 205.081 554.54C201.655 550.284 200.122 546.336 200.122 542.068Z" fill="white"/>
<rect width="130" height="130" transform="translate(260 520)" fill="#7CD1E3"/>
<path fill-rule="evenodd" clip-rule="evenodd" d="M321.068 571.252L294.264 523.852C293.881 523.175 292.906 523.175 292.523 523.852L265.719 571.252C265.342 571.919 265.823 572.745 266.589 572.745H320.197C320.963 572.745 321.445 571.919 321.068 571.252ZM295.134 523.36C294.368 522.006 292.418 522.006 291.652 523.36L264.848 570.76C264.094 572.093 265.058 573.745 266.589 573.745H320.197C321.729 573.745 322.692 572.093 321.938 570.76L295.134 523.36ZM317.129 611.732C317.129 625.965 305.865 637.463 292.019 637.463C278.173 637.463 266.909 625.965 266.909 611.732C266.909 597.498 278.173 586 292.019 586C305.865 586 317.129 597.498 317.129 611.732ZM318.129 611.732C318.129 626.495 306.439 638.463 292.019 638.463C277.599 638.463 265.909 626.495 265.909 611.732C265.909 596.968 277.599 585 292.019 585C306.439 585 318.129 596.968 318.129 611.732ZM331.122 586H377.763C378.316 586 378.763 586.448 378.763 587V633.649C378.763 634.202 378.316 634.649 377.763 634.649H331.122C330.57 634.649 330.122 634.202 330.122 633.649V587C330.122 586.448 330.57 586 331.122 586ZM329.122 587C329.122 585.895 330.018 585 331.122 585H377.763C378.868 585 379.763 585.895 379.763 587V633.649C379.763 634.754 378.868 635.649 377.763 635.649H331.122C330.018 635.649 329.122 634.754 329.122 633.649V587ZM363.2 567.695L363.199 567.696L363.155 567.735C361.369 569.302 359.347 571.076 357.25 572.964C356.692 573.467 355.975 573.745 355.232 573.745C354.489 573.745 353.772 573.467 353.214 572.964C351.101 571.062 349.066 569.276 347.271 567.7L347.27 567.7L347.267 567.697C342.006 563.081 337.463 559.094 334.302 555.167C330.768 550.777 329.122 546.615 329.122 542.068C329.122 537.65 330.594 533.574 333.265 530.59C335.968 527.572 339.677 525.909 343.71 525.909C346.724 525.909 349.485 526.89 351.915 528.825C352.887 529.599 353.786 530.51 354.605 531.549C354.82 531.821 355.029 532.102 355.232 532.392C355.436 532.102 355.645 531.821 355.859 531.549C356.678 530.51 357.578 529.599 358.549 528.825C360.98 526.89 363.74 525.909 366.755 525.909C370.787 525.909 374.496 527.572 377.2 530.59C379.871 533.574 381.342 537.65 381.342 542.067C381.342 546.615 379.697 550.777 376.163 555.167C373.003 559.094 368.46 563.08 363.2 567.695ZM330.122 542.068C330.122 537.869 331.52 534.038 334.01 531.258L334.01 531.257C336.524 528.449 339.963 526.909 343.71 526.909C346.491 526.909 349.033 527.809 351.292 529.608L351.292 529.608C352.438 530.52 353.485 531.643 354.414 532.966L355.232 534.131L356.051 532.966C356.98 531.643 358.027 530.52 359.172 529.608C361.431 527.809 363.974 526.909 366.755 526.909C370.501 526.909 373.94 528.449 376.455 531.258C378.944 534.038 380.342 537.869 380.342 542.067C380.342 546.336 378.81 550.284 375.384 554.54L375.384 554.54C372.29 558.385 367.822 562.309 362.54 566.944L362.54 566.944L362.495 566.984C360.709 568.551 358.683 570.328 356.581 572.221L356.581 572.222C356.204 572.561 355.725 572.745 355.232 572.745C354.739 572.745 354.261 572.561 353.883 572.221L353.883 572.22C351.765 570.314 349.726 568.525 347.932 566.95L347.926 566.945L347.926 566.945C342.643 562.31 338.175 558.385 335.081 554.54C331.655 550.284 330.122 546.336 330.122 542.068Z" fill="white"/>
<rect width="130" height="130" transform="translate(0 650)" fill="#7CD1E3"/>
<path fill-rule="evenodd" clip-rule="evenodd" d="M61.0676 701.252L34.2637 653.852C33.8808 653.175 32.9056 653.175 32.5227 653.852L5.71877 701.252C5.3418 701.919 5.8234 702.745 6.58923 702.745H60.1972C60.963 702.745 61.4446 701.919 61.0676 701.252ZM35.1341 653.36C34.3684 652.006 32.418 652.006 31.6523 653.36L4.8483 700.76C4.09437 702.093 5.05757 703.745 6.58923 703.745H60.1972C61.7288 703.745 62.692 702.093 61.9381 700.76L35.1341 653.36ZM57.1289 741.732C57.1289 755.965 45.8648 767.463 32.019 767.463C18.1732 767.463 6.90906 755.965 6.90906 741.732C6.90906 727.498 18.1732 716 32.019 716C45.8648 716 57.1289 727.498 57.1289 741.732ZM58.1289 741.732C58.1289 756.495 46.4391 768.463 32.019 768.463C17.5989 768.463 5.90906 756.495 5.90906 741.732C5.90906 726.968 17.5989 715 32.019 715C46.4391 715 58.1289 726.968 58.1289 741.732ZM71.1223 716H117.763C118.316 716 118.763 716.448 118.763 717V763.649C118.763 764.202 118.316 764.649 117.763 764.649H71.1223C70.5701 764.649 70.1223 764.202 70.1223 763.649V717C70.1223 716.448 70.5701 716 71.1223 716ZM69.1223 717C69.1223 715.895 70.0178 715 71.1223 715H117.763C118.868 715 119.763 715.895 119.763 717V763.649C119.763 764.754 118.868 765.649 117.763 765.649H71.1223C70.0178 765.649 69.1223 764.754 69.1223 763.649V717ZM103.2 697.695L103.199 697.696L103.155 697.735C101.369 699.302 99.3472 701.076 97.2502 702.964C96.6924 703.467 95.9753 703.745 95.2323 703.745C94.4889 703.745 93.7721 703.467 93.2136 702.964C91.1008 701.062 89.0661 699.276 87.2707 697.7L87.27 697.7L87.2666 697.697C82.0056 693.081 77.4626 689.094 74.3016 685.167C70.7682 680.777 69.1223 676.615 69.1223 672.068C69.1223 667.65 70.5937 663.574 73.2646 660.59C75.9678 657.572 79.6773 655.909 83.71 655.909C86.7243 655.909 89.4849 656.89 91.9148 658.825C92.8867 659.599 93.7864 660.51 94.6053 661.549C94.8199 661.821 95.0289 662.102 95.2323 662.392C95.4357 662.102 95.6447 661.821 95.8593 661.549C96.6783 660.51 97.5777 659.599 98.5494 658.825C100.98 656.89 103.74 655.909 106.755 655.909C110.787 655.909 114.496 657.572 117.2 660.59C119.871 663.574 121.342 667.65 121.342 672.067C121.342 676.615 119.697 680.777 116.163 685.167C113.003 689.094 108.46 693.08 103.2 697.695ZM70.1223 672.068C70.1223 667.869 71.5202 664.038 74.0095 661.258L74.0096 661.257C76.5242 658.449 79.9633 656.909 83.71 656.909C86.4906 656.909 89.0331 657.809 91.2918 659.608L91.2919 659.608C92.4375 660.52 93.4847 661.643 94.4139 662.966L95.2322 664.131L96.0506 662.966C96.9802 661.643 98.027 660.52 99.1723 659.608C101.431 657.809 103.974 656.909 106.755 656.909C110.501 656.909 113.94 658.449 116.455 661.258C118.944 664.038 120.342 667.869 120.342 672.067C120.342 676.336 118.81 680.284 115.384 684.54L115.384 684.54C112.29 688.385 107.822 692.309 102.54 696.944L102.54 696.944L102.495 696.984C100.709 698.551 98.6831 700.328 96.5811 702.221L96.5806 702.222C96.2043 702.561 95.725 702.745 95.2323 702.745C94.7394 702.745 94.2605 702.561 93.8833 702.221L93.8826 702.22C91.7651 700.314 89.7264 698.525 87.9318 696.95L87.9261 696.945L87.9261 696.945C82.6431 692.31 78.1755 688.385 75.0806 684.54C71.655 680.284 70.1223 676.336 70.1223 672.068Z" fill="white"/>
<rect width="130" height="130" transform="translate(130 650)" fill="#7CD1E3"/>
<path fill-rule="evenodd" clip-rule="evenodd" d="M191.068 701.252L164.264 653.852C163.881 653.175 162.906 653.175 162.523 653.852L135.719 701.252C135.342 701.919 135.823 702.745 136.589 702.745H190.197C190.963 702.745 191.445 701.919 191.068 701.252ZM165.134 653.36C164.368 652.006 162.418 652.006 161.652 653.36L134.848 700.76C134.094 702.093 135.058 703.745 136.589 703.745H190.197C191.729 703.745 192.692 702.093 191.938 700.76L165.134 653.36ZM187.129 741.732C187.129 755.965 175.865 767.463 162.019 767.463C148.173 767.463 136.909 755.965 136.909 741.732C136.909 727.498 148.173 716 162.019 716C175.865 716 187.129 727.498 187.129 741.732ZM188.129 741.732C188.129 756.495 176.439 768.463 162.019 768.463C147.599 768.463 135.909 756.495 135.909 741.732C135.909 726.968 147.599 715 162.019 715C176.439 715 188.129 726.968 188.129 741.732ZM201.122 716H247.763C248.316 716 248.763 716.448 248.763 717V763.649C248.763 764.202 248.316 764.649 247.763 764.649H201.122C200.57 764.649 200.122 764.202 200.122 763.649V717C200.122 716.448 200.57 716 201.122 716ZM199.122 717C199.122 715.895 200.018 715 201.122 715H247.763C248.868 715 249.763 715.895 249.763 717V763.649C249.763 764.754 248.868 765.649 247.763 765.649H201.122C200.018 765.649 199.122 764.754 199.122 763.649V717ZM233.2 697.695L233.199 697.696L233.155 697.735C231.369 699.302 229.347 701.076 227.25 702.964C226.692 703.467 225.975 703.745 225.232 703.745C224.489 703.745 223.772 703.467 223.214 702.964C221.101 701.062 219.066 699.276 217.271 697.7L217.27 697.7L217.267 697.697C212.006 693.081 207.463 689.094 204.302 685.167C200.768 680.777 199.122 676.615 199.122 672.068C199.122 667.65 200.594 663.574 203.265 660.59C205.968 657.572 209.677 655.909 213.71 655.909C216.724 655.909 219.485 656.89 221.915 658.825C222.887 659.599 223.786 660.51 224.605 661.549C224.82 661.821 225.029 662.102 225.232 662.392C225.436 662.102 225.645 661.821 225.859 661.549C226.678 660.51 227.578 659.599 228.549 658.825C230.98 656.89 233.74 655.909 236.755 655.909C240.787 655.909 244.496 657.572 247.2 660.59C249.871 663.574 251.342 667.65 251.342 672.067C251.342 676.615 249.697 680.777 246.163 685.167C243.003 689.094 238.46 693.08 233.2 697.695ZM200.122 672.068C200.122 667.869 201.52 664.038 204.01 661.258L204.01 661.257C206.524 658.449 209.963 656.909 213.71 656.909C216.491 656.909 219.033 657.809 221.292 659.608L221.292 659.608C222.438 660.52 223.485 661.643 224.414 662.966L225.232 664.131L226.051 662.966C226.98 661.643 228.027 660.52 229.172 659.608C231.431 657.809 233.974 656.909 236.755 656.909C240.501 656.909 243.94 658.449 246.455 661.258C248.944 664.038 250.342 667.869 250.342 672.067C250.342 676.336 248.81 680.284 245.384 684.54L245.384 684.54C242.29 688.385 237.822 692.309 232.54 696.944L232.54 696.944L232.495 696.984C230.709 698.551 228.683 700.328 226.581 702.221L226.581 702.222C226.204 702.561 225.725 702.745 225.232 702.745C224.739 702.745 224.261 702.561 223.883 702.221L223.883 702.22C221.765 700.314 219.726 698.525 217.932 696.95L217.926 696.945L217.926 696.945C212.643 692.31 208.175 688.385 205.081 684.54C201.655 680.284 200.122 676.336 200.122 672.068Z" fill="white"/>
<rect width="130" height="130" transform="translate(260 650)" fill="#7CD1E3"/>
<path fill-rule="evenodd" clip-rule="evenodd" d="M321.068 701.252L294.264 653.852C293.881 653.175 292.906 653.175 292.523 653.852L265.719 701.252C265.342 701.919 265.823 702.745 266.589 702.745H320.197C320.963 702.745 321.445 701.919 321.068 701.252ZM295.134 653.36C294.368 652.006 292.418 652.006 291.652 653.36L264.848 700.76C264.094 702.093 265.058 703.745 266.589 703.745H320.197C321.729 703.745 322.692 702.093 321.938 700.76L295.134 653.36ZM317.129 741.732C317.129 755.965 305.865 767.463 292.019 767.463C278.173 767.463 266.909 755.965 266.909 741.732C266.909 727.498 278.173 716 292.019 716C305.865 716 317.129 727.498 317.129 741.732ZM318.129 741.732C318.129 756.495 306.439 768.463 292.019 768.463C277.599 768.463 265.909 756.495 265.909 741.732C265.909 726.968 277.599 715 292.019 715C306.439 715 318.129 726.968 318.129 741.732ZM331.122 716H377.763C378.316 716 378.763 716.448 378.763 717V763.649C378.763 764.202 378.316 764.649 377.763 764.649H331.122C330.57 764.649 330.122 764.202 330.122 763.649V717C330.122 716.448 330.57 716 331.122 716ZM329.122 717C329.122 715.895 330.018 715 331.122 715H377.763C378.868 715 379.763 715.895 379.763 717V763.649C379.763 764.754 378.868 765.649 377.763 765.649H331.122C330.018 765.649 329.122 764.754 329.122 763.649V717ZM363.2 697.695L363.199 697.696L363.155 697.735C361.369 699.302 359.347 701.076 357.25 702.964C356.692 703.467 355.975 703.745 355.232 703.745C354.489 703.745 353.772 703.467 353.214 702.964C351.101 701.062 349.066 699.276 347.271 697.7L347.27 697.7L347.267 697.697C342.006 693.081 337.463 689.094 334.302 685.167C330.768 680.777 329.122 676.615 329.122 672.068C329.122 667.65 330.594 663.574 333.265 660.59C335.968 657.572 339.677 655.909 343.71 655.909C346.724 655.909 349.485 656.89 351.915 658.825C352.887 659.599 353.786 660.51 354.605 661.549C354.82 661.821 355.029 662.102 355.232 662.392C355.436 662.102 355.645 661.821 355.859 661.549C356.678 660.51 357.578 659.599 358.549 658.825C360.98 656.89 363.74 655.909 366.755 655.909C370.787 655.909 374.496 657.572 377.2 660.59C379.871 663.574 381.342 667.65 381.342 672.067C381.342 676.615 379.697 680.777 376.163 685.167C373.003 689.094 368.46 693.08 363.2 697.695ZM330.122 672.068C330.122 667.869 331.52 664.038 334.01 661.258L334.01 661.257C336.524 658.449 339.963 656.909 343.71 656.909C346.491 656.909 349.033 657.809 351.292 659.608L351.292 659.608C352.438 660.52 353.485 661.643 354.414 662.966L355.232 664.131L356.051 662.966C356.98 661.643 358.027 660.52 359.172 659.608C361.431 657.809 363.974 656.909 366.755 656.909C370.501 656.909 373.94 658.449 376.455 661.258C378.944 664.038 380.342 667.869 380.342 672.067C380.342 676.336 378.81 680.284 375.384 684.54L375.384 684.54C372.29 688.385 367.822 692.309 362.54 696.944L362.54 696.944L362.495 696.984C360.709 698.551 358.683 700.328 356.581 702.221L356.581 702.222C356.204 702.561 355.725 702.745 355.232 702.745C354.739 702.745 354.261 702.561 353.883 702.221L353.883 702.22C351.765 700.314 349.726 698.525 347.932 696.95L347.926 696.945L347.926 696.945C342.643 692.31 338.175 688.385 335.081 684.54C331.655 680.284 330.122 676.336 330.122 672.068Z" fill="white"/>
<rect width="130" height="130" transform="translate(0 780)" fill="#7CD1E3"/>
<path fill-rule="evenodd" clip-rule="evenodd" d="M61.0676 831.252L34.2637 783.852C33.8808 783.175 32.9056 783.175 32.5227 783.852L5.71877 831.252C5.3418 831.919 5.8234 832.745 6.58923 832.745H60.1972C60.963 832.745 61.4446 831.919 61.0676 831.252ZM35.1341 783.36C34.3684 782.006 32.418 782.006 31.6523 783.36L4.8483 830.76C4.09437 832.093 5.05757 833.745 6.58923 833.745H60.1972C61.7288 833.745 62.692 832.093 61.9381 830.76L35.1341 783.36ZM57.1289 871.732C57.1289 885.965 45.8648 897.463 32.019 897.463C18.1732 897.463 6.90906 885.965 6.90906 871.732C6.90906 857.498 18.1732 846 32.019 846C45.8648 846 57.1289 857.498 57.1289 871.732ZM58.1289 871.732C58.1289 886.495 46.4391 898.463 32.019 898.463C17.5989 898.463 5.90906 886.495 5.90906 871.732C5.90906 856.968 17.5989 845 32.019 845C46.4391 845 58.1289 856.968 58.1289 871.732ZM71.1223 846H117.763C118.316 846 118.763 846.448 118.763 847V893.649C118.763 894.202 118.316 894.649 117.763 894.649H71.1223C70.5701 894.649 70.1223 894.202 70.1223 893.649V847C70.1223 846.448 70.5701 846 71.1223 846ZM69.1223 847C69.1223 845.895 70.0178 845 71.1223 845H117.763C118.868 845 119.763 845.895 119.763 847V893.649C119.763 894.754 118.868 895.649 117.763 895.649H71.1223C70.0178 895.649 69.1223 894.754 69.1223 893.649V847ZM103.2 827.695L103.199 827.696L103.155 827.735C101.369 829.302 99.3472 831.076 97.2502 832.964C96.6924 833.467 95.9753 833.745 95.2323 833.745C94.4889 833.745 93.7721 833.467 93.2136 832.964C91.1008 831.062 89.0661 829.276 87.2707 827.7L87.27 827.7L87.2666 827.697C82.0056 823.081 77.4626 819.094 74.3016 815.167C70.7682 810.777 69.1223 806.615 69.1223 802.068C69.1223 797.65 70.5937 793.574 73.2646 790.59C75.9678 787.572 79.6773 785.909 83.71 785.909C86.7243 785.909 89.4849 786.89 91.9148 788.825C92.8867 789.599 93.7864 790.51 94.6053 791.549C94.8199 791.821 95.0289 792.102 95.2323 792.392C95.4357 792.102 95.6447 791.821 95.8593 791.549C96.6783 790.51 97.5777 789.599 98.5494 788.825C100.98 786.89 103.74 785.909 106.755 785.909C110.787 785.909 114.496 787.572 117.2 790.59C119.871 793.574 121.342 797.65 121.342 802.067C121.342 806.615 119.697 810.777 116.163 815.167C113.003 819.094 108.46 823.08 103.2 827.695ZM70.1223 802.068C70.1223 797.869 71.5202 794.038 74.0095 791.258L74.0096 791.257C76.5242 788.449 79.9633 786.909 83.71 786.909C86.4906 786.909 89.0331 787.809 91.2918 789.608L91.2919 789.608C92.4375 790.52 93.4847 791.643 94.4139 792.966L95.2322 794.131L96.0506 792.966C96.9802 791.643 98.027 790.52 99.1723 789.608C101.431 787.809 103.974 786.909 106.755 786.909C110.501 786.909 113.94 788.449 116.455 791.258C118.944 794.038 120.342 797.869 120.342 802.067C120.342 806.336 118.81 810.284 115.384 814.54L115.384 814.54C112.29 818.385 107.822 822.309 102.54 826.944L102.54 826.944L102.495 826.984C100.709 828.551 98.6831 830.328 96.5811 832.221L96.5806 832.222C96.2043 832.561 95.725 832.745 95.2323 832.745C94.7394 832.745 94.2605 832.561 93.8833 832.221L93.8826 832.22C91.7651 830.314 89.7264 828.525 87.9318 826.95L87.9261 826.945L87.9261 826.945C82.6431 822.31 78.1755 818.385 75.0806 814.54C71.655 810.284 70.1223 806.336 70.1223 802.068Z" fill="white"/>
<rect width="130" height="130" transform="translate(130 780)" fill="#7CD1E3"/>
<path fill-rule="evenodd" clip-rule="evenodd" d="M191.068 831.252L164.264 783.852C163.881 783.175 162.906 783.175 162.523 783.852L135.719 831.252C135.342 831.919 135.823 832.745 136.589 832.745H190.197C190.963 832.745 191.445 831.919 191.068 831.252ZM165.134 783.36C164.368 782.006 162.418 782.006 161.652 783.36L134.848 830.76C134.094 832.093 135.058 833.745 136.589 833.745H190.197C191.729 833.745 192.692 832.093 191.938 830.76L165.134 783.36ZM187.129 871.732C187.129 885.965 175.865 897.463 162.019 897.463C148.173 897.463 136.909 885.965 136.909 871.732C136.909 857.498 148.173 846 162.019 846C175.865 846 187.129 857.498 187.129 871.732ZM188.129 871.732C188.129 886.495 176.439 898.463 162.019 898.463C147.599 898.463 135.909 886.495 135.909 871.732C135.909 856.968 147.599 845 162.019 845C176.439 845 188.129 856.968 188.129 871.732ZM201.122 846H247.763C248.316 846 248.763 846.448 248.763 847V893.649C248.763 894.202 248.316 894.649 247.763 894.649H201.122C200.57 894.649 200.122 894.202 200.122 893.649V847C200.122 846.448 200.57 846 201.122 846ZM199.122 847C199.122 845.895 200.018 845 201.122 845H247.763C248.868 845 249.763 845.895 249.763 847V893.649C249.763 894.754 248.868 895.649 247.763 895.649H201.122C200.018 895.649 199.122 894.754 199.122 893.649V847ZM233.2 827.695L233.199 827.696L233.155 827.735C231.369 829.302 229.347 831.076 227.25 832.964C226.692 833.467 225.975 833.745 225.232 833.745C224.489 833.745 223.772 833.467 223.214 832.964C221.101 831.062 219.066 829.276 217.271 827.7L217.27 827.7L217.267 827.697C212.006 823.081 207.463 819.094 204.302 815.167C200.768 810.777 199.122 806.615 199.122 802.068C199.122 797.65 200.594 793.574 203.265 790.59C205.968 787.572 209.677 785.909 213.71 785.909C216.724 785.909 219.485 786.89 221.915 788.825C222.887 789.599 223.786 790.51 224.605 791.549C224.82 791.821 225.029 792.102 225.232 792.392C225.436 792.102 225.645 791.821 225.859 791.549C226.678 790.51 227.578 789.599 228.549 788.825C230.98 786.89 233.74 785.909 236.755 785.909C240.787 785.909 244.496 787.572 247.2 790.59C249.871 793.574 251.342 797.65 251.342 802.067C251.342 806.615 249.697 810.777 246.163 815.167C243.003 819.094 238.46 823.08 233.2 827.695ZM200.122 802.068C200.122 797.869 201.52 794.038 204.01 791.258L204.01 791.257C206.524 788.449 209.963 786.909 213.71 786.909C216.491 786.909 219.033 787.809 221.292 789.608L221.292 789.608C222.438 790.52 223.485 791.643 224.414 792.966L225.232 794.131L226.051 792.966C226.98 791.643 228.027 790.52 229.172 789.608C231.431 787.809 233.974 786.909 236.755 786.909C240.501 786.909 243.94 788.449 246.455 791.258C248.944 794.038 250.342 797.869 250.342 802.067C250.342 806.336 248.81 810.284 245.384 814.54L245.384 814.54C242.29 818.385 237.822 822.309 232.54 826.944L232.54 826.944L232.495 826.984C230.709 828.551 228.683 830.328 226.581 832.221L226.581 832.222C226.204 832.561 225.725 832.745 225.232 832.745C224.739 832.745 224.261 832.561 223.883 832.221L223.883 832.22C221.765 830.314 219.726 828.525 217.932 826.95L217.926 826.945L217.926 826.945C212.643 822.31 208.175 818.385 205.081 814.54C201.655 810.284 200.122 806.336 200.122 802.068Z" fill="white"/>
<rect width="130" height="130" transform="translate(260 780)" fill="#7CD1E3"/>
<path fill-rule="evenodd" clip-rule="evenodd" d="M321.068 831.252L294.264 783.852C293.881 783.175 292.906 783.175 292.523 783.852L265.719 831.252C265.342 831.919 265.823 832.745 266.589 832.745H320.197C320.963 832.745 321.445 831.919 321.068 831.252ZM295.134 783.36C294.368 782.006 292.418 782.006 291.652 783.36L264.848 830.76C264.094 832.093 265.058 833.745 266.589 833.745H320.197C321.729 833.745 322.692 832.093 321.938 830.76L295.134 783.36ZM317.129 871.732C317.129 885.965 305.865 897.463 292.019 897.463C278.173 897.463 266.909 885.965 266.909 871.732C266.909 857.498 278.173 846 292.019 846C305.865 846 317.129 857.498 317.129 871.732ZM318.129 871.732C318.129 886.495 306.439 898.463 292.019 898.463C277.599 898.463 265.909 886.495 265.909 871.732C265.909 856.968 277.599 845 292.019 845C306.439 845 318.129 856.968 318.129 871.732ZM331.122 846H377.763C378.316 846 378.763 846.448 378.763 847V893.649C378.763 894.202 378.316 894.649 377.763 894.649H331.122C330.57 894.649 330.122 894.202 330.122 893.649V847C330.122 846.448 330.57 846 331.122 846ZM329.122 847C329.122 845.895 330.018 845 331.122 845H377.763C378.868 845 379.763 845.895 379.763 847V893.649C379.763 894.754 378.868 895.649 377.763 895.649H331.122C330.018 895.649 329.122 894.754 329.122 893.649V847ZM363.2 827.695L363.199 827.696L363.155 827.735C361.369 829.302 359.347 831.076 357.25 832.964C356.692 833.467 355.975 833.745 355.232 833.745C354.489 833.745 353.772 833.467 353.214 832.964C351.101 831.062 349.066 829.276 347.271 827.7L347.27 827.7L347.267 827.697C342.006 823.081 337.463 819.094 334.302 815.167C330.768 810.777 329.122 806.615 329.122 802.068C329.122 797.65 330.594 793.574 333.265 790.59C335.968 787.572 339.677 785.909 343.71 785.909C346.724 785.909 349.485 786.89 351.915 788.825C352.887 789.599 353.786 790.51 354.605 791.549C354.82 791.821 355.029 792.102 355.232 792.392C355.436 792.102 355.645 791.821 355.859 791.549C356.678 790.51 357.578 789.599 358.549 788.825C360.98 786.89 363.74 785.909 366.755 785.909C370.787 785.909 374.496 787.572 377.2 790.59C379.871 793.574 381.342 797.65 381.342 802.067C381.342 806.615 379.697 810.777 376.163 815.167C373.003 819.094 368.46 823.08 363.2 827.695ZM330.122 802.068C330.122 797.869 331.52 794.038 334.01 791.258L334.01 791.257C336.524 788.449 339.963 786.909 343.71 786.909C346.491 786.909 349.033 787.809 351.292 789.608L351.292 789.608C352.438 790.52 353.485 791.643 354.414 792.966L355.232 794.131L356.051 792.966C356.98 791.643 358.027 790.52 359.172 789.608C361.431 787.809 363.974 786.909 366.755 786.909C370.501 786.909 373.94 788.449 376.455 791.258C378.944 794.038 380.342 797.869 380.342 802.067C380.342 806.336 378.81 810.284 375.384 814.54L375.384 814.54C372.29 818.385 367.822 822.309 362.54 826.944L362.54 826.944L362.495 826.984C360.709 828.551 358.683 830.328 356.581 832.221L356.581 832.222C356.204 832.561 355.725 832.745 355.232 832.745C354.739 832.745 354.261 832.561 353.883 832.221L353.883 832.22C351.765 830.314 349.726 828.525 347.932 826.95L347.926 826.945L347.926 826.945C342.643 822.31 338.175 818.385 335.081 814.54C331.655 810.284 330.122 806.336 330.122 802.068Z" fill="white"/>
</g>
</svg>
