<?xml version="1.0" encoding="UTF-8"?>
<!DOCTYPE svg PUBLIC "-//W3C//DTD SVG 1.1//EN" "http://www.w3.org/Graphics/SVG/1.1/DTD/svg11.dtd">
<svg xmlns="http://www.w3.org/2000/svg" version="1.1" width="75px" height="68px" style="shape-rendering:geometricPrecision; text-rendering:geometricPrecision; image-rendering:optimizeQuality; fill-rule:evenodd; clip-rule:evenodd" xmlns:xlink="http://www.w3.org/1999/xlink">
<g><path style="opacity:0.899" fill="#fa8fa6" d="M 10.5,-0.5 C 12.1667,-0.5 13.8333,-0.5 15.5,-0.5C 16.6935,0.271873 17.6935,1.27187 18.5,2.5C 17.1147,3.61381 15.6147,4.61381 14,5.5C 12.975,3.31305 11.475,1.64638 9.5,0.5C 10.1667,0.5 10.5,0.166667 10.5,-0.5 Z"/></g>
<g><path style="opacity:0.887" fill="#fc89a3" d="M 28.5,-0.5 C 30.1667,-0.5 31.8333,-0.5 33.5,-0.5C 34.1667,0.166667 34.8333,0.833333 35.5,1.5C 33.027,1.79909 30.8603,2.79909 29,4.5C 27.699,4.36126 26.8656,3.69459 26.5,2.5C 27.1667,1.5 27.8333,0.5 28.5,-0.5 Z"/></g>
<g><path style="opacity:0.997" fill="#e74c69" d="M 9.5,0.5 C 11.475,1.64638 12.975,3.31305 14,5.5C 15.6147,4.61381 17.1147,3.61381 18.5,2.5C 18.5,3.16667 18.8333,3.5 19.5,3.5C 21.2265,10.1001 22.8932,10.1001 24.5,3.5C 25.1667,3.16667 25.8333,2.83333 26.5,2.5C 26.8656,3.69459 27.699,4.36126 29,4.5C 30.8603,2.79909 33.027,1.79909 35.5,1.5C 35.9798,4.46432 36.3131,7.46432 36.5,10.5C 35.5768,9.69708 34.5768,9.53042 33.5,10C 36.7369,12.609 38.0703,15.7757 37.5,19.5C 43.8998,23.6989 50.5665,27.3656 57.5,30.5C 59.2994,33.5046 59.9661,36.838 59.5,40.5C 59.5,43.8333 59.5,47.1667 59.5,50.5C 59.5,51.1667 59.1667,51.5 58.5,51.5C 58.7904,45.439 58.4571,39.439 57.5,33.5C 52.4358,29.9693 47.1025,26.9693 41.5,24.5C 40.3406,22.7497 38.674,21.7497 36.5,21.5C 35.2921,22.2341 33.9587,22.5674 32.5,22.5C 28.7004,20.7664 25.0337,18.7664 21.5,16.5C 16.9355,18.9412 12.6021,21.6079 8.5,24.5C 7.51114,29.9753 7.1778,35.642 7.5,41.5C 6.83333,41.1667 6.16667,40.8333 5.5,40.5C 5.19031,34.2424 5.52364,28.0758 6.5,22C 5.55085,21.3828 4.71752,21.5494 4,22.5C 3.50074,27.4889 3.33407,32.4889 3.5,37.5C 2.52693,35.0521 2.1936,32.3854 2.5,29.5C 2.04303,26.6907 2.04303,24.024 2.5,21.5C 5.6882,19.5146 7.1882,16.5146 7,12.5C 11.3585,9.72677 10.8585,8.72677 5.5,9.5C 7.88964,6.76515 9.22298,3.76515 9.5,0.5 Z"/></g>
<g><path style="opacity:1" fill="#84e464" d="M 19.5,3.5 C 21.1667,3.5 22.8333,3.5 24.5,3.5C 22.8932,10.1001 21.2265,10.1001 19.5,3.5 Z"/></g>
<g><path style="opacity:0.998" fill="#7be65c" d="M 60.5,4.5 C 73.5287,10.5043 74.8621,18.6709 64.5,29C 62.1873,29.662 59.854,30.162 57.5,30.5C 50.5665,27.3656 43.8998,23.6989 37.5,19.5C 38.0703,15.7757 36.7369,12.609 33.5,10C 34.5768,9.53042 35.5768,9.69708 36.5,10.5C 38.5053,11.1236 40.1719,10.2903 41.5,8C 47.4592,3.81691 53.7926,2.65025 60.5,4.5 Z"/></g>
<g><path style="opacity:1" fill="#89d66f" d="M 2.5,21.5 C 2.33591,18.8127 2.50258,16.146 3,13.5C 3.20041,11.6803 4.03374,10.347 5.5,9.5C 10.8585,8.72677 11.3585,9.72677 7,12.5C 7.1882,16.5146 5.6882,19.5146 2.5,21.5 Z"/></g>
<g><path style="opacity:1" fill="#93ba59" d="M 27.5,12.5 C 30.3721,12.6354 31.8721,13.9688 32,16.5C 29.8816,15.7171 28.3816,14.3838 27.5,12.5 Z"/></g>
<g><path style="opacity:1" fill="#86bb5e" d="M 13.5,12.5 C 14.3764,12.3691 15.0431,12.7025 15.5,13.5C 14.04,15.4224 12.3733,16.0891 10.5,15.5C 11.3398,14.265 12.3398,13.265 13.5,12.5 Z"/></g>
<g><path style="opacity:1" fill="#76d763" d="M 32.5,22.5 C 39.0035,27.2552 46.0035,31.2552 53.5,34.5C 53.5,34.8333 53.5,35.1667 53.5,35.5C 53.8204,38.8984 53.487,42.2317 52.5,45.5C 48.3403,47.4125 44.3403,49.5791 40.5,52C 38.5,52.6667 36.5,52.6667 34.5,52C 25.4809,47.4938 17.1476,41.9938 9.5,35.5C 8.51078,31.8927 8.17744,28.226 8.5,24.5C 12.6021,21.6079 16.9355,18.9412 21.5,16.5C 25.0337,18.7664 28.7004,20.7664 32.5,22.5 Z"/></g>
<g><path style="opacity:1" fill="#f8b46c" d="M 36.5,21.5 C 38.674,21.7497 40.3406,22.7497 41.5,24.5C 39.326,24.2503 37.6594,23.2503 36.5,21.5 Z"/></g>
<g><path style="opacity:0.992" fill="#7fda6b" d="M 60.5,4.5 C 69.4436,5.44664 73.7769,10.4466 73.5,19.5C 73.331,22.5327 72.9977,25.5327 72.5,28.5C 68.8196,33.1794 64.4862,37.1794 59.5,40.5C 59.9661,36.838 59.2994,33.5046 57.5,30.5C 59.854,30.162 62.1873,29.662 64.5,29C 74.8621,18.6709 73.5287,10.5043 60.5,4.5 Z"/></g>
<g><path style="opacity:1" fill="#e7816b" d="M 36.5,21.5 C 37.6594,23.2503 39.326,24.2503 41.5,24.5C 47.1025,26.9693 52.4358,29.9693 57.5,33.5C 58.4571,39.439 58.7904,45.439 58.5,51.5C 57.8333,51.8333 57.1667,52.1667 56.5,52.5C 56.8297,46.1318 56.4963,39.7985 55.5,33.5C 54.8165,33.8627 54.1499,34.1961 53.5,34.5C 46.0035,31.2552 39.0035,27.2552 32.5,22.5C 33.9587,22.5674 35.2921,22.2341 36.5,21.5 Z"/></g>
<g><path style="opacity:1" fill="#5fc067" d="M 72.5,28.5 C 72.5,29.5 72.5,30.5 72.5,31.5C 71.0788,39.798 66.7455,46.1313 59.5,50.5C 59.5,47.1667 59.5,43.8333 59.5,40.5C 64.4862,37.1794 68.8196,33.1794 72.5,28.5 Z"/></g>
<g><path style="opacity:1" fill="#f7a36e" d="M 5.5,40.5 C 4.59872,39.7095 3.93205,38.7095 3.5,37.5C 3.33407,32.4889 3.50074,27.4889 4,22.5C 4.71752,21.5494 5.55085,21.3828 6.5,22C 5.52364,28.0758 5.19031,34.2424 5.5,40.5 Z"/></g>
<g><path style="opacity:1" fill="#5fb667" d="M 8.5,24.5 C 8.17744,28.226 8.51078,31.8927 9.5,35.5C 17.1476,41.9938 25.4809,47.4938 34.5,52C 36.5,52.6667 38.5,52.6667 40.5,52C 44.3403,49.5791 48.3403,47.4125 52.5,45.5C 53.487,42.2317 53.8204,38.8984 53.5,35.5C 54.4896,41.31 54.8229,47.31 54.5,53.5C 54.5,54.1667 54.1667,54.5 53.5,54.5C 53.8076,52.076 53.4742,49.7427 52.5,47.5C 47.9902,50.5049 43.1569,52.8382 38,54.5C 32.8166,52.8245 27.9833,50.4912 23.5,47.5C 18.5731,44.5797 13.9065,41.2464 9.5,37.5C 8.53443,39.396 8.2011,41.396 8.5,43.5C 7.66175,43.1583 7.32842,42.4916 7.5,41.5C 7.1778,35.642 7.51114,29.9753 8.5,24.5 Z"/></g>
<g><path style="opacity:1" fill="#e6e8f6" d="M 2.5,29.5 C 2.1936,32.3854 2.52693,35.0521 3.5,37.5C 3.93205,38.7095 4.59872,39.7095 5.5,40.5C 6.16667,40.8333 6.83333,41.1667 7.5,41.5C 7.32842,42.4916 7.66175,43.1583 8.5,43.5C 9.82905,45.0586 11.1624,46.7252 12.5,48.5C 15.7376,50.2753 18.7376,52.2753 21.5,54.5C 26.9405,57.4523 32.4405,60.4523 38,63.5C 43.1123,60.3621 48.2789,57.3621 53.5,54.5C 54.1667,54.5 54.5,54.1667 54.5,53.5C 55.4916,53.6716 56.1583,53.3382 56.5,52.5C 57.1667,52.1667 57.8333,51.8333 58.5,51.5C 59.1667,51.5 59.5,51.1667 59.5,50.5C 66.7455,46.1313 71.0788,39.798 72.5,31.5C 72.8417,32.3382 73.5084,32.6716 74.5,32.5C 74.5,35.1667 74.5,37.8333 74.5,40.5C 71.8507,45.6671 68.1841,50.1671 63.5,54C 56.2045,58.8023 48.8712,63.3023 41.5,67.5C 40.5,67.5 39.5,67.5 38.5,67.5C 38.1667,66.1667 37.8333,66.1667 37.5,67.5C 36.5,67.5 35.5,67.5 34.5,67.5C 25.4675,62.6455 16.8008,57.1455 8.5,51C 6.82578,49.4941 5.82578,47.6607 5.5,45.5C 4.5,45.5 3.5,45.5 2.5,45.5C 2.53235,43.3812 1.53235,42.0478 -0.5,41.5C -0.5,38.8333 -0.5,36.1667 -0.5,33.5C 0.142944,31.9236 1.14294,30.5903 2.5,29.5 Z"/></g>
<g><path style="opacity:1" fill="#74d564" d="M 23.5,47.5 C 27.9833,50.4912 32.8166,52.8245 38,54.5C 43.1569,52.8382 47.9902,50.5049 52.5,47.5C 53.4742,49.7427 53.8076,52.076 53.5,54.5C 48.2789,57.3621 43.1123,60.3621 38,63.5C 32.4405,60.4523 26.9405,57.4523 21.5,54.5C 23.3435,52.7211 24.0102,50.3878 23.5,47.5 Z"/></g>
<g><path style="opacity:1" fill="#f0faed" d="M 48.5,38.5 C 50.9424,38.3537 51.6091,39.187 50.5,41C 42.5077,44.3017 41.841,43.4684 48.5,38.5 Z"/></g>
<g><path style="opacity:1" fill="#e6536d" d="M 56.5,52.5 C 56.1583,53.3382 55.4916,53.6716 54.5,53.5C 54.8229,47.31 54.4896,41.31 53.5,35.5C 53.5,35.1667 53.5,34.8333 53.5,34.5C 54.1499,34.1961 54.8165,33.8627 55.5,33.5C 56.4963,39.7985 56.8297,46.1318 56.5,52.5 Z"/></g>
<g><path style="opacity:1" fill="#79e65d" d="M 23.5,47.5 C 24.0102,50.3878 23.3435,52.7211 21.5,54.5C 18.7376,52.2753 15.7376,50.2753 12.5,48.5C 11.1624,46.7252 9.82905,45.0586 8.5,43.5C 8.2011,41.396 8.53443,39.396 9.5,37.5C 13.9065,41.2464 18.5731,44.5797 23.5,47.5 Z"/></g>
</svg>
