<?xml version="1.0" encoding="UTF-8"?>
<!DOCTYPE svg PUBLIC "-//W3C//DTD SVG 1.1//EN" "http://www.w3.org/Graphics/SVG/1.1/DTD/svg11.dtd">
<svg xmlns="http://www.w3.org/2000/svg" version="1.1" width="70px" height="54px" style="shape-rendering:geometricPrecision; text-rendering:geometricPrecision; image-rendering:optimizeQuality; fill-rule:evenodd; clip-rule:evenodd" xmlns:xlink="http://www.w3.org/1999/xlink">
<g><path style="opacity:0.872" fill="#fe9f00" d="M 30.5,-0.5 C 31.8333,-0.5 33.1667,-0.5 34.5,-0.5C 34.5,3.5 34.5,7.5 34.5,11.5C 32.8007,11.5271 31.4674,12.1938 30.5,13.5C 30.5,12.8333 30.5,12.1667 30.5,11.5C 26.6952,7.5479 26.6952,3.5479 30.5,-0.5 Z"/></g>
<g><path style="opacity:0.917" fill="#fe7815" d="M 34.5,-0.5 C 35.8333,-0.5 37.1667,-0.5 38.5,-0.5C 42.5,3.5 42.5,7.5 38.5,11.5C 38.5,12.1667 38.5,12.8333 38.5,13.5C 37.5326,12.1938 36.1993,11.5271 34.5,11.5C 34.5,7.5 34.5,3.5 34.5,-0.5 Z"/></g>
<g><path style="opacity:0.886" fill="#fe9f00" d="M 11.5,18.5 C 8.99017,18.9267 6.65683,19.5933 4.5,20.5C 2.66754,19.7515 1.00087,18.7515 -0.5,17.5C -0.5,15.1667 -0.5,12.8333 -0.5,10.5C 2.70748,7.18921 6.37415,6.68921 10.5,9C 12.7258,11.9637 13.0591,15.1304 11.5,18.5 Z"/></g>
<g><path style="opacity:0.922" fill="#ff7715" d="M 69.5,10.5 C 69.5,12.8333 69.5,15.1667 69.5,17.5C 67.9991,18.7515 66.3325,19.7515 64.5,20.5C 62.3432,19.5933 60.0098,18.9267 57.5,18.5C 55.9335,7.39561 59.9335,4.72895 69.5,10.5 Z"/></g>
<g><path style="opacity:0.953" fill="#ff4f00" d="M 30.5,11.5 C 30.5,12.1667 30.5,12.8333 30.5,13.5C 28.9978,20.1863 24.9978,23.6863 18.5,24C 16.4156,23.3028 14.7489,22.1361 13.5,20.5C 17.8369,15.1628 23.5036,12.1628 30.5,11.5 Z"/></g>
<g><path style="opacity:0.975" fill="#fdbd00" d="M 34.5,11.5 C 34.5,15.5 34.5,19.5 34.5,23.5C 32.0365,25.4611 29.7032,27.6278 27.5,30C 29.7059,32.0367 31.7059,34.2034 33.5,36.5C 34.388,39.0545 34.7214,41.7212 34.5,44.5C 26.8333,44.5 19.1667,44.5 11.5,44.5C 8.85939,36.6069 6.52606,28.6069 4.5,20.5C 6.65683,19.5933 8.99017,18.9267 11.5,18.5C 11.8333,19.5 12.5,20.1667 13.5,20.5C 14.7489,22.1361 16.4156,23.3028 18.5,24C 24.9978,23.6863 28.9978,20.1863 30.5,13.5C 31.4674,12.1938 32.8007,11.5271 34.5,11.5 Z"/></g>
<g><path style="opacity:0.976" fill="#fe9d00" d="M 34.5,11.5 C 36.1993,11.5271 37.5326,12.1938 38.5,13.5C 40.0022,20.1863 44.0022,23.6863 50.5,24C 52.5844,23.3028 54.2511,22.1361 55.5,20.5C 56.5,20.1667 57.1667,19.5 57.5,18.5C 60.0098,18.9267 62.3432,19.5933 64.5,20.5C 62.1633,28.5163 59.8299,36.5163 57.5,44.5C 49.8333,44.5 42.1667,44.5 34.5,44.5C 34.7214,41.7212 34.388,39.0545 33.5,36.5C 33.8333,36.5 34.1667,36.5 34.5,36.5C 36.9635,34.5389 39.2968,32.3722 41.5,30C 39.2968,27.6278 36.9635,25.4611 34.5,23.5C 34.5,19.5 34.5,15.5 34.5,11.5 Z"/></g>
<g><path style="opacity:0.964" fill="#cd230c" d="M 38.5,11.5 C 45.4964,12.1628 51.1631,15.1628 55.5,20.5C 54.2511,22.1361 52.5844,23.3028 50.5,24C 44.0022,23.6863 40.0022,20.1863 38.5,13.5C 38.5,12.8333 38.5,12.1667 38.5,11.5 Z"/></g>
<g><path style="opacity:1" fill="#ff4e00" d="M 34.5,23.5 C 34.5,27.8333 34.5,32.1667 34.5,36.5C 34.1667,36.5 33.8333,36.5 33.5,36.5C 31.7059,34.2034 29.7059,32.0367 27.5,30C 29.7032,27.6278 32.0365,25.4611 34.5,23.5 Z"/></g>
<g><path style="opacity:1" fill="#cd220c" d="M 34.5,23.5 C 36.9635,25.4611 39.2968,27.6278 41.5,30C 39.2968,32.3722 36.9635,34.5389 34.5,36.5C 34.5,32.1667 34.5,27.8333 34.5,23.5 Z"/></g>
<g><path style="opacity:1" fill="#ff5900" d="M 21.5,31.5 C 25.0164,33.1183 25.1831,34.785 22,36.5C 18.927,35.2516 18.7603,33.585 21.5,31.5 Z"/></g>
<g><path style="opacity:1" fill="#d2320b" d="M 46.5,31.5 C 50.1844,33.2033 50.351,35.2033 47,37.5C 43.8981,35.6627 43.7314,33.6627 46.5,31.5 Z"/></g>
<g><path style="opacity:0.9" fill="#fe9f00" d="M 11.5,44.5 C 19.1667,44.5 26.8333,44.5 34.5,44.5C 34.5,47.5 34.5,50.5 34.5,53.5C 26.8333,53.5 19.1667,53.5 11.5,53.5C 11.5,50.5 11.5,47.5 11.5,44.5 Z"/></g>
<g><path style="opacity:0.906" fill="#ff7815" d="M 34.5,44.5 C 42.1667,44.5 49.8333,44.5 57.5,44.5C 57.5,47.5 57.5,50.5 57.5,53.5C 49.8333,53.5 42.1667,53.5 34.5,53.5C 34.5,50.5 34.5,47.5 34.5,44.5 Z"/></g>
</svg>
