<svg width="36" height="35" viewBox="0 0 36 35" fill="none" xmlns="http://www.w3.org/2000/svg">
<rect x="20" y="19.1666" width="15.8333" height="15" rx="2" fill="#F06129"/>
<circle cx="8.74992" cy="27.0833" r="7.91667" fill="#F06129"/>
<path d="M7.43588 2.98967C8.20621 1.6591 10.1273 1.6591 10.8976 2.98967L16.5954 12.8313C17.3673 14.1646 16.4052 15.8333 14.8645 15.8333H3.46896C1.9283 15.8333 0.966178 14.1646 1.73811 12.8313L7.43588 2.98967Z" fill="#F06129"/>
<path d="M34.5773 3.05302C33.7576 2.15901 32.633 1.66663 31.4103 1.66663C30.4963 1.66663 29.6593 1.95722 28.9224 2.53027C28.5506 2.81952 28.2137 3.17341 27.9167 3.58646C27.6197 3.17353 27.2827 2.81952 26.9108 2.53027C26.174 1.95722 25.337 1.66663 24.423 1.66663C23.2003 1.66663 22.0756 2.15901 21.2559 3.05302C20.4461 3.93658 20 5.14366 20 6.45206C20 7.79873 20.499 9.03144 21.5704 10.3316C22.5288 11.4946 23.9063 12.6752 25.5014 14.0422C26.0461 14.5091 26.6635 15.0383 27.3046 15.602C27.4739 15.7512 27.6913 15.8333 27.9167 15.8333C28.142 15.8333 28.3594 15.7512 28.5285 15.6022C29.1696 15.0384 29.7874 14.509 30.3323 14.0419C31.9272 12.675 33.3047 11.4946 34.2631 10.3315C35.3344 9.03144 35.8333 7.79873 35.8333 6.45194C35.8333 5.14366 35.3872 3.93658 34.5773 3.05302Z" fill="#F06129"/>
</svg>
