<svg width="25" height="33" viewBox="0 0 25 33"  xmlns="http://www.w3.org/2000/svg">
<path d="M17.6602 23.1272L19.2149 20.6785L22.0207 19.7497L22.3316 16.8895L24.4426 14.8724L23.4389 12.165L24.4426 9.45753L22.3316 7.44047L22.0208 4.5803L19.215 3.65153L17.6602 1.20276L14.7194 1.54739L12.2213 0L9.72314 1.54752L6.78241 1.20289L5.22764 3.65159L2.42184 4.58036L2.11099 7.44054L0 9.4576L1.00366 12.1651L0 14.8726L2.11092 16.8896L2.42177 19.7498L5.22757 20.6786L6.78234 23.1273L9.72314 22.7827L12.2213 24.3302L14.7194 22.7827L17.6602 23.1272ZM3.62638 12.1651C3.62638 7.56525 7.48206 3.82297 12.2213 3.82297C16.9605 3.82297 20.8162 7.56525 20.8162 12.1651C20.8162 16.7649 16.9605 20.5072 12.2213 20.5072C7.48206 20.5072 3.62638 16.7649 3.62638 12.1651Z" fill="#6B7280"/>
<path d="M12.2213 5.75781C8.58126 5.75781 5.61987 8.6321 5.61987 12.1651C5.61987 15.6981 8.58126 18.5724 12.2213 18.5724C15.8614 18.5724 18.8228 15.6981 18.8228 12.1651C18.8228 8.6321 15.8614 5.75781 12.2213 5.75781Z" fill="#6B7280"/>
<path d="M9.25302 24.7866L5.75473 25.1965L3.90645 22.2853L3.27811 22.0774L0.567871 30.2994L5.44707 30.039L9.26444 32.9999L11.5108 26.1852L9.25302 24.7866Z" fill="#6B7280"/>
<path d="M20.5363 22.2854L18.6879 25.1965L15.1897 24.7866L12.9319 26.1852L15.1783 32.9999L18.9956 30.039L23.8748 30.2994L21.1646 22.0774L20.5363 22.2854Z" fill="#6B7280"/>
</svg>
