<svg width="32" height="30" viewBox="0 0 32 30" 
    xmlns="http://www.w3.org/2000/svg">
    <path d="M24.7874 0.383495C24.518 0.383495 24.2453 0.395511 23.9769 0.41948C21.2056 0.667473 18.6788 2.33216 16.8381 5.11595C14.7027 2.0005 11.1729 0 7.77777 0C7.03164 0 6.29237 0.0954265 5.58082 0.28385C3.38194 0.86606 1.58911 2.4853 0.662517 4.72709C-0.364359 7.21067 -0.187634 10.1199 1.12388 12.3193C2.92504 15.3401 6.01317 17.184 8.9992 18.9668C10.533 19.883 12.1192 20.8295 13.4797 21.9144C13.8849 22.2371 14.3939 22.6577 14.8307 23.116C14.2796 23.6532 13.1901 25.4386 13.1796 25.46C12.8372 26.1724 12.3669 27.6787 12.7757 28.8056C12.9504 29.2863 13.2642 29.6346 13.7095 29.8407C13.9379 29.9461 14.1782 30 14.4234 30C15.478 30 16.4548 29.0113 17.0891 28.1824C18.249 26.6647 18.4226 25.0718 17.6046 23.4454C19.0079 22.1897 20.5347 21.0226 22.0119 19.893C24.5532 17.9503 27.1807 15.9409 29.2715 13.4154C30.293 12.1813 33.4511 7.8412 31.2189 3.79782C30.0389 1.65983 27.6344 0.383495 24.7874 0.383495ZM15.653 26.4947C15.4408 26.8959 15.2265 27.1855 15.0034 27.3704C15.0483 26.7745 15.2779 26.1929 15.4253 25.8728C15.4667 25.783 15.7379 25.3681 15.9329 25.0907C15.9941 25.5626 15.9017 26.0248 15.653 26.4947Z" fill="#FFF06129"/>
</svg>
