<?xml version="1.0" encoding="UTF-8"?>
<!DOCTYPE svg PUBLIC "-//W3C//DTD SVG 1.1//EN" "http://www.w3.org/Graphics/SVG/1.1/DTD/svg11.dtd">
<svg xmlns="http://www.w3.org/2000/svg" version="1.1" width="68px" height="64px" style="shape-rendering:geometricPrecision; text-rendering:geometricPrecision; image-rendering:optimizeQuality; fill-rule:evenodd; clip-rule:evenodd" xmlns:xlink="http://www.w3.org/1999/xlink">
<g><path style="opacity:0.885" fill="#b098d9" d="M 15.5,-0.5 C 16.5,-0.5 17.5,-0.5 18.5,-0.5C 24.0997,3.89371 23.5997,7.56038 17,10.5C 14.5515,9.05569 12.3848,7.22236 10.5,5C 12.3734,3.29617 14.0401,1.46283 15.5,-0.5 Z"/></g>
<g><path style="opacity:0.914" fill="#6fcd90" d="M 33.5,0.5 C 34.7562,0.461409 35.7562,0.961409 36.5,2C 35.0471,4.70519 33.0471,5.53852 30.5,4.5C 31.5244,3.14819 32.5244,1.81486 33.5,0.5 Z"/></g>
<g><path style="opacity:0.817" fill="#e06d7e" d="M 42.5,0.5 C 45.8333,0.5 47.5,2.16667 47.5,5.5C 44.1667,5.5 42.5,3.83333 42.5,0.5 Z"/></g>
<g><path style="opacity:0.989" fill="#6fcd90" d="M 67.5,5.5 C 67.5,6.16667 67.5,6.83333 67.5,7.5C 65.4836,9.34814 63.317,11.0148 61,12.5C 59.1667,10.6667 57.3333,8.83333 55.5,7C 56.9633,4.36878 58.9633,2.20211 61.5,0.5C 63.5193,2.18973 65.5193,3.85639 67.5,5.5 Z"/></g>
<g><path style="opacity:0.875" fill="#6fce90" d="M 5.5,9.5 C 8.83333,9.5 10.5,11.1667 10.5,14.5C 7.91577,14.4312 5.91577,13.2645 4.5,11C 5.05596,10.6174 5.38929,10.1174 5.5,9.5 Z"/></g>
<g><path style="opacity:0.987" fill="#f3e871" d="M 59.5,45.5 C 58.8333,45.5 58.5,45.8333 58.5,46.5C 44.2868,54.151 30.9535,52.8177 18.5,42.5C 11.878,23.7677 18.5447,13.101 38.5,10.5C 52.7416,11.5804 61.075,19.0804 63.5,33C 63.2638,37.5411 61.9305,41.7078 59.5,45.5 Z"/></g>
<g><path style="opacity:0.601" fill="#b098d8" d="M 63.5,14.5 C 64.7251,15.1522 65.3917,16.3189 65.5,18C 64.7095,22.4481 63.7095,22.4481 62.5,18C 62.6483,16.7441 62.9816,15.5774 63.5,14.5 Z"/></g>
<g><path style="opacity:0.914" fill="#e16d7d" d="M -0.5,26.5 C -0.5,25.5 -0.5,24.5 -0.5,23.5C 1.46283,22.0401 3.29617,20.3734 5,18.5C 7.16667,20.6667 9.33333,22.8333 11.5,25C 9.61518,27.2224 7.44852,29.0557 5,30.5C 3.01904,29.3498 1.18571,28.0165 -0.5,26.5 Z"/></g>
<g><path style="opacity:1" fill="#6a6c65" d="M 30.5,27.5 C 29.5084,27.6716 28.8417,27.3382 28.5,26.5C 30.1983,22.5847 32.1983,22.5847 34.5,26.5C 34.1667,26.8333 33.8333,27.1667 33.5,27.5C 32.12,25.0233 31.12,25.0233 30.5,27.5 Z"/></g>
<g><path style="opacity:1" fill="#eda5a7" d="M 28.5,26.5 C 28.8417,27.3382 29.5084,27.6716 30.5,27.5C 32.9834,29.3115 32.9834,31.1448 30.5,33C 26,33.8333 24.1667,32 25,27.5C 26.0113,26.6634 27.1779,26.33 28.5,26.5 Z"/></g>
<g><path style="opacity:1" fill="#525960" d="M 36.5,27.5 C 38.861,27.6741 41.1944,28.0074 43.5,28.5C 43.336,34.4877 40.836,35.821 36,32.5C 35.3603,30.735 35.5269,29.0683 36.5,27.5 Z"/></g>
<g><path style="opacity:1" fill="#6e7164" d="M 51.5,30.5 C 49.965,29.6457 48.6316,29.6457 47.5,30.5C 46.6236,30.6309 45.9569,30.2975 45.5,29.5C 48.2829,25.2466 50.2829,25.5799 51.5,30.5 Z"/></g>
<g><path style="opacity:1" fill="#eba6a4" d="M 51.5,30.5 C 55.6497,33.3994 55.3163,35.7328 50.5,37.5C 46.6431,36.4137 45.6431,34.0804 47.5,30.5C 48.6316,29.6457 49.965,29.6457 51.5,30.5 Z"/></g>
<g><path style="opacity:0.961" fill="#ebca5f" d="M 18.5,42.5 C 30.9535,52.8177 44.2868,54.151 58.5,46.5C 59.1667,46.5 59.5,46.1667 59.5,45.5C 62.5133,45.1072 65.1799,45.7739 67.5,47.5C 67.5,49.5 67.5,51.5 67.5,53.5C 62.911,56.0891 57.911,57.4224 52.5,57.5C 52.5,56.5 52.5,55.5 52.5,54.5C 41.9842,56.8031 31.9842,55.4698 22.5,50.5C 21.8243,51.6016 21.1577,52.6016 20.5,53.5C 14.8082,52.7692 9.47483,50.9359 4.5,48C 1.28589,43.5955 2.28589,40.4289 7.5,38.5C 11.0795,40.1254 14.7462,41.4587 18.5,42.5 Z"/></g>
<g><path style="opacity:0.989" fill="#f4e971" d="M 52.5,57.5 C 52.6747,59.6208 52.3414,61.6208 51.5,63.5C 41.5,63.5 31.5,63.5 21.5,63.5C 20.5863,60.272 20.2529,56.9387 20.5,53.5C 21.1577,52.6016 21.8243,51.6016 22.5,50.5C 31.9842,55.4698 41.9842,56.8031 52.5,54.5C 52.5,55.5 52.5,56.5 52.5,57.5 Z"/></g>
</svg>
