<svg xmlns="http://www.w3.org/2000/svg" fill="none" viewBox="0 0 138 90" id="logo">
    <path d="M27.6308 33.2962L18.927 0.361816H12.7796L27.6308 56.5574V78.0037L7.1139 0.361816H0.966522L24.5571 89.6343H27.6308H30.7026H33.7763V0.361816H27.6308V33.2962Z" fill="rgb(0, 255, 196)"></path>
    <path d="M137.041 89.6343L113.45 0.361816H110.377H107.303H104.229V89.6324H110.377L126.601 73.3931L130.893 89.6324H137.041V89.6343ZM121.148 52.7474L110.378 63.5212V11.9924L121.148 52.7474ZM110.377 80.9306V72.2174L122.964 59.6249L124.785 66.5156L110.377 80.9306Z" fill="rgb(0, 255, 196)"></path>
    <path d="M46.7298 0.361816H43.6561H40.5824V89.6324H46.7298L62.9548 73.3931L67.2467 89.6324H73.3941L49.8016 0.361816H46.7298ZM57.499 52.7474L46.7298 63.5212V11.9924L57.499 52.7474ZM46.7298 80.9306V72.2174L59.3169 59.6249L61.1387 66.5156L46.7298 80.9306Z" fill="rgb(0, 255, 196)"></path>
    <path d="M98.9113 55.5206L84.3357 0.361877H81.262H78.1883H75.1146V89.6325H81.262V73.0781L86.909 67.4288L92.7771 89.6325L98.9113 89.5875L91.7706 62.565L94.0291 60.3056L98.9113 55.5206ZM81.262 64.3819V11.9925L92.2111 53.4281L81.262 64.3819Z" fill="rgb(0, 255, 196)"></path>
</svg>
