<svg width="662" height="128" viewBox="0 0 662 128" fill="none" xmlns="http://www.w3.org/2000/svg">
<path fill-rule="evenodd" clip-rule="evenodd" d="M367.662 34.8319C369.302 32.6843 371.847 31.4237 374.548 31.4237H394.67L365.377 67.2042L394.67 102.996H374.44C371.73 102.996 369.179 101.729 367.541 99.5715L347.982 73.7895V102.996H332.647C329.7 102.996 327.312 100.608 327.312 97.6622V12.7381C327.312 9.79225 329.7 7.40335 332.647 7.40335H347.982V60.6312L367.662 34.8319ZM288.303 29.6158C279.996 29.6158 273.354 33.3153 268.924 38.5228V31.4233H253.589C250.643 31.4233 248.254 33.8122 248.254 36.7591V97.6618C248.254 100.608 250.643 102.997 253.589 102.997H268.924V60.6216C268.924 53.516 273.962 48.3482 281.327 48.3482C288.82 48.3482 292.695 52.3531 292.695 61.1379V102.997H308.031C310.978 102.997 313.366 100.608 313.366 97.6618V55.1952C313.366 39.1765 303.806 29.6158 288.303 29.6158ZM502.424 35.0046L488.038 76.3175L473.653 35.0046C472.906 32.8611 470.885 31.4233 468.615 31.4233H450.315L477.316 101.059L466.332 127.35H482.893C485.26 127.35 487.386 125.905 488.26 123.703L524.857 31.4233H507.462C505.192 31.4233 503.17 32.8611 502.424 35.0046ZM649.388 85.9427C642.215 85.9427 638.926 82.6547 638.926 75.4809V48.478H655.609C658.556 48.478 660.945 46.0891 660.945 43.1432V31.4237H638.926V10.336H624.365C621.419 10.336 619.031 12.7249 619.031 15.6698V31.4237H614.159C611.213 31.4237 608.824 33.8126 608.824 36.7585V48.478H618.901V76.7731C618.901 93.9027 628.571 102.996 644.41 102.996H656.274C659.22 102.996 661.609 100.607 661.609 97.6622V85.9427H649.388ZM202.157 45.893C194.252 45.893 187.401 51.5781 185.424 59.5757H215.991C215.86 51.3205 209.93 45.893 202.157 45.893ZM165.661 67.4695C165.661 44.7312 181.999 29.6157 202.289 29.6157C220.866 29.6157 236.017 42.1468 236.017 66.0469C236.017 67.1823 235.991 68.2668 235.93 69.391C235.786 72.0151 233.566 74.07 230.885 74.07H185.819C188.586 83.2305 196.667 85.9432 207.734 85.9432H231.356V97.6617C231.356 100.608 228.968 102.996 226.022 102.996H205.099C179.407 102.996 165.661 89.1732 165.661 67.4695ZM568.033 86.1943C558.474 86.1943 551.498 78.3138 551.498 67.2053C551.498 56.0948 558.474 48.2143 568.163 48.2143C577.852 48.2143 584.955 56.0948 584.955 67.076C584.955 78.0562 577.852 86.1943 568.033 86.1943ZM573.846 29.6123C564.405 29.6123 556.585 34.1406 551.757 40.5364V31.4207H536.422C533.475 31.4207 531.088 33.8086 531.088 36.7545V122.004C531.088 124.951 533.476 127.338 536.422 127.338H551.757V92.525C556.149 99.8872 564.933 104.796 574.234 104.796C591.027 104.796 605.884 90.1993 605.884 67.2043C605.884 44.3387 590.511 29.6123 573.846 29.6123ZM421.891 39.1767C426.413 34.0751 430.256 30.4134 439.116 30.4134C446.449 30.4134 446.882 33.8124 446.882 36.7583V48.3342C431.252 45.9086 421.891 50.7974 421.891 64.2327V102.996H406.555C403.609 102.996 401.22 100.608 401.22 97.662V36.7583C401.22 33.8124 403.609 31.4235 406.555 31.4235H421.891V39.1767Z" fill="#684CFF"/>
<path fill-rule="evenodd" clip-rule="evenodd" d="M0 23.0917C0 10.3376 10.3387 0 23.0917 0H120V17.7182C120 26.8848 112.569 34.3152 103.403 34.3152H57.8407C45.0866 34.3152 34.749 44.6539 34.749 57.4079V63.2834C34.749 76.0375 45.0866 86.3751 57.8407 86.3751H103.403C112.569 86.3751 120 93.8065 120 102.973V120.001H23.0917C10.3387 120.001 0 109.661 0 96.9082V23.0917ZM58.8377 43.9722H105.568C113.539 43.9722 120 50.4343 120 58.4044V62.2861C120 70.2573 113.539 76.7193 105.568 76.7193H58.8377C50.8665 76.7193 44.4045 70.2573 44.4045 62.2861V58.4044C44.4045 50.4343 50.8665 43.9722 58.8377 43.9722Z" fill="url(#paint0_angular_23_2)"/>
<defs>
<radialGradient id="paint0_angular_23_2" cx="0" cy="0" r="1" gradientUnits="userSpaceOnUse" gradientTransform="translate(135 -16.5) rotate(96.2711) scale(137.322 136.177)">
<stop stop-color="#704BFF"/>
<stop offset="0.209352" stop-color="#C549FF"/>
</radialGradient>
</defs>
</svg>
