<svg width="40" height="40" viewBox="0 0 40 40" fill="none" xmlns="http://www.w3.org/2000/svg">
<path d="M29.1654 10.8335H29.182M11.6654 3.3335H28.332C32.9344 3.3335 36.6654 7.06446 36.6654 11.6668V28.3335C36.6654 32.9359 32.9344 36.6668 28.332 36.6668H11.6654C7.06299 36.6668 3.33203 32.9359 3.33203 28.3335V11.6668C3.33203 7.06446 7.06299 3.3335 11.6654 3.3335ZM26.6654 18.9502C26.871 20.3372 26.6341 21.7539 25.9883 22.9985C25.3425 24.2432 24.3206 25.2525 23.0681 25.883C21.8155 26.5134 20.3961 26.7328 19.0117 26.51C17.6272 26.2873 16.3483 25.6336 15.3568 24.6421C14.3652 23.6506 13.7116 22.3716 13.4888 20.9872C13.266 19.6028 13.4855 18.1833 14.1159 16.9308C14.7463 15.6783 15.7557 14.6564 17.0003 14.0106C18.245 13.3647 19.6616 13.1278 21.0487 13.3335C22.4636 13.5433 23.7734 14.2026 24.7849 15.214C25.7963 16.2254 26.4556 17.5353 26.6654 18.9502Z" stroke="black" stroke-width="3.5" stroke-linecap="round" stroke-linejoin="round"/>
</svg>
