<svg width="40" height="40" viewBox="0 0 40 40" fill="none" xmlns="http://www.w3.org/2000/svg">
<path d="M26.6654 13.3335C29.3175 13.3335 31.8611 14.3871 33.7364 16.2624C35.6118 18.1378 36.6654 20.6813 36.6654 23.3335V35.0002H29.9987V23.3335C29.9987 22.4494 29.6475 21.6016 29.0224 20.9765C28.3973 20.3514 27.5494 20.0002 26.6654 20.0002C25.7813 20.0002 24.9335 20.3514 24.3083 20.9765C23.6832 21.6016 23.332 22.4494 23.332 23.3335V35.0002H16.6654V23.3335C16.6654 20.6813 17.7189 18.1378 19.5943 16.2624C21.4697 14.3871 24.0132 13.3335 26.6654 13.3335Z" stroke="black" stroke-width="3.5" stroke-linecap="round" stroke-linejoin="round"/>
<path d="M9.9987 15.0002H3.33203V35.0002H9.9987V15.0002Z" stroke="black" stroke-width="3.5" stroke-linecap="round" stroke-linejoin="round"/>
<path d="M6.66536 10.0002C8.50631 10.0002 9.9987 8.50778 9.9987 6.66683C9.9987 4.82588 8.50631 3.3335 6.66536 3.3335C4.82442 3.3335 3.33203 4.82588 3.33203 6.66683C3.33203 8.50778 4.82442 10.0002 6.66536 10.0002Z" stroke="black" stroke-width="3.5" stroke-linecap="round" stroke-linejoin="round"/>
</svg>
