<svg width="40" height="40" viewBox="0 0 40 40" fill="none" xmlns="http://www.w3.org/2000/svg">
<path d="M33.5073 6.58367C29.1986 6.58367 29.1985 2.2749 29.1985 2.2749C29.1985 6.58367 24.8897 6.58368 24.8897 6.58368C29.1984 6.58366 29.1985 10.8924 29.1985 10.8924C29.1985 6.58367 33.5073 6.58367 33.5073 6.58367Z" fill="white"/>
<path fill-rule="evenodd" clip-rule="evenodd" d="M26.2783 12.4917C25.6834 11.8968 24.7188 11.8968 24.1239 12.4917L19.2765 17.3391L19.2784 17.3409L3.12197 33.4973C2.52705 34.0922 2.52705 35.0568 3.12197 35.6517L4.73776 37.2675C5.33268 37.8624 6.29723 37.8624 6.89214 37.2675L23.05 21.1096L23.0482 21.1078L27.8941 16.2619C28.489 15.667 28.489 14.7024 27.8941 14.1075L26.2783 12.4917ZM26.8169 15.1847L25.2011 13.5689L21.4309 17.3391L23.0467 18.9549L26.8169 15.1847Z" fill="white"/>
<path d="M33.0071 14.4616C33.0071 14.4616 33.0072 18.7704 37.3158 18.7704C37.3158 18.7704 33.0071 18.7704 33.0071 23.0791C33.0071 23.0791 33.007 18.7703 28.6983 18.7704C28.6983 18.7704 33.0071 18.7704 33.0071 14.4616Z" fill="white"/>
<path d="M21.3198 11.154C17.0111 11.154 17.011 6.84521 17.011 6.84521C17.011 11.154 12.7022 11.154 12.7022 11.154C17.0109 11.154 17.011 15.4628 17.011 15.4628C17.011 11.154 21.3198 11.154 21.3198 11.154Z" fill="white"/>
</svg>
