<svg width="40" height="40" viewBox="0 0 40 40" fill="none" xmlns="http://www.w3.org/2000/svg">
<g clip-path="url(#clip0_32533_7462)">
<path d="M38.3346 5.00016C36.7386 6.12595 34.9715 6.98701 33.1013 7.55016C32.0975 6.39601 30.7635 5.57798 29.2797 5.2067C27.7959 4.83543 26.2338 4.92882 24.8048 5.47425C23.3757 6.01968 22.1487 6.99083 21.2896 8.25635C20.4305 9.52188 19.9808 11.0207 20.0013 12.5502V14.2168C17.0724 14.2928 14.1701 13.6432 11.553 12.3259C8.93587 11.0086 6.68516 9.06455 5.0013 6.66682C5.0013 6.66682 -1.66536 21.6668 13.3346 28.3335C9.90218 30.6634 5.81323 31.8317 1.66797 31.6668C16.668 40.0002 35.0013 31.6668 35.0013 12.5002C34.9998 12.0359 34.9551 11.5728 34.868 11.1168C36.569 9.43931 37.7693 7.32135 38.3346 5.00016Z" stroke="black" stroke-width="3.5" stroke-linecap="round" stroke-linejoin="round"/>
</g>
<defs>
<clipPath id="clip0_32533_7462">
<rect width="40" height="40" fill="white"/>
</clipPath>
</defs>
</svg>
