<svg width="239" height="80" viewBox="0 0 239 80" fill="none" xmlns="http://www.w3.org/2000/svg">
<g filter="url(#filter0_f_131_669)">
<rect x="11" y="11" width="217" height="58" rx="15" stroke="#A5DBFA" stroke-width="2"/>
</g>
<g filter="url(#filter1_f_131_669)">
<rect x="11" y="11" width="217" height="58" rx="15" stroke="#A5EBFA" stroke-width="2"/>
</g>
<rect x="11" y="11" width="217" height="58" rx="15" fill="black" fill-opacity="0.25"/>
<rect x="11" y="11" width="217" height="58" rx="15" fill="#369FFF" fill-opacity="0.15"/>
<rect x="11" y="11" width="217" height="58" rx="15" stroke="#33B6FF" stroke-width="2"/>
<rect x="11" y="11" width="217" height="58" rx="15" fill="black" fill-opacity="0.25"/>
<rect x="11" y="11" width="217" height="58" rx="15" fill="#369FFF" fill-opacity="0.15"/>
<rect x="11" y="11" width="217" height="58" rx="15" stroke="#33B6FF" stroke-width="2"/>
<g filter="url(#filter2_f_131_669)">
<path d="M101.188 31.8438C100.969 32.3438 100.773 32.7812 100.602 33.1562C100.43 33.5312 100.281 33.8516 100.156 34.1172C100.016 34.4141 99.8984 34.6797 99.8047 34.9141C99.7266 35.0859 99.625 35.3203 99.5 35.6172C99.375 35.8828 99.2188 36.2344 99.0312 36.6719C98.8594 37.0938 98.6328 37.6406 98.3516 38.3125C98.2109 37.7344 98.0391 37.2266 97.8359 36.7891C97.6328 36.3516 97.4141 35.9688 97.1797 35.6406C96.9453 35.3125 96.6953 35.0469 96.4297 34.8438C96.1797 34.625 95.9297 34.4453 95.6797 34.3047C95.1016 33.9922 94.4922 33.8203 93.8516 33.7891C93.0078 33.8359 92.3438 33.9766 91.8594 34.2109C91.3906 34.4297 91.0469 34.6875 90.8281 34.9844C90.6094 35.2656 90.4922 35.5625 90.4766 35.875C90.4609 36.1719 90.5 36.4219 90.5938 36.625C90.6719 36.8125 90.9453 37.0312 91.4141 37.2812C91.8984 37.5312 92.4766 37.8203 93.1484 38.1484C93.8359 38.4609 94.5703 38.8203 95.3516 39.2266C96.1328 39.6172 96.8516 40.0547 97.5078 40.5391C98.1797 41.0078 98.7422 41.5234 99.1953 42.0859C99.6641 42.6328 99.9219 43.2188 99.9688 43.8438C100.016 44.6406 100.008 45.3594 99.9453 46C99.8828 46.6406 99.6641 47.1875 99.2891 47.6406C98.9141 48.0938 98.3281 48.4531 97.5312 48.7188C96.75 48.9844 95.6641 49.1484 94.2734 49.2109C92.8359 49.2734 91.6562 49.1953 90.7344 48.9766C89.8125 48.7578 89.0625 48.4609 88.4844 48.0859C87.9219 47.7109 87.5 47.2969 87.2188 46.8438C86.9531 46.3906 86.7578 45.9609 86.6328 45.5547C86.5078 45.1328 86.4219 44.7734 86.375 44.4766C86.3281 44.1641 86.25 43.9766 86.1406 43.9141C86.0156 43.8359 85.8906 43.7656 85.7656 43.7031C85.6562 43.6406 85.5391 43.5859 85.4141 43.5391C85.2891 43.4766 85.1641 43.4219 85.0391 43.375L91.8594 42.2734C91.4688 42.5859 91.1641 42.875 90.9453 43.1406C90.7422 43.4062 90.5859 43.6406 90.4766 43.8438C90.3516 44.0781 90.2656 44.2969 90.2188 44.5C90.1875 44.7188 90.2578 44.9922 90.4297 45.3203C90.6016 45.6484 90.8359 45.9688 91.1328 46.2812C91.4453 46.5781 91.8047 46.8281 92.2109 47.0312C92.6172 47.2344 93.0391 47.3203 93.4766 47.2891C94.0234 47.2422 94.4688 47.1094 94.8125 46.8906C95.1562 46.6562 95.4141 46.3672 95.5859 46.0234C95.7734 45.6797 95.8828 45.3047 95.9141 44.8984C95.9453 44.4922 95.9062 44.0938 95.7969 43.7031C95.7031 43.2969 95.5469 42.9219 95.3281 42.5781C95.1094 42.2188 94.8516 41.9219 94.5547 41.6875C94.2891 41.5 93.875 41.3203 93.3125 41.1484C92.7656 40.9766 92.1484 40.7891 91.4609 40.5859C90.7891 40.3828 90.0938 40.1484 89.375 39.8828C88.6719 39.6172 88.0312 39.2891 87.4531 38.8984C86.8906 38.5078 86.4375 38.0469 86.0938 37.5156C85.7656 36.9844 85.6406 36.3438 85.7188 35.5938C85.7812 34.9531 85.9844 34.4219 86.3281 34C86.6875 33.5625 87.1328 33.2188 87.6641 32.9688C88.2109 32.7031 88.8125 32.5078 89.4688 32.3828C90.1406 32.2578 90.8203 32.1875 91.5078 32.1719C92.2109 32.1406 92.8984 32.1484 93.5703 32.1953C94.2578 32.2422 94.875 32.2969 95.4219 32.3594C95.9688 32.4219 96.4297 32.4844 96.8047 32.5469C97.1953 32.5938 97.4375 32.625 97.5312 32.6406C97.9375 32.6719 98.3438 32.6641 98.75 32.6172C99.1094 32.5859 99.5 32.5156 99.9219 32.4062C100.359 32.2812 100.781 32.0938 101.188 31.8438ZM101.305 31.2344C101.664 31.2969 101.992 31.3438 102.289 31.375C102.586 31.3906 102.836 31.4062 103.039 31.4219C103.273 31.4375 103.477 31.4453 103.648 31.4453C103.883 31.4297 104.156 31.4062 104.469 31.375C104.734 31.3438 105.055 31.3047 105.43 31.2578C105.82 31.2109 106.266 31.1484 106.766 31.0703C106.531 31.1953 106.336 31.3203 106.18 31.4453C106.023 31.5547 105.898 31.6719 105.805 31.7969C105.695 31.9375 105.609 32.0703 105.547 32.1953C105.469 32.3984 105.383 32.8203 105.289 33.4609C105.195 34.0078 105.078 34.8203 104.938 35.8984C104.812 36.9766 104.648 38.4375 104.445 40.2812C105.008 39.7188 105.539 39.2969 106.039 39.0156C106.555 38.7188 107.008 38.5078 107.398 38.3828C107.852 38.2422 108.273 38.1719 108.664 38.1719C109.148 38.2188 109.641 38.375 110.141 38.6406C110.656 38.8906 111.133 39.1875 111.57 39.5312C112.023 39.875 112.414 40.2422 112.742 40.6328C113.086 41.0234 113.328 41.3672 113.469 41.6641C113.562 41.8672 113.609 42.1328 113.609 42.4609C113.609 42.7734 113.578 43.1172 113.516 43.4922C113.453 43.8672 113.367 44.25 113.258 44.6406C113.148 45.0312 113.039 45.3984 112.93 45.7422C112.836 46.0859 112.75 46.3906 112.672 46.6562C112.594 46.9062 112.547 47.0859 112.531 47.1953C112.5 47.4297 112.516 47.6562 112.578 47.875C112.625 48.0625 112.719 48.2656 112.859 48.4844C113 48.6875 113.211 48.8594 113.492 49C113.273 48.9688 113.039 48.9453 112.789 48.9297C112.555 48.8984 112.328 48.875 112.109 48.8594C111.859 48.8438 111.609 48.8359 111.359 48.8359H110.516C110.25 48.8359 109.945 48.8438 109.602 48.8594C109.258 48.8594 108.883 48.8672 108.477 48.8828C108.695 48.8047 108.883 48.7031 109.039 48.5781C109.195 48.4375 109.328 48.3047 109.438 48.1797C109.562 48.0391 109.672 47.8906 109.766 47.7344C109.828 47.6094 109.906 47.375 110 47.0312C110.094 46.6719 110.18 46.2656 110.258 45.8125C110.336 45.3438 110.391 44.8516 110.422 44.3359C110.469 43.8203 110.477 43.3281 110.445 42.8594C110.43 42.375 110.359 41.9453 110.234 41.5703C110.125 41.1953 109.953 40.9219 109.719 40.75C109.016 40.2188 108.375 39.9609 107.797 39.9766C107.234 39.9766 106.695 40.2031 106.18 40.6562C105.992 40.8281 105.812 41 105.641 41.1719C105.484 41.3281 105.312 41.5156 105.125 41.7344C104.938 41.9375 104.766 42.1484 104.609 42.3672C104.609 42.6016 104.617 42.8594 104.633 43.1406C104.648 43.4219 104.664 43.6953 104.68 43.9609C104.695 44.2578 104.719 44.5547 104.75 44.8516C104.781 45.3047 104.828 45.75 104.891 46.1875C104.938 46.5625 105 46.9766 105.078 47.4297C105.156 47.8672 105.258 48.2656 105.383 48.625C105.18 48.5938 104.969 48.5859 104.75 48.6016C104.531 48.6016 104.32 48.6016 104.117 48.6016C103.883 48.6172 103.656 48.625 103.438 48.625C103.234 48.6406 103.023 48.6641 102.805 48.6953C102.617 48.7266 102.414 48.7578 102.195 48.7891C101.977 48.8047 101.766 48.8359 101.562 48.8828C101.75 48.5234 101.906 48.1719 102.031 47.8281C102.156 47.4688 102.258 47.1562 102.336 46.8906C102.43 46.5781 102.508 46.2734 102.57 45.9766C102.617 45.7422 102.648 45.2969 102.664 44.6406C102.695 43.9688 102.719 43.2031 102.734 42.3438C102.75 41.4688 102.758 40.5469 102.758 39.5781C102.758 38.6094 102.75 37.6875 102.734 36.8125C102.719 35.9375 102.688 35.1719 102.641 34.5156C102.609 33.8594 102.57 33.4062 102.523 33.1562C102.461 32.9062 102.375 32.6562 102.266 32.4062C102.172 32.1875 102.047 31.9766 101.891 31.7734C101.734 31.5547 101.539 31.375 101.305 31.2344ZM116.305 39.5078C116.383 39.4141 116.43 39.2422 116.445 38.9922C116.477 38.7266 116.539 38.4297 116.633 38.1016C116.742 37.7734 116.922 37.4297 117.172 37.0703C117.422 36.7109 117.828 36.375 118.391 36.0625C118.938 35.75 119.469 35.5625 119.984 35.5C120.5 35.4375 120.992 35.4609 121.461 35.5703C121.93 35.6797 122.367 35.8516 122.773 36.0859C123.195 36.3203 123.578 36.5781 123.922 36.8594C124.156 37.0469 124.344 37.3203 124.484 37.6797C124.625 38.0234 124.734 38.4141 124.812 38.8516C124.891 39.2891 124.945 39.75 124.977 40.2344C125.023 40.7031 125.055 41.1641 125.07 41.6172C125.086 42.0547 125.094 42.4609 125.094 42.8359C125.109 43.1953 125.141 43.4922 125.188 43.7266C125.25 44.0703 125.359 44.3672 125.516 44.6172C125.672 44.8516 125.844 45.0547 126.031 45.2266C126.219 45.3828 126.406 45.5078 126.594 45.6016C126.781 45.6953 126.945 45.7656 127.086 45.8125C127.18 45.8594 127.266 45.8906 127.344 45.9062C127.5 45.9688 127.609 45.9688 127.672 45.9062C127.578 46.125 127.492 46.3125 127.414 46.4688C127.336 46.625 127.273 46.7578 127.227 46.8672C127.164 46.9922 127.109 47.0938 127.062 47.1719C127.016 47.2656 126.961 47.3516 126.898 47.4297C126.852 47.5078 126.789 47.5938 126.711 47.6875C126.633 47.7812 126.555 47.8828 126.477 47.9922C126.273 47.9141 126.078 47.8203 125.891 47.7109C125.719 47.6016 125.562 47.5 125.422 47.4062C125.25 47.2969 125.094 47.1875 124.953 47.0781C124.812 46.9688 124.68 46.8438 124.555 46.7031C124.445 46.5781 124.328 46.4453 124.203 46.3047C124.094 46.1641 124 46.0078 123.922 45.8359C123.828 46.0391 123.602 46.3281 123.242 46.7031C122.898 47.0781 122.445 47.4219 121.883 47.7344C121.32 48.0312 120.664 48.2422 119.914 48.3672C119.18 48.4922 118.367 48.4062 117.477 48.1094C117.086 47.9844 116.719 47.8047 116.375 47.5703C116.031 47.3203 115.734 47.0234 115.484 46.6797C115.25 46.3359 115.078 45.9453 114.969 45.5078C114.875 45.0547 114.883 44.5547 114.992 44.0078C115.102 43.4609 115.297 43 115.578 42.625C115.859 42.25 116.195 41.9453 116.586 41.7109C116.977 41.4766 117.414 41.2969 117.898 41.1719C118.383 41.0469 118.883 40.9609 119.398 40.9141C119.805 40.8984 120.211 40.9219 120.617 40.9844C120.961 41.0469 121.32 41.1641 121.695 41.3359C122.07 41.4922 122.391 41.7344 122.656 42.0625C122.641 41.2344 122.609 40.5781 122.562 40.0938C122.531 39.5938 122.5 39.2109 122.469 38.9453C122.406 38.6328 122.352 38.4141 122.305 38.2891C122.227 38.1797 122.141 38.0547 122.047 37.9141C121.969 37.7734 121.867 37.6484 121.742 37.5391C121.617 37.4141 121.461 37.3125 121.273 37.2344C121.086 37.1562 120.867 37.125 120.617 37.1406C120.352 37.1562 120.141 37.2266 119.984 37.3516C119.828 37.4766 119.703 37.625 119.609 37.7969C119.531 37.9531 119.484 38.125 119.469 38.3125C119.453 38.5 119.461 38.6641 119.492 38.8047C119.523 38.8984 119.57 39 119.633 39.1094C119.695 39.2031 119.781 39.3047 119.891 39.4141C120 39.5234 120.148 39.6172 120.336 39.6953C119.977 39.7422 119.656 39.7812 119.375 39.8125C119.094 39.8281 118.852 39.8516 118.648 39.8828C118.414 39.9141 118.211 39.9375 118.039 39.9531C117.867 39.9688 117.664 40 117.43 40.0469C117.227 40.0781 116.977 40.1172 116.68 40.1641C116.383 40.2109 116.039 40.2734 115.648 40.3516C115.742 40.2422 115.828 40.1406 115.906 40.0469C115.984 39.9375 116.055 39.8438 116.117 39.7656C116.18 39.6719 116.242 39.5859 116.305 39.5078ZM119.82 42.2969C119.539 42.3125 119.258 42.3828 118.977 42.5078C118.695 42.6172 118.445 42.7812 118.227 43C118.008 43.2031 117.82 43.4453 117.664 43.7266C117.523 43.9922 117.453 44.2891 117.453 44.6172C117.453 44.9453 117.531 45.2344 117.688 45.4844C117.859 45.7188 118.078 45.9141 118.344 46.0703C118.625 46.2266 118.922 46.3203 119.234 46.3516C119.562 46.3828 119.883 46.3516 120.195 46.2578C120.492 46.1484 120.773 45.9766 121.039 45.7422C121.305 45.4922 121.531 45.2266 121.719 44.9453C121.906 44.6484 122.039 44.3594 122.117 44.0781C122.195 43.7812 122.203 43.5391 122.141 43.3516C122.016 42.9453 121.734 42.6641 121.297 42.5078C120.859 42.3359 120.367 42.2656 119.82 42.2969ZM127.203 37.7734C127.5 37.7891 127.766 37.7969 128 37.7969C128.25 37.7812 128.461 37.7656 128.633 37.75C128.836 37.7344 129.016 37.7188 129.172 37.7031C129.406 37.6719 129.648 37.6328 129.898 37.5859C130.117 37.5547 130.344 37.5156 130.578 37.4688C130.828 37.4062 131.07 37.3359 131.305 37.2578C131.211 37.4922 131.133 37.6953 131.07 37.8672C131.008 38.0391 130.961 38.1875 130.93 38.3125C130.883 38.4531 130.859 38.5703 130.859 38.6641C130.844 38.7734 130.836 38.9062 130.836 39.0625C130.82 39.3281 130.82 39.7578 130.836 40.3516C131.648 39.6484 132.328 39.1016 132.875 38.7109C133.438 38.3203 133.883 38.0156 134.211 37.7969C134.602 37.5469 134.906 37.3828 135.125 37.3047C135.703 37.2109 136.211 37.3438 136.648 37.7031C136.836 37.8594 137.016 38.0703 137.188 38.3359C137.359 38.5859 137.508 38.9219 137.633 39.3438C137.758 39.7656 137.852 40.2734 137.914 40.8672C137.977 41.4453 137.984 42.1406 137.938 42.9531C137.609 42.9844 137.312 43.0156 137.047 43.0469C136.797 43.0781 136.586 43.1016 136.414 43.1172C136.211 43.1484 136.023 43.1641 135.852 43.1641L135.219 43.2344C135 43.2656 134.727 43.2969 134.398 43.3281C134.086 43.3438 133.703 43.375 133.25 43.4219C133.906 42.8906 134.328 42.4297 134.516 42.0391C134.719 41.6328 134.805 41.2969 134.773 41.0312C134.742 40.7344 134.602 40.4766 134.352 40.2578C134.055 40.0859 133.734 40.0234 133.391 40.0703C133.094 40.1016 132.75 40.2344 132.359 40.4688C131.969 40.7031 131.555 41.1406 131.117 41.7812C131.148 42.7812 131.18 43.6094 131.211 44.2656C131.258 44.9219 131.297 45.4531 131.328 45.8594C131.375 46.3281 131.414 46.6953 131.445 46.9609C131.492 47.1953 131.586 47.4453 131.727 47.7109C131.836 47.9297 131.992 48.1719 132.195 48.4375C132.398 48.7031 132.664 48.9688 132.992 49.2344C132.305 49.2031 131.742 49.2031 131.305 49.2344C131.039 49.25 130.805 49.2656 130.602 49.2812C130.383 49.3125 130.148 49.3438 129.898 49.375C129.68 49.4062 129.422 49.4375 129.125 49.4688C128.844 49.5156 128.531 49.5625 128.188 49.6094C128.312 49.4375 128.414 49.2344 128.492 49C128.57 48.7812 128.633 48.5703 128.68 48.3672C128.742 48.1328 128.789 47.8906 128.82 47.6406C128.836 47.4219 128.844 47.0938 128.844 46.6562C128.859 46.2188 128.852 45.7266 128.82 45.1797C128.805 44.6172 128.781 44.0391 128.75 43.4453C128.719 42.8359 128.68 42.2656 128.633 41.7344C128.586 41.2031 128.531 40.7422 128.469 40.3516C128.422 39.9453 128.367 39.6641 128.305 39.5078C128.227 39.3203 128.133 39.1328 128.023 38.9453C127.93 38.7734 127.812 38.5938 127.672 38.4062C127.531 38.2031 127.375 37.9922 127.203 37.7734ZM145.016 45.2266C145.453 45.2266 145.859 45.1797 146.234 45.0859C146.547 45.0078 146.844 44.8828 147.125 44.7109C147.422 44.5234 147.617 44.25 147.711 43.8906C148.023 43.9531 148.289 44.0078 148.508 44.0547C148.727 44.0859 148.914 44.1172 149.07 44.1484C149.242 44.1953 149.391 44.2266 149.516 44.2422C149.641 44.2734 149.789 44.3047 149.961 44.3359C150.117 44.3672 150.305 44.4062 150.523 44.4531C150.758 44.4844 151.031 44.5312 151.344 44.5938C151.109 44.5625 150.867 44.5859 150.617 44.6641C150.383 44.7422 150.156 44.8281 149.938 44.9219C149.688 45.0312 149.453 45.1641 149.234 45.3203C149.094 45.4141 148.93 45.5547 148.742 45.7422C148.57 45.9297 148.32 46.1094 147.992 46.2812C147.664 46.4531 147.227 46.6016 146.68 46.7266C146.148 46.8359 145.461 46.875 144.617 46.8438C143.602 46.8125 142.75 46.6328 142.062 46.3047C141.375 45.9609 140.82 45.5469 140.398 45.0625C139.977 44.5625 139.672 44.0234 139.484 43.4453C139.297 42.8672 139.195 42.3281 139.18 41.8281C139.164 41.3281 139.312 40.8047 139.625 40.2578C139.938 39.7109 140.375 39.2109 140.938 38.7578C141.516 38.3047 142.211 37.9375 143.023 37.6562C143.836 37.3594 144.727 37.2109 145.695 37.2109C146.258 37.2109 146.773 37.2812 147.242 37.4219C147.727 37.5469 148.164 37.7188 148.555 37.9375C148.961 38.1562 149.312 38.4062 149.609 38.6875C149.906 38.9531 150.156 39.2266 150.359 39.5078C150.562 39.8047 150.734 40.1172 150.875 40.4453C151 40.7266 151.102 41.0469 151.18 41.4062C151.258 41.7656 151.281 42.1328 151.25 42.5078C150.062 42.5391 149.102 42.5625 148.367 42.5781C147.648 42.5938 147.086 42.6016 146.68 42.6016H145.625H144.828C144.547 42.6016 144.18 42.6094 143.727 42.625C143.273 42.6406 142.719 42.6641 142.062 42.6953C142.141 43.3203 142.336 43.8047 142.648 44.1484C142.977 44.4766 143.32 44.7266 143.68 44.8984C144.086 45.0859 144.531 45.1953 145.016 45.2266ZM142.906 41.0078C143.406 41.0391 143.82 41.0625 144.148 41.0781C144.492 41.0938 144.773 41.1094 144.992 41.125C145.227 41.1406 145.414 41.1484 145.555 41.1484H146.141C146.531 41.1484 147.258 41.125 148.32 41.0781C148.273 40.3906 148.125 39.8672 147.875 39.5078C147.641 39.1484 147.391 38.8828 147.125 38.7109C146.812 38.5234 146.469 38.4141 146.094 38.3828C145.078 38.3984 144.32 38.6094 143.82 39.0156C143.336 39.4219 143.031 40.0859 142.906 41.0078Z" fill="#C2F0FF" fill-opacity="0.76"/>
</g>
<defs>
<filter id="filter0_f_131_669" x="6" y="6" width="227" height="68" filterUnits="userSpaceOnUse" color-interpolation-filters="sRGB">
<feFlood flood-opacity="0" result="BackgroundImageFix"/>
<feBlend mode="normal" in="SourceGraphic" in2="BackgroundImageFix" result="shape"/>
<feGaussianBlur stdDeviation="2" result="effect1_foregroundBlur_131_669"/>
</filter>
<filter id="filter1_f_131_669" x="0.4" y="0.4" width="238.2" height="79.2" filterUnits="userSpaceOnUse" color-interpolation-filters="sRGB">
<feFlood flood-opacity="0" result="BackgroundImageFix"/>
<feBlend mode="normal" in="SourceGraphic" in2="BackgroundImageFix" result="shape"/>
<feGaussianBlur stdDeviation="4.8" result="effect1_foregroundBlur_131_669"/>
</filter>
<filter id="filter2_f_131_669" x="75.7391" y="21.7703" width="84.9047" height="37.1391" filterUnits="userSpaceOnUse" color-interpolation-filters="sRGB">
<feFlood flood-opacity="0" result="BackgroundImageFix"/>
<feBlend mode="normal" in="SourceGraphic" in2="BackgroundImageFix" result="shape"/>
<feGaussianBlur stdDeviation="4.65" result="effect1_foregroundBlur_131_669"/>
</filter>
</defs>
</svg>
