<svg width="20" height="15" viewBox="0 0 20 15" fill="none" xmlns="http://www.w3.org/2000/svg">
<path d="M16.92 2.65877C16.6496 2.25037 16.2668 1.93797 15.8128 1.75637C14.8272 1.36117 13.9796 1.09717 13.2212 0.948372C12.6892 0.844372 12.1624 1.10597 11.9092 1.59877L11.846 1.72197C11.2844 1.65997 10.688 1.63917 10.0088 1.65637C9.3124 1.63957 8.714 1.65997 8.1516 1.72197L8.0888 1.59877C7.8356 1.10597 7.308 0.844772 6.7772 0.948772C6.0188 1.09717 5.1708 1.36117 4.1856 1.75677C3.732 1.93837 3.3492 2.25037 3.0784 2.65917C1.19 5.51157 0.45 8.58837 0.8164 12.066C0.8292 12.188 0.8972 12.2972 1.0008 12.3624C2.4536 13.2784 3.7108 13.9056 4.9572 14.3368C5.4784 14.5188 6.0564 14.3152 6.364 13.8452L6.9124 13.0048C6.4756 12.84 6.0492 12.6448 5.6404 12.4116C5.4488 12.3024 5.382 12.058 5.4912 11.8664C5.6004 11.674 5.8448 11.6064 6.0368 11.7172C7.2532 12.4108 8.6284 12.7776 10.0136 12.7776C11.3988 12.7776 12.774 12.4108 13.9904 11.7172C14.182 11.6064 14.4264 11.674 14.536 11.8664C14.6452 12.058 14.5784 12.3024 14.3868 12.4116C13.9644 12.6528 13.5228 12.8536 13.0704 13.0212L13.6348 13.862C13.8672 14.208 14.2508 14.4048 14.646 14.4048C14.7748 14.4048 14.9048 14.3836 15.0312 14.3404C16.2812 13.9088 17.5408 13.2808 18.9968 12.3628C19.1004 12.2976 19.1684 12.188 19.1812 12.0664C19.5484 8.58837 18.8084 5.51117 16.92 2.65877ZM7.444 9.59197C6.6736 9.59197 6.0396 8.78037 6.0396 7.79397C6.0396 6.80757 6.6736 5.99597 7.444 5.99597C8.2144 5.99597 8.8484 6.80757 8.8484 7.79397C8.8484 8.78037 8.2144 9.59197 7.444 9.59197ZM12.6412 9.58157C11.878 9.58157 11.25 8.76517 11.25 7.77277C11.25 6.78037 11.878 5.96397 12.6412 5.96397C13.4044 5.96397 14.0324 6.78037 14.0324 7.77277C14.0324 8.76517 13.4044 9.58157 12.6412 9.58157Z" fill="#93989A"/>
</svg>
