<svg width="20" height="12" viewBox="0 0 20 12" fill="none" xmlns="http://www.w3.org/2000/svg">
<path d="M5.9998 11.2008C8.87168 11.2008 11.1998 8.87266 11.1998 6.00078C11.1998 3.1289 8.87168 0.800781 5.9998 0.800781C3.12792 0.800781 0.799805 3.1289 0.799805 6.00078C0.799805 8.87266 3.12792 11.2008 5.9998 11.2008Z" fill="#93989A"/>
<path d="M14.1996 1.19922C12.7636 1.19922 11.5996 3.34842 11.5996 5.99922C11.5996 6.49642 11.6404 6.97562 11.7164 7.42642C11.8176 8.02762 11.9812 8.57802 12.1932 9.05242C12.2992 9.28962 12.4172 9.50762 12.5456 9.70322C12.8024 10.0944 13.1008 10.3964 13.4264 10.5836C13.6708 10.7236 13.9304 10.7992 14.1996 10.7992C14.4688 10.7992 14.7284 10.7236 14.9728 10.5836C15.2984 10.3964 15.5968 10.0944 15.8536 9.70322C15.982 9.50762 16.1 9.28962 16.206 9.05242C16.418 8.57842 16.5816 8.02762 16.6828 7.42642C16.7588 6.97562 16.7996 6.49642 16.7996 5.99922C16.7996 3.34842 15.6356 1.19922 14.1996 1.19922Z" fill="#93989A"/>
<path d="M18.2002 1.60156C18.0966 1.60156 17.9966 1.67076 17.903 1.79956C17.8402 1.88516 17.7802 1.99716 17.7238 2.13276C17.6954 2.20036 17.6678 2.27396 17.6414 2.35316C17.5882 2.51116 17.5386 2.69156 17.4934 2.89036C17.403 3.28836 17.3298 3.76276 17.279 4.28916C17.2538 4.55236 17.2342 4.82876 17.2206 5.11516C17.207 5.40116 17.2002 5.69796 17.2002 6.00156C17.2002 6.30516 17.207 6.60196 17.2206 6.88836C17.2338 7.17476 17.2534 7.45116 17.279 7.71436C17.3298 8.24076 17.403 8.71476 17.4934 9.11316C17.5386 9.31236 17.5882 9.49236 17.6414 9.65036C17.6678 9.72956 17.6954 9.80316 17.7238 9.87076C17.7806 10.0064 17.8406 10.1184 17.903 10.204C17.9966 10.3324 18.0966 10.4016 18.2002 10.4016C18.7526 10.4016 19.2002 8.43156 19.2002 6.00156C19.2002 3.57156 18.7526 1.60156 18.2002 1.60156Z" fill="#93989A"/>
</svg>
