<svg width="18" height="17" viewBox="0 0 18 17" fill="none" xmlns="http://www.w3.org/2000/svg">
<path d="M17.4534 0.622296C17.1534 0.367896 16.6822 0.331496 16.195 0.527096H16.1942C15.6818 0.732696 1.68977 6.7343 1.12017 6.9795C1.01657 7.0155 0.111766 7.3531 0.204966 8.1051C0.288166 8.7831 1.01537 9.0639 1.10417 9.0963L4.66137 10.3143C4.89737 11.0999 5.76737 13.9983 5.95977 14.6175C6.07977 15.0035 6.27537 15.5107 6.61817 15.6151C6.91897 15.7311 7.21817 15.6251 7.41177 15.4731L9.58657 13.4559L13.0974 16.1939L13.181 16.2439C13.4194 16.3495 13.6478 16.4023 13.8658 16.4023C14.0342 16.4023 14.1958 16.3707 14.3502 16.3075C14.8762 16.0915 15.0866 15.5903 15.1086 15.5335L17.731 1.9027C17.891 1.1747 17.6686 0.804296 17.4534 0.622296ZM7.79857 10.8015L6.59857 14.0015L5.39857 10.0015L14.5986 3.2015L7.79857 10.8015Z" fill="#93989A"/>
</svg>
