<svg width="18" height="18" viewBox="0 0 18 18" fill="none" xmlns="http://www.w3.org/2000/svg">
<path d="M12.6332 10.668C12.6998 10.118 12.7498 9.56797 12.7498 9.0013C12.7498 8.43464 12.6998 7.88464 12.6332 7.33464H15.4498C15.5832 7.86797 15.6665 8.4263 15.6665 9.0013C15.6665 9.5763 15.5832 10.1346 15.4498 10.668H12.6332ZM11.1582 15.3013C11.6582 14.3763 12.0415 13.3763 12.3082 12.3346H14.7665C13.9665 13.7096 12.6915 14.7763 11.1582 15.3013ZM10.9498 10.668H7.04984C6.9665 10.118 6.9165 9.56797 6.9165 9.0013C6.9165 8.43464 6.9665 7.8763 7.04984 7.33464H10.9498C11.0248 7.8763 11.0832 8.43464 11.0832 9.0013C11.0832 9.56797 11.0248 10.118 10.9498 10.668ZM8.99984 15.6346C8.30817 14.6346 7.74984 13.5263 7.40817 12.3346H10.5915C10.2498 13.5263 9.6915 14.6346 8.99984 15.6346ZM5.6665 5.66797H3.23317C4.02484 4.28464 5.30817 3.21797 6.83317 2.7013C6.33317 3.6263 5.95817 4.6263 5.6665 5.66797ZM3.23317 12.3346H5.6665C5.95817 13.3763 6.33317 14.3763 6.83317 15.3013C5.30817 14.7763 4.02484 13.7096 3.23317 12.3346ZM2.54984 10.668C2.4165 10.1346 2.33317 9.5763 2.33317 9.0013C2.33317 8.4263 2.4165 7.86797 2.54984 7.33464H5.3665C5.29984 7.88464 5.24984 8.43464 5.24984 9.0013C5.24984 9.56797 5.29984 10.118 5.3665 10.668H2.54984ZM8.99984 2.35964C9.6915 3.35964 10.2498 4.4763 10.5915 5.66797H7.40817C7.74984 4.4763 8.30817 3.35964 8.99984 2.35964ZM14.7665 5.66797H12.3082C12.0415 4.6263 11.6582 3.6263 11.1582 2.7013C12.6915 3.2263 13.9665 4.28464 14.7665 5.66797ZM8.99984 0.667969C4.3915 0.667969 0.666504 4.41797 0.666504 9.0013C0.666504 11.2114 1.54448 13.3311 3.10728 14.8939C3.8811 15.6677 4.79976 16.2815 5.81081 16.7003C6.82186 17.1191 7.90549 17.3346 8.99984 17.3346C11.21 17.3346 13.3296 16.4567 14.8924 14.8939C16.4552 13.3311 17.3332 11.2114 17.3332 9.0013C17.3332 7.90695 17.1176 6.82332 16.6988 5.81227C16.28 4.80123 15.6662 3.88257 14.8924 3.10875C14.1186 2.33492 13.1999 1.7211 12.1889 1.30231C11.1778 0.883517 10.0942 0.667969 8.99984 0.667969Z" fill="#93989A"/>
</svg>
