<svg width="123" height="123" viewBox="0 0 123 123" fill="none" xmlns="http://www.w3.org/2000/svg">
<g filter="url(#filter0_d_635_16267)">
<path d="M119 57.5C119 89.2564 93.2564 115 61.5 115C29.7436 115 4 89.2564 4 57.5C4 25.7436 29.7436 0 61.5 0C93.2564 0 119 25.7436 119 57.5Z" fill="white"/>
<path d="M115 57.5C115 87.0472 91.0472 111 61.5 111C31.9528 111 8 87.0472 8 57.5C8 27.9528 31.9528 4 61.5 4C91.0472 4 115 27.9528 115 57.5Z" stroke="#F06129" stroke-width="8"/>
</g>
<path d="M46.5596 71.5452L43.5562 71.6917L37.7331 88.4217C37.5476 88.9545 37.9793 89.4995 38.5406 89.4406L46.7029 88.586C46.9309 88.5621 47.1576 88.641 47.3215 88.8012L53.1892 94.5393C53.5925 94.9338 54.2693 94.7747 54.4547 94.2419L60.3159 77.4024L58.5876 75.7251L46.5596 71.5452Z" fill="#FF4755"/>
<path d="M60.3156 77.4025L61.4999 74L44.7367 68.2994L43.5559 71.6919C48.316 75.0885 54.0796 77.1677 60.3156 77.4025V77.4025Z" fill="#FC2B3A"/>
<path d="M76.4406 71.5452L79.4441 71.6917L85.2672 88.4217C85.4527 88.9545 85.021 89.4995 84.4597 89.4406L76.2974 88.586C76.0694 88.5621 75.8427 88.641 75.6789 88.8012L69.8113 94.5393C69.4079 94.9338 68.7311 94.7747 68.5457 94.2419L62.6846 77.4024L64.4128 75.7251L76.4406 71.5452Z" fill="#FF4755"/>
<path d="M62.6843 77.4025L61.5 74L78.2632 68.2994L79.444 71.6919C74.6839 75.0885 68.9203 77.1677 62.6843 77.4025Z" fill="#FC2B3A"/>
<path d="M61.4999 72.2854C33.9999 72.2854 34.0115 45.573 34.0342 45.1138C34.7562 30.5701 46.7769 19 61.4999 19C76.223 19 88.2437 30.5701 88.9656 45.114C88.9884 45.5731 88.9999 72.2854 61.4999 72.2854Z" fill="#FFE27A"/>
<path d="M61.5 71.2278C46.777 71.2278 34.7567 59.6576 34.0346 45.1138C34.0118 45.5729 34 46.035 34 46.4998C34 61.6876 46.3122 73.9998 61.5 73.9998C76.6878 73.9998 89 61.6876 89 46.4998C89 46.0349 88.9882 45.5729 88.9654 45.1138C88.2433 59.6576 76.223 71.2278 61.5 71.2278Z" fill="#F9CF58"/>
<path d="M61.4999 66.3682C39.8794 66.3682 39.8504 45.108 39.8794 44.6496C40.5942 33.3307 50.0008 24.3716 61.4999 24.3716C72.999 24.3716 82.4056 33.3307 83.1204 44.6496C83.1494 45.1079 83.1204 66.3682 61.4999 66.3682V66.3682Z" fill="#FFBA57"/>
<path d="M61.5001 65.3919C50.0011 65.3919 40.5962 56.4325 39.8814 45.1138C39.8524 45.5722 39.8359 46.0341 39.8359 46.4998C39.8359 58.4646 49.5353 68.164 61.5001 68.164C73.4649 68.164 83.1643 58.4646 83.1643 46.4998C83.1643 46.034 83.1479 45.5722 83.1189 45.1138C82.404 56.4325 72.9991 65.3919 61.5001 65.3919Z" fill="#FFAC3E"/>
<path d="M65.5195 35.25H57.9595L55.1395 40.05H59.6395V57H65.5195V35.25Z" fill="white"/>
<defs>
<filter id="filter0_d_635_16267" x="0" y="0" width="123" height="123" filterUnits="userSpaceOnUse" color-interpolation-filters="sRGB">
<feFlood flood-opacity="0" result="BackgroundImageFix"/>
<feColorMatrix in="SourceAlpha" type="matrix" values="0 0 0 0 0 0 0 0 0 0 0 0 0 0 0 0 0 0 127 0" result="hardAlpha"/>
<feOffset dy="4"/>
<feGaussianBlur stdDeviation="2"/>
<feComposite in2="hardAlpha" operator="out"/>
<feColorMatrix type="matrix" values="0 0 0 0 0 0 0 0 0 0 0 0 0 0 0 0 0 0 0.25 0"/>
<feBlend mode="normal" in2="BackgroundImageFix" result="effect1_dropShadow_635_16267"/>
<feBlend mode="normal" in="SourceGraphic" in2="effect1_dropShadow_635_16267" result="shape"/>
</filter>
</defs>
</svg>
