<svg width="123" height="123" viewBox="0 0 123 123" fill="none" xmlns="http://www.w3.org/2000/svg">
<g filter="url(#filter0_d_635_16268)">
<path d="M119 57.5C119 89.2564 93.2564 115 61.5 115C29.7436 115 4 89.2564 4 57.5C4 25.7436 29.7436 0 61.5 0C93.2564 0 119 25.7436 119 57.5Z" fill="white"/>
<path d="M115 57.5C115 87.0472 91.0472 111 61.5 111C31.9528 111 8 87.0472 8 57.5C8 27.9528 31.9528 4 61.5 4C91.0472 4 115 27.9528 115 57.5Z" stroke="#7CD1E3" stroke-width="8"/>
</g>
<path d="M83.2547 57.9878V89.0657C83.2547 90.1488 82.4037 91 81.3204 91H42.6343C41.5509 91 40.7 90.1488 40.7 89.0657V61.0052C40.7 60.3089 41.0867 59.69 41.6671 59.3417L46.8896 56.3243C47.1992 56.1308 47.5474 56.0535 47.8568 56.0535H56.1744L61.9773 61.0052L67.7803 56.0535H81.3204C82.4037 56.0535 83.2547 56.9045 83.2547 57.9878V57.9878Z" fill="#E63950"/>
<path d="M83.2549 57.9878V89.0657C83.2549 90.1488 82.404 91 81.3206 91H61.9775V61.0052L67.7805 56.0535H81.3206C82.404 56.0535 83.2549 56.9045 83.2549 57.9878V57.9878Z" fill="#D0004F"/>
<path d="M63.2929 28.8701C62.9446 28.251 62.4803 27.6708 61.9774 27.245C61.0489 26.2778 59.8885 25.6203 58.6117 25.2723C56.5999 24.7307 54.511 25.0015 52.7313 26.0459C50.2554 27.4775 48.7854 30.1466 48.8627 33.0095C48.9014 33.3964 49.0948 39.1477 49.0948 39.1477C48.6692 38.9156 44.259 36.1687 44.259 36.1687C43.7561 35.9366 40.2745 33.306 35.9803 35.8204C34.2006 36.8651 32.924 38.5285 32.3822 40.5016C31.8408 42.5134 32.1117 44.6023 33.156 46.382C35.2837 50.0957 40.0422 51.3337 43.7174 49.206L48.6976 46.3306L41.7596 45.868C41.1763 46.201 40.5187 46.3762 39.8534 46.3762C38.4707 46.3762 37.19 45.6414 36.5119 44.457C35.9717 43.537 35.8431 42.5283 36.117 41.5083C36.3872 40.5279 37.035 39.6874 37.938 39.1584C38.5689 38.7882 39.1696 38.6087 39.7722 38.6087C40.7734 38.6087 41.6026 39.0979 42.0466 39.3605L42.2921 39.5003C42.8984 39.8781 46.8313 42.3185 47.2393 42.5415L47.3847 42.6208L47.3519 42.6398L47.4054 42.6421L52.0477 45.3501L52.9504 39.4182L52.9727 39.348L52.9611 39.0149C52.9611 39.0149 52.7514 33.0181 52.7099 32.6139C52.6891 31.454 53.4333 30.1091 54.6669 29.395C55.2695 29.0418 55.9042 28.868 56.5728 28.868C56.9166 28.868 57.2641 28.9152 57.6079 29.0078C58.2294 29.1778 58.7678 29.4876 59.1871 29.9258L59.478 30.1997C59.5876 30.2904 59.767 30.4926 59.9182 30.7626C60.8438 32.3267 60.5585 34.4019 59.2854 35.6336C59.0757 35.8243 58.7999 36.0322 58.5487 36.1757L58.3564 36.2867L57.8397 41.052L60.4683 39.5343C61.0099 39.2248 61.5129 38.8379 61.977 38.4125C64.4533 36.0141 65.1497 32.0036 63.2929 28.8701V28.8701Z" fill="#FED843"/>
<path d="M56.1746 56.0535V77.4599C56.1746 78.2336 56.6388 78.9299 57.3738 79.2393C58.0702 79.5489 58.9214 79.3942 59.4628 78.8138L61.9775 76.3378L64.4922 78.8138C65.0337 79.3942 65.8849 79.5488 66.5811 79.2393C67.3162 78.9299 67.7804 78.2337 67.7804 77.4599V56.0535H56.1746Z" fill="#FED843"/>
<path d="M93.0553 48.3163H91.121V46.382C91.121 45.3128 90.2559 44.4477 89.1867 44.4477C88.1176 44.4477 87.2524 45.3128 87.2524 46.382V48.3163H85.3181C84.2489 48.3163 83.3838 49.1815 83.3838 50.2506C83.3838 51.3198 84.2489 52.1849 85.3181 52.1849H87.2524V54.1192C87.2524 55.1884 88.1176 56.0535 89.1867 56.0535C90.2559 56.0535 91.121 55.1884 91.121 54.1192V52.1849H93.0553C94.1245 52.1849 94.9896 51.3198 94.9896 50.2506C94.9896 49.1815 94.1245 48.3163 93.0553 48.3163Z" fill="#FFB64C"/>
<path d="M85.1892 40.5791C86.2575 40.5791 87.1235 39.713 87.1235 38.6448C87.1235 37.5765 86.2575 36.7104 85.1892 36.7104C84.1209 36.7104 83.2549 37.5765 83.2549 38.6448C83.2549 39.713 84.1209 40.5791 85.1892 40.5791Z" fill="#FFB64C"/>
<path d="M77.4519 52.185C78.5202 52.185 79.3862 51.3189 79.3862 50.2506C79.3862 49.1824 78.5202 48.3163 77.4519 48.3163C76.3836 48.3163 75.5176 49.1824 75.5176 50.2506C75.5176 51.3189 76.3836 52.185 77.4519 52.185Z" fill="#FFB64C"/>
<path d="M61.9775 56.0535H67.7805V77.4599C67.7805 78.2336 67.3162 78.9299 66.5812 79.2393C65.8848 79.5489 65.0336 79.3942 64.4923 78.8138L61.9775 76.3378V56.0535Z" fill="#FFB64C"/>
<path d="M61.9775 38.4126V27.2451C62.4805 27.6708 62.9447 28.251 63.293 28.8701C65.1498 32.0036 64.4535 36.0142 61.9775 38.4126Z" fill="#FFB64C"/>
<path d="M78.7286 40.1921L72.9256 30.1337C72.384 29.2052 71.1848 28.8957 70.2563 29.4373L61.9774 34.2344L60.8691 34.8738L38.8723 47.5655L30.0614 52.6492C29.1329 53.1521 28.6945 54.3513 29.2361 55.2798L35.1679 65.3382C35.7096 66.2668 36.8701 66.5762 37.7986 66.0344L61.9774 52.0689L77.9935 42.8227C78.922 42.2814 79.2316 41.1208 78.7286 40.1921V40.1921Z" fill="#FF641A"/>
<path d="M77.9936 42.8228L61.9775 52.0687V34.2344L70.2564 29.4373C71.1848 28.8957 72.3841 29.2052 72.9257 30.1337L78.7286 40.192C79.2317 41.1208 78.9221 42.2813 77.9936 42.8228Z" fill="#E63950"/>
<circle cx="62" cy="61" r="59" fill="#CFBABA" fill-opacity="0.5"/>
<path d="M25.7335 18.5981C22.8677 21.5002 20.7648 23.8134 19.4249 25.5376C15.0393 31.181 11.5664 38.087 9.64659 46.3559C8.76296 50.1618 8.32169 54.2939 8.06945 58.6577C6.4923 85.9423 32.0067 111.965 61.5347 111.965C91.0628 111.965 115 88.028 115 58.4999C115 28.9719 91.0628 5.03467 61.5347 5.03467" stroke="#F06129" stroke-width="7.88573" stroke-linecap="round"/>
<defs>
<filter id="filter0_d_635_16268" x="0" y="0" width="123" height="123" filterUnits="userSpaceOnUse" color-interpolation-filters="sRGB">
<feFlood flood-opacity="0" result="BackgroundImageFix"/>
<feColorMatrix in="SourceAlpha" type="matrix" values="0 0 0 0 0 0 0 0 0 0 0 0 0 0 0 0 0 0 127 0" result="hardAlpha"/>
<feOffset dy="4"/>
<feGaussianBlur stdDeviation="2"/>
<feComposite in2="hardAlpha" operator="out"/>
<feColorMatrix type="matrix" values="0 0 0 0 0 0 0 0 0 0 0 0 0 0 0 0 0 0 0.25 0"/>
<feBlend mode="normal" in2="BackgroundImageFix" result="effect1_dropShadow_635_16268"/>
<feBlend mode="normal" in="SourceGraphic" in2="effect1_dropShadow_635_16268" result="shape"/>
</filter>
</defs>
</svg>
