<svg width="315" height="17" viewBox="0 0 315 17" fill="none" xmlns="http://www.w3.org/2000/svg">
<path d="M314.516 8.99016L314.062 8.94891L301.066 7.76776C288.066 6.41379 262.06 3.70525 235.053 2.2059C209.042 0.53193 183.024 0.0650358 157.005 2.01542C146.491 2.80354 135.977 3.98653 125.407 5.17573C122.902 5.45764 120.393 5.7399 117.88 6.01733C104.764 7.46565 91.5353 8.7833 78.0596 9.24037L78.059 9.24039C52.1062 10.1525 26.1391 7.44862 13.1385 6.0946L0.139102 4.74071L-0.413777 4.68312L-0.41268 5.239L-0.390217 16.6203L-0.389231 17.1203L0.110768 17.1193L13.1074 17.0936L13.1837 17.0935L13.2603 17.0933L13.3372 17.0932L13.4144 17.093L13.4919 17.0929L13.5697 17.0927L13.6478 17.0926L13.7261 17.0924L13.8048 17.0922L13.8838 17.0921L13.963 17.0919L14.0425 17.0918L14.1224 17.0916L14.2025 17.0915L14.2829 17.0913L14.3636 17.0911L14.4445 17.091L14.5258 17.0908L14.6074 17.0907L14.6892 17.0905L14.7714 17.0903L14.8538 17.0902L14.9365 17.09L15.0194 17.0898L15.1027 17.0897L15.1863 17.0895L15.2701 17.0894L15.3542 17.0892L15.4386 17.089L15.5233 17.0889L15.6082 17.0887L15.6935 17.0885L15.779 17.0884L15.8648 17.0882L15.9508 17.088L16.0372 17.0878L16.1238 17.0877L16.2107 17.0875L16.2979 17.0873L16.3853 17.0872L16.473 17.087L16.5611 17.0868L16.6493 17.0866L16.7379 17.0865L16.8267 17.0863L16.9158 17.0861L17.0051 17.0859L17.0947 17.0858L17.1846 17.0856L17.2748 17.0854L17.3653 17.0852L17.4559 17.085L17.5469 17.0849L17.6381 17.0847L17.7297 17.0845L17.8214 17.0843L17.9134 17.0841L18.0058 17.084L18.0983 17.0838L18.1911 17.0836L18.2842 17.0834L18.3775 17.0832L18.4712 17.083L18.565 17.0829L18.6592 17.0827L18.7536 17.0825L18.8482 17.0823L18.9431 17.0821L19.0383 17.0819L19.1337 17.0817L19.2294 17.0815L19.3253 17.0814L19.4215 17.0812L19.518 17.081L19.6147 17.0808L19.7116 17.0806L19.8088 17.0804L19.9063 17.0802L20.004 17.08L20.102 17.0798L20.2002 17.0796L20.2987 17.0794L20.3974 17.0792L20.4963 17.079L20.5956 17.0788L20.695 17.0786L20.7947 17.0785L20.8947 17.0783L20.9949 17.0781L21.0953 17.0779L21.196 17.0777L21.297 17.0775L21.3981 17.0773L21.4996 17.0771L21.6012 17.0769L21.7032 17.0767L21.8053 17.0765L21.9077 17.0763L22.0103 17.0761L22.1132 17.0758L22.2163 17.0756L22.3197 17.0754L22.4233 17.0752L22.5271 17.075L22.6312 17.0748L22.7355 17.0746L22.84 17.0744L22.9448 17.0742L23.0498 17.074L23.155 17.0738L23.2605 17.0736L23.3662 17.0734L23.4721 17.0732L23.5783 17.073L23.6847 17.0727L23.7914 17.0725L23.8982 17.0723L24.0053 17.0721L24.1126 17.0719L24.2202 17.0717L24.328 17.0715L24.436 17.0713L24.5442 17.0711L24.6527 17.0708L24.7614 17.0706L24.8703 17.0704L24.9794 17.0702L25.0888 17.07L25.1983 17.0698L25.3081 17.0695L25.4182 17.0693L25.5284 17.0691L25.6389 17.0689L25.7496 17.0687L25.8605 17.0685L25.9716 17.0682L26.0829 17.068L26.1945 17.0678L26.3063 17.0676L26.4183 17.0674L26.5305 17.0671L26.6429 17.0669L26.7556 17.0667L26.8684 17.0665L26.9815 17.0662L27.0948 17.066L27.2083 17.0658L27.322 17.0656L27.4359 17.0653L27.55 17.0651L27.6644 17.0649L27.7789 17.0647L27.8937 17.0644L28.0087 17.0642L28.1238 17.064L28.2392 17.0638L28.3548 17.0635L28.4706 17.0633L28.5866 17.0631L28.7028 17.0628L28.8192 17.0626L28.9359 17.0624L29.0527 17.0622L29.1697 17.0619L29.2869 17.0617L29.4044 17.0615L29.522 17.0612L29.6398 17.061L29.7578 17.0608L29.8761 17.0605L29.9945 17.0603L30.1131 17.0601L30.232 17.0598L30.351 17.0596L30.4702 17.0594L30.5896 17.0591L30.7092 17.0589L30.829 17.0586L30.949 17.0584L31.0692 17.0582L31.1896 17.0579L31.3101 17.0577L31.4309 17.0575L31.5519 17.0572L31.673 17.057L31.7943 17.0567L31.9159 17.0565L32.0376 17.0563L32.1595 17.056L32.2816 17.0558L32.4039 17.0555L32.5263 17.0553L32.649 17.0551L32.7718 17.0548L32.8948 17.0546L33.018 17.0543L33.1414 17.0541L33.265 17.0538L33.3887 17.0536L33.5127 17.0534L33.6368 17.0531L33.7611 17.0529L33.8856 17.0526L34.0102 17.0524L34.1351 17.0521L34.2601 17.0519L34.3853 17.0516L34.5106 17.0514L34.6362 17.0511L34.7619 17.0509L34.8878 17.0506L35.0139 17.0504L35.1401 17.0501L35.2666 17.0499L35.3931 17.0496L35.5199 17.0494L35.6469 17.0491L35.774 17.0489L35.9013 17.0486L36.0287 17.0484L36.1563 17.0481L36.2841 17.0479L36.4121 17.0476L36.5402 17.0474L36.6685 17.0471L36.7969 17.0469L36.9256 17.0466L37.0544 17.0464L37.1833 17.0461L37.3124 17.0459L37.4417 17.0456L37.5712 17.0453L37.7008 17.0451L37.8305 17.0448L37.9605 17.0446L38.0906 17.0443L38.2208 17.0441L38.3513 17.0438L38.4818 17.0435L38.6126 17.0433L38.7434 17.043L38.8745 17.0428L39.0057 17.0425L39.1371 17.0423L39.2686 17.042L39.4003 17.0417L39.5321 17.0415L39.6641 17.0412L39.7962 17.0409L39.9285 17.0407L40.0609 17.0404L40.1935 17.0402L40.3263 17.0399L40.4592 17.0396L40.5922 17.0394L40.7254 17.0391L40.8587 17.0389L40.9922 17.0386L41.1259 17.0383L41.2596 17.0381L41.3936 17.0378L41.5276 17.0375L41.6619 17.0373L41.7962 17.037L41.9308 17.0367L42.0654 17.0365L42.2002 17.0362L42.3351 17.0359L42.4702 17.0357L42.6054 17.0354L42.7408 17.0351L42.8763 17.0349L43.012 17.0346L43.1477 17.0343L43.2837 17.0341L43.4197 17.0338L43.5559 17.0335L43.6922 17.0333L43.8287 17.033L43.9653 17.0327L44.102 17.0325L44.2389 17.0322L44.3759 17.0319L44.5131 17.0316L44.6503 17.0314L44.7877 17.0311L44.9253 17.0308L45.0629 17.0306L45.2007 17.0303L45.3386 17.03L45.4767 17.0297L45.6149 17.0295L45.7532 17.0292L45.8916 17.0289L46.0302 17.0286L46.1688 17.0284L46.3077 17.0281L46.4466 17.0278L46.5857 17.0275L46.7249 17.0273L46.8642 17.027L47.0036 17.0267L47.1431 17.0264L47.2828 17.0262L47.4226 17.0259L47.5625 17.0256L47.7026 17.0253L47.8427 17.0251L47.983 17.0248L48.1234 17.0245L48.2639 17.0242L48.4046 17.024L48.5453 17.0237L48.6861 17.0234L48.8271 17.0231L48.9682 17.0228L49.1094 17.0226L49.2507 17.0223L49.3922 17.022L49.5337 17.0217L49.6753 17.0215L49.8171 17.0212L49.959 17.0209L50.101 17.0206L50.2431 17.0203L50.3853 17.0201L50.5276 17.0198L50.67 17.0195L50.8125 17.0192L50.9551 17.0189L51.0979 17.0186L51.2407 17.0184L51.3836 17.0181L51.5267 17.0178L51.6698 17.0175L51.8131 17.0172L51.9565 17.0169L52.0999 17.0167L52.2435 17.0164L52.3872 17.0161L52.5309 17.0158L52.6748 17.0155L52.8187 17.0152L52.9628 17.015L53.1069 17.0147L53.2512 17.0144L53.3955 17.0141L53.54 17.0138L53.6845 17.0135L53.8292 17.0133L53.9739 17.013L54.1187 17.0127L54.2636 17.0124L54.4086 17.0121L54.5537 17.0118L54.6989 17.0115L54.8442 17.0112L54.9896 17.011L55.135 17.0107L55.2806 17.0104L55.4262 17.0101L55.5719 17.0098L55.7177 17.0095L55.8636 17.0092L56.0096 17.0089L56.1557 17.0087L56.3019 17.0084L56.4481 17.0081L56.5944 17.0078L56.7408 17.0075L56.8873 17.0072L57.0339 17.0069L57.1805 17.0066L57.3273 17.0063L57.4741 17.0061L57.621 17.0058L57.7679 17.0055L57.915 17.0052L58.0621 17.0049L58.2093 17.0046L58.3566 17.0043L58.504 17.004L58.6514 17.0037L58.7989 17.0034L58.9465 17.0032L59.0941 17.0029L59.2419 17.0026L59.3897 17.0023L59.5375 17.002L59.6855 17.0017L59.8335 17.0014L59.9816 17.0011L60.1298 17.0008L60.278 17.0005L60.4263 17.0002L60.5746 16.9999L60.7231 16.9996L60.8716 16.9994L61.0201 16.9991L61.1688 16.9988L61.3175 16.9985L61.4662 16.9982L61.615 16.9979L61.7639 16.9976L61.9129 16.9973L62.0619 16.997L62.2109 16.9967L62.3601 16.9964L62.5093 16.9961L62.6585 16.9958L62.8078 16.9955L62.9572 16.9952L63.1066 16.9949L63.2561 16.9946L63.4057 16.9944L63.5553 16.9941L63.7049 16.9938L63.8546 16.9935L64.0044 16.9932L64.1542 16.9929L64.3041 16.9926L64.454 16.9923L64.604 16.992L64.754 16.9917L64.9041 16.9914L65.0542 16.9911L65.2044 16.9908L65.3546 16.9905L65.5049 16.9902L65.6552 16.9899L65.8056 16.9896L65.956 16.9893L66.1065 16.989L66.257 16.9887L66.4076 16.9884L66.5582 16.9881L66.7088 16.9878L66.8595 16.9875L67.0103 16.9872L67.1611 16.9869L67.3119 16.9866L67.4627 16.9863L67.6136 16.986L67.7646 16.9857L67.9156 16.9855L68.0666 16.9852L68.2176 16.9849L68.3687 16.9846L68.5199 16.9843L68.671 16.984L68.8222 16.9837L68.9735 16.9834L69.1247 16.9831L69.2761 16.9828L69.4274 16.9825L69.5788 16.9822L69.7302 16.9819L69.8816 16.9816L70.0331 16.9813L70.1846 16.981L70.3362 16.9807L70.4877 16.9804L70.6393 16.9801L70.7909 16.9798L70.9426 16.9795L71.0943 16.9792L71.246 16.9789L71.3977 16.9786L71.5494 16.9783L71.7012 16.978L71.853 16.9777L72.0049 16.9774L72.1567 16.9771L72.3086 16.9768L72.4605 16.9765L72.6124 16.9762L72.7643 16.9759L72.9163 16.9756L73.0683 16.9753L73.2203 16.975L73.3723 16.9747L73.5243 16.9744L73.6764 16.9741L73.8284 16.9738L73.9805 16.9735L74.1326 16.9732L74.2847 16.9729L74.4369 16.9726L74.589 16.9723L74.7412 16.972L74.8934 16.9717L75.0455 16.9714L75.1977 16.9711L75.3499 16.9708L75.5021 16.9705L75.6544 16.9702L75.8066 16.9699L75.9589 16.9696L76.1111 16.9693L76.2634 16.969L76.4156 16.9687L76.5679 16.9684L76.7202 16.9681L76.8725 16.9678L77.0248 16.9675L77.177 16.9672L77.3293 16.9669L77.4816 16.9666L77.6339 16.9663L77.7862 16.966L77.9385 16.9657L78.0909 16.9654L78.249 16.9651L78.4071 16.9647L78.5652 16.9644L78.7233 16.9641L78.8814 16.9638L79.0394 16.9635L79.1974 16.9632L79.3554 16.9629L79.5134 16.9626L79.6713 16.9622L79.8293 16.9619L79.9872 16.9616L80.1451 16.9613L80.3029 16.961L80.4607 16.9607L80.6186 16.9604L80.7764 16.9601L80.9341 16.9598L81.0919 16.9594L81.2496 16.9591L81.4073 16.9588L81.565 16.9585L81.7226 16.9582L81.8803 16.9579L82.0379 16.9576L82.1955 16.9573L82.3531 16.957L82.5106 16.9566L82.6681 16.9563L82.8256 16.956L82.9831 16.9557L83.1406 16.9554L83.298 16.9551L83.4555 16.9548L83.6128 16.9545L83.7702 16.9542L83.9276 16.9538L84.0849 16.9535L84.2422 16.9532L84.3995 16.9529L84.5568 16.9526L84.7141 16.9523L84.8713 16.952L85.0285 16.9517L85.1857 16.9514L85.3429 16.9511L85.5 16.9507L85.6571 16.9504L85.8142 16.9501L85.9713 16.9498L86.1284 16.9495L86.2854 16.9492L86.4424 16.9489L86.5994 16.9486L86.7564 16.9483L86.9134 16.948L87.0703 16.9476L87.2273 16.9473L87.3842 16.947L87.541 16.9467L87.6979 16.9464L87.8547 16.9461L88.0116 16.9458L88.1684 16.9455L88.3251 16.9452L88.4819 16.9449L88.6386 16.9446L88.7954 16.9442L88.9521 16.9439L89.1087 16.9436L89.2654 16.9433L89.422 16.943L89.5787 16.9427L89.7353 16.9424L89.8918 16.9421L90.0484 16.9418L90.205 16.9415L90.3615 16.9412L90.518 16.9408L90.6745 16.9405L90.8309 16.9402L90.9874 16.9399L91.1438 16.9396L91.3002 16.9393L91.4566 16.939L91.613 16.9387L91.7693 16.9384L91.9257 16.9381L92.082 16.9378L92.2383 16.9374L92.3945 16.9371L92.5508 16.9368L92.707 16.9365L92.8632 16.9362L93.0194 16.9359L93.1756 16.9356L93.3318 16.9353L93.4879 16.935L93.6441 16.9347L93.8002 16.9344L93.9563 16.9341L94.1123 16.9337L94.2684 16.9334L94.4244 16.9331L94.5804 16.9328L94.7364 16.9325L94.8924 16.9322L95.0484 16.9319L95.2043 16.9316L95.3602 16.9313L95.5161 16.931L95.672 16.9307L95.8279 16.9304L95.9837 16.9301L96.1396 16.9297L96.2954 16.9294L96.4512 16.9291L96.607 16.9288L96.7628 16.9285L96.9185 16.9282L97.0742 16.9279L97.2299 16.9276L97.3856 16.9273L97.5413 16.927L97.697 16.9267L97.8526 16.9264L98.0083 16.9261L98.1638 16.9258L98.3194 16.9254L98.475 16.9251L98.6306 16.9248L98.7861 16.9245L98.9416 16.9242L99.0971 16.9239L99.2526 16.9236L99.4081 16.9233L99.5636 16.923L99.719 16.9227L99.8744 16.9224L100.03 16.9221L100.185 16.9218L100.341 16.9215L100.496 16.9211L100.651 16.9208L100.807 16.9205L100.962 16.9202L101.117 16.9199L101.272 16.9196L101.428 16.9193L101.583 16.919L101.738 16.9187L101.893 16.9184L102.049 16.9181L102.204 16.9178L102.359 16.9175L102.514 16.9172L102.669 16.9169L102.824 16.9166L102.979 16.9162L103.135 16.9159L103.29 16.9156L103.445 16.9153L103.6 16.915L103.755 16.9147L103.91 16.9144L104.065 16.9141L104.22 16.9138L104.375 16.9135L104.53 16.9132L104.684 16.9129L104.839 16.9126L104.994 16.9123L105.149 16.912L105.304 16.9117L105.459 16.9114L105.614 16.911L105.769 16.9107L105.923 16.9104L106.078 16.9101L106.233 16.9098L106.388 16.9095L106.542 16.9092L106.697 16.9089L106.852 16.9086L107.007 16.9083L107.161 16.908L107.316 16.9077L107.471 16.9074L107.625 16.9071L107.78 16.9068L107.934 16.9065L108.089 16.9062L108.244 16.9059L108.398 16.9056L108.553 16.9052L108.707 16.9049L108.862 16.9046L109.016 16.9043L109.171 16.904L109.325 16.9037L109.48 16.9034L109.634 16.9031L109.789 16.9028L109.943 16.9025L110.098 16.9022L110.252 16.9019L110.406 16.9016L110.561 16.9013L110.715 16.901L110.869 16.9007L111.024 16.9004L111.178 16.9001L111.332 16.8998L111.487 16.8995L111.641 16.8992L111.795 16.8988L111.95 16.8985L112.104 16.8982L112.258 16.8979L112.412 16.8976L112.566 16.8973L112.721 16.897L112.875 16.8967L113.029 16.8964L113.183 16.8961L113.337 16.8958L113.491 16.8955L113.645 16.8952L113.8 16.8949L113.954 16.8946L114.108 16.8943L114.262 16.894L114.416 16.8937L114.57 16.8934L114.724 16.8931L114.878 16.8928L115.032 16.8925L115.186 16.8922L115.34 16.8919L115.494 16.8915L115.648 16.8912L115.802 16.8909L115.956 16.8906L116.11 16.8903L116.264 16.89L116.417 16.8897L116.571 16.8894L116.725 16.8891L116.879 16.8888L117.033 16.8885L117.187 16.8882L117.341 16.8879L117.494 16.8876L117.648 16.8873L117.802 16.887L117.956 16.8867L118.109 16.8864L118.263 16.8861L118.417 16.8858L118.571 16.8855L118.724 16.8852L118.878 16.8849L119.032 16.8846L119.185 16.8843L119.339 16.884L119.493 16.8837L119.646 16.8834L119.8 16.883L119.954 16.8827L120.107 16.8824L120.261 16.8821L120.415 16.8818L120.568 16.8815L120.722 16.8812L120.875 16.8809L121.029 16.8806L121.182 16.8803L121.336 16.88L121.489 16.8797L121.643 16.8794L121.796 16.8791L121.95 16.8788L122.103 16.8785L122.257 16.8782L122.41 16.8779L122.564 16.8776L122.717 16.8773L122.871 16.877L123.024 16.8767L123.178 16.8764L123.331 16.8761L123.484 16.8758L123.638 16.8755L123.791 16.8752L123.944 16.8749L124.098 16.8746L124.251 16.8743L124.404 16.874L124.558 16.8737L124.711 16.8734L124.864 16.8731L125.018 16.8728L125.171 16.8724L125.324 16.8721L125.478 16.8718L125.631 16.8715L125.784 16.8712L125.937 16.8709L126.09 16.8706L126.244 16.8703L126.397 16.87L126.55 16.8697L126.703 16.8694L126.857 16.8691L127.01 16.8688L127.163 16.8685L127.316 16.8682L127.469 16.8679L127.622 16.8676L127.775 16.8673L127.929 16.867L128.082 16.8667L128.235 16.8664L128.388 16.8661L128.541 16.8658L128.694 16.8655L128.847 16.8652L129 16.8649L129.153 16.8646L129.306 16.8643L129.459 16.864L129.612 16.8637L129.765 16.8634L129.918 16.8631L130.071 16.8628L130.224 16.8625L130.377 16.8622L130.53 16.8619L130.683 16.8616L130.836 16.8613L130.989 16.861L131.142 16.8607L131.295 16.8604L131.448 16.8601L131.601 16.8598L131.754 16.8595L131.907 16.8592L132.06 16.8589L132.213 16.8586L132.366 16.8582L132.519 16.8579L132.671 16.8576L132.824 16.8573L132.977 16.857L133.13 16.8567L133.283 16.8564L133.436 16.8561L133.589 16.8558L133.741 16.8555L133.894 16.8552L134.047 16.8549L134.2 16.8546L134.353 16.8543L134.505 16.854L134.658 16.8537L134.811 16.8534L134.964 16.8531L135.117 16.8528L135.269 16.8525L135.422 16.8522L135.575 16.8519L135.728 16.8516L135.88 16.8513L136.033 16.851L136.186 16.8507L136.338 16.8504L136.491 16.8501L136.644 16.8498L136.797 16.8495L136.949 16.8492L137.102 16.8489L137.255 16.8486L137.407 16.8483L137.56 16.848L137.713 16.8477L137.865 16.8474L138.018 16.8471L138.171 16.8468L138.323 16.8465L138.476 16.8462L138.629 16.8459L138.781 16.8456L138.934 16.8453L139.086 16.845L139.239 16.8447L139.392 16.8444L139.544 16.8441L139.697 16.8438L139.849 16.8435L140.002 16.8432L140.155 16.8429L140.307 16.8426L140.46 16.8423L140.612 16.842L140.765 16.8417L140.917 16.8414L141.07 16.8411L141.223 16.8408L141.375 16.8405L141.528 16.8402L141.68 16.8399L141.833 16.8396L141.985 16.8393L142.138 16.839L142.29 16.8387L142.443 16.8384L142.595 16.8381L142.748 16.8378L142.9 16.8375L143.053 16.8372L143.205 16.8369L143.358 16.8366L143.51 16.8363L143.663 16.836L143.815 16.8357L143.968 16.8354L144.12 16.835L144.273 16.8347L144.425 16.8344L144.578 16.8341L144.73 16.8338L144.882 16.8335L145.035 16.8332L145.187 16.8329L145.34 16.8326L145.492 16.8323L145.645 16.832L145.797 16.8317L145.95 16.8314L146.102 16.8311L146.254 16.8308L146.407 16.8305L146.559 16.8302L146.712 16.8299L146.864 16.8296L147.016 16.8293L147.169 16.829L147.321 16.8287L147.474 16.8284L147.626 16.8281L147.778 16.8278L147.931 16.8275L148.083 16.8272L148.236 16.8269L148.388 16.8266L148.54 16.8263L148.693 16.826L148.845 16.8257L148.997 16.8254L149.15 16.8251L149.302 16.8248L149.455 16.8245L149.607 16.8242L149.759 16.8239L149.912 16.8236L150.064 16.8233L150.216 16.823L150.369 16.8227L150.521 16.8224L150.673 16.8221L150.826 16.8218L150.978 16.8215L151.13 16.8212L151.283 16.8209L151.435 16.8206L151.587 16.8203L151.74 16.82L151.892 16.8197L152.044 16.8194L152.197 16.8191L152.349 16.8188L152.501 16.8185L152.654 16.8182L152.806 16.8179L152.958 16.8176L153.111 16.8173L153.263 16.817L153.415 16.8167L153.568 16.8164L153.72 16.8161L153.872 16.8158L154.025 16.8155L154.177 16.8152L154.329 16.8149L154.481 16.8146L154.634 16.8143L154.786 16.814L154.938 16.8137L155.091 16.8134L155.243 16.8131L155.395 16.8128L155.548 16.8125L155.7 16.8122L155.852 16.8119L156.005 16.8116L156.157 16.8113L156.309 16.811L156.461 16.8107L156.614 16.8104L156.766 16.8101L156.918 16.8098L157.071 16.8095L157.223 16.8092L157.375 16.8089L157.528 16.8086L157.68 16.8083L157.832 16.808L157.985 16.8077L158.137 16.8074L158.289 16.8071L158.441 16.8068L158.594 16.8065L158.746 16.8062L158.898 16.8059L159.051 16.8056L159.203 16.8053L159.355 16.805L159.508 16.8047L159.66 16.8044L159.812 16.8041L159.964 16.8038L160.117 16.8035L160.269 16.8032L160.421 16.8029L160.574 16.8026L160.726 16.8023L160.878 16.802L161.031 16.8017L161.183 16.8014L161.335 16.8011L161.488 16.8008L161.64 16.8005L161.792 16.8002L161.944 16.7999L162.097 16.7996L162.249 16.7993L162.401 16.799L162.554 16.7987L162.706 16.7984L162.858 16.7981L163.011 16.7978L163.163 16.7975L163.315 16.7972L163.467 16.7969L163.62 16.7966L163.772 16.7963L163.924 16.796L164.077 16.7957L164.229 16.7954L164.381 16.7951L164.534 16.7948L164.686 16.7945L164.838 16.7942L164.991 16.7939L165.143 16.7936L165.295 16.7933L165.447 16.793L165.6 16.7927L165.752 16.7924L165.904 16.7921L166.057 16.7918L166.209 16.7915L166.361 16.7912L166.514 16.7909L166.666 16.7906L166.818 16.7903L166.971 16.79L167.123 16.7897L167.275 16.7893L167.427 16.789L167.58 16.7887L167.732 16.7884L167.884 16.7881L168.037 16.7878L168.189 16.7875L168.341 16.7872L168.494 16.7869L168.646 16.7866L168.798 16.7863L168.95 16.786L169.103 16.7857L169.255 16.7854L169.407 16.7851L169.56 16.7848L169.712 16.7845L169.864 16.7842L170.017 16.7839L170.169 16.7836L170.321 16.7833L170.474 16.783L170.626 16.7827L170.778 16.7824L170.93 16.7821L171.083 16.7818L171.235 16.7815L171.387 16.7812L171.54 16.7809L171.692 16.7806L171.844 16.7803L171.997 16.78L172.149 16.7797L172.301 16.7794L172.453 16.7791L172.606 16.7788L172.758 16.7785L172.91 16.7782L173.063 16.7779L173.215 16.7776L173.367 16.7773L173.52 16.777L173.672 16.7767L173.824 16.7764L173.977 16.7761L174.129 16.7758L174.281 16.7755L174.433 16.7752L174.586 16.7749L174.738 16.7746L174.89 16.7743L175.043 16.774L175.195 16.7737L175.347 16.7734L175.5 16.7731L175.652 16.7728L175.804 16.7725L175.956 16.7722L176.109 16.7719L176.261 16.7716L176.413 16.7713L176.566 16.771L176.718 16.7707L176.87 16.7704L177.023 16.7701L177.175 16.7698L177.327 16.7695L177.48 16.7692L177.632 16.7689L177.784 16.7686L177.936 16.7683L178.089 16.768L178.241 16.7677L178.393 16.7674L178.546 16.7671L178.698 16.7668L178.85 16.7665L179.003 16.7662L179.155 16.7659L179.307 16.7656L179.459 16.7653L179.612 16.765L179.764 16.7647L179.916 16.7644L180.069 16.7641L180.221 16.7638L180.373 16.7635L180.526 16.7632L180.678 16.7629L180.83 16.7626L180.983 16.7623L181.135 16.762L181.287 16.7617L181.439 16.7614L181.592 16.7611L181.744 16.7608L181.896 16.7605L182.049 16.7602L182.201 16.7599L182.353 16.7596L182.506 16.7593L182.658 16.759L182.81 16.7587L182.963 16.7584L183.115 16.7581L183.267 16.7578L183.419 16.7575L183.572 16.7572L183.724 16.7569L183.876 16.7566L184.029 16.7563L184.181 16.756L184.333 16.7557L184.486 16.7554L184.638 16.7551L184.79 16.7548L184.942 16.7545L185.095 16.7542L185.247 16.7539L185.399 16.7536L185.552 16.7533L185.704 16.753L185.856 16.7527L186.009 16.7524L186.161 16.7521L186.313 16.7518L186.466 16.7515L186.618 16.7512L186.77 16.7509L186.922 16.7506L187.075 16.7503L187.227 16.75L187.379 16.7497L187.532 16.7494L187.684 16.7491L187.836 16.7488L187.989 16.7485L188.141 16.7482L188.293 16.7479L188.445 16.7476L188.598 16.7473L188.75 16.747L188.902 16.7467L189.055 16.7464L189.207 16.7461L189.359 16.7458L189.512 16.7455L189.664 16.7452L189.816 16.7449L189.969 16.7446L190.121 16.7443L190.273 16.744L190.425 16.7437L190.578 16.7434L190.73 16.7431L190.882 16.7428L191.035 16.7425L191.187 16.7422L191.339 16.7419L191.492 16.7416L191.644 16.7413L191.796 16.741L191.948 16.7407L192.101 16.7404L192.253 16.7401L192.405 16.7398L192.558 16.7395L192.71 16.7392L192.862 16.7388L193.015 16.7385L193.167 16.7382L193.319 16.7379L193.472 16.7376L193.624 16.7373L193.776 16.737L193.928 16.7367L194.081 16.7364L194.233 16.7361L194.385 16.7358L194.538 16.7355L194.69 16.7352L194.842 16.7349L194.995 16.7346L195.147 16.7343L195.299 16.734L195.452 16.7337L195.604 16.7334L195.756 16.7331L195.908 16.7328L196.061 16.7325L196.213 16.7322L196.365 16.7319L196.518 16.7316L196.67 16.7313L196.822 16.731L196.975 16.7307L197.127 16.7304L197.279 16.7301L197.431 16.7298L197.584 16.7295L197.736 16.7292L197.888 16.7289L198.041 16.7286L198.193 16.7283L198.345 16.728L198.498 16.7277L198.65 16.7274L198.802 16.7271L198.955 16.7268L199.107 16.7265L199.259 16.7262L199.411 16.7259L199.564 16.7256L199.716 16.7253L199.868 16.725L200.021 16.7247L200.173 16.7244L200.325 16.7241L200.478 16.7238L200.63 16.7235L200.782 16.7232L200.934 16.7229L201.087 16.7226L201.239 16.7223L201.391 16.722L201.544 16.7217L201.696 16.7214L201.848 16.7211L202.001 16.7208L202.153 16.7205L202.305 16.7202L202.458 16.7199L202.61 16.7196L202.762 16.7193L202.914 16.719L203.067 16.7187L203.219 16.7184L203.371 16.7181L203.524 16.7178L203.676 16.7175L203.828 16.7172L203.981 16.7169L204.133 16.7166L204.285 16.7163L204.437 16.716L204.59 16.7157L204.742 16.7154L204.894 16.7151L205.047 16.7148L205.199 16.7145L205.351 16.7142L205.504 16.7139L205.656 16.7136L205.808 16.7133L205.961 16.713L206.113 16.7127L206.265 16.7124L206.417 16.7121L206.57 16.7118L206.722 16.7115L206.874 16.7112L207.027 16.7109L207.179 16.7106L207.331 16.7103L207.484 16.71L207.636 16.7097L207.788 16.7094L207.94 16.7091L208.093 16.7088L208.245 16.7085L208.397 16.7082L208.55 16.7079L208.702 16.7076L208.854 16.7073L209.007 16.707L209.159 16.7067L209.311 16.7064L209.464 16.7061L209.616 16.7058L209.768 16.7055L209.92 16.7052L210.073 16.7049L210.225 16.7046L210.377 16.7043L210.53 16.704L210.682 16.7037L210.834 16.7034L210.987 16.7031L211.139 16.7028L211.291 16.7025L211.444 16.7022L211.596 16.7019L211.748 16.7016L211.9 16.7013L212.053 16.701L212.205 16.7007L212.357 16.7004L212.51 16.7001L212.662 16.6998L212.814 16.6995L212.967 16.6992L213.119 16.6989L213.271 16.6986L213.423 16.6983L213.576 16.698L213.728 16.6977L213.88 16.6974L214.033 16.6971L214.185 16.6968L214.337 16.6965L214.49 16.6962L214.642 16.6959L214.794 16.6956L214.947 16.6953L215.099 16.695L215.251 16.6947L215.403 16.6944L215.556 16.6941L215.708 16.6938L215.86 16.6935L216.013 16.6932L216.165 16.6929L216.317 16.6926L216.47 16.6923L216.622 16.692L216.774 16.6917L216.926 16.6914L217.079 16.6911L217.231 16.6908L217.383 16.6905L217.536 16.6902L217.688 16.6899L217.84 16.6896L217.993 16.6893L218.145 16.689L218.297 16.6886L218.45 16.6883L218.602 16.688L218.754 16.6877L218.906 16.6874L219.059 16.6871L219.211 16.6868L219.363 16.6865L219.516 16.6862L219.668 16.6859L219.82 16.6856L219.973 16.6853L220.125 16.685L220.277 16.6847L220.429 16.6844L220.582 16.6841L220.734 16.6838L220.886 16.6835L221.039 16.6832L221.191 16.6829L221.343 16.6826L221.496 16.6823L221.648 16.682L221.8 16.6817L221.953 16.6814L222.105 16.6811L222.257 16.6808L222.409 16.6805L222.562 16.6802L222.714 16.6799L222.866 16.6796L223.019 16.6793L223.171 16.679L223.323 16.6787L223.476 16.6784L223.628 16.6781L223.78 16.6778L223.933 16.6775L224.085 16.6772L224.237 16.6769L224.389 16.6766L224.542 16.6763L224.694 16.676L224.846 16.6757L224.999 16.6754L225.151 16.6751L225.303 16.6748L225.456 16.6745L225.608 16.6742L225.76 16.6739L225.912 16.6736L226.065 16.6733L226.217 16.673L226.369 16.6727L226.522 16.6724L226.674 16.6721L226.826 16.6718L226.979 16.6715L227.131 16.6712L227.283 16.6709L227.436 16.6706L227.588 16.6703L227.74 16.67L227.892 16.6697L228.045 16.6694L228.197 16.6691L228.349 16.6688L228.502 16.6685L228.654 16.6682L228.806 16.6679L228.959 16.6676L229.111 16.6673L229.263 16.667L229.415 16.6667L229.568 16.6664L229.72 16.6661L229.872 16.6658L230.025 16.6655L230.177 16.6652L230.329 16.6649L230.482 16.6646L230.634 16.6643L230.786 16.664L230.939 16.6637L231.091 16.6634L231.243 16.6631L231.395 16.6628L231.548 16.6625L231.7 16.6622L231.852 16.6619L232.005 16.6616L232.157 16.6613L232.309 16.661L232.462 16.6607L232.614 16.6604L232.766 16.6601L232.918 16.6598L233.071 16.6595L233.223 16.6592L233.375 16.6589L233.528 16.6586L233.68 16.6583L233.832 16.658L233.985 16.6577L234.137 16.6574L234.289 16.6571L234.442 16.6568L234.594 16.6565L234.746 16.6562L234.898 16.6559L235.051 16.6556L314.516 8.99016ZM314.516 8.99016L314.517 9.44587L314.017 9.44686M314.516 8.99016L314.017 9.44686M314.017 9.44686L314.03 15.9997M314.017 9.44686L157.042 2.51403C146.539 3.30138 136.036 4.48306 125.467 5.67217C109.885 7.42531 94.1595 9.19458 78.0766 9.74008C52.0849 10.6536 26.0861 7.94581 13.0867 6.59191L0.587423 5.2901L0.587318 5.23703L0.087319 5.23802L0.0355355 5.73533L0.0883113 5.74082L0.108795 16.1193L0.109782 16.6193L0.609781 16.6183L13.1065 16.5936L78.0899 16.4654L157.07 16.3095L235.05 16.1556L301.033 16.0254L314.03 15.9997M314.03 15.9997L314.53 15.9987L314.531 16.4987L314.031 16.4997L314.03 15.9997ZM300.958 16.5255L301.034 16.5254L300.958 16.5255ZM300.958 16.5255L300.881 16.5257M300.958 16.5255L300.881 16.5257M300.881 16.5257L300.804 16.5258M300.881 16.5257L300.804 16.5258M300.804 16.5258L300.727 16.526M300.804 16.5258L300.727 16.526M300.727 16.526L300.649 16.5261M300.727 16.526L300.649 16.5261M300.649 16.5261L300.572 16.5263M300.649 16.5261L300.572 16.5263M300.572 16.5263L300.494 16.5264M300.572 16.5263L300.494 16.5264M300.494 16.5264L300.415 16.5266M300.494 16.5264L300.415 16.5266M300.415 16.5266L300.337 16.5267M300.415 16.5266L300.337 16.5267M300.337 16.5267L300.258 16.5269M300.337 16.5267L300.258 16.5269M300.258 16.5269L300.178 16.527M300.258 16.5269L300.178 16.527M300.178 16.527L300.099 16.5272M300.178 16.527L300.099 16.5272M300.099 16.5272L300.019 16.5274M300.099 16.5272L300.019 16.5274M300.019 16.5274L299.939 16.5275M300.019 16.5274L299.939 16.5275M299.939 16.5275L299.858 16.5277M299.939 16.5275L299.858 16.5277M299.858 16.5277L299.778 16.5278M299.858 16.5277L299.778 16.5278M299.778 16.5278L299.697 16.528M299.778 16.5278L299.697 16.528M299.697 16.528L299.615 16.5282M299.697 16.528L299.615 16.5282M299.615 16.5282L299.534 16.5283M299.615 16.5282L299.534 16.5283M299.534 16.5283L299.452 16.5285M299.534 16.5283L299.452 16.5285M299.452 16.5285L299.37 16.5286M299.452 16.5285L299.37 16.5286M299.37 16.5286L299.288 16.5288M299.37 16.5286L299.288 16.5288M299.288 16.5288L299.205 16.529M299.288 16.5288L299.205 16.529M299.205 16.529L299.122 16.5291M299.205 16.529L299.122 16.5291M299.122 16.5291L299.039 16.5293M299.122 16.5291L299.039 16.5293M299.039 16.5293L298.955 16.5295M299.039 16.5293L298.955 16.5295M298.955 16.5295L298.871 16.5296M298.955 16.5295L298.871 16.5296M298.871 16.5296L298.787 16.5298M298.871 16.5296L298.787 16.5298M298.787 16.5298L298.703 16.53M298.787 16.5298L298.703 16.53M298.703 16.53L298.618 16.5301M298.703 16.53L298.618 16.5301M298.618 16.5301L298.533 16.5303M298.618 16.5301L298.533 16.5303M298.533 16.5303L298.448 16.5305M298.533 16.5303L298.448 16.5305M298.448 16.5305L298.362 16.5306M298.448 16.5305L298.362 16.5306M298.362 16.5306L298.276 16.5308M298.362 16.5306L298.276 16.5308M298.276 16.5308L298.19 16.531M298.276 16.5308L298.19 16.531M298.19 16.531L298.104 16.5311M298.19 16.531L298.104 16.5311M298.104 16.5311L298.017 16.5313M298.104 16.5311L298.017 16.5313M298.017 16.5313L297.93 16.5315M298.017 16.5313L297.93 16.5315M297.93 16.5315L297.843 16.5317M297.93 16.5315L297.843 16.5317M297.843 16.5317L297.756 16.5318M297.843 16.5317L297.756 16.5318M297.756 16.5318L297.668 16.532M297.756 16.5318L297.668 16.532M297.668 16.532L297.58 16.5322M297.668 16.532L297.58 16.5322M297.58 16.5322L297.491 16.5323M297.58 16.5322L297.491 16.5323M297.491 16.5323L297.403 16.5325M297.491 16.5323L297.403 16.5325M297.403 16.5325L297.314 16.5327M297.403 16.5325L297.314 16.5327M297.314 16.5327L297.225 16.5329M297.314 16.5327L297.225 16.5329M297.225 16.5329L297.135 16.5331M297.225 16.5329L297.135 16.5331M297.135 16.5331L297.046 16.5332M297.135 16.5331L297.046 16.5332M297.046 16.5332L296.956 16.5334M297.046 16.5332L296.956 16.5334M296.956 16.5334L296.866 16.5336M296.956 16.5334L296.866 16.5336M296.866 16.5336L296.775 16.5338M296.866 16.5336L296.775 16.5338M296.775 16.5338L296.684 16.5339M296.775 16.5338L296.684 16.5339M296.684 16.5339L296.593 16.5341M296.684 16.5339L296.593 16.5341M296.593 16.5341L296.502 16.5343M296.593 16.5341L296.502 16.5343M296.502 16.5343L296.41 16.5345M296.502 16.5343L296.41 16.5345M296.41 16.5345L296.319 16.5347M296.41 16.5345L296.319 16.5347M296.319 16.5347L296.227 16.5348M296.319 16.5347L296.227 16.5348M296.227 16.5348L296.134 16.535M296.227 16.5348L296.134 16.535M296.134 16.535L296.042 16.5352M296.134 16.535L296.042 16.5352M296.042 16.5352L295.949 16.5354M296.042 16.5352L295.949 16.5354M295.949 16.5354L295.855 16.5356M295.949 16.5354L295.855 16.5356M295.855 16.5356L295.762 16.5358M295.855 16.5356L295.762 16.5358M295.762 16.5358L295.668 16.5359M295.762 16.5358L295.668 16.5359M295.668 16.5359L295.574 16.5361M295.668 16.5359L295.574 16.5361M295.574 16.5361L295.48 16.5363M295.574 16.5361L295.48 16.5363M295.48 16.5363L295.386 16.5365M295.48 16.5363L295.386 16.5365M295.386 16.5365L295.291 16.5367M295.386 16.5365L295.291 16.5367M295.291 16.5367L295.196 16.5369M295.291 16.5367L295.196 16.5369M295.196 16.5369L295.101 16.5371M295.196 16.5369L295.101 16.5371M295.101 16.5371L295.005 16.5373M295.101 16.5371L295.005 16.5373M295.005 16.5373L294.909 16.5374M295.005 16.5373L294.909 16.5374M294.909 16.5374L294.813 16.5376M294.909 16.5374L294.813 16.5376M294.813 16.5376L294.717 16.5378M294.813 16.5376L294.717 16.5378M294.717 16.5378L294.62 16.538M294.717 16.5378L294.62 16.538M294.62 16.538L294.524 16.5382M294.62 16.538L294.524 16.5382M294.524 16.5382L294.426 16.5384M294.524 16.5382L294.426 16.5384M294.426 16.5384L294.329 16.5386M294.426 16.5384L294.329 16.5386M294.329 16.5386L294.232 16.5388M294.329 16.5386L294.232 16.5388M294.232 16.5388L294.134 16.539M294.232 16.5388L294.134 16.539M294.134 16.539L294.036 16.5392M294.134 16.539L294.036 16.5392M294.036 16.5392L293.937 16.5394M294.036 16.5392L293.937 16.5394M293.937 16.5394L293.839 16.5396M293.937 16.5394L293.839 16.5396M293.839 16.5396L293.74 16.5398M293.839 16.5396L293.74 16.5398M293.74 16.5398L293.641 16.5399M293.74 16.5398L293.641 16.5399M293.641 16.5399L293.541 16.5401M293.641 16.5399L293.541 16.5401M293.541 16.5401L293.442 16.5403M293.541 16.5401L293.442 16.5403M293.442 16.5403L293.342 16.5405M293.442 16.5403L293.342 16.5405M293.342 16.5405L293.242 16.5407M293.342 16.5405L293.242 16.5407M293.242 16.5407L293.141 16.5409M293.242 16.5407L293.141 16.5409M293.141 16.5409L293.041 16.5411M293.141 16.5409L293.041 16.5411M293.041 16.5411L292.94 16.5413M293.041 16.5411L292.94 16.5413M292.94 16.5413L292.839 16.5415M292.94 16.5413L292.839 16.5415M292.839 16.5415L292.737 16.5417M292.839 16.5415L292.737 16.5417M292.737 16.5417L292.636 16.5419M292.737 16.5417L292.636 16.5419M292.636 16.5419L292.534 16.5421M292.636 16.5419L292.534 16.5421M292.534 16.5421L292.432 16.5423M292.534 16.5421L292.432 16.5423M292.432 16.5423L292.329 16.5425M292.432 16.5423L292.329 16.5425M292.329 16.5425L292.227 16.5427M292.329 16.5425L292.227 16.5427M292.227 16.5427L292.124 16.5429M292.227 16.5427L292.124 16.5429M292.124 16.5429L292.021 16.5431M292.124 16.5429L292.021 16.5431M292.021 16.5431L291.917 16.5433M292.021 16.5431L291.917 16.5433M291.917 16.5433L291.814 16.5436M291.917 16.5433L291.814 16.5436M291.814 16.5436L291.71 16.5438M291.814 16.5436L291.71 16.5438M291.71 16.5438L291.606 16.544M291.71 16.5438L291.606 16.544M291.606 16.544L291.502 16.5442M291.606 16.544L291.502 16.5442M291.502 16.5442L291.397 16.5444M291.502 16.5442L291.397 16.5444M291.397 16.5444L291.292 16.5446M291.397 16.5444L291.292 16.5446M291.292 16.5446L291.187 16.5448M291.292 16.5446L291.187 16.5448M291.187 16.5448L291.082 16.545M291.187 16.5448L291.082 16.545M291.082 16.545L290.976 16.5452M291.082 16.545L290.976 16.5452M290.976 16.5452L290.871 16.5454M290.976 16.5452L290.871 16.5454M290.871 16.5454L290.765 16.5456M290.871 16.5454L290.765 16.5456M290.765 16.5456L290.658 16.5458M290.765 16.5456L290.658 16.5458M290.658 16.5458L290.552 16.546M290.658 16.5458L290.552 16.546M290.552 16.546L290.445 16.5463M290.552 16.546L290.445 16.5463M290.445 16.5463L290.338 16.5465M290.445 16.5463L290.338 16.5465M290.338 16.5465L290.231 16.5467M290.338 16.5465L290.231 16.5467M290.231 16.5467L290.124 16.5469M290.231 16.5467L290.124 16.5469M290.124 16.5469L290.016 16.5471M290.124 16.5469L290.016 16.5471M290.016 16.5471L289.908 16.5473M290.016 16.5471L289.908 16.5473M289.908 16.5473L289.8 16.5475M289.908 16.5473L289.8 16.5475M289.8 16.5475L289.692 16.5477M289.8 16.5475L289.692 16.5477M289.692 16.5477L289.583 16.548M289.692 16.5477L289.583 16.548M289.583 16.548L289.474 16.5482M289.583 16.548L289.474 16.5482M289.474 16.5482L289.365 16.5484M289.474 16.5482L289.365 16.5484M289.365 16.5484L289.256 16.5486M289.365 16.5484L289.256 16.5486M289.256 16.5486L289.147 16.5488M289.256 16.5486L289.147 16.5488M289.147 16.5488L289.037 16.549M289.147 16.5488L289.037 16.549M289.037 16.549L288.927 16.5493M289.037 16.549L288.927 16.5493M288.927 16.5493L288.817 16.5495M288.927 16.5493L288.817 16.5495M288.817 16.5495L288.706 16.5497M288.817 16.5495L288.706 16.5497M288.706 16.5497L288.596 16.5499M288.706 16.5497L288.596 16.5499M288.596 16.5499L288.485 16.5501M288.596 16.5499L288.485 16.5501M288.485 16.5501L288.374 16.5503M288.485 16.5501L288.374 16.5503M288.374 16.5503L288.263 16.5506M288.374 16.5503L288.263 16.5506M288.263 16.5506L288.151 16.5508M288.263 16.5506L288.151 16.5508M288.151 16.5508L288.039 16.551M288.151 16.5508L288.039 16.551M288.039 16.551L287.927 16.5512M288.039 16.551L287.927 16.5512M287.927 16.5512L287.815 16.5514M287.927 16.5512L287.815 16.5514M287.815 16.5514L287.703 16.5517M287.815 16.5514L287.703 16.5517M287.703 16.5517L287.59 16.5519M287.703 16.5517L287.59 16.5519M287.59 16.5519L287.477 16.5521M287.59 16.5519L287.477 16.5521M287.477 16.5521L287.364 16.5523M287.477 16.5521L287.364 16.5523M287.364 16.5523L287.251 16.5526M287.364 16.5523L287.251 16.5526M287.251 16.5526L287.137 16.5528M287.251 16.5526L287.137 16.5528M287.137 16.5528L287.023 16.553M287.137 16.5528L287.023 16.553M287.023 16.553L286.909 16.5532M287.023 16.553L286.909 16.5532M286.909 16.5532L286.795 16.5535M286.909 16.5532L286.795 16.5535M286.795 16.5535L286.681 16.5537M286.795 16.5535L286.681 16.5537M286.681 16.5537L286.566 16.5539M286.681 16.5537L286.566 16.5539M286.566 16.5539L286.451 16.5541M286.566 16.5539L286.451 16.5541M286.451 16.5541L286.336 16.5544M286.451 16.5541L286.336 16.5544M286.336 16.5544L286.221 16.5546M286.336 16.5544L286.221 16.5546M286.221 16.5546L286.105 16.5548M286.221 16.5546L286.105 16.5548M286.105 16.5548L285.99 16.555M286.105 16.5548L285.99 16.555M285.99 16.555L285.874 16.5553M285.99 16.555L285.874 16.5553M285.874 16.5553L285.758 16.5555M285.874 16.5553L285.758 16.5555M285.758 16.5555L285.641 16.5557M285.758 16.5555L285.641 16.5557M285.641 16.5557L285.525 16.556M285.641 16.5557L285.525 16.556M285.525 16.556L285.408 16.5562M285.525 16.556L285.408 16.5562M285.408 16.5562L285.291 16.5564M285.408 16.5562L285.291 16.5564M285.291 16.5564L285.174 16.5567M285.291 16.5564L285.174 16.5567M285.174 16.5567L285.056 16.5569M285.174 16.5567L285.056 16.5569M285.056 16.5569L284.939 16.5571M285.056 16.5569L284.939 16.5571M284.939 16.5571L284.821 16.5574M284.939 16.5571L284.821 16.5574M284.821 16.5574L284.703 16.5576M284.821 16.5574L284.703 16.5576M284.703 16.5576L284.585 16.5578M284.703 16.5576L284.585 16.5578M284.585 16.5578L284.466 16.5581M284.585 16.5578L284.466 16.5581M284.466 16.5581L284.348 16.5583M284.466 16.5581L284.348 16.5583M284.348 16.5583L284.229 16.5585M284.348 16.5583L284.229 16.5585M284.229 16.5585L284.11 16.5588M284.229 16.5585L284.11 16.5588M284.11 16.5588L283.99 16.559M284.11 16.5588L283.99 16.559M283.99 16.559L283.871 16.5592M283.99 16.559L283.871 16.5592M283.871 16.5592L283.751 16.5595M283.871 16.5592L283.751 16.5595M283.751 16.5595L283.631 16.5597M283.751 16.5595L283.631 16.5597M283.631 16.5597L283.511 16.5599M283.631 16.5597L283.511 16.5599M283.511 16.5599L283.391 16.5602M283.511 16.5599L283.391 16.5602M283.391 16.5602L283.27 16.5604M283.391 16.5602L283.27 16.5604M283.27 16.5604L283.15 16.5607M283.27 16.5604L283.15 16.5607M283.15 16.5607L283.029 16.5609M283.15 16.5607L283.029 16.5609M283.029 16.5609L282.908 16.5611M283.029 16.5609L282.908 16.5611M282.908 16.5611L282.786 16.5614M282.908 16.5611L282.786 16.5614M282.786 16.5614L282.665 16.5616M282.786 16.5614L282.665 16.5616M282.665 16.5616L282.543 16.5619M282.665 16.5616L282.543 16.5619M282.543 16.5619L282.421 16.5621M282.543 16.5619L282.421 16.5621M282.421 16.5621L282.299 16.5623M282.421 16.5621L282.299 16.5623M282.299 16.5623L282.177 16.5626M282.299 16.5623L282.177 16.5626M282.177 16.5626L282.054 16.5628M282.177 16.5626L282.054 16.5628M282.054 16.5628L281.932 16.5631M282.054 16.5628L281.932 16.5631M281.932 16.5631L281.809 16.5633M281.932 16.5631L281.809 16.5633M281.809 16.5633L281.686 16.5635M281.809 16.5633L281.686 16.5635M281.686 16.5635L281.562 16.5638M281.686 16.5635L281.562 16.5638M281.562 16.5638L281.439 16.564M281.562 16.5638L281.439 16.564M281.439 16.564L281.315 16.5643M281.439 16.564L281.315 16.5643M281.315 16.5643L281.191 16.5645M281.315 16.5643L281.191 16.5645M281.191 16.5645L281.067 16.5648M281.191 16.5645L281.067 16.5648M281.067 16.5648L280.943 16.565M281.067 16.5648L280.943 16.565M280.943 16.565L280.819 16.5653M280.943 16.565L280.819 16.5653M280.819 16.5653L280.694 16.5655M280.819 16.5653L280.694 16.5655M280.694 16.5655L280.569 16.5657M280.694 16.5655L280.569 16.5657M280.569 16.5657L280.444 16.566M280.569 16.5657L280.444 16.566M280.444 16.566L280.319 16.5662M280.444 16.566L280.319 16.5662M280.319 16.5662L280.193 16.5665M280.319 16.5662L280.193 16.5665M280.193 16.5665L280.068 16.5667M280.193 16.5665L280.068 16.5667M280.068 16.5667L279.942 16.567M280.068 16.5667L279.942 16.567M279.942 16.567L279.816 16.5672M279.942 16.567L279.816 16.5672M279.816 16.5672L279.69 16.5675M279.816 16.5672L279.69 16.5675M279.69 16.5675L279.564 16.5677M279.69 16.5675L279.564 16.5677M279.564 16.5677L279.437 16.568M279.564 16.5677L279.437 16.568M279.437 16.568L279.31 16.5682M279.437 16.568L279.31 16.5682M279.31 16.5682L279.184 16.5685M279.31 16.5682L279.184 16.5685M279.184 16.5685L279.057 16.5687M279.184 16.5685L279.057 16.5687M279.057 16.5687L278.929 16.569M279.057 16.5687L278.929 16.569M278.929 16.569L278.802 16.5692M278.929 16.569L278.802 16.5692M278.802 16.5692L278.674 16.5695M278.802 16.5692L278.674 16.5695M278.674 16.5695L278.546 16.5697M278.674 16.5695L278.546 16.5697M278.546 16.5697L278.418 16.57M278.546 16.5697L278.418 16.57M278.418 16.57L278.29 16.5702M278.418 16.57L278.29 16.5702M278.29 16.5702L278.162 16.5705M278.29 16.5702L278.162 16.5705M278.162 16.5705L278.033 16.5708M278.162 16.5705L278.033 16.5708M278.033 16.5708L277.905 16.571M278.033 16.5708L277.905 16.571M277.905 16.571L277.776 16.5713M277.905 16.571L277.776 16.5713M277.776 16.5713L277.647 16.5715M277.776 16.5713L277.647 16.5715M277.647 16.5715L277.517 16.5718M277.647 16.5715L277.517 16.5718M277.517 16.5718L277.388 16.572M277.517 16.5718L277.388 16.572M277.388 16.572L277.258 16.5723M277.388 16.572L277.258 16.5723M277.258 16.5723L277.129 16.5725M277.258 16.5723L277.129 16.5725M277.129 16.5725L276.999 16.5728M277.129 16.5725L276.999 16.5728M276.999 16.5728L276.869 16.5731M276.999 16.5728L276.869 16.5731M276.869 16.5731L276.738 16.5733M276.869 16.5731L276.738 16.5733M276.738 16.5733L276.608 16.5736M276.738 16.5733L276.608 16.5736M276.608 16.5736L276.477 16.5738M276.608 16.5736L276.477 16.5738M276.477 16.5738L276.346 16.5741M276.477 16.5738L276.346 16.5741M276.346 16.5741L276.215 16.5743M276.346 16.5741L276.215 16.5743M276.215 16.5743L276.084 16.5746M276.215 16.5743L276.084 16.5746M276.084 16.5746L275.953 16.5749M276.084 16.5746L275.953 16.5749M275.953 16.5749L275.821 16.5751M275.953 16.5749L275.821 16.5751M275.821 16.5751L275.69 16.5754M275.821 16.5751L275.69 16.5754M275.69 16.5754L275.558 16.5756M275.69 16.5754L275.558 16.5756M275.558 16.5756L275.426 16.5759M275.558 16.5756L275.426 16.5759M275.426 16.5759L275.294 16.5762M275.426 16.5759L275.294 16.5762M275.294 16.5762L275.161 16.5764M275.294 16.5762L275.161 16.5764M275.161 16.5764L275.029 16.5767M275.161 16.5764L275.029 16.5767M275.029 16.5767L274.896 16.5769M275.029 16.5767L274.896 16.5769M274.896 16.5769L274.763 16.5772M274.896 16.5769L274.763 16.5772M274.763 16.5772L274.63 16.5775M274.763 16.5772L274.63 16.5775M274.63 16.5775L274.497 16.5777M274.63 16.5775L274.497 16.5777M274.497 16.5777L274.364 16.578M274.497 16.5777L274.364 16.578M274.364 16.578L274.23 16.5783M274.364 16.578L274.23 16.5783M274.23 16.5783L274.096 16.5785M274.23 16.5783L274.096 16.5785M274.096 16.5785L273.963 16.5788M274.096 16.5785L273.963 16.5788M273.963 16.5788L273.829 16.5791M273.963 16.5788L273.829 16.5791M273.829 16.5791L273.694 16.5793M273.829 16.5791L273.694 16.5793M273.694 16.5793L273.56 16.5796M273.694 16.5793L273.56 16.5796M273.56 16.5796L273.426 16.5798M273.56 16.5796L273.426 16.5798M273.426 16.5798L273.291 16.5801M273.426 16.5798L273.291 16.5801M273.291 16.5801L273.156 16.5804M273.291 16.5801L273.156 16.5804M273.156 16.5804L273.021 16.5806M273.156 16.5804L273.021 16.5806M273.021 16.5806L272.886 16.5809M273.021 16.5806L272.886 16.5809M272.886 16.5809L272.751 16.5812M272.886 16.5809L272.751 16.5812M272.751 16.5812L272.615 16.5814M272.751 16.5812L272.615 16.5814M272.615 16.5814L272.48 16.5817M272.615 16.5814L272.48 16.5817M272.48 16.5817L272.344 16.582M272.48 16.5817L272.344 16.582M272.344 16.582L272.208 16.5822M272.344 16.582L272.208 16.5822M272.208 16.5822L272.072 16.5825M272.208 16.5822L272.072 16.5825M272.072 16.5825L271.936 16.5828M272.072 16.5825L271.936 16.5828M271.936 16.5828L271.799 16.5831M271.936 16.5828L271.799 16.5831M271.799 16.5831L271.663 16.5833M271.799 16.5831L271.663 16.5833M271.663 16.5833L271.526 16.5836M271.663 16.5833L271.526 16.5836M271.526 16.5836L271.389 16.5839M271.526 16.5836L271.389 16.5839M271.389 16.5839L271.252 16.5841M271.389 16.5839L271.252 16.5841M271.252 16.5841L271.115 16.5844M271.252 16.5841L271.115 16.5844M271.115 16.5844L270.978 16.5847M271.115 16.5844L270.978 16.5847M270.978 16.5847L270.84 16.5849M270.978 16.5847L270.84 16.5849M270.84 16.5849L270.703 16.5852M270.84 16.5849L270.703 16.5852M270.703 16.5852L270.565 16.5855M270.703 16.5852L270.565 16.5855M270.565 16.5855L270.427 16.5858M270.565 16.5855L270.427 16.5858M270.427 16.5858L270.289 16.586M270.427 16.5858L270.289 16.586M270.289 16.586L270.151 16.5863M270.289 16.586L270.151 16.5863M270.151 16.5863L270.013 16.5866M270.151 16.5863L270.013 16.5866M270.013 16.5866L269.874 16.5869M270.013 16.5866L269.874 16.5869M269.874 16.5869L269.735 16.5871M269.874 16.5869L269.735 16.5871M269.735 16.5871L269.597 16.5874M269.735 16.5871L269.597 16.5874M269.597 16.5874L269.458 16.5877M269.597 16.5874L269.458 16.5877M269.458 16.5877L269.319 16.588M269.458 16.5877L269.319 16.588M269.319 16.588L269.179 16.5882M269.319 16.588L269.179 16.5882M269.179 16.5882L269.04 16.5885M269.179 16.5882L269.04 16.5885M269.04 16.5885L268.901 16.5888M269.04 16.5885L268.901 16.5888M268.901 16.5888L268.761 16.5891M268.901 16.5888L268.761 16.5891M268.761 16.5891L268.621 16.5893M268.761 16.5891L268.621 16.5893M268.621 16.5893L268.481 16.5896M268.621 16.5893L268.481 16.5896M268.481 16.5896L268.341 16.5899M268.481 16.5896L268.341 16.5899M268.341 16.5899L268.201 16.5902M268.341 16.5899L268.201 16.5902M268.201 16.5902L268.06 16.5904M268.201 16.5902L268.06 16.5904M268.06 16.5904L267.92 16.5907M268.06 16.5904L267.92 16.5907M267.92 16.5907L267.779 16.591M267.92 16.5907L267.779 16.591M267.779 16.591L267.639 16.5913M267.779 16.591L267.639 16.5913M267.639 16.5913L267.498 16.5915M267.639 16.5913L267.498 16.5915M267.498 16.5915L267.357 16.5918M267.498 16.5915L267.357 16.5918M267.357 16.5918L267.215 16.5921M267.357 16.5918L267.215 16.5921M267.215 16.5921L267.074 16.5924M267.215 16.5921L267.074 16.5924M267.074 16.5924L266.933 16.5927M267.074 16.5924L266.933 16.5927M266.933 16.5927L266.791 16.5929M266.933 16.5927L266.791 16.5929M266.791 16.5929L266.649 16.5932M266.791 16.5929L266.649 16.5932M266.649 16.5932L266.507 16.5935M266.649 16.5932L266.507 16.5935M266.507 16.5935L266.365 16.5938M266.507 16.5935L266.365 16.5938M266.365 16.5938L266.223 16.5941M266.365 16.5938L266.223 16.5941M266.223 16.5941L266.081 16.5943M266.223 16.5941L266.081 16.5943M266.081 16.5943L265.939 16.5946M266.081 16.5943L265.939 16.5946M265.939 16.5946L265.796 16.5949M265.939 16.5946L265.796 16.5949M265.796 16.5949L265.653 16.5952M265.796 16.5949L265.653 16.5952M265.653 16.5952L265.511 16.5955M265.653 16.5952L265.511 16.5955M265.511 16.5955L265.368 16.5957M265.511 16.5955L265.368 16.5957M265.368 16.5957L265.225 16.596M265.368 16.5957L265.225 16.596M265.225 16.596L265.081 16.5963M265.225 16.596L265.081 16.5963M265.081 16.5963L264.938 16.5966M265.081 16.5963L264.938 16.5966M264.938 16.5966L264.795 16.5969M264.938 16.5966L264.795 16.5969M264.795 16.5969L264.651 16.5972M264.795 16.5969L264.651 16.5972M264.651 16.5972L264.507 16.5974M264.651 16.5972L264.507 16.5974M264.507 16.5974L264.364 16.5977M264.507 16.5974L264.364 16.5977M264.364 16.5977L264.22 16.598M264.364 16.5977L264.22 16.598M264.22 16.598L264.076 16.5983M264.22 16.598L264.076 16.5983M264.076 16.5983L263.931 16.5986M264.076 16.5983L263.931 16.5986M263.931 16.5986L263.787 16.5989M263.931 16.5986L263.787 16.5989M263.787 16.5989L263.643 16.5992M263.787 16.5989L263.643 16.5992M263.643 16.5992L263.498 16.5994M263.643 16.5992L263.498 16.5994M263.498 16.5994L263.353 16.5997M263.498 16.5994L263.353 16.5997M263.353 16.5997L263.209 16.6M263.353 16.5997L263.209 16.6M263.209 16.6L263.064 16.6003M263.209 16.6L263.064 16.6003M263.064 16.6003L262.919 16.6006M263.064 16.6003L262.919 16.6006M262.919 16.6006L262.773 16.6009M262.919 16.6006L262.773 16.6009M262.773 16.6009L262.628 16.6012M262.773 16.6009L262.628 16.6012M262.628 16.6012L262.483 16.6014M262.628 16.6012L262.483 16.6014M262.483 16.6014L262.337 16.6017M262.483 16.6014L262.337 16.6017M262.337 16.6017L262.191 16.602M262.337 16.6017L262.191 16.602M262.191 16.602L262.046 16.6023M262.191 16.602L262.046 16.6023M262.046 16.6023L261.9 16.6026M262.046 16.6023L261.9 16.6026M261.9 16.6026L261.754 16.6029M261.9 16.6026L261.754 16.6029M261.754 16.6029L261.608 16.6032M261.754 16.6029L261.608 16.6032M261.608 16.6032L261.461 16.6035M261.608 16.6032L261.461 16.6035M261.461 16.6035L261.315 16.6037M261.461 16.6035L261.315 16.6037M261.315 16.6037L261.169 16.604M261.315 16.6037L261.169 16.604M261.169 16.604L261.022 16.6043M261.169 16.604L261.022 16.6043M261.022 16.6043L260.875 16.6046M261.022 16.6043L260.875 16.6046M260.875 16.6046L260.729 16.6049M260.875 16.6046L260.729 16.6049M260.729 16.6049L260.582 16.6052M260.729 16.6049L260.582 16.6052M260.582 16.6052L260.435 16.6055M260.582 16.6052L260.435 16.6055M260.435 16.6055L260.287 16.6058M260.435 16.6055L260.287 16.6058M260.287 16.6058L260.14 16.6061M260.287 16.6058L260.14 16.6061M260.14 16.6061L259.993 16.6064M260.14 16.6061L259.993 16.6064M259.993 16.6064L259.845 16.6066M259.993 16.6064L259.845 16.6066M259.845 16.6066L259.698 16.6069M259.845 16.6066L259.698 16.6069M259.698 16.6069L259.55 16.6072M259.698 16.6069L259.55 16.6072M259.55 16.6072L259.402 16.6075M259.55 16.6072L259.402 16.6075M259.402 16.6075L259.254 16.6078M259.402 16.6075L259.254 16.6078M259.254 16.6078L259.106 16.6081M259.254 16.6078L259.106 16.6081M259.106 16.6081L258.958 16.6084M259.106 16.6081L258.958 16.6084M258.958 16.6084L258.81 16.6087M258.958 16.6084L258.81 16.6087M258.81 16.6087L258.662 16.609M258.81 16.6087L258.662 16.609M258.662 16.609L258.513 16.6093M258.662 16.609L258.513 16.6093M258.513 16.6093L258.365 16.6096M258.513 16.6093L258.365 16.6096M258.365 16.6096L258.216 16.6099M258.365 16.6096L258.216 16.6099M258.216 16.6099L258.067 16.6102M258.216 16.6099L258.067 16.6102M258.067 16.6102L257.918 16.6105M258.067 16.6102L257.918 16.6105M257.918 16.6105L257.77 16.6107M257.918 16.6105L257.77 16.6107M257.77 16.6107L257.62 16.611M257.77 16.6107L257.62 16.611M257.62 16.611L257.471 16.6113M257.62 16.611L257.471 16.6113M257.471 16.6113L257.322 16.6116M257.471 16.6113L257.322 16.6116M257.322 16.6116L257.173 16.6119M257.322 16.6116L257.173 16.6119M257.173 16.6119L257.023 16.6122M257.173 16.6119L257.023 16.6122M257.023 16.6122L256.874 16.6125M257.023 16.6122L256.874 16.6125M256.874 16.6125L256.724 16.6128M256.874 16.6125L256.724 16.6128M256.724 16.6128L256.574 16.6131M256.724 16.6128L256.574 16.6131M256.574 16.6131L256.424 16.6134M256.574 16.6131L256.424 16.6134M256.424 16.6134L256.274 16.6137M256.424 16.6134L256.274 16.6137M256.274 16.6137L256.124 16.614M256.274 16.6137L256.124 16.614M256.124 16.614L255.974 16.6143M256.124 16.614L255.974 16.6143M255.974 16.6143L255.824 16.6146M255.974 16.6143L255.824 16.6146M255.824 16.6146L255.674 16.6149M255.824 16.6146L255.674 16.6149M255.674 16.6149L255.523 16.6152M255.674 16.6149L255.523 16.6152M255.523 16.6152L255.373 16.6155M255.523 16.6152L255.373 16.6155M255.373 16.6155L255.222 16.6158M255.373 16.6155L255.222 16.6158M255.222 16.6158L255.071 16.6161M255.222 16.6158L255.071 16.6161M255.071 16.6161L254.921 16.6164M255.071 16.6161L254.921 16.6164M254.921 16.6164L254.77 16.6167M254.921 16.6164L254.77 16.6167M254.77 16.6167L254.619 16.617M254.77 16.6167L254.619 16.617M254.619 16.617L254.468 16.6173M254.619 16.617L254.468 16.6173M254.468 16.6173L254.317 16.6176M254.468 16.6173L254.317 16.6176M254.317 16.6176L254.165 16.6179M254.317 16.6176L254.165 16.6179M254.165 16.6179L254.014 16.6182M254.165 16.6179L254.014 16.6182M254.014 16.6182L253.863 16.6185M254.014 16.6182L253.863 16.6185M253.863 16.6185L253.711 16.6188M253.863 16.6185L253.711 16.6188M253.711 16.6188L253.559 16.6191M253.711 16.6188L253.559 16.6191M253.559 16.6191L253.408 16.6194M253.559 16.6191L253.408 16.6194M253.408 16.6194L253.256 16.6197M253.408 16.6194L253.256 16.6197M253.256 16.6197L253.104 16.62M253.256 16.6197L253.104 16.62M253.104 16.62L252.952 16.6203M253.104 16.62L252.952 16.6203M252.952 16.6203L252.8 16.6206M252.952 16.6203L252.8 16.6206M252.8 16.6206L252.648 16.6209M252.8 16.6206L252.648 16.6209M252.648 16.6209L252.496 16.6212M252.648 16.6209L252.496 16.6212M252.496 16.6212L252.344 16.6215M252.496 16.6212L252.344 16.6215M252.344 16.6215L252.191 16.6218M252.344 16.6215L252.191 16.6218M252.191 16.6218L252.039 16.6221M252.191 16.6218L252.039 16.6221M252.039 16.6221L251.886 16.6224M252.039 16.6221L251.886 16.6224M251.886 16.6224L251.734 16.6227M251.886 16.6224L251.734 16.6227M251.734 16.6227L251.581 16.623M251.734 16.6227L251.581 16.623M251.581 16.623L251.428 16.6233M251.581 16.623L251.428 16.6233M251.428 16.6233L251.275 16.6236M251.428 16.6233L251.275 16.6236M251.275 16.6236L251.122 16.6239M251.275 16.6236L251.122 16.6239M251.122 16.6239L250.969 16.6242M251.122 16.6239L250.969 16.6242M250.969 16.6242L250.816 16.6245M250.969 16.6242L250.816 16.6245M250.816 16.6245L250.663 16.6248M250.816 16.6245L250.663 16.6248M250.663 16.6248L250.51 16.6251M250.663 16.6248L250.51 16.6251M250.51 16.6251L250.357 16.6254M250.51 16.6251L250.357 16.6254M250.357 16.6254L250.203 16.6257M250.357 16.6254L250.203 16.6257M250.203 16.6257L250.05 16.626M250.203 16.6257L250.05 16.626M250.05 16.626L249.896 16.6263M250.05 16.626L249.896 16.6263M249.896 16.6263L249.743 16.6266M249.896 16.6263L249.743 16.6266M249.743 16.6266L249.589 16.6269M249.743 16.6266L249.589 16.6269M249.589 16.6269L249.435 16.6272M249.589 16.6269L249.435 16.6272M249.435 16.6272L249.281 16.6275M249.435 16.6272L249.281 16.6275M249.281 16.6275L249.128 16.6278M249.281 16.6275L249.128 16.6278M249.128 16.6278L248.974 16.6281M249.128 16.6278L248.974 16.6281M248.974 16.6281L248.82 16.6284M248.974 16.6281L248.82 16.6284M248.82 16.6284L248.665 16.6287M248.82 16.6284L248.665 16.6287M248.665 16.6287L248.511 16.629M248.665 16.6287L248.511 16.629M248.511 16.629L248.357 16.6293M248.511 16.629L248.357 16.6293M248.357 16.6293L248.203 16.6296M248.357 16.6293L248.203 16.6296M248.203 16.6296L248.048 16.6299M248.203 16.6296L248.048 16.6299M248.048 16.6299L247.894 16.6302M248.048 16.6299L247.894 16.6302M247.894 16.6302L247.739 16.6305M247.894 16.6302L247.739 16.6305M247.739 16.6305L247.585 16.6308M247.739 16.6305L247.585 16.6308M247.585 16.6308L247.43 16.6312M247.585 16.6308L247.43 16.6312M247.43 16.6312L247.275 16.6315M247.43 16.6312L247.275 16.6315M247.275 16.6315L247.121 16.6318M247.275 16.6315L247.121 16.6318M247.121 16.6318L246.966 16.6321M247.121 16.6318L246.966 16.6321M246.966 16.6321L246.811 16.6324M246.966 16.6321L246.811 16.6324M246.811 16.6324L246.656 16.6327M246.811 16.6324L246.656 16.6327M246.656 16.6327L246.501 16.633M246.656 16.6327L246.501 16.633M246.501 16.633L246.346 16.6333M246.501 16.633L246.346 16.6333M246.346 16.6333L246.191 16.6336M246.346 16.6333L246.191 16.6336M246.191 16.6336L246.035 16.6339M246.191 16.6336L246.035 16.6339M246.035 16.6339L245.88 16.6342L246.035 16.6339Z" fill="#98073B" stroke="white"/>
</svg>
