<svg width="16" height="16" viewBox="0 0 16 16" fill="none" xmlns="http://www.w3.org/2000/svg">
<path d="M11 8.675V11.825C11 14.45 9.95 15.5 7.325 15.5H4.175C1.55 15.5 0.5 14.45 0.5 11.825V8.675C0.5 6.05 1.55 5 4.175 5H7.325C9.95 5 11 6.05 11 8.675Z" fill="#0ED3A3"/>
<path d="M11.8248 0.5H8.67482C6.46239 0.5 5.37403 1.25121 5.08624 3.05369C4.99844 3.60363 5.46232 4.0625 6.01923 4.0625H7.32482C10.4748 4.0625 11.9373 5.525 11.9373 8.675V9.9806C11.9373 10.5375 12.3962 11.0014 12.9461 10.9136C14.7486 10.6258 15.4998 9.53743 15.4998 7.325V4.175C15.4998 1.55 14.4498 0.5 11.8248 0.5Z" fill="#0ED3A3"/>
</svg>
