<svg width="52" height="52" viewBox="0 0 52 52" fill="none" xmlns="http://www.w3.org/2000/svg">
<path d="M26 0C20.8577 0 15.8309 1.52487 11.5552 4.38179C7.27951 7.23871 3.94702 11.2994 1.97914 16.0502C0.0112654 20.8011 -0.503621 26.0288 0.499594 31.0723C1.50281 36.1159 3.97907 40.7486 7.61524 44.3848C11.2514 48.0209 15.8842 50.4972 20.9277 51.5004C25.9712 52.5036 31.1989 51.9887 35.9498 50.0209C40.7007 48.053 44.7613 44.7205 47.6182 40.4448C50.4751 36.1691 52 31.1423 52 26C51.9927 19.1066 49.2511 12.4976 44.3767 7.62326C39.5024 2.74889 32.8934 0.00727955 26 0ZM33.415 27.415L23.415 37.415C23.2292 37.6008 23.0086 37.7482 22.7658 37.8488C22.523 37.9494 22.2628 38.0011 22 38.0011C21.7372 38.0011 21.477 37.9494 21.2342 37.8488C20.9914 37.7482 20.7708 37.6008 20.585 37.415C20.3992 37.2292 20.2518 37.0086 20.1512 36.7658C20.0507 36.523 19.9989 36.2628 19.9989 36C19.9989 35.7372 20.0507 35.477 20.1512 35.2342C20.2518 34.9914 20.3992 34.7708 20.585 34.585L29.1725 26L20.585 17.415C20.2097 17.0397 19.9989 16.5307 19.9989 16C19.9989 15.4693 20.2097 14.9603 20.585 14.585C20.9603 14.2097 21.4693 13.9989 22 13.9989C22.5307 13.9989 23.0397 14.2097 23.415 14.585L33.415 24.585C33.601 24.7707 33.7485 24.9913 33.8491 25.2341C33.9498 25.4769 34.0016 25.7372 34.0016 26C34.0016 26.2628 33.9498 26.5231 33.8491 26.7659C33.7485 27.0087 33.601 27.2293 33.415 27.415Z" fill="#4E7FFF"/>
</svg>
