<svg width="22" height="22" viewBox="0 0 22 22" fill="none" xmlns="http://www.w3.org/2000/svg">
<path d="M11 0C8.82441 0 6.69767 0.645139 4.88873 1.85383C3.07979 3.06253 1.66989 4.78049 0.83733 6.79048C0.00476613 8.80047 -0.213071 11.0122 0.211367 13.146C0.635804 15.2798 1.68345 17.2398 3.22183 18.7782C4.76021 20.3165 6.72022 21.3642 8.85401 21.7886C10.9878 22.2131 13.1995 21.9952 15.2095 21.1627C17.2195 20.3301 18.9375 18.9202 20.1462 17.1113C21.3549 15.3023 22 13.1756 22 11C21.9969 8.08356 20.837 5.28746 18.7748 3.22523C16.7125 1.16299 13.9164 0.00307981 11 0ZM15.8294 9.06019L9.90635 14.9833C9.82776 15.0619 9.73444 15.1244 9.63172 15.1669C9.529 15.2095 9.41889 15.2314 9.3077 15.2314C9.1965 15.2314 9.08639 15.2095 8.98367 15.1669C8.88095 15.1244 8.78763 15.0619 8.70904 14.9833L6.17058 12.4448C6.01181 12.286 5.92261 12.0707 5.92261 11.8462C5.92261 11.6216 6.01181 11.4063 6.17058 11.2475C6.32935 11.0887 6.5447 10.9995 6.76923 10.9995C6.99377 10.9995 7.20912 11.0887 7.36789 11.2475L9.3077 13.1884L14.6321 7.86288C14.7107 7.78427 14.8041 7.7219 14.9068 7.67936C15.0095 7.63681 15.1196 7.61491 15.2308 7.61491C15.342 7.61491 15.452 7.63681 15.5548 7.67936C15.6575 7.7219 15.7508 7.78427 15.8294 7.86288C15.908 7.9415 15.9704 8.03483 16.0129 8.13755C16.0555 8.24026 16.0774 8.35036 16.0774 8.46154C16.0774 8.57272 16.0555 8.68281 16.0129 8.78553C15.9704 8.88824 15.908 8.98158 15.8294 9.06019Z" fill="#43C705"/>
</svg>
