<svg width="25" height="24" viewBox="0 0 25 24" fill="none" xmlns="http://www.w3.org/2000/svg">
<path d="M6.13374 3.9754C6.07337 3.90734 6.00008 3.85194 5.91814 3.81242C5.8362 3.77289 5.74723 3.75002 5.65638 3.74513C5.56553 3.74025 5.47462 3.75344 5.38891 3.78395C5.3032 3.81445 5.2244 3.86167 5.15707 3.92285C5.08974 3.98404 5.03523 4.05798 4.99669 4.14039C4.95815 4.2228 4.93635 4.31204 4.93255 4.40294C4.92875 4.49384 4.94303 4.58459 4.97456 4.66993C5.0061 4.75526 5.05425 4.83349 5.11624 4.90008L6.76968 6.71938C3.64843 8.63493 2.30609 11.5877 2.24679 11.7218C2.2077 11.8097 2.1875 11.9049 2.1875 12.0011C2.1875 12.0973 2.2077 12.1925 2.24679 12.2804C2.27687 12.3483 3.00476 13.9622 4.62296 15.5804C6.77913 17.7357 9.50249 18.8752 12.5 18.8752C14.0405 18.884 15.5655 18.5668 16.9748 17.9445L18.8654 20.0251C18.9258 20.0931 18.999 20.1485 19.081 20.1881C19.1629 20.2276 19.2519 20.2505 19.3427 20.2553C19.4336 20.2602 19.5245 20.247 19.6102 20.2165C19.6959 20.186 19.7747 20.1388 19.8421 20.0776C19.9094 20.0164 19.9639 19.9425 20.0024 19.8601C20.041 19.7777 20.0628 19.6884 20.0666 19.5975C20.0704 19.5066 20.0561 19.4159 20.0246 19.3306C19.993 19.2452 19.9449 19.167 19.8829 19.1004L6.13374 3.9754ZM10.2012 10.4929L13.7822 14.4331C13.2429 14.7168 12.6247 14.8134 12.0246 14.7076C11.4245 14.6019 10.8765 14.2999 10.4667 13.8489C10.0569 13.398 9.80846 12.8237 9.76039 12.2163C9.71233 11.6089 9.86737 11.0027 10.2012 10.4929ZM12.5 17.5002C9.85484 17.5002 7.54398 16.5386 5.63101 14.6428C4.84581 13.8625 4.17799 12.9724 3.64843 12.0002C4.05148 11.2448 5.33796 9.13079 7.71757 7.75665L9.26444 9.45391C8.66558 10.2209 8.35715 11.1749 8.39367 12.1473C8.43019 13.1198 8.80931 14.048 9.46402 14.7679C10.1187 15.4878 11.0069 15.9531 11.9715 16.0815C12.9361 16.2099 13.915 15.9931 14.7352 15.4695L16.0011 16.8617C14.8839 17.2903 13.6966 17.5069 12.5 17.5002ZM13.0156 9.29922C12.8365 9.26504 12.6782 9.16108 12.5757 9.01023C12.4732 8.85938 12.4349 8.674 12.4691 8.49485C12.5032 8.3157 12.6072 8.15748 12.758 8.05498C12.9089 7.95248 13.0943 7.9141 13.2734 7.94829C14.1497 8.11816 14.9475 8.56674 15.5479 9.22711C16.1484 9.88749 16.5192 10.7243 16.6052 11.6127C16.6222 11.7942 16.5664 11.975 16.45 12.1154C16.3336 12.2558 16.1663 12.3442 15.9848 12.3612C15.9633 12.3624 15.9418 12.3624 15.9203 12.3612C15.7485 12.3619 15.5826 12.2983 15.4553 12.1828C15.3281 12.0673 15.2487 11.9084 15.2328 11.7373C15.1749 11.1464 14.9279 10.5899 14.5284 10.1506C14.129 9.71138 13.5984 9.41278 13.0156 9.29922ZM22.7506 12.2804C22.7145 12.3612 21.844 14.2888 19.8837 16.0445C19.8168 16.1064 19.7381 16.1543 19.6524 16.1855C19.5667 16.2168 19.4757 16.2306 19.3846 16.2263C19.2935 16.222 19.2042 16.1996 19.1218 16.1604C19.0394 16.1212 18.9657 16.066 18.9049 15.9981C18.844 15.9301 18.7973 15.8508 18.7675 15.7646C18.7376 15.6784 18.7252 15.5871 18.731 15.4961C18.7368 15.4051 18.7606 15.3161 18.8011 15.2344C18.8415 15.1527 18.8979 15.0798 18.9668 15.0201C19.9285 14.1561 20.7363 13.1349 21.3559 12.0002C20.8251 11.0272 20.1558 10.1365 19.369 9.35594C17.456 7.46188 15.1451 6.50024 12.5 6.50024C11.9426 6.49956 11.3862 6.54469 10.8362 6.63516C10.7468 6.65098 10.6551 6.64892 10.5665 6.6291C10.4779 6.60928 10.394 6.5721 10.3199 6.5197C10.2457 6.4673 10.1826 6.40072 10.1343 6.32381C10.086 6.2469 10.0534 6.16118 10.0384 6.07161C10.0235 5.98203 10.0264 5.89038 10.047 5.80193C10.0676 5.71349 10.1056 5.63001 10.1587 5.55632C10.2118 5.48263 10.2789 5.42019 10.3563 5.3726C10.4336 5.32501 10.5197 5.29322 10.6094 5.27907C11.2343 5.17589 11.8666 5.12444 12.5 5.12524C15.4975 5.12524 18.2209 6.26477 20.377 8.42094C21.9952 10.0391 22.7231 11.6539 22.7532 11.7218C22.7923 11.8097 22.8125 11.9049 22.8125 12.0011C22.8125 12.0973 22.7923 12.1925 22.7532 12.2804H22.7506Z" fill="#858597"/>
</svg>
