<svg width="63" height="64" viewBox="0 0 63 64" fill="none" xmlns="http://www.w3.org/2000/svg">
<rect width="63" height="64" rx="12" fill="#E7E7F1"/>
<path d="M21 32H41C41.2652 32 41.5196 31.8946 41.7071 31.7071C41.8946 31.5196 42 31.2652 42 31V28C42.0001 27.8686 41.9743 27.7385 41.9241 27.6172C41.8739 27.4958 41.8003 27.3854 41.7075 27.2925L34.7075 20.2925C34.6146 20.1997 34.5042 20.1261 34.3829 20.0759C34.2615 20.0257 34.1314 19.9999 34 20H22C21.4696 20 20.9609 20.2107 20.5858 20.5858C20.2107 20.9609 20 21.4696 20 22V31C20 31.2652 20.1054 31.5196 20.2929 31.7071C20.4804 31.8946 20.7348 32 21 32ZM34 22.5L39.5 28H34V22.5ZM43 36C43 36.2652 42.8946 36.5196 42.7071 36.7071C42.5196 36.8946 42.2652 37 42 37H39V39H41C41.2652 39 41.5196 39.1054 41.7071 39.2929C41.8946 39.4804 42 39.7348 42 40C42 40.2652 41.8946 40.5196 41.7071 40.7071C41.5196 40.8946 41.2652 41 41 41H39V43C39 43.2652 38.8946 43.5196 38.7071 43.7071C38.5196 43.8946 38.2652 44 38 44C37.7348 44 37.4804 43.8946 37.2929 43.7071C37.1054 43.5196 37 43.2652 37 43V36C37 35.7348 37.1054 35.4804 37.2929 35.2929C37.4804 35.1054 37.7348 35 38 35H42C42.2652 35 42.5196 35.1054 42.7071 35.2929C42.8946 35.4804 43 35.7348 43 36ZM23 35H21C20.7348 35 20.4804 35.1054 20.2929 35.2929C20.1054 35.4804 20 35.7348 20 36V43C20 43.2652 20.1054 43.5196 20.2929 43.7071C20.4804 43.8946 20.7348 44 21 44C21.2652 44 21.5196 43.8946 21.7071 43.7071C21.8946 43.5196 22 43.2652 22 43V42H23C23.9283 42 24.8185 41.6313 25.4749 40.9749C26.1313 40.3185 26.5 39.4283 26.5 38.5C26.5 37.5717 26.1313 36.6815 25.4749 36.0251C24.8185 35.3687 23.9283 35 23 35ZM23 40H22V37H23C23.3978 37 23.7794 37.158 24.0607 37.4393C24.342 37.7206 24.5 38.1022 24.5 38.5C24.5 38.8978 24.342 39.2794 24.0607 39.5607C23.7794 39.842 23.3978 40 23 40ZM31 35H29C28.7348 35 28.4804 35.1054 28.2929 35.2929C28.1054 35.4804 28 35.7348 28 36V43C28 43.2652 28.1054 43.5196 28.2929 43.7071C28.4804 43.8946 28.7348 44 29 44H31C32.1935 44 33.3381 43.5259 34.182 42.682C35.0259 41.8381 35.5 40.6935 35.5 39.5C35.5 38.3065 35.0259 37.1619 34.182 36.318C33.3381 35.4741 32.1935 35 31 35ZM31 42H30V37H31C31.663 37 32.2989 37.2634 32.7678 37.7322C33.2366 38.2011 33.5 38.837 33.5 39.5C33.5 40.163 33.2366 40.7989 32.7678 41.2678C32.2989 41.7366 31.663 42 31 42Z" fill="black"/>
</svg>
