<svg width="18" height="16" viewBox="0 0 18 16" fill="none" xmlns="http://www.w3.org/2000/svg">
<path d="M18 1.25V2.75C18 2.94891 17.921 3.13968 17.7803 3.28033C17.6397 3.42098 17.4489 3.5 17.25 3.5H6C5.80109 3.5 5.61032 3.42098 5.46967 3.28033C5.32902 3.13968 5.25 2.94891 5.25 2.75V1.25C5.25 1.05109 5.32902 0.860322 5.46967 0.71967C5.61032 0.579018 5.80109 0.5 6 0.5H17.25C17.4489 0.5 17.6397 0.579018 17.7803 0.71967C17.921 0.860322 18 1.05109 18 1.25ZM2.25 0.5H0.75C0.551088 0.5 0.360322 0.579018 0.21967 0.71967C0.0790178 0.860322 0 1.05109 0 1.25V2.75C0 2.94891 0.0790178 3.13968 0.21967 3.28033C0.360322 3.42098 0.551088 3.5 0.75 3.5H2.25C2.44891 3.5 2.63968 3.42098 2.78033 3.28033C2.92098 3.13968 3 2.94891 3 2.75V1.25C3 1.05109 2.92098 0.860322 2.78033 0.71967C2.63968 0.579018 2.44891 0.5 2.25 0.5ZM17.25 6.5H6C5.80109 6.5 5.61032 6.57902 5.46967 6.71967C5.32902 6.86032 5.25 7.05109 5.25 7.25V8.75C5.25 8.94891 5.32902 9.13968 5.46967 9.28033C5.61032 9.42098 5.80109 9.5 6 9.5H17.25C17.4489 9.5 17.6397 9.42098 17.7803 9.28033C17.921 9.13968 18 8.94891 18 8.75V7.25C18 7.05109 17.921 6.86032 17.7803 6.71967C17.6397 6.57902 17.4489 6.5 17.25 6.5ZM2.25 6.5H0.75C0.551088 6.5 0.360322 6.57902 0.21967 6.71967C0.0790178 6.86032 0 7.05109 0 7.25V8.75C0 8.94891 0.0790178 9.13968 0.21967 9.28033C0.360322 9.42098 0.551088 9.5 0.75 9.5H2.25C2.44891 9.5 2.63968 9.42098 2.78033 9.28033C2.92098 9.13968 3 8.94891 3 8.75V7.25C3 7.05109 2.92098 6.86032 2.78033 6.71967C2.63968 6.57902 2.44891 6.5 2.25 6.5ZM17.25 12.5H6C5.80109 12.5 5.61032 12.579 5.46967 12.7197C5.32902 12.8603 5.25 13.0511 5.25 13.25V14.75C5.25 14.9489 5.32902 15.1397 5.46967 15.2803C5.61032 15.421 5.80109 15.5 6 15.5H17.25C17.4489 15.5 17.6397 15.421 17.7803 15.2803C17.921 15.1397 18 14.9489 18 14.75V13.25C18 13.0511 17.921 12.8603 17.7803 12.7197C17.6397 12.579 17.4489 12.5 17.25 12.5ZM2.25 12.5H0.75C0.551088 12.5 0.360322 12.579 0.21967 12.7197C0.0790178 12.8603 0 13.0511 0 13.25V14.75C0 14.9489 0.0790178 15.1397 0.21967 15.2803C0.360322 15.421 0.551088 15.5 0.75 15.5H2.25C2.44891 15.5 2.63968 15.421 2.78033 15.2803C2.92098 15.1397 3 14.9489 3 14.75V13.25C3 13.0511 2.92098 12.8603 2.78033 12.7197C2.63968 12.579 2.44891 12.5 2.25 12.5Z" fill="#B2CBD3"/>
</svg>
