<svg width="24" height="24" viewBox="0 0 24 24" fill="none" xmlns="http://www.w3.org/2000/svg">
<path d="M21 11.2062V19.8734C21 20.2712 20.842 20.6528 20.5607 20.9341C20.2794 21.2154 19.8978 21.3734 19.5 21.3734H15.75C15.3522 21.3734 14.9706 21.2154 14.6893 20.9341C14.408 20.6528 14.25 20.2712 14.25 19.8734V16.1234C14.25 15.9245 14.171 15.7337 14.0303 15.5931C13.8897 15.4524 13.6989 15.3734 13.5 15.3734H10.5C10.3011 15.3734 10.1103 15.4524 9.96967 15.5931C9.82902 15.7337 9.75 15.9245 9.75 16.1234V19.8734C9.75 20.2712 9.59196 20.6528 9.31066 20.9341C9.02936 21.2154 8.64782 21.3734 8.25 21.3734H4.5C4.10218 21.3734 3.72064 21.2154 3.43934 20.9341C3.15804 20.6528 3 20.2712 3 19.8734V11.2062C2.99997 10.9986 3.04303 10.7933 3.12646 10.6032C3.20989 10.4131 3.33187 10.2424 3.48469 10.1018L10.9847 3.02559L10.995 3.01528C11.2711 2.76416 11.631 2.625 12.0042 2.625C12.3775 2.625 12.7373 2.76416 13.0134 3.01528C13.0166 3.01895 13.0201 3.02239 13.0238 3.02559L20.5238 10.1018C20.675 10.2431 20.7954 10.4141 20.8774 10.6042C20.9594 10.7943 21.0011 10.9992 21 11.2062Z" fill="#858597"/>
</svg>
