<svg width="18" height="20" viewBox="0 0 18 20" fill="none" xmlns="http://www.w3.org/2000/svg">
<path id="Vector" d="M18 9.20701V17.8742C18 18.272 17.842 18.6536 17.5607 18.9349C17.2794 19.2162 16.8978 19.3742 16.5 19.3742H12.75C12.3522 19.3742 11.9706 19.2162 11.6893 18.9349C11.408 18.6536 11.25 18.272 11.25 17.8742V14.1242C11.25 13.9253 11.171 13.7345 11.0303 13.5939C10.8897 13.4532 10.6989 13.3742 10.5 13.3742H7.5C7.30109 13.3742 7.11032 13.4532 6.96967 13.5939C6.82902 13.7345 6.75 13.9253 6.75 14.1242V17.8742C6.75 18.272 6.59196 18.6536 6.31066 18.9349C6.02936 19.2162 5.64782 19.3742 5.25 19.3742H1.5C1.10218 19.3742 0.720644 19.2162 0.43934 18.9349C0.158035 18.6536 1.73323e-08 18.272 1.73323e-08 17.8742V9.20701C-3.15402e-05 8.99941 0.0430305 8.79406 0.126461 8.60397C0.209891 8.41387 0.331873 8.24316 0.484687 8.10264L7.98469 1.02639L7.995 1.01607C8.27113 0.764949 8.63097 0.625793 9.00422 0.625793C9.37747 0.625793 9.7373 0.764949 10.0134 1.01607C10.0166 1.01974 10.0201 1.02319 10.0238 1.02639L17.5238 8.10264C17.675 8.2439 17.7954 8.41494 17.8774 8.605C17.9594 8.79506 18.0011 9.00003 18 9.20701Z" fill="white"/>
</svg>
