<svg width="25" height="24" viewBox="0 0 25 24" fill="none" xmlns="http://www.w3.org/2000/svg">
<path d="M21.5 14.2503V19.5003C21.5 19.8982 21.342 20.2797 21.0607 20.561C20.7794 20.8423 20.3978 21.0003 20 21.0003H5C4.60218 21.0003 4.22064 20.8423 3.93934 20.561C3.65804 20.2797 3.5 19.8982 3.5 19.5003V14.2503C3.5 14.0514 3.57902 13.8607 3.71967 13.72C3.86032 13.5794 4.05109 13.5003 4.25 13.5003C4.44891 13.5003 4.63968 13.5794 4.78033 13.72C4.92098 13.8607 5 14.0514 5 14.2503V19.5003H20V14.2503C20 14.0514 20.079 13.8607 20.2197 13.72C20.3603 13.5794 20.5511 13.5003 20.75 13.5003C20.9489 13.5003 21.1397 13.5794 21.2803 13.72C21.421 13.8607 21.5 14.0514 21.5 14.2503ZM8.75 8.25035H11.75V14.2503C11.75 14.4493 11.829 14.64 11.9697 14.7807C12.1103 14.9213 12.3011 15.0003 12.5 15.0003C12.6989 15.0003 12.8897 14.9213 13.0303 14.7807C13.171 14.64 13.25 14.4493 13.25 14.2503V8.25035H16.25C16.3984 8.25046 16.5435 8.20654 16.667 8.12414C16.7904 8.04173 16.8867 7.92456 16.9435 7.78744C17.0003 7.65032 17.0151 7.49943 16.9861 7.35387C16.9572 7.2083 16.8856 7.07461 16.7806 6.96972L13.0306 3.21972C12.961 3.14999 12.8783 3.09467 12.7872 3.05693C12.6962 3.01918 12.5986 2.99976 12.5 2.99976C12.4014 2.99976 12.3038 3.01918 12.2128 3.05693C12.1217 3.09467 12.039 3.14999 11.9694 3.21972L8.21937 6.96972C8.11437 7.07461 8.04284 7.2083 8.01385 7.35387C7.98487 7.49943 7.99972 7.65032 8.05653 7.78744C8.11335 7.92456 8.20957 8.04173 8.33301 8.12414C8.45646 8.20654 8.60158 8.25046 8.75 8.25035Z" fill="#858597"/>
</svg>
