<svg width="20" height="20" viewBox="0 0 20 20" fill="none" xmlns="http://www.w3.org/2000/svg">
<path d="M10 0.25C8.07164 0.25 6.18657 0.821828 4.58319 1.89317C2.97982 2.96451 1.73013 4.48726 0.992179 6.26884C0.254225 8.05042 0.061142 10.0108 0.437348 11.9021C0.813554 13.7934 1.74215 15.5307 3.10571 16.8943C4.46928 18.2579 6.20656 19.1865 8.09787 19.5627C9.98919 19.9389 11.9496 19.7458 13.7312 19.0078C15.5127 18.2699 17.0355 17.0202 18.1068 15.4168C19.1782 13.8134 19.75 11.9284 19.75 10C19.7473 7.41498 18.7192 4.93661 16.8913 3.10872C15.0634 1.28084 12.585 0.25273 10 0.25ZM9.625 4.75C9.84751 4.75 10.065 4.81598 10.25 4.9396C10.435 5.06321 10.5792 5.23891 10.6644 5.44448C10.7495 5.65005 10.7718 5.87625 10.7284 6.09448C10.685 6.31271 10.5778 6.51316 10.4205 6.6705C10.2632 6.82783 10.0627 6.93498 9.84448 6.97838C9.62625 7.02179 9.40005 6.99951 9.19449 6.91436C8.98892 6.82922 8.81322 6.68502 8.6896 6.50002C8.56598 6.31501 8.5 6.0975 8.5 5.875C8.5 5.57663 8.61853 5.29048 8.82951 5.0795C9.04049 4.86853 9.32664 4.75 9.625 4.75ZM10.75 15.25C10.3522 15.25 9.97065 15.092 9.68934 14.8107C9.40804 14.5294 9.25 14.1478 9.25 13.75V10C9.05109 10 8.86033 9.92098 8.71967 9.78033C8.57902 9.63968 8.5 9.44891 8.5 9.25C8.5 9.05109 8.57902 8.86032 8.71967 8.71967C8.86033 8.57902 9.05109 8.5 9.25 8.5C9.64783 8.5 10.0294 8.65804 10.3107 8.93934C10.592 9.22064 10.75 9.60218 10.75 10V13.75C10.9489 13.75 11.1397 13.829 11.2803 13.9697C11.421 14.1103 11.5 14.3011 11.5 14.5C11.5 14.6989 11.421 14.8897 11.2803 15.0303C11.1397 15.171 10.9489 15.25 10.75 15.25Z" fill="#B2CBD3"/>
</svg>
