<svg width="161" height="162" viewBox="0 0 161 162" fill="none" xmlns="http://www.w3.org/2000/svg">
<g clip-path="url(#clip0_719_27449)">
<path d="M148.764 123.559L116.924 96.6914L125.465 127.157L95.2168 118.033L121.392 150.288C132.523 143.704 141.923 134.511 148.764 123.559Z" fill="#4E7FFF"/>
<path d="M98.6572 159.375L95.1382 117.867L79.6385 145.447L64.7023 117.601L60.4023 158.94C66.8177 160.59 73.5395 161.46 80.4689 161.46C86.7261 161.46 92.8152 160.719 98.6671 159.365L98.6572 159.375Z" fill="#4E7FFF"/>
<path d="M37.9067 149.295L64.7741 117.455L34.3086 125.996L43.4324 95.748L11.1777 121.924C17.7611 133.054 26.9542 142.455 37.9067 149.295Z" fill="#4E7FFF"/>
<path d="M16.0236 80.1698L43.8696 65.2336L2.52067 60.9336C0.869879 67.349 0 74.0707 0 81.0001C0 87.2573 0.741374 93.3465 2.09562 99.1984L43.6027 95.6793L16.0236 80.1797V80.1698Z" fill="#4E7FFF"/>
<path d="M12.1836 38.438L44.0231 65.3054L35.4825 34.8399L65.7306 43.9637L39.5551 11.709C28.4246 18.2924 19.024 27.4854 12.1836 38.438Z" fill="#4E7FFF"/>
<path d="M62.2726 2.62968L65.7916 44.1367L81.2913 16.5576L96.2275 44.4036L100.527 3.06462C94.1121 1.41382 87.3903 0.543945 80.461 0.543945C74.2038 0.543945 68.1146 1.28532 62.2627 2.63956L62.2726 2.62968Z" fill="#4E7FFF"/>
<path d="M149.757 40.0864C143.173 28.9559 133.98 19.5553 123.028 12.7148L96.1602 44.5544L126.626 36.0138L117.502 66.2618L149.757 40.0864Z" fill="#4E7FFF"/>
<path d="M144.915 81.8225L117.069 96.7588L158.408 101.059C160.059 94.6434 160.929 87.9216 160.929 80.9922C160.929 74.735 160.188 68.6459 158.833 62.7939L117.326 66.313L144.905 81.8127L144.915 81.8225Z" fill="#4E7FFF"/>
</g>
<defs>
<clipPath id="clip0_719_27449">
<rect width="160.938" height="160.938" fill="white" transform="translate(0 0.53125)"/>
</clipPath>
</defs>
</svg>
