<svg width="24" height="24" viewBox="0 0 24 24" fill="none" xmlns="http://www.w3.org/2000/svg">
<path d="M22.3744 11.5837L18.0938 5.16844C17.9575 4.96296 17.7725 4.79439 17.5553 4.67776C17.338 4.56113 17.0953 4.50006 16.8488 4.5H3C2.60218 4.5 2.22064 4.65804 1.93934 4.93934C1.65804 5.22064 1.5 5.60218 1.5 6V18C1.5 18.3978 1.65804 18.7794 1.93934 19.0607C2.22064 19.342 2.60218 19.5 3 19.5H16.8488C17.0951 19.4995 17.3376 19.4384 17.5547 19.322C17.7719 19.2056 17.957 19.0375 18.0938 18.8325L22.3716 12.4163C22.4542 12.2933 22.4986 12.1486 22.4991 12.0004C22.4996 11.8523 22.4562 11.7073 22.3744 11.5837Z" fill="#43C705"/>
</svg>
