<svg width="28" height="28" viewBox="0 0 28 28" fill="none" xmlns="http://www.w3.org/2000/svg">
<path d="M14.6934 17.9682L16.512 17.1235L21.1153 25.9895L18.5878 27.1697L14.6934 17.9682Z" fill="#4D28FF"/>
<path d="M15.4784 19.5687L15.7539 19.6039L16.0724 20.2854C16.5685 21.3481 16.8231 22.514 16.7709 23.6864C16.7304 24.5781 16.5333 25.2804 16.2539 26.052L15.5476 27.9999L13.1924 27.1461C13.1924 27.1461 14.9274 21.3951 14.5462 22.6576C14.165 23.9201 15.4784 19.5674 15.4784 19.5674V19.5687Z" fill="#4D28FF"/>
<path d="M11.6848 17.2959L13.5686 17.9852L10.5541 27.5092L7.93262 26.5561L11.6848 17.2959Z" fill="#4D28FF"/>
<path d="M11.108 18.9824L11.279 19.2018L11.0218 19.9094C10.621 21.0125 9.9774 22.0165 9.11052 22.8077C8.45122 23.4095 7.81542 23.7659 7.07257 24.1145L5.1965 24.9931L4.13379 22.7241C4.13379 22.7241 9.42646 19.8846 8.26453 20.5086C7.1026 21.1327 11.108 18.9824 11.108 18.9824Z" fill="#4D28FF"/>
<path d="M10.0316 14.6938L10.8762 16.5125L2.01029 21.1158L0.830078 18.5883L10.0316 14.6938Z" fill="#4D28FF"/>
<path d="M8.4312 15.4784L8.39595 15.7539L7.71446 16.0724C6.65175 16.5685 5.4859 16.8231 4.31352 16.7709C3.42183 16.7304 2.71945 16.5333 1.94787 16.2539L0 15.5476L0.853826 13.1924C0.853826 13.1924 6.60475 14.9275 5.34229 14.5462C4.07982 14.165 8.43251 15.4784 8.43251 15.4784H8.4312Z" fill="#4D28FF"/>
<path d="M10.7045 11.6848L10.0152 13.5686L0.491211 10.5541L1.44295 7.93262L10.7045 11.6848Z" fill="#4D28FF"/>
<path d="M9.01756 11.1075L8.79823 11.2785L8.09062 11.0214C6.98744 10.6205 5.98348 9.97692 5.19232 9.11003C4.59046 8.45073 4.23405 7.81493 3.88547 7.07208L3.00684 5.19601L5.27587 4.1333C5.27587 4.1333 8.11543 9.42598 7.49138 8.26404C6.86733 7.10211 9.01756 11.1075 9.01756 11.1075Z" fill="#4D28FF"/>
<path d="M13.3058 10.032L11.4871 10.8767L6.88379 2.01078L9.41132 0.830566L13.3058 10.032Z" fill="#4D28FF"/>
<path d="M12.5209 8.4312L12.2454 8.39595L11.9269 7.71446C11.4307 6.65175 11.1762 5.4859 11.2284 4.31352C11.2689 3.42183 11.466 2.71945 11.7454 1.94787L12.4517 0L14.8069 0.853826C14.8069 0.853826 13.0718 6.60475 13.453 5.34229C13.8343 4.07982 12.5209 8.43251 12.5209 8.43251V8.4312Z" fill="#4D28FF"/>
<path d="M16.3155 10.704L14.4316 10.0147L17.4461 0.490723L20.0677 1.44246L16.3155 10.704Z" fill="#4D28FF"/>
<path d="M16.8927 9.01707L16.7217 8.79774L16.9789 8.09014C17.3797 6.98695 18.0233 5.98299 18.8902 5.19183C19.5495 4.58997 20.1853 4.23356 20.9281 3.88498L22.8042 3.00635L23.8669 5.27538C23.8669 5.27538 18.5742 8.11494 19.7362 7.49089C20.8981 6.86684 16.8927 9.01707 16.8927 9.01707Z" fill="#4D28FF"/>
<path d="M17.9677 13.3062L17.123 11.4876L25.989 6.88428L27.1692 9.41181L17.9677 13.3062Z" fill="#4D28FF"/>
<path d="M19.5687 12.5219L19.6039 12.2464L20.2854 11.9278C21.3481 11.4317 22.514 11.1771 23.6864 11.2294C24.5781 11.2698 25.2804 11.467 26.052 11.7464L27.9999 12.4527L27.1461 14.8079C27.1461 14.8079 21.3951 13.0728 22.6576 13.454C23.9201 13.8352 19.5674 12.5219 19.5674 12.5219H19.5687Z" fill="#4D28FF"/>
<path d="M17.2959 16.3155L17.9852 14.4316L27.5092 17.4461L26.5574 20.0677L17.2959 16.3155Z" fill="#4D28FF"/>
<path d="M18.9824 16.8927L19.2018 16.7217L19.9094 16.9789C21.0125 17.3797 22.0165 18.0233 22.8077 18.8902C23.4095 19.5495 23.7659 20.1853 24.1145 20.9281L24.9931 22.8042L22.7241 23.8669C22.7241 23.8669 19.8846 18.5742 20.5086 19.7362C21.1327 20.8981 18.9824 16.8927 18.9824 16.8927Z" fill="#4D28FF"/>
</svg>
