<svg width="91" height="20" viewBox="0 0 91 20" fill="none" xmlns="http://www.w3.org/2000/svg">
<path d="M71.1593 19.5991V0.399902H74.0527L80.6927 13.9994L87.3326 0.399902H90.226V19.5991H87.2257V7.29265L81.3319 19.5991H80.0523L74.1719 7.29265V19.5991H71.1582H71.1593Z" fill="black"/>
<path d="M51 19.5991L57.053 0.399902H61.7595L67.8126 19.5991H64.506L59.0131 2.3734H59.7326L54.3066 19.5991H51ZM54.3734 15.4394V12.4391H64.4536V15.4394H54.3734Z" fill="black"/>
<path d="M42.2319 19.5991V3.4136H36.0186V0.399902H51.6584V3.4136H45.445V19.6003H42.2319V19.5991Z" fill="black"/>
<path d="M26.2866 20C24.3666 20 22.7227 19.5824 21.3529 18.7471C19.9841 17.9029 18.9305 16.729 18.1933 15.2266C17.4649 13.7242 17.0996 11.9824 17.0996 10C17.0996 8.0176 17.4638 6.27575 18.1933 4.77336C18.9317 3.27097 19.9841 2.10268 21.3529 1.26629C22.7216 0.422096 24.3666 0 26.2866 0C28.2066 0 29.8516 0.422096 31.2203 1.26629C32.598 2.10157 33.6516 3.27097 34.3799 4.77336C35.1183 6.27575 35.487 8.0176 35.487 10C35.487 11.9824 35.1183 13.7242 34.3799 15.2266C33.6516 16.729 32.598 17.9018 31.2203 18.7471C29.8516 19.5824 28.2066 20 26.2866 20ZM26.2866 16.9729C27.5752 16.9818 28.6465 16.6978 29.4997 16.1198C30.3617 15.5418 31.0065 14.7288 31.4331 13.6797C31.8685 12.6306 32.0868 11.4044 32.0868 10C32.0868 8.59561 31.8685 7.37833 31.4331 6.34703C31.0065 5.30683 30.3617 4.49827 29.4997 3.92026C28.6465 3.34224 27.5752 3.04488 26.2866 3.02706C24.998 3.01815 23.9266 3.30215 23.0735 3.88017C22.2204 4.45818 21.5756 5.27119 21.1401 6.3203C20.7136 7.36942 20.4998 8.59561 20.4998 10C20.4998 11.4044 20.7136 12.6261 21.1401 13.6663C21.5667 14.6976 22.2071 15.5017 23.0602 16.0797C23.9222 16.6578 24.998 16.9551 26.2866 16.9729Z" fill="black"/>
<path d="M0.5625 19.5991V0.399902H8.49546C8.68256 0.399902 8.922 0.408812 9.21491 0.426631C9.50782 0.435541 9.77956 0.46227 10.0279 0.506819C11.1394 0.676102 12.0549 1.04474 12.7743 1.61385C13.5027 2.18295 14.0406 2.90241 14.3881 3.77333C14.7434 4.63534 14.9216 5.59536 14.9216 6.65338C14.9216 8.21814 14.5262 9.56462 13.7355 10.6928C12.9447 11.8132 11.7308 12.5059 10.0959 12.7732L8.72265 12.8935H3.77555V19.6003H0.5625V19.5991ZM11.5893 19.5991L7.80273 11.7865L11.0692 11.067L15.2289 19.6003H11.5893V19.5991ZM3.77667 9.89316H8.36292C8.54112 9.89316 8.74047 9.88425 8.96321 9.86643C9.18595 9.84861 9.38976 9.81298 9.57687 9.75952C10.1103 9.62587 10.528 9.39088 10.8298 9.05231C11.1405 8.71486 11.3588 8.33286 11.4835 7.90519C11.6172 7.47864 11.684 7.061 11.684 6.65227C11.684 6.24354 11.6172 5.8259 11.4835 5.39934C11.3588 4.96388 11.1416 4.57743 10.8298 4.23886C10.528 3.90141 10.1103 3.6653 9.57687 3.53165C9.38976 3.4782 9.18595 3.44701 8.96321 3.4381C8.74047 3.42028 8.54112 3.41137 8.36292 3.41137H3.77667V9.89094V9.89316Z" fill="black"/>
</svg>
