<svg width="18" height="18" viewBox="0 0 18 18" fill="none" xmlns="http://www.w3.org/2000/svg">
<path d="M17.25 2.25V7.875C17.25 7.97446 17.2105 8.06984 17.1402 8.14017C17.0698 8.21049 16.9745 8.25 16.875 8.25H9.75V1.125C9.75 1.02554 9.78951 0.930161 9.85983 0.859835C9.93016 0.789509 10.0255 0.75 10.125 0.75H15.75C16.1478 0.75 16.5294 0.908035 16.8107 1.18934C17.092 1.47064 17.25 1.85218 17.25 2.25ZM7.875 0.75H2.25C1.85218 0.75 1.47064 0.908035 1.18934 1.18934C0.908035 1.47064 0.75 1.85218 0.75 2.25V7.875C0.75 7.97446 0.789509 8.06984 0.859835 8.14017C0.930161 8.21049 1.02554 8.25 1.125 8.25H8.25V1.125C8.25 1.02554 8.21049 0.930161 8.14017 0.859835C8.06984 0.789509 7.97446 0.75 7.875 0.75ZM16.875 9.75H9.75V16.875C9.75 16.9745 9.78951 17.0698 9.85983 17.1402C9.93016 17.2105 10.0255 17.25 10.125 17.25H15.75C16.1478 17.25 16.5294 17.092 16.8107 16.8107C17.092 16.5294 17.25 16.1478 17.25 15.75V10.125C17.25 10.0255 17.2105 9.93016 17.1402 9.85983C17.0698 9.78951 16.9745 9.75 16.875 9.75ZM0.75 10.125V15.75C0.75 16.1478 0.908035 16.5294 1.18934 16.8107C1.47064 17.092 1.85218 17.25 2.25 17.25H7.875C7.97446 17.25 8.06984 17.2105 8.14017 17.1402C8.21049 17.0698 8.25 16.9745 8.25 16.875V9.75H1.125C1.02554 9.75 0.930161 9.78951 0.859835 9.85983C0.789509 9.93016 0.75 10.0255 0.75 10.125Z" fill="#858597"/>
</svg>
