<svg width="20" height="18" viewBox="0 0 20 18" fill="none" xmlns="http://www.w3.org/2000/svg">
<path id="Vector" d="M19.75 6C19.7504 5.93027 19.7409 5.86083 19.7219 5.79375L18.3766 1.0875C18.2861 0.775232 18.0971 0.500591 17.8378 0.304588C17.5784 0.108585 17.2626 0.00173713 16.9375 0H3.0625C2.73741 0.00173713 2.4216 0.108585 2.16223 0.304588C1.90287 0.500591 1.71386 0.775232 1.62344 1.0875L0.279063 5.79375C0.259696 5.86079 0.249912 5.93022 0.250001 6V7.5C0.250001 8.08217 0.385545 8.65634 0.645899 9.17705C0.906253 9.69776 1.28427 10.1507 1.75 10.5V16.5C1.75 16.8978 1.90804 17.2794 2.18934 17.5607C2.47064 17.842 2.85218 18 3.25 18H16.75C17.1478 18 17.5294 17.842 17.8107 17.5607C18.092 17.2794 18.25 16.8978 18.25 16.5V10.5C18.7157 10.1507 19.0937 9.69776 19.3541 9.17705C19.6145 8.65634 19.75 8.08217 19.75 7.5V6ZM6.25 7.5C6.24987 7.88691 6.14996 8.26725 5.95993 8.60428C5.7699 8.94131 5.49617 9.22364 5.16518 9.42401C4.83419 9.62437 4.45713 9.736 4.07041 9.74811C3.68369 9.76022 3.30038 9.67239 2.9575 9.49312C2.90533 9.45251 2.84794 9.41909 2.78688 9.39375C2.46913 9.19034 2.20764 8.91029 2.02646 8.57937C1.84527 8.24845 1.7502 7.87728 1.75 7.5V6.75H6.25V7.5ZM12.25 7.5C12.25 8.09674 12.0129 8.66903 11.591 9.09099C11.169 9.51295 10.5967 9.75 10 9.75C9.40326 9.75 8.83097 9.51295 8.40901 9.09099C7.98705 8.66903 7.75 8.09674 7.75 7.5V6.75H12.25V7.5ZM18.25 7.5C18.2497 7.87736 18.1545 8.24859 17.9731 8.57952C17.7918 8.91045 17.5301 9.19044 17.2122 9.39375C17.1519 9.41914 17.0952 9.45223 17.0434 9.49219C16.7006 9.67164 16.3173 9.75964 15.9305 9.74769C15.5437 9.73574 15.1666 9.62423 14.8355 9.42395C14.5044 9.22367 14.2305 8.94138 14.0404 8.60436C13.8502 8.26733 13.7502 7.88696 13.75 7.5V6.75H18.25V7.5Z" fill="#858597"/>
</svg>
