<svg width="25" height="26" viewBox="0 0 25 26" fill="none" xmlns="http://www.w3.org/2000/svg">
<g clip-path="url(#clip0_767_2981)">
<path d="M23.108 19.6111L18.1621 15.4375L19.4888 20.17L14.79 18.7527L18.8561 23.7632C20.5851 22.7405 22.0454 21.3124 23.108 19.6111Z" fill="#4E7FFF"/>
<path d="M15.3263 25.1747L14.7796 18.727L12.3719 23.0111L10.0517 18.6855L9.38379 25.1071C10.3803 25.3636 11.4245 25.4987 12.5009 25.4987C13.4729 25.4987 14.4188 25.3835 15.3278 25.1732L15.3263 25.1747Z" fill="#4E7FFF"/>
<path d="M5.88841 23.608L10.062 18.6621L5.32947 19.9888L6.74677 15.29L1.73633 19.3561C2.75899 21.0851 4.18704 22.5454 5.88841 23.608Z" fill="#4E7FFF"/>
<path d="M2.4891 12.8719L6.81469 10.5517L0.391561 9.88379C0.135127 10.8803 0 11.9245 0 13.0009C0 13.9729 0.115165 14.9188 0.325533 15.8278L6.77323 15.2812L2.4891 12.8735V12.8719Z" fill="#4E7FFF"/>
<path d="M1.8916 6.38889L6.83755 10.5625L5.51085 5.82996L10.2096 7.24726L6.14349 2.23682C4.41448 3.25948 2.95419 4.68753 1.8916 6.38889Z" fill="#4E7FFF"/>
<path d="M9.67341 0.825462L10.2201 7.27316L12.6278 2.98903L14.948 7.31462L15.6159 0.893026C14.6194 0.636592 13.5752 0.501465 12.4988 0.501465C11.5268 0.501465 10.5809 0.61663 9.67188 0.826998L9.67341 0.825462Z" fill="#4E7FFF"/>
<path d="M23.2632 6.64349C22.2405 4.91448 20.8124 3.45419 19.1111 2.3916L14.9375 7.33755L19.67 6.01085L18.2527 10.7096L23.2632 6.64349Z" fill="#4E7FFF"/>
<path d="M22.5111 13.1283L18.1855 15.4485L24.6071 16.1164C24.8636 15.1198 24.9987 14.0757 24.9987 12.9993C24.9987 12.0273 24.8835 11.0814 24.6732 10.1724L18.2255 10.719L22.5096 13.1267L22.5111 13.1283Z" fill="#4E7FFF"/>
</g>
<defs>
<clipPath id="clip0_767_2981">
<rect width="25" height="25" fill="white" transform="translate(0 0.5)"/>
</clipPath>
</defs>
</svg>
