<svg width="25" height="24" viewBox="0 0 25 24" fill="none" xmlns="http://www.w3.org/2000/svg">
<path d="M23.8513 11.6962C23.8185 11.6222 23.0244 9.86062 21.2591 8.09531C18.9069 5.74312 15.936 4.5 12.666 4.5C9.39601 4.5 6.42507 5.74312 4.07288 8.09531C2.30757 9.86062 1.50976 11.625 1.48069 11.6962C1.43805 11.7922 1.41602 11.896 1.41602 12.0009C1.41602 12.1059 1.43805 12.2097 1.48069 12.3056C1.51351 12.3797 2.30757 14.1403 4.07288 15.9056C6.42507 18.2569 9.39601 19.5 12.666 19.5C15.936 19.5 18.9069 18.2569 21.2591 15.9056C23.0244 14.1403 23.8185 12.3797 23.8513 12.3056C23.894 12.2097 23.916 12.1059 23.916 12.0009C23.916 11.896 23.894 11.7922 23.8513 11.6962ZM12.666 15.75C11.9243 15.75 11.1993 15.5301 10.5826 15.118C9.96593 14.706 9.48529 14.1203 9.20146 13.4351C8.91763 12.7498 8.84337 11.9958 8.98806 11.2684C9.13276 10.541 9.48991 9.8728 10.0144 9.34835C10.5388 8.8239 11.207 8.46675 11.9344 8.32205C12.6618 8.17736 13.4158 8.25162 14.1011 8.53545C14.7863 8.81928 15.372 9.29993 15.784 9.91661C16.1961 10.5333 16.416 11.2583 16.416 12C16.416 12.9946 16.0209 13.9484 15.3177 14.6517C14.6144 15.3549 13.6606 15.75 12.666 15.75Z" fill="#7CA1AD"/>
</svg>
