<svg width="23" height="24" viewBox="0 0 23 24" fill="none" xmlns="http://www.w3.org/2000/svg">
<path d="M1 12H21C21.2652 12 21.5196 11.8946 21.7071 11.7071C21.8946 11.5196 22 11.2652 22 11V8C22.0001 7.86864 21.9743 7.73855 21.9241 7.61715C21.8739 7.49576 21.8003 7.38544 21.7075 7.2925L14.7075 0.2925C14.6146 0.199666 14.5042 0.126052 14.3829 0.0758639C14.2615 0.0256758 14.1314 -0.000102986 14 3.09198e-07H2C1.46957 3.09198e-07 0.960859 0.210714 0.585786 0.585787C0.210714 0.960859 0 1.46957 0 2V11C0 11.2652 0.105357 11.5196 0.292893 11.7071C0.48043 11.8946 0.734784 12 1 12ZM14 2.5L19.5 8H14V2.5ZM23 16C23 16.2652 22.8946 16.5196 22.7071 16.7071C22.5196 16.8946 22.2652 17 22 17H19V19H21C21.2652 19 21.5196 19.1054 21.7071 19.2929C21.8946 19.4804 22 19.7348 22 20C22 20.2652 21.8946 20.5196 21.7071 20.7071C21.5196 20.8946 21.2652 21 21 21H19V23C19 23.2652 18.8946 23.5196 18.7071 23.7071C18.5196 23.8946 18.2652 24 18 24C17.7348 24 17.4804 23.8946 17.2929 23.7071C17.1054 23.5196 17 23.2652 17 23V16C17 15.7348 17.1054 15.4804 17.2929 15.2929C17.4804 15.1054 17.7348 15 18 15H22C22.2652 15 22.5196 15.1054 22.7071 15.2929C22.8946 15.4804 23 15.7348 23 16ZM3 15H1C0.734784 15 0.48043 15.1054 0.292893 15.2929C0.105357 15.4804 0 15.7348 0 16V23C0 23.2652 0.105357 23.5196 0.292893 23.7071C0.48043 23.8946 0.734784 24 1 24C1.26522 24 1.51957 23.8946 1.70711 23.7071C1.89464 23.5196 2 23.2652 2 23V22H3C3.92826 22 4.8185 21.6313 5.47487 20.9749C6.13125 20.3185 6.5 19.4283 6.5 18.5C6.5 17.5717 6.13125 16.6815 5.47487 16.0251C4.8185 15.3687 3.92826 15 3 15ZM3 20H2V17H3C3.39782 17 3.77936 17.158 4.06066 17.4393C4.34196 17.7206 4.5 18.1022 4.5 18.5C4.5 18.8978 4.34196 19.2794 4.06066 19.5607C3.77936 19.842 3.39782 20 3 20ZM11 15H9C8.73478 15 8.48043 15.1054 8.29289 15.2929C8.10536 15.4804 8 15.7348 8 16V23C8 23.2652 8.10536 23.5196 8.29289 23.7071C8.48043 23.8946 8.73478 24 9 24H11C12.1935 24 13.3381 23.5259 14.182 22.682C15.0259 21.8381 15.5 20.6935 15.5 19.5C15.5 18.3065 15.0259 17.1619 14.182 16.318C13.3381 15.4741 12.1935 15 11 15ZM11 22H10V17H11C11.663 17 12.2989 17.2634 12.7678 17.7322C13.2366 18.2011 13.5 18.837 13.5 19.5C13.5 20.163 13.2366 20.7989 12.7678 21.2678C12.2989 21.7366 11.663 22 11 22Z" fill="black"/>
</svg>
