<svg width="36" height="36" viewBox="0 0 36 36" fill="none" xmlns="http://www.w3.org/2000/svg">
<g id="polkadot_symbol.svg" filter="url(#filter0_d_1256_15155)">
<rect x="6" y="6" width="24" height="24" rx="12" fill="white"/>
<g id="Group">
<g id="Group_2">
<path id="Vector" d="M17.9996 10.8984C15.0631 10.8984 12.6631 13.2843 12.6631 16.2349C12.6631 16.8278 12.7619 17.4067 12.9454 17.9714C13.0725 18.3526 13.496 18.5643 13.8913 18.4373C14.2725 18.3102 14.4843 17.8867 14.3572 17.4914C14.2019 17.0537 14.1313 16.5878 14.1454 16.122C14.2019 14.1314 15.8113 12.4937 17.8019 12.3949C20.0184 12.282 21.8537 14.0467 21.8537 16.2349C21.8537 18.282 20.2443 19.962 18.2254 20.0749C18.2254 20.0749 17.4772 20.1173 17.1101 20.1737C16.9266 20.202 16.7854 20.2302 16.6866 20.2443C16.6443 20.2584 16.6019 20.2161 16.616 20.1737L16.7431 19.5526L17.4349 16.362C17.5196 15.9667 17.2654 15.5714 16.8701 15.4867C16.4749 15.402 16.0796 15.6561 15.9949 16.0514C15.9949 16.0514 14.329 23.8161 14.3149 23.9008C14.2301 24.2961 14.4843 24.6914 14.8796 24.7761C15.2749 24.8608 15.6701 24.6067 15.7549 24.2114C15.769 24.1267 15.9949 23.0961 15.9949 23.0961C16.1643 22.3055 16.8137 21.7267 17.576 21.6278C17.7454 21.5996 18.409 21.5573 18.409 21.5573C21.1619 21.3455 23.336 19.0443 23.336 16.2349C23.336 13.2843 20.936 10.8984 17.9996 10.8984Z" fill="black"/>
</g>
</g>
<path id="Vector_2" d="M18.3815 23.181C17.9015 23.0822 17.4215 23.3787 17.3226 23.8728C17.2238 24.3528 17.5203 24.8328 18.0144 24.9316C18.4944 25.0305 18.9744 24.734 19.0732 24.2399C19.1721 23.7458 18.8756 23.2799 18.3815 23.181Z" fill="#E6007A"/>
</g>
<defs>
<filter id="filter0_d_1256_15155" x="0.5" y="0.5" width="35" height="35" filterUnits="userSpaceOnUse" color-interpolation-filters="sRGB">
<feFlood flood-opacity="0" result="BackgroundImageFix"/>
<feColorMatrix in="SourceAlpha" type="matrix" values="0 0 0 0 0 0 0 0 0 0 0 0 0 0 0 0 0 0 127 0" result="hardAlpha"/>
<feOffset/>
<feGaussianBlur stdDeviation="2.75"/>
<feComposite in2="hardAlpha" operator="out"/>
<feColorMatrix type="matrix" values="0 0 0 0 0 0 0 0 0 0 0 0 0 0 0 0 0 0 0.11 0"/>
<feBlend mode="normal" in2="BackgroundImageFix" result="effect1_dropShadow_1256_15155"/>
<feBlend mode="normal" in="SourceGraphic" in2="effect1_dropShadow_1256_15155" result="shape"/>
</filter>
</defs>
</svg>
