<svg width="19" height="18" viewBox="0 0 19 18" fill="none" xmlns="http://www.w3.org/2000/svg">
<path d="M5.24912 9.75C5.24906 10.3153 5.06654 10.8654 4.72872 11.3186C4.39089 11.7718 3.9158 12.1038 3.37412 12.2653V17.25C3.37412 17.4489 3.2951 17.6397 3.15445 17.7803C3.01379 17.921 2.82303 18 2.62412 18C2.4252 18 2.23444 17.921 2.09379 17.7803C1.95313 17.6397 1.87412 17.4489 1.87412 17.25V12.2653C1.33259 12.1037 0.857698 11.7715 0.520042 11.3184C0.182387 10.8652 0 10.3151 0 9.75C0 9.18486 0.182387 8.63481 0.520042 8.18163C0.857698 7.72845 1.33259 7.39635 1.87412 7.23469V0.75C1.87412 0.551088 1.95313 0.360322 2.09379 0.21967C2.23444 0.0790178 2.4252 0 2.62412 0C2.82303 0 3.01379 0.0790178 3.15445 0.21967C3.2951 0.360322 3.37412 0.551088 3.37412 0.75V7.23469C3.9158 7.39619 4.39089 7.72823 4.72872 8.18142C5.06654 8.63461 5.24906 9.18475 5.24912 9.75ZM10.1241 2.73469V0.75C10.1241 0.551088 10.0451 0.360322 9.90445 0.21967C9.76379 0.0790178 9.57303 0 9.37412 0C9.1752 0 8.98444 0.0790178 8.84379 0.21967C8.70313 0.360322 8.62412 0.551088 8.62412 0.75V2.73469C8.08259 2.89635 7.6077 3.22845 7.27004 3.68163C6.93239 4.13481 6.75 4.68486 6.75 5.25C6.75 5.81514 6.93239 6.36519 7.27004 6.81837C7.6077 7.27155 8.08259 7.60365 8.62412 7.76531V17.25C8.62412 17.4489 8.70313 17.6397 8.84379 17.7803C8.98444 17.921 9.1752 18 9.37412 18C9.57303 18 9.76379 17.921 9.90445 17.7803C10.0451 17.6397 10.1241 17.4489 10.1241 17.25V7.76531C10.6656 7.60365 11.1405 7.27155 11.4782 6.81837C11.8158 6.36519 11.9982 5.81514 11.9982 5.25C11.9982 4.68486 11.8158 4.13481 11.4782 3.68163C11.1405 3.22845 10.6656 2.89635 10.1241 2.73469ZM16.8741 10.2347V0.75C16.8741 0.551088 16.7951 0.360322 16.6544 0.21967C16.5138 0.0790178 16.323 0 16.1241 0C15.9252 0 15.7344 0.0790178 15.5938 0.21967C15.4531 0.360322 15.3741 0.551088 15.3741 0.75V10.2347C14.8326 10.3963 14.3577 10.7285 14.02 11.1816C13.6824 11.6348 13.5 12.1849 13.5 12.75C13.5 13.3151 13.6824 13.8652 14.02 14.3184C14.3577 14.7715 14.8326 15.1037 15.3741 15.2653V17.25C15.3741 17.4489 15.4531 17.6397 15.5938 17.7803C15.7344 17.921 15.9252 18 16.1241 18C16.323 18 16.5138 17.921 16.6544 17.7803C16.7951 17.6397 16.8741 17.4489 16.8741 17.25V15.2653C17.4156 15.1037 17.8905 14.7715 18.2282 14.3184C18.5658 13.8652 18.7482 13.3151 18.7482 12.75C18.7482 12.1849 18.5658 11.6348 18.2282 11.1816C17.8905 10.7285 17.4156 10.3963 16.8741 10.2347Z" fill="white"/>
</svg>
