<svg width="20" height="18" viewBox="0 0 20 18" fill="none" xmlns="http://www.w3.org/2000/svg">
<path d="M5.87509 9.75C5.87504 10.3153 5.69252 10.8654 5.3547 11.3186C5.01687 11.7718 4.54178 12.1038 4.00009 12.2653V17.25C4.00009 17.4489 3.92107 17.6397 3.78042 17.7803C3.63977 17.921 3.449 18 3.25009 18C3.05118 18 2.86041 17.921 2.71976 17.7803C2.57911 17.6397 2.50009 17.4489 2.50009 17.25V12.2653C1.95857 12.1037 1.48367 11.7715 1.14602 11.3184C0.808363 10.8652 0.625977 10.3151 0.625977 9.75C0.625977 9.18486 0.808363 8.63481 1.14602 8.18163C1.48367 7.72845 1.95857 7.39635 2.50009 7.23469V0.75C2.50009 0.551088 2.57911 0.360322 2.71976 0.21967C2.86041 0.0790178 3.05118 0 3.25009 0C3.449 0 3.63977 0.0790178 3.78042 0.21967C3.92107 0.360322 4.00009 0.551088 4.00009 0.75V7.23469C4.54178 7.39619 5.01687 7.72823 5.3547 8.18142C5.69252 8.63461 5.87504 9.18475 5.87509 9.75ZM10.7501 2.73469V0.75C10.7501 0.551088 10.6711 0.360322 10.5304 0.21967C10.3898 0.0790178 10.199 0 10.0001 0C9.80118 0 9.61041 0.0790178 9.46976 0.21967C9.32911 0.360322 9.25009 0.551088 9.25009 0.75V2.73469C8.70857 2.89635 8.23367 3.22845 7.89602 3.68163C7.55836 4.13481 7.37598 4.68486 7.37598 5.25C7.37598 5.81514 7.55836 6.36519 7.89602 6.81837C8.23367 7.27155 8.70857 7.60365 9.25009 7.76531V17.25C9.25009 17.4489 9.32911 17.6397 9.46976 17.7803C9.61041 17.921 9.80118 18 10.0001 18C10.199 18 10.3898 17.921 10.5304 17.7803C10.6711 17.6397 10.7501 17.4489 10.7501 17.25V7.76531C11.2916 7.60365 11.7665 7.27155 12.1042 6.81837C12.4418 6.36519 12.6242 5.81514 12.6242 5.25C12.6242 4.68486 12.4418 4.13481 12.1042 3.68163C11.7665 3.22845 11.2916 2.89635 10.7501 2.73469ZM17.5001 10.2347V0.75C17.5001 0.551088 17.4211 0.360322 17.2804 0.21967C17.1398 0.0790178 16.949 0 16.7501 0C16.5512 0 16.3604 0.0790178 16.2198 0.21967C16.0791 0.360322 16.0001 0.551088 16.0001 0.75V10.2347C15.4586 10.3963 14.9837 10.7285 14.646 11.1816C14.3084 11.6348 14.126 12.1849 14.126 12.75C14.126 13.3151 14.3084 13.8652 14.646 14.3184C14.9837 14.7715 15.4586 15.1037 16.0001 15.2653V17.25C16.0001 17.4489 16.0791 17.6397 16.2198 17.7803C16.3604 17.921 16.5512 18 16.7501 18C16.949 18 17.1398 17.921 17.2804 17.7803C17.4211 17.6397 17.5001 17.4489 17.5001 17.25V15.2653C18.0416 15.1037 18.5165 14.7715 18.8542 14.3184C19.1918 13.8652 19.3742 13.3151 19.3742 12.75C19.3742 12.1849 19.1918 11.6348 18.8542 11.1816C18.5165 10.7285 18.0416 10.3963 17.5001 10.2347Z" fill="#858597"/>
</svg>
