<svg width="22" height="22" viewBox="0 0 22 22" fill="none" xmlns="http://www.w3.org/2000/svg">
<path d="M20.7963 19.2039L16.3441 14.7499C17.679 13.0103 18.3023 10.8281 18.0874 8.64594C17.8725 6.46377 16.8356 4.44503 15.1871 2.99924C13.5385 1.55344 11.4018 0.788858 9.21021 0.860583C7.01865 0.932307 4.93644 1.83497 3.38595 3.38546C1.83546 4.93595 0.932796 7.01817 0.861071 9.20972C0.789347 11.4013 1.55393 13.538 2.99972 15.1866C4.44552 16.8352 6.46426 17.872 8.64643 18.0869C10.8286 18.3018 13.0108 17.6785 14.7504 16.3436L19.2063 20.8005C19.3109 20.9051 19.4352 20.9882 19.5719 21.0448C19.7086 21.1014 19.8552 21.1306 20.0032 21.1306C20.1512 21.1306 20.2977 21.1014 20.4344 21.0448C20.5712 20.9882 20.6954 20.9051 20.8 20.8005C20.9047 20.6958 20.9877 20.5716 21.0443 20.4349C21.101 20.2982 21.1301 20.1516 21.1301 20.0036C21.1301 19.8556 21.101 19.7091 21.0443 19.5724C20.9877 19.4356 20.9047 19.3114 20.8 19.2067L20.7963 19.2039ZM3.12536 9.49987C3.12536 8.23902 3.49925 7.00647 4.19974 5.95811C4.90024 4.90975 5.89587 4.09265 7.06075 3.61014C8.22563 3.12763 9.50743 3.00138 10.7441 3.24737C11.9807 3.49335 13.1166 4.10051 14.0082 4.99207C14.8997 5.88363 15.5069 7.01954 15.7529 8.25617C15.9988 9.4928 15.8726 10.7746 15.3901 11.9395C14.9076 13.1044 14.0905 14.1 13.0421 14.8005C11.9938 15.501 10.7612 15.8749 9.50036 15.8749C7.81014 15.8731 6.18964 15.2009 4.99447 14.0058C3.7993 12.8106 3.1271 11.1901 3.12536 9.49987Z" fill="#858586"/>
</svg>
