<svg width="22" height="22" viewBox="0 0 22 22" fill="none" xmlns="http://www.w3.org/2000/svg">
<path d="M20.1744 8.63937C19.8209 8.27 19.4553 7.88938 19.3175 7.55469C19.19 7.24813 19.1825 6.74 19.175 6.24781C19.1609 5.33281 19.1459 4.29594 18.425 3.575C17.7041 2.85406 16.6672 2.83906 15.7522 2.825C15.26 2.8175 14.7519 2.81 14.4453 2.6825C14.1116 2.54469 13.73 2.17906 13.3606 1.82562C12.7137 1.20406 11.9788 0.5 11 0.5C10.0212 0.5 9.28719 1.20406 8.63937 1.82562C8.27 2.17906 7.88938 2.54469 7.55469 2.6825C7.25 2.81 6.74 2.8175 6.24781 2.825C5.33281 2.83906 4.29594 2.85406 3.575 3.575C2.85406 4.29594 2.84375 5.33281 2.825 6.24781C2.8175 6.74 2.81 7.24813 2.6825 7.55469C2.54469 7.88844 2.17906 8.27 1.82562 8.63937C1.20406 9.28625 0.5 10.0212 0.5 11C0.5 11.9788 1.20406 12.7128 1.82562 13.3606C2.17906 13.73 2.54469 14.1106 2.6825 14.4453C2.81 14.7519 2.8175 15.26 2.825 15.7522C2.83906 16.6672 2.85406 17.7041 3.575 18.425C4.29594 19.1459 5.33281 19.1609 6.24781 19.175C6.74 19.1825 7.24813 19.19 7.55469 19.3175C7.88844 19.4553 8.27 19.8209 8.63937 20.1744C9.28625 20.7959 10.0212 21.5 11 21.5C11.9788 21.5 12.7128 20.7959 13.3606 20.1744C13.73 19.8209 14.1106 19.4553 14.4453 19.3175C14.7519 19.19 15.26 19.1825 15.7522 19.175C16.6672 19.1609 17.7041 19.1459 18.425 18.425C19.1459 17.7041 19.1609 16.6672 19.175 15.7522C19.1825 15.26 19.19 14.7519 19.3175 14.4453C19.4553 14.1116 19.8209 13.73 20.1744 13.3606C20.7959 12.7137 21.5 11.9788 21.5 11C21.5 10.0212 20.7959 9.28719 20.1744 8.63937ZM15.2806 9.28063L10.0306 14.5306C9.96097 14.6004 9.87825 14.6557 9.7872 14.6934C9.69616 14.7312 9.59856 14.7506 9.5 14.7506C9.40144 14.7506 9.30384 14.7312 9.2128 14.6934C9.12175 14.6557 9.03903 14.6004 8.96937 14.5306L6.71937 12.2806C6.57864 12.1399 6.49958 11.949 6.49958 11.75C6.49958 11.551 6.57864 11.3601 6.71937 11.2194C6.86011 11.0786 7.05098 10.9996 7.25 10.9996C7.44902 10.9996 7.63989 11.0786 7.78063 11.2194L9.5 12.9397L14.2194 8.21937C14.2891 8.14969 14.3718 8.09442 14.4628 8.0567C14.5539 8.01899 14.6515 7.99958 14.75 7.99958C14.8485 7.99958 14.9461 8.01899 15.0372 8.0567C15.1282 8.09442 15.2109 8.14969 15.2806 8.21937C15.3503 8.28906 15.4056 8.37178 15.4433 8.46283C15.481 8.55387 15.5004 8.65145 15.5004 8.75C15.5004 8.84855 15.481 8.94613 15.4433 9.03717C15.4056 9.12822 15.3503 9.21094 15.2806 9.28063Z" fill="#858597"/>
</svg>
