<svg width="20" height="16" viewBox="0 0 20 16" fill="none" xmlns="http://www.w3.org/2000/svg">
<path d="M17.6923 0H2.30769C1.69565 0 1.10868 0.252856 0.675907 0.702944C0.243131 1.15303 0 1.76348 0 2.4V13.6C0 14.2365 0.243131 14.847 0.675907 15.2971C1.10868 15.7471 1.69565 16 2.30769 16H17.6923C18.3043 16 18.8913 15.7471 19.3241 15.2971C19.7569 14.847 20 14.2365 20 13.6V2.4C20 1.76348 19.7569 1.15303 19.3241 0.702944C18.8913 0.252856 18.3043 0 17.6923 0ZM12.2615 7.681C12.1538 8.22141 11.8702 8.70667 11.4586 9.05506C11.0471 9.40345 10.5326 9.59366 10.0019 9.59366C9.47125 9.59366 8.95679 9.40345 8.5452 9.05506C8.13362 8.70667 7.85007 8.22141 7.74231 7.681C7.67147 7.31891 7.48232 6.99349 7.20696 6.75998C6.9316 6.52647 6.58702 6.39928 6.23173 6.4H1.53846V4.8H18.4615V6.4H13.7683C13.4136 6.4002 13.07 6.52782 12.7954 6.76125C12.5208 6.99468 12.3322 7.31959 12.2615 7.681ZM2.30769 1.6H17.6923C17.8963 1.6 18.092 1.68429 18.2362 1.83431C18.3805 1.98434 18.4615 2.18783 18.4615 2.4V3.2H1.53846V2.4C1.53846 2.18783 1.61951 1.98434 1.76376 1.83431C1.90802 1.68429 2.10368 1.6 2.30769 1.6Z" fill="#858597"/>
</svg>
