<svg width="19" height="19" viewBox="0 0 19 19" fill="none" xmlns="http://www.w3.org/2000/svg">
<circle cx="9.5" cy="9.5" r="9.5" fill="#7071E8"/>
<path d="M9.4996 15.6471C12.8945 15.6471 15.6467 12.895 15.6467 9.50009C15.6467 6.10516 12.8945 3.35303 9.4996 3.35303C6.10467 3.35303 3.35254 6.10516 3.35254 9.50009C3.35254 12.895 6.10467 15.6471 9.4996 15.6471Z" fill="#7071E8"/>
<path d="M7.04077 11.3442V12.5736Z" fill="#7071E8"/>
<path d="M9.4996 8.88538V12.5736Z" fill="#7071E8"/>
<path d="M11.9584 6.42656V12.5736Z" fill="#7071E8"/>
<path d="M7.04077 11.3442V12.5736M9.4996 8.88538V12.5736M11.9584 6.42656V12.5736M15.6467 9.50009C15.6467 12.895 12.8945 15.6471 9.4996 15.6471C6.10467 15.6471 3.35254 12.895 3.35254 9.50009C3.35254 6.10516 6.10467 3.35303 9.4996 3.35303C12.8945 3.35303 15.6467 6.10516 15.6467 9.50009Z" stroke="black" stroke-width="1.5" stroke-linecap="round" stroke-linejoin="round"/>
</svg>
