<?xml version="1.0" standalone="no"?>
<!DOCTYPE svg PUBLIC "-//W3C//DTD SVG 20010904//EN"
 "http://www.w3.org/TR/2001/REC-SVG-20010904/DTD/svg10.dtd">
<svg version="1.0" xmlns="http://www.w3.org/2000/svg"
 width="1280.000000pt" height="886.000000pt" viewBox="0 0 1280.000000 886.000000"
 preserveAspectRatio="xMidYMid meet">
<metadata>
Created by potrace 1.15, written by Peter Selinger 2001-2017
</metadata>
<g transform="translate(0.000000,886.000000) scale(0.100000,-0.100000)"
fill="#2a113f" stroke="none">
<path d="M6383 8603 l-150 -258 -299 -3 -299 -3 -150 -259 -150 -260 -294 -2
-293 -3 -150 -257 -150 -258 -187 1 c-102 1 -230 4 -284 8 l-98 6 -143 250
-143 250 -299 3 -299 3 -148 260 -149 259 -306 0 -307 0 -150 -260 -150 -259
-299 -3 -300 -3 -153 -263 -153 -263 153 -267 153 -267 299 -3 300 -3 120
-211 c66 -116 131 -231 144 -254 l24 -43 -138 -238 c-76 -131 -144 -245 -152
-253 -12 -13 -55 -14 -296 -11 l-282 3 -151 -259 -150 -258 -299 -5 -299 -5
-153 -260 c-84 -143 -151 -265 -150 -271 1 -6 69 -129 152 -273 l150 -261 297
0 296 0 141 -246 c78 -136 141 -250 141 -254 0 -5 -64 -118 -141 -251 -78
-133 -144 -249 -146 -258 -2 -9 63 -133 145 -276 l150 -260 298 -5 299 -5 146
-254 146 -255 -85 -145 c-46 -80 -113 -196 -149 -258 l-65 -111 153 -266 153
-266 297 0 296 0 149 -260 148 -260 311 0 310 0 140 242 c77 133 147 250 155
261 15 18 27 18 295 10 l279 -8 145 -253 144 -252 297 0 297 0 149 -260 148
-260 307 0 307 0 152 260 152 260 296 0 297 0 150 260 150 259 281 1 281 0
149 -260 148 -260 297 0 298 0 148 -260 148 -260 309 2 310 3 150 258 150 257
297 0 296 0 151 260 c84 143 152 266 151 272 0 7 -67 128 -148 268 l-147 255
-115 6 c-63 4 -198 7 -300 8 l-186 1 -147 257 c-108 188 -145 261 -139 274 4
9 69 120 143 248 l135 231 297 0 296 0 152 260 152 260 295 2 296 3 150 259
151 259 294 -4 295 -4 149 255 c82 140 152 260 154 266 3 7 -63 132 -147 278
l-152 266 -296 0 -296 0 -150 260 -150 260 -310 0 -310 -1 -150 -259 -150
-260 -166 0 c-91 0 -220 3 -287 7 l-121 6 -148 258 -148 259 -297 0 -296 0
-142 247 -141 248 18 31 c10 17 74 128 143 247 l125 216 310 1 310 0 153 265
153 264 -151 264 -152 265 -306 7 c-278 7 -307 6 -318 -9 -6 -9 -74 -125 -150
-256 l-139 -240 -299 2 -299 3 -143 250 c-79 138 -144 252 -144 255 0 3 67
120 148 260 l149 254 -152 265 -152 266 -299 3 -299 2 -148 260 -148 260 -308
0 -308 0 -150 -257z m886 -19 c77 -135 141 -251 141 -256 0 -10 -257 -457
-283 -491 -11 -15 -38 -16 -296 -9 l-285 7 -142 247 -141 247 145 251 145 250
287 0 287 0 142 -246z m-4689 -284 l105 0 112 -198 c62 -108 126 -220 142
-247 l29 -50 -147 -250 -146 -250 -281 -3 c-258 -2 -282 -1 -296 15 -30 35
-279 483 -276 497 2 7 66 122 143 256 l140 242 185 -6 c102 -3 232 -6 290 -6z
m3797 -243 l143 -249 -144 -246 -143 -247 -287 0 -287 0 -145 251 -144 250
143 247 142 246 290 -2 290 -2 142 -248z m1784 6 c78 -137 142 -252 142 -258
0 -5 -65 -121 -144 -257 l-143 -247 -286 6 c-244 5 -287 8 -298 21 -7 9 -71
119 -143 245 -117 203 -130 231 -121 252 13 29 261 455 275 473 7 9 78 12 292
12 l283 0 143 -247z m-6234 -523 c78 -135 140 -251 137 -259 -3 -8 -66 -122
-142 -252 l-137 -238 -290 -1 -290 0 -144 250 -143 250 77 132 c43 73 109 186
147 251 l69 117 287 -2 287 -3 142 -245z m1786 0 c121 -212 137 -245 128 -264
-7 -12 -74 -127 -149 -256 l-138 -235 -277 -2 -277 -2 -24 37 c-35 54 -266
460 -266 468 0 5 58 106 238 413 l55 94 285 -5 286 -5 139 -243z m1774 -6
l144 -251 -143 -246 -143 -247 -290 3 -289 2 -143 249 -142 250 18 30 c18 29
130 221 230 394 l42 72 286 -2 286 -3 144 -251z m1778 10 c77 -135 140 -251
140 -259 0 -7 -63 -122 -140 -254 l-140 -241 -287 0 -286 0 -142 247 c-83 145
-139 255 -137 265 3 9 67 123 142 253 l137 235 287 0 286 0 140 -246z m-4455
-510 c74 -130 139 -245 144 -255 7 -14 -23 -73 -134 -264 l-143 -245 -291 0
-292 0 -138 243 c-77 133 -139 247 -139 252 0 6 64 122 144 258 l144 247 285
0 285 0 135 -236z m1787 -14 l142 -249 -145 -251 -146 -250 -282 0 -281 0
-143 250 -143 249 92 158 c50 87 116 200 146 251 l54 92 282 0 282 -1 142
-249z m1781 -6 l143 -252 -143 -246 -143 -246 -289 3 -289 2 -139 243 c-76
134 -138 249 -136 257 2 7 66 121 143 254 l140 241 285 -2 284 -3 144 -251z
m1559 247 l93 -6 140 -244 140 -243 -147 -254 -148 -254 -215 1 c-118 1 -248
4 -287 8 l-73 6 -141 245 c-121 211 -139 247 -130 267 12 27 260 453 274 471
10 13 318 16 494 3z m2033 -262 l143 -250 -19 -33 c-10 -18 -75 -130 -144
-249 l-125 -216 -290 -1 -291 0 -143 251 c-110 192 -141 255 -135 268 5 10 70
122 144 250 l135 231 291 0 292 0 142 -251z m-6655 -259 l253 0 141 -248 c77
-136 141 -252 141 -256 0 -5 -64 -119 -141 -253 l-141 -243 -286 2 -286 3
-144 252 -144 252 92 158 c224 382 199 346 232 339 17 -3 144 -6 283 -6z
m2173 -241 l143 -251 -61 -107 c-34 -58 -99 -170 -144 -248 l-81 -142 -285 -1
-285 0 -142 250 c-79 137 -143 255 -143 261 0 5 32 64 70 130 39 65 102 173
140 239 l71 120 287 0 287 0 143 -251z m1782 1 c111 -195 141 -255 134 -269
-5 -10 -70 -122 -144 -250 l-135 -231 -285 0 -286 0 -143 250 c-78 138 -141
254 -139 259 2 5 66 117 143 250 l140 241 286 0 287 0 142 -250z m1777 15 c73
-126 137 -240 144 -251 10 -19 -6 -51 -132 -268 l-144 -246 -291 0 -292 0
-141 248 -141 249 146 251 147 252 286 -2 286 -3 132 -230z m-6227 -535 c88
-155 140 -256 136 -266 -9 -23 -267 -467 -280 -481 -9 -10 -77 -11 -291 -6
l-280 6 -120 210 c-66 116 -131 229 -144 253 l-23 42 143 246 144 246 286 0
287 0 142 -250z m1531 240 l107 0 141 -246 c78 -135 139 -249 138 -252 -2 -4
-68 -118 -147 -255 l-143 -247 -280 2 -279 3 -144 249 c-78 138 -141 252 -140
255 43 76 265 454 279 475 l21 29 170 -6 c94 -4 219 -7 277 -7z m2028 -241
c133 -232 142 -253 132 -277 -7 -14 -71 -126 -142 -249 l-131 -223 -288 0
-288 0 -142 250 c-78 137 -140 253 -138 258 1 5 66 118 143 250 l140 242 285
0 285 0 144 -251z m1771 19 c74 -128 138 -240 143 -249 7 -11 -27 -77 -136
-265 l-145 -249 -283 -3 -284 -2 -140 246 c-77 135 -140 251 -140 257 0 7 63
121 140 254 l140 242 286 1 286 0 133 -232z m-4455 -510 c70 -123 135 -237
146 -253 l18 -30 -143 -245 -142 -245 -289 0 -289 0 -143 249 -143 249 136
236 c76 130 142 242 147 249 7 9 78 12 292 12 l283 0 127 -222z m1795 -28
l143 -250 -63 -108 c-34 -59 -99 -171 -144 -249 l-81 -142 -285 0 -285 0 -139
244 c-76 134 -139 247 -140 250 0 3 64 118 144 256 l145 249 281 0 282 0 142
-250z m1773 10 c75 -132 138 -243 139 -248 2 -5 -62 -122 -142 -260 l-145
-251 -280 -1 -280 0 -144 249 -143 250 93 158 c50 87 116 200 146 251 l54 92
282 0 283 0 137 -240z m1787 -6 c78 -135 139 -251 137 -257 -3 -7 -68 -120
-145 -252 l-140 -240 -287 0 -287 0 -139 240 c-77 132 -138 247 -137 256 2 9
66 125 143 257 l140 242 286 0 287 0 142 -246z m-7147 41 c60 -104 124 -217
142 -250 l34 -60 -143 -245 -142 -245 -286 -3 -286 -2 -123 212 c-67 117 -132
231 -145 253 l-23 40 122 210 c67 116 132 227 144 248 l23 37 287 -2 287 -3
109 -190z m6113 -318 c14 -18 277 -485 277 -492 0 -12 -270 -474 -288 -494
-11 -11 -62 -12 -289 -6 l-275 8 -141 244 -140 244 126 217 c69 119 137 234
151 256 l25 39 277 -8 c152 -4 277 -8 277 -8z m1786 -6 c18 -17 279 -484 276
-495 -2 -7 -66 -121 -143 -254 l-140 -242 -289 3 -289 2 -143 250 -143 250 19
30 c10 16 73 125 140 240 67 116 126 215 131 221 9 11 568 7 581 -5z m-9000 3
l105 -7 138 -241 c76 -133 138 -245 138 -251 0 -5 -65 -122 -144 -258 l-144
-248 -283 2 -283 1 -24 37 c-12 20 -78 132 -145 250 -107 187 -121 217 -111
237 12 28 260 454 274 472 11 13 292 17 479 6z m3672 -31 c14 -21 81 -136 149
-256 l124 -218 -145 -249 -146 -250 -85 0 c-47 0 -177 3 -287 7 l-202 6 -141
248 -142 249 92 157 c50 87 116 200 146 251 l54 92 279 0 280 0 24 -37z m1905
-209 c78 -136 141 -251 141 -256 0 -5 -64 -120 -142 -254 l-142 -244 -286 2
-285 3 -132 230 c-73 127 -137 240 -144 251 -10 19 6 51 132 268 l144 246 287
0 286 0 141 -246z m5350 -4 l142 -250 -144 -248 -144 -247 -289 -2 -289 -3
-143 250 c-127 224 -141 253 -131 273 23 42 262 452 272 465 7 9 79 12 296 12
l287 0 143 -250z m-8906 -3 c75 -133 137 -247 137 -252 0 -6 -65 -120 -144
-255 l-143 -245 -281 -3 -280 -2 -141 246 c-78 135 -141 251 -141 257 0 6 64
120 141 254 l142 243 286 0 286 -1 138 -242z m6223 -513 l145 -252 -148 -252
-147 -253 -65 7 c-36 3 -164 6 -283 6 l-216 0 -143 248 c-78 136 -142 252
-142 257 0 6 45 87 100 180 54 94 118 203 142 243 l42 72 285 -2 285 -3 145
-251z m-7375 239 l126 -6 138 -240 c76 -132 138 -245 138 -251 0 -13 -269
-475 -286 -493 -9 -9 -82 -10 -294 -6 l-283 6 -140 244 c-78 135 -140 248
-138 252 2 4 68 118 147 254 l144 247 161 0 c89 0 218 -3 287 -7z m2036 -233
c75 -129 138 -243 140 -252 3 -10 -53 -117 -138 -263 l-143 -245 -286 0 -285
1 -139 244 c-87 154 -136 251 -132 261 5 14 238 418 272 472 l15 22 280 -2
280 -3 136 -235z m1782 -10 l143 -251 -149 -255 -148 -256 -74 6 c-41 3 -167
6 -280 6 l-206 0 -140 246 c-77 136 -139 251 -137 257 2 5 67 120 145 253
l142 244 280 0 281 0 143 -250z m1759 30 c68 -118 133 -232 144 -252 l21 -36
-143 -246 -142 -246 -287 0 -287 0 -143 250 c-78 138 -141 254 -139 259 2 5
66 117 143 250 l140 241 284 -2 285 -3 124 -215z m3583 -25 c76 -132 139 -246
139 -253 0 -7 -64 -122 -142 -257 l-143 -245 -285 0 -285 0 -135 236 c-74 130
-139 245 -144 255 -7 14 23 73 134 264 l143 245 290 -2 289 -3 139 -240z
m1787 -2 c78 -137 142 -252 142 -256 0 -5 -64 -118 -142 -253 l-143 -244 -290
0 -290 1 -142 249 -141 250 145 250 146 250 287 0 286 0 142 -247z m-6239
-518 c78 -134 141 -248 141 -252 0 -4 -65 -118 -143 -253 l-143 -245 -281 -3
-281 -2 -141 245 c-78 134 -141 249 -141 255 0 11 64 124 220 390 l68 115 280
-3 281 -3 140 -244z m-3557 -9 l145 -253 -143 -244 -142 -244 -288 -2 -289 -3
-142 249 -143 249 147 251 146 251 282 0 282 0 145 -254z m1752 54 c62 -107
126 -220 143 -250 l32 -55 -143 -245 -142 -245 -289 0 -289 0 -143 249 c-124
217 -141 251 -131 270 22 42 261 451 271 464 7 9 74 12 295 10 l285 -3 111
-195z m3583 -50 l142 -250 -146 -250 -145 -250 -282 0 -281 0 -143 251 -143
251 77 131 c42 73 108 185 146 250 l69 117 282 0 282 -1 142 -249z m1783 3
c77 -136 139 -252 138 -258 -2 -7 -66 -121 -143 -253 l-140 -242 -286 0 -286
0 -145 253 -144 253 113 195 c63 107 127 218 143 247 l30 52 289 0 289 0 142
-247z m1787 -7 l142 -249 -143 -246 -144 -246 -288 -2 -289 -3 -140 246 c-77
135 -140 250 -140 257 0 7 63 121 140 254 l140 243 289 -3 290 -2 143 -249z
m-4595 -275 c13 -12 278 -481 278 -492 0 -6 -64 -121 -142 -255 l-142 -244
-282 0 -282 0 -147 256 -146 255 137 237 c76 130 141 242 145 248 9 11 568 7
581 -5z m1905 -216 c73 -126 137 -239 143 -250 9 -18 -10 -56 -136 -274 l-147
-253 -280 4 -279 3 -143 250 c-127 220 -142 251 -132 270 7 12 73 126 147 254
l135 233 280 -4 280 -3 132 -230z m-7105 -23 c76 -134 138 -249 136 -256 -2
-7 -66 -122 -143 -254 l-140 -242 -289 3 -289 2 -143 250 c-128 223 -142 252
-130 270 7 11 72 122 145 248 l133 227 290 -2 291 -3 139 -243z m1763 26 c70
-123 135 -237 145 -253 l19 -30 -143 -245 -143 -245 -289 -2 -289 -3 -142 250
-143 249 146 250 146 251 283 0 283 0 127 -222z m1580 216 l80 -7 143 -250
142 -250 -143 -246 -143 -246 -200 -3 c-109 -1 -239 1 -289 5 l-89 8 -142 247
-141 247 146 250 145 251 206 0 c113 0 241 -3 285 -6z m5536 -206 c67 -117
132 -231 144 -253 l23 -40 -145 -247 -144 -248 -288 0 -287 0 -143 250 c-78
138 -141 254 -139 259 2 5 66 117 143 250 l140 241 287 0 286 0 123 -212z
m-873 -553 c124 -215 142 -252 133 -272 -17 -38 -263 -457 -276 -472 -10 -11
-63 -12 -292 -6 l-279 8 -135 235 c-73 129 -138 242 -142 252 -7 13 27 78 135
264 l143 246 285 -3 285 -2 143 -250z m-7111 -10 c129 -225 141 -251 129 -270
-7 -11 -72 -122 -145 -247 l-133 -228 -288 0 -288 0 -141 246 c-78 136 -141
250 -141 255 0 5 64 120 143 254 l142 245 289 -3 290 -2 143 -250z m1781 4
l143 -251 -144 -246 -144 -247 -285 -3 -286 -2 -142 247 c-83 145 -139 255
-137 265 3 9 67 123 142 253 l137 235 287 0 286 -1 143 -250z m1771 5 c78
-136 141 -251 141 -258 0 -6 -64 -120 -143 -254 l-142 -243 -280 1 c-154 0
-283 4 -287 8 -3 4 -68 114 -143 245 -82 143 -134 244 -131 254 6 13 239 418
272 471 14 22 15 22 293 22 l279 0 141 -246z m1783 -9 l146 -255 -142 -243
-142 -242 -289 0 -289 0 -143 249 c-78 137 -141 252 -139 255 5 9 139 239 216
371 l71 120 282 0 283 0 146 -255z m-4444 -521 l143 -252 -143 -246 -143 -246
-289 3 -289 2 -143 248 -142 249 27 46 c15 26 80 138 145 250 l118 202 286 -2
286 -3 144 -251z m1780 6 l142 -251 -144 -247 -144 -247 -284 -3 -285 -2 -139
242 c-76 133 -140 248 -142 255 -2 8 60 124 139 258 l142 245 286 0 286 0 143
-250z m1777 3 c77 -136 139 -251 137 -257 -2 -6 -67 -120 -145 -253 l-141
-243 -282 0 -282 0 -142 247 c-77 136 -138 253 -135 261 5 13 240 420 271 470
14 22 15 22 297 22 l282 -1 140 -246z m1778 -8 l145 -254 -142 -243 -141 -243
-289 0 -288 0 -139 240 c-76 132 -138 246 -139 253 0 8 64 124 142 258 l142
244 282 0 281 0 146 -255z m-6226 -515 l143 -250 -146 -250 -146 -250 -287 0
-287 0 -143 251 c-110 192 -141 255 -135 268 5 10 70 122 144 250 l135 231
290 0 290 0 142 -250z m1779 -1 l141 -245 -146 -252 -146 -252 -284 3 -284 2
-139 243 c-76 134 -138 249 -136 256 2 7 66 121 143 254 l140 242 285 -3 285
-2 141 -246z m1781 -3 l142 -249 -24 -41 c-13 -23 -78 -133 -143 -246 l-120
-205 -288 0 -288 0 -142 248 -142 248 146 250 145 249 286 -2 285 -3 143 -249z
m1778 8 c77 -136 139 -251 137 -257 -2 -5 -67 -119 -144 -253 l-142 -244 -282
0 -282 0 -133 233 c-73 127 -139 241 -146 252 -11 19 0 43 118 245 72 124 137
235 145 248 14 22 15 22 302 22 l287 0 140 -246z m1786 1 c76 -132 138 -245
138 -250 1 -6 -63 -121 -142 -255 l-142 -245 -289 0 -289 0 -138 240 c-76 132
-138 246 -138 253 -1 7 63 123 141 258 l142 244 289 -2 290 -3 138 -240z
m-897 -518 c77 -133 139 -247 139 -252 0 -6 -64 -122 -143 -258 l-144 -247
-285 0 -286 0 -143 250 c-128 225 -142 252 -131 272 31 59 263 455 275 468 11
13 54 15 296 12 l283 -3 139 -242z m-5335 -8 l144 -251 -19 -33 c-10 -17 -75
-129 -144 -248 l-125 -216 -290 0 -290 -1 -143 250 -143 249 92 158 c50 87
116 200 146 251 l54 92 287 0 287 0 144 -251z m1776 5 c77 -135 140 -248 139
-251 0 -3 -65 -117 -145 -254 l-144 -249 -281 1 c-252 0 -283 2 -296 17 -15
18 -266 454 -270 471 -2 5 62 122 142 260 l145 251 285 0 285 0 140 -246z
m1780 -2 c77 -135 140 -251 140 -258 0 -6 -63 -120 -140 -253 l-140 -241 -289
2 -289 3 -142 249 -143 249 62 106 c34 58 100 170 145 249 l83 142 286 -1 287
0 140 -247z m3571 -5 l141 -248 -145 -249 -145 -250 -288 0 -287 0 -141 246
c-78 136 -141 251 -141 256 0 5 64 120 142 254 l142 244 290 -2 290 -3 142
-248z m-4726 -263 l126 -7 142 -247 142 -248 -146 -251 -146 -251 -171 1 c-95
1 -226 4 -291 8 l-120 6 -138 240 c-75 132 -138 243 -138 248 0 4 66 120 146
257 l146 250 161 0 c89 0 218 -3 287 -6z m3525 -4 l161 0 143 -250 143 -250
-145 -248 -144 -247 -286 -3 -287 -2 -23 37 c-63 99 -267 465 -264 471 2 4 69
119 148 256 l144 249 125 -7 c69 -3 197 -6 285 -6z"/>
</g>
</svg>
