<svg width="160" height="160" fill="none" xmlns="http://www.w3.org/2000/svg"><path d="M80 4c57.63 0 76 18.37 76 76 0 57.63-18.37 76-76 76-57.63 0-76-18.37-76-76C4 22.37 22.37 4 80 4Z" fill="url(#a)"/><g clip-path="url(#b)"><path d="M112.615 66.72V53.398L58.76 32 48 37.412l.057 41.464 40.292 16.07-21.52 9.075v-7.018L56.95 93.03l-8.893 4.163v25.395L58.769 128l53.846-24.062V86.869L64.154 67.657V56l38.449 15.216 10.012-4.496Z" fill="#fff"/></g><defs><linearGradient id="a" x1="80" y1="4" x2="80" y2="156" gradientUnits="userSpaceOnUse"><stop stop-color="#004BFF"/><stop offset="1" stop-color="#4CEAAC"/></linearGradient><clipPath id="b"><path fill="#fff" transform="translate(48 32)" d="M0 0h64.615v96H0z"/></clipPath></defs></svg>