<svg width="20" height="20" viewBox="0 0 20 20" fill="none" xmlns="http://www.w3.org/2000/svg">
<rect width="20" height="20" rx="4" fill="#E8E9E8"/>
<path d="M5.26 7.98V9.34H6.86V9.96H5.26V11.38H7.06V12H4.5V7.36H7.06V7.98H5.26ZM9.52276 12.0467C9.21165 12.0467 8.93165 11.9933 8.68276 11.8867C8.43387 11.7756 8.23832 11.62 8.09609 11.42C7.95387 11.22 7.88276 10.9867 7.88276 10.72H8.69609C8.71387 10.92 8.79165 11.0844 8.92943 11.2133C9.07165 11.3422 9.26943 11.4067 9.52276 11.4067C9.78498 11.4067 9.98943 11.3444 10.1361 11.22C10.2828 11.0911 10.3561 10.9267 10.3561 10.7267C10.3561 10.5711 10.3094 10.4444 10.2161 10.3467C10.1272 10.2489 10.0139 10.1733 9.87609 10.12C9.74276 10.0667 9.55609 10.0089 9.31609 9.94667C9.01387 9.86667 8.7672 9.78667 8.57609 9.70667C8.38943 9.62222 8.22943 9.49333 8.09609 9.32C7.96276 9.14667 7.89609 8.91556 7.89609 8.62667C7.89609 8.36 7.96276 8.12667 8.09609 7.92667C8.22943 7.72667 8.41609 7.57333 8.65609 7.46667C8.89609 7.36 9.17387 7.30667 9.48943 7.30667C9.93832 7.30667 10.305 7.42 10.5894 7.64667C10.8783 7.86889 11.0383 8.17556 11.0694 8.56667H10.2294C10.2161 8.39778 10.1361 8.25333 9.98943 8.13333C9.84276 8.01333 9.64943 7.95333 9.40943 7.95333C9.19165 7.95333 9.01387 8.00889 8.87609 8.12C8.73832 8.23111 8.66943 8.39111 8.66943 8.6C8.66943 8.74222 8.71165 8.86 8.79609 8.95333C8.88498 9.04222 8.99609 9.11333 9.12943 9.16667C9.26276 9.22 9.44498 9.27778 9.67609 9.34C9.98276 9.42444 10.2316 9.50889 10.4228 9.59333C10.6183 9.67778 10.7828 9.80889 10.9161 9.98667C11.0539 10.16 11.1228 10.3933 11.1228 10.6867C11.1228 10.9222 11.0583 11.1444 10.9294 11.3533C10.805 11.5622 10.6205 11.7311 10.3761 11.86C10.1361 11.9844 9.85165 12.0467 9.52276 12.0467ZM11.7662 9.67333C11.7662 9.22 11.8706 8.81333 12.0795 8.45333C12.2929 8.09333 12.5795 7.81333 12.9395 7.61333C13.304 7.40889 13.7018 7.30667 14.1329 7.30667C14.6262 7.30667 15.064 7.42889 15.4462 7.67333C15.8329 7.91333 16.1129 8.25556 16.2862 8.7H15.3729C15.2529 8.45556 15.0862 8.27333 14.8729 8.15333C14.6595 8.03333 14.4129 7.97333 14.1329 7.97333C13.8262 7.97333 13.5529 8.04222 13.3129 8.18C13.0729 8.31778 12.884 8.51556 12.7462 8.77333C12.6129 9.03111 12.5462 9.33111 12.5462 9.67333C12.5462 10.0156 12.6129 10.3156 12.7462 10.5733C12.884 10.8311 13.0729 11.0311 13.3129 11.1733C13.5529 11.3111 13.8262 11.38 14.1329 11.38C14.4129 11.38 14.6595 11.32 14.8729 11.2C15.0862 11.08 15.2529 10.8978 15.3729 10.6533H16.2862C16.1129 11.0978 15.8329 11.44 15.4462 11.68C15.064 11.92 14.6262 12.04 14.1329 12.04C13.6973 12.04 13.2995 11.94 12.9395 11.74C12.5795 11.5356 12.2929 11.2533 12.0795 10.8933C11.8706 10.5333 11.7662 10.1267 11.7662 9.67333Z" fill="#4F5150"/>
</svg>
