<svg width="40" height="40" viewBox="0 0 40 40" fill="none" xmlns="http://www.w3.org/2000/svg">
<path d="M23.9805 11.4902C23.7207 11.4979 23.4741 11.6065 23.293 11.7929L15.793 19.2929C15.6055 19.4805 15.5002 19.7348 15.5002 19.9999C15.5002 20.2651 15.6055 20.5194 15.793 20.707L23.293 28.207C23.3851 28.303 23.4955 28.3796 23.6176 28.4324C23.7397 28.4851 23.8712 28.513 24.0042 28.5144C24.1372 28.5157 24.2692 28.4905 24.3924 28.4402C24.5156 28.39 24.6275 28.3156 24.7216 28.2215C24.8156 28.1274 24.89 28.0155 24.9403 27.8924C24.9906 27.7692 25.0158 27.6372 25.0144 27.5042C25.0131 27.3711 24.9852 27.2397 24.9324 27.1176C24.8796 26.9954 24.803 26.8851 24.707 26.7929L17.9141 19.9999L24.707 13.207C24.8515 13.0665 24.9502 12.8857 24.9902 12.6882C25.0301 12.4906 25.0095 12.2857 24.931 12.1001C24.8524 11.9145 24.7196 11.7569 24.55 11.6481C24.3804 11.5393 24.1819 11.4842 23.9805 11.4902Z" fill="white" fill-opacity="0.5"/>
</svg>
