<svg width="24" height="24" viewBox="0 0 24 24" fill="none" xmlns="http://www.w3.org/2000/svg">
<path d="M20.9806 1.99018C20.7208 1.99792 20.4742 2.1065 20.2931 2.29292L14.0001 8.58588V3.99995C14.0019 3.86624 13.9769 3.73353 13.9266 3.60965C13.8762 3.48578 13.8015 3.37326 13.7069 3.27875C13.6123 3.18424 13.4997 3.10966 13.3758 3.05943C13.2519 3.00919 13.1191 2.98432 12.9854 2.98627C12.7204 2.99016 12.4677 3.09911 12.283 3.28918C12.0982 3.47925 11.9965 3.7349 12.0001 3.99995V10.9999C12.0001 11.2652 12.1055 11.5195 12.293 11.707C12.4805 11.8946 12.7349 11.9999 13.0001 11.9999H20.0001C20.1326 12.0018 20.2642 11.9773 20.3871 11.9279C20.5101 11.8785 20.622 11.8052 20.7164 11.7121C20.8108 11.6191 20.8857 11.5082 20.9368 11.3859C20.988 11.2637 21.0143 11.1325 21.0143 10.9999C21.0143 10.8674 20.988 10.7362 20.9368 10.614C20.8857 10.4917 20.8108 10.3808 20.7164 10.2878C20.622 10.1947 20.5101 10.1214 20.3871 10.072C20.2642 10.0226 20.1326 9.99807 20.0001 9.99995H15.4141L21.7071 3.70698C21.8516 3.56652 21.9503 3.38567 21.9903 3.18815C22.0302 2.99063 22.0096 2.78565 21.9311 2.60007C21.8525 2.41448 21.7197 2.25695 21.5501 2.14812C21.3805 2.03929 21.182 1.98424 20.9806 1.99018ZM3.50008 12.4999C3.36757 12.4981 3.23601 12.5226 3.11304 12.572C2.99007 12.6214 2.87815 12.6947 2.78378 12.7878C2.68941 12.8808 2.61448 12.9917 2.56333 13.114C2.51218 13.2362 2.48584 13.3674 2.48584 13.4999C2.48584 13.6325 2.51218 13.7637 2.56333 13.8859C2.61448 14.0082 2.68941 14.1191 2.78378 14.2121C2.87815 14.3052 2.99007 14.3785 3.11304 14.4279C3.23601 14.4773 3.36757 14.5018 3.50008 14.4999H8.08602L2.29305 20.2929C2.19708 20.3851 2.12046 20.4954 2.06767 20.6176C2.01489 20.7397 1.987 20.8711 1.98565 21.0042C1.98429 21.1372 2.0095 21.2692 2.05979 21.3924C2.11008 21.5155 2.18444 21.6274 2.27852 21.7215C2.3726 21.8156 2.4845 21.89 2.60768 21.9402C2.73086 21.9905 2.86283 22.0157 2.99587 22.0144C3.12891 22.013 3.26034 21.9851 3.38247 21.9324C3.5046 21.8796 3.61497 21.803 3.70711 21.707L9.50008 15.914V20.4999C9.49821 20.6325 9.52269 20.764 9.57211 20.887C9.62152 21.01 9.69488 21.1219 9.78792 21.2162C9.88097 21.3106 9.99184 21.3856 10.1141 21.4367C10.2364 21.4879 10.3676 21.5142 10.5001 21.5142C10.6326 21.5142 10.7638 21.4879 10.8861 21.4367C11.0083 21.3856 11.1192 21.3106 11.2122 21.2162C11.3053 21.1219 11.3787 21.01 11.4281 20.887C11.4775 20.764 11.502 20.6325 11.5001 20.4999V13.4999C11.5001 13.2347 11.3947 12.9804 11.2072 12.7929C11.0196 12.6053 10.7653 12.5 10.5001 12.4999H3.50008Z" fill="white" fill-opacity="0.5"/>
</svg>
