<svg width="24" height="24" viewBox="0 0 24 24" fill="none" xmlns="http://www.w3.org/2000/svg">
<path d="M3.5455 19.7825C3.5555 19.816 3.563 19.85 3.5765 19.8825C3.5905 19.917 3.61 19.948 3.628 19.9805C3.6415 20.005 3.6525 20.031 3.6685 20.0545C3.742 20.1645 3.836 20.2585 3.946 20.332C3.97 20.348 3.9955 20.3585 4.02 20.3725C4.0525 20.3905 4.0835 20.41 4.118 20.424C4.1505 20.4375 4.1845 20.445 4.218 20.455C4.247 20.4635 4.2745 20.4745 4.3045 20.4805C4.369 20.493 4.4345 20.5 4.5 20.5H11.5C12.052 20.5 12.5 20.052 12.5 19.5C12.5 18.948 12.052 18.5 11.5 18.5H6.914L18.5 6.914V11.5C18.5 12.052 18.948 12.5 19.5 12.5C20.052 12.5 20.5 12.052 20.5 11.5V4.5C20.5 4.4345 20.493 4.369 20.4805 4.304C20.4745 4.274 20.4635 4.2465 20.455 4.2175C20.445 4.184 20.4375 4.15 20.424 4.1175C20.41 4.083 20.3905 4.052 20.3725 4.0195C20.359 3.995 20.348 3.969 20.332 3.9455C20.2585 3.8355 20.1645 3.7415 20.0545 3.668C20.031 3.652 20.005 3.6415 19.9805 3.6275C19.948 3.6095 19.917 3.59 19.8825 3.576C19.85 3.5625 19.816 3.555 19.7825 3.545C19.7535 3.5365 19.726 3.5255 19.696 3.5195C19.631 3.507 19.5655 3.5 19.5 3.5H12.5C11.948 3.5 11.5 3.948 11.5 4.5C11.5 5.052 11.948 5.5 12.5 5.5H17.086L5.5 17.086V12.5C5.5 11.948 5.052 11.5 4.5 11.5C3.948 11.5 3.5 11.948 3.5 12.5V19.5C3.5 19.5655 3.507 19.631 3.5195 19.696C3.5255 19.726 3.537 19.7535 3.5455 19.7825Z" fill="white" fill-opacity="0.5"/>
</svg>
