<svg width="20" height="18" viewBox="0 0 20 18" fill="none" xmlns="http://www.w3.org/2000/svg">
<path d="M1.4265 17.4963C1.451 17.4988 1.476 17.4998 1.5005 17.4998C1.8545 17.4998 2.1645 17.2503 2.2355 16.8968C3.2845 11.6488 8.754 11.2753 11.25 11.3913V15.2498C11.25 15.5528 11.4325 15.8263 11.713 15.9428C11.993 16.0583 12.3155 15.9948 12.5305 15.7803L19.5305 8.78032C19.8235 8.48782 19.8235 8.01232 19.5305 7.71982L12.5305 0.719817C12.316 0.505317 11.9935 0.440817 11.713 0.557317C11.4325 0.672817 11.25 0.946317 11.25 1.24982V5.09732C8.4335 5.46532 0.75 7.33332 0.75 16.7498C0.75 17.1353 1.0425 17.4583 1.4265 17.4963Z" fill="white"/>
</svg>
