<svg width="8" height="8" viewBox="0 0 8 8" fill="none" xmlns="http://www.w3.org/2000/svg">
<path d="M5.83039 1.82822C5.74231 1.8303 5.65863 1.86716 5.59764 1.93076L3.99999 3.52841L2.40233 1.93076C2.37123 1.89879 2.33403 1.87338 2.29293 1.85605C2.25183 1.83871 2.20768 1.8298 2.16307 1.82985C2.09679 1.82993 2.03204 1.84977 1.97708 1.88683C1.92213 1.92389 1.87947 1.9765 1.85456 2.03792C1.82965 2.09934 1.82361 2.1668 1.83722 2.23167C1.85084 2.29654 1.88348 2.35588 1.93098 2.40211L3.52863 3.99977L1.93098 5.59743C1.89899 5.62814 1.87345 5.66493 1.85585 5.70564C1.83826 5.74635 1.82896 5.79016 1.82851 5.83451C1.82806 5.87886 1.83646 5.92285 1.85322 5.96391C1.86999 6.00496 1.89477 6.04227 1.92613 6.07363C1.95749 6.10499 1.99479 6.12977 2.03585 6.14654C2.07691 6.1633 2.1209 6.1717 2.16525 6.17125C2.2096 6.1708 2.25341 6.1615 2.29412 6.14391C2.33483 6.12631 2.37162 6.10077 2.40233 6.06878L3.99999 4.47112L5.59764 6.06878C5.62836 6.10077 5.66515 6.12631 5.70586 6.14391C5.74657 6.1615 5.79038 6.1708 5.83473 6.17125C5.87907 6.1717 5.92306 6.1633 5.96412 6.14654C6.00518 6.12977 6.04249 6.10499 6.07384 6.07363C6.1052 6.04227 6.12999 6.00497 6.14675 5.96391C6.16352 5.92285 6.17192 5.87886 6.17147 5.83451C6.17102 5.79016 6.16172 5.74635 6.14413 5.70564C6.12653 5.66493 6.10099 5.62814 6.069 5.59743L4.47134 3.99977L6.069 2.40211C6.1175 2.3556 6.15082 2.29552 6.16458 2.22974C6.17833 2.16396 6.17189 2.09556 6.14609 2.03351C6.12029 1.97146 6.07634 1.91865 6.02001 1.88202C5.96367 1.84538 5.89757 1.82663 5.83039 1.82822Z" fill="white" fill-opacity="0.5"/>
</svg>
