<svg width="783" height="234" viewBox="0 0 783 234" fill="none" xmlns="http://www.w3.org/2000/svg">
<path d="M162.961 0.633667V47.8014H209.686V0.633667H239.884V116.276H209.686V71.8802H162.961V116.276H132.723V0.633667H162.961Z" fill="#0A2436"/>
<path d="M346.293 95.8403H296.239L288.313 116.276H257.282L306.979 0.633667H338.01L386.557 116.276H354.377L346.293 95.8403ZM337.376 72.7119L321.523 31.4847L305.433 72.7119H337.376Z" fill="#0A2436"/>
<path d="M471.882 116.276L455.039 84.2761H432.251V116.276H402.013V0.633667H454.048C484.762 0.633667 502.239 15.4849 502.239 41.2272C502.239 58.6923 494.987 71.5634 481.591 78.494L505.727 116.276H471.882ZM432.251 60.1972H454.207C466.413 60.1972 473.507 53.9003 473.507 42.2173C473.507 30.5342 466.413 24.7126 454.207 24.7126H432.251V60.1972Z" fill="#0A2436"/>
<path d="M560.655 0.633667V116.276H530.456V0.633667H560.655Z" fill="#0A2436"/>
<path d="M680.656 0.633667V25.5442H645.98V116.276H615.781V25.5442H581.461V0.633667H680.656Z" fill="#0A2436"/>
<path d="M740.419 79.3257V116.276H710.181V80.1573L667.578 0.633667H697.777L725.161 50.2964L751.912 0.633667H782.15L740.419 79.3257Z" fill="#0A2436"/>
<path d="M93.4094 79.6821C91.8026 83.1635 89.2999 86.1564 86.157 88.3552C75.9015 96.4668 61.3694 96.3183 51.282 87.9988C39.9873 79.6425 39.1154 76.7118 32.0612 73.7019C25.0069 70.6921 18.4679 69.4248 14.9804 64.9892C11.4929 60.5536 14.3859 59.2467 18.4679 60.6724C22.5498 62.0982 21.0439 61.5437 27.8207 63.9991C34.5975 66.4545 37.7284 67.9594 38.838 66.4941C39.9477 65.0288 38.1247 60.9496 30.9119 55.6032C25.7687 52.2597 21.1706 48.1457 17.279 43.4053C14.3463 39.445 14.9408 36.8708 17.279 36.6332C19.6172 36.3955 21.7572 37.3064 27.9 43.0489C32.1572 47.1421 37.0742 50.4893 42.4444 52.9498C43.7522 53.1874 45.8526 52.4745 39.1551 44.7518C32.4575 37.0292 26.9885 30.8511 25.4032 29.2273C23.818 27.6036 21.4402 22.5739 24.0954 20.9502C26.7507 19.3264 28.6926 19.9601 39.5514 31.4451C50.4102 42.9301 52.471 45.1875 53.7392 44.237C55.0074 43.2865 53.7392 38.4153 46.8038 29.5045C39.8685 20.5938 37.8076 14.8909 40.4629 13.6632C43.1181 12.4355 43.3163 10.5741 51.8765 21.5839C60.4368 32.5936 72.1278 48.7518 76.7646 46.534C79.4991 45.2271 79.9747 46.534 78.1913 37.6628C76.4079 28.7917 78.5083 26.0194 80.252 24.0789C81.9958 22.1383 84.9681 23.0492 86.8307 28.7125C87.6233 31.1679 89.0501 35.8411 90.5164 41.0291L108.628 19.8017C96.2948 7.27329 79.4887 0.150917 61.9031 0C26.5525 0 0 25.069 0 58.415C0 92.3948 25.9184 117.82 60.7538 117.82C78.9645 117.284 96.2269 109.584 108.786 96.3947L93.4094 79.6821Z" fill="#0A2436"/>
<path d="M210.32 138.572V148.632H156.779V180.552H204.732V190.492H156.779V223.601H212.262V233.66H145.92V138.612L210.32 138.572Z" fill="#0A2436"/>
<path d="M245.987 138.572L278.722 221.383L311.616 138.572H323.029L284.152 233.621H272.897L234.296 138.572H245.987Z" fill="#0A2436"/>
<path d="M416.399 138.572V148.632H362.779V180.552H410.772V190.492H362.779V223.601H418.262V233.66H351.92V138.612L416.399 138.572Z" fill="#0A2436"/>
<path d="M465.264 138.572L522.332 215.839V138.572H533.072V233.621H521.896L464.828 156.513V233.621H453.969V138.572H465.264Z" fill="#0A2436"/>
<path d="M635.636 138.572V148.632H604.526V233.621H593.667V148.632H562.676V138.572H635.636Z" fill="#0A2436"/>
</svg>
