<svg width="1668" height="1242" viewBox="0 0 1668 1242" fill="none" xmlns="http://www.w3.org/2000/svg">
<g id="Charity">
<g id="shutterstock_1229457115-[Omgezet]">
<path id="Rectangle" opacity="0.1" d="M4079.68 -473.408H-378.987V2868.3H4079.68V-473.408Z" fill="#FFB8AC"/>
<g id="Group" style="mix-blend-mode:multiply" opacity="0.09">
<g id="Rectangle_2" style="mix-blend-mode:multiply" opacity="0.09">
<path d="M1685.1 -65.9429H31.378C0.597315 -65.9429 -24.3553 -41.0073 -24.3553 -10.2478V2343.15C-24.3553 2373.91 0.597315 2398.84 31.378 2398.84H1685.1C1715.88 2398.84 1740.83 2373.91 1740.83 2343.15V-10.2478C1740.83 -41.0073 1715.88 -65.9429 1685.1 -65.9429Z" fill="#F1F1F1"/>
</g>
</g>
<g id="Group_2" style="mix-blend-mode:multiply" opacity="0.18">
<g id="Rectangle_3" style="mix-blend-mode:multiply" opacity="0.18">
<path d="M1676.4 -63.0468H35.3907C4.61001 -63.0468 -20.3427 -38.1112 -20.3427 -7.35168V2331.34C-20.3427 2362.1 4.61001 2387.04 35.3907 2387.04H1676.4C1707.18 2387.04 1732.14 2362.1 1732.14 2331.34V-7.35168C1732.14 -38.1112 1707.18 -63.0468 1676.4 -63.0468Z" fill="#E3E3E3"/>
</g>
</g>
<g id="Group_3" style="mix-blend-mode:multiply" opacity="0.27">
<g id="Rectangle_4" style="mix-blend-mode:multiply" opacity="0.27">
<path d="M1667.65 -60.1506H39.3478C8.56716 -60.1506 -16.3855 -35.2151 -16.3855 -4.45557V2319.59C-16.3855 2350.35 8.56716 2375.28 39.3478 2375.28H1667.65C1698.43 2375.28 1723.39 2350.35 1723.39 2319.59V-4.45557C1723.39 -35.2151 1698.43 -60.1506 1667.65 -60.1506Z" fill="#D5D5D5"/>
</g>
</g>
<g id="Group_4" style="mix-blend-mode:multiply" opacity="0.36">
<g id="Rectangle_5" style="mix-blend-mode:multiply" opacity="0.36">
<path d="M1658.9 -57.2545H43.3049C12.5242 -57.2545 -12.4285 -32.319 -12.4285 -1.55944V2307.78C-12.4285 2338.54 12.5242 2363.48 43.3049 2363.48H1658.9C1689.68 2363.48 1714.64 2338.54 1714.64 2307.78V-1.55944C1714.64 -32.319 1689.68 -57.2545 1658.9 -57.2545Z" fill="#C7C7C7"/>
</g>
</g>
<g id="Group_5" style="mix-blend-mode:multiply" opacity="0.45">
<g id="Rectangle_6" style="mix-blend-mode:multiply" opacity="0.45">
<path d="M1650.21 -54.3027H47.3177C16.537 -54.3027 -8.41565 -29.3672 -8.41565 1.39234V2296.03C-8.41565 2326.79 16.537 2351.72 47.3177 2351.72H1650.21C1680.99 2351.72 1705.94 2326.79 1705.94 2296.03V1.39234C1705.94 -29.3672 1680.99 -54.3027 1650.21 -54.3027Z" fill="#B9B9B9"/>
</g>
</g>
<g id="Group_6" style="mix-blend-mode:multiply" opacity="0.55">
<g id="Rectangle_7" style="mix-blend-mode:multiply" opacity="0.55">
<path d="M1641.46 -51.4065H51.2747C20.494 -51.4065 -4.45862 -26.471 -4.45862 4.28858V2284.22C-4.45862 2314.98 20.494 2339.92 51.2747 2339.92H1641.46C1672.24 2339.92 1697.19 2314.98 1697.19 2284.22V4.28858C1697.19 -26.471 1672.24 -51.4065 1641.46 -51.4065Z" fill="#ACACAC"/>
</g>
</g>
<g id="Group_7" style="mix-blend-mode:multiply" opacity="0.64">
<g id="Rectangle_8" style="mix-blend-mode:multiply" opacity="0.64">
<path d="M1632.76 -48.5105H55.2875C24.5069 -48.5105 -0.445801 -23.575 -0.445801 7.18457V2272.47C-0.445801 2303.23 24.5069 2328.17 55.2875 2328.17H1632.76C1663.54 2328.17 1688.5 2303.23 1688.5 2272.47V7.18457C1688.5 -23.575 1663.54 -48.5105 1632.76 -48.5105Z" fill="#9E9E9E"/>
</g>
</g>
<g id="Group_8" style="mix-blend-mode:multiply" opacity="0.73">
<g id="Rectangle_9" style="mix-blend-mode:multiply" opacity="0.73">
<path d="M1624.07 -45.5586H59.2446C28.4639 -45.5586 3.51123 -20.6231 3.51123 10.1365V2260.72C3.51123 2291.48 28.4639 2316.41 59.2446 2316.41H1624.07C1654.85 2316.41 1679.8 2291.48 1679.8 2260.72V10.1365C1679.8 -20.6231 1654.85 -45.5586 1624.07 -45.5586Z" fill="#909090"/>
</g>
</g>
<g id="Group_9" style="mix-blend-mode:multiply" opacity="0.82">
<g id="Rectangle_10" style="mix-blend-mode:multiply" opacity="0.82">
<path d="M1615.37 -42.6625H63.2574C32.4767 -42.6625 7.52405 -17.7269 7.52405 13.0326V2248.91C7.52405 2279.67 32.4767 2304.61 63.2574 2304.61H1615.37C1646.16 2304.61 1671.11 2279.67 1671.11 2248.91V13.0326C1671.11 -17.7269 1646.16 -42.6625 1615.37 -42.6625Z" fill="#828282"/>
</g>
</g>
<g id="Group_10" style="mix-blend-mode:multiply" opacity="0.91">
<g id="Rectangle_11" style="mix-blend-mode:multiply" opacity="0.91">
<path d="M1606.62 -39.7664H67.2145C36.4339 -39.7664 11.4812 -14.8308 11.4812 15.9287V2237.16C11.4812 2267.92 36.4339 2292.85 67.2145 2292.85H1606.62C1637.41 2292.85 1662.36 2267.92 1662.36 2237.16V15.9287C1662.36 -14.8308 1637.41 -39.7664 1606.62 -39.7664Z" fill="#747474"/>
</g>
</g>
<path id="Rectangle_12" d="M1597.87 -36.8145H71.1716C40.3909 -36.8145 15.4382 -11.8789 15.4382 18.8806V2225.41C15.4382 2256.17 40.3909 2281.1 71.1716 2281.1H1597.87C1628.66 2281.1 1653.61 2256.17 1653.61 2225.41V18.8806C1653.61 -11.8789 1628.66 -36.8145 1597.87 -36.8145Z" fill="#666666"/>
<path id="Rectangle_13" d="M1671.61 -64.4392H-4.06848V2306.61H1671.61V-64.4392Z" fill="url(#paint0_radial_15_6)"/>
<path id="Rectangle_14" style="mix-blend-mode:multiply" opacity="0.51" d="M1671.61 -64.4392H-4.06848V2306.61H1671.61V-64.4392Z" fill="url(#paint1_linear_15_6)"/>
<path id="Rectangle_15" style="mix-blend-mode:overlay" opacity="0.35" d="M1671.68 -292H-4V2079.05H1671.68V-292Z" fill="url(#paint2_linear_15_6)"/>
</g>
</g>
<defs>
<radialGradient id="paint0_radial_15_6" cx="0" cy="0" r="1" gradientUnits="userSpaceOnUse" gradientTransform="translate(883.206 298.679) scale(2500.59 2498.87)">
<stop stop-color="white"/>
<stop offset="0.57" stop-color="#FFC1C1"/>
<stop offset="1" stop-color="#FF9696"/>
</radialGradient>
<linearGradient id="paint1_linear_15_6" x1="833.826" y1="-64.4392" x2="833.826" y2="2306.61" gradientUnits="userSpaceOnUse">
<stop stop-color="#FFBABA"/>
<stop offset="0.03" stop-color="#F9B5B7"/>
<stop offset="0.7" stop-color="#8D4E7B"/>
<stop offset="1" stop-color="#622563"/>
</linearGradient>
<linearGradient id="paint2_linear_15_6" x1="833.839" y1="2079.05" x2="833.839" y2="-292" gradientUnits="userSpaceOnUse">
<stop stop-color="#FFBABA"/>
<stop offset="0.01" stop-color="#FFBCBC"/>
<stop offset="0.27" stop-color="#FFD9D9"/>
<stop offset="0.52" stop-color="#FFEEEE"/>
<stop offset="0.77" stop-color="#FFFBFB"/>
<stop offset="1" stop-color="white"/>
</linearGradient>
</defs>
</svg>
