<svg xmlns="http://www.w3.org/2000/svg" width="400" height="332" viewBox="0 0 328 332" fill="none">
<rect width="328" height="332"/>
<circle cx="165" cy="169" r="150" fill="#7CD1E3"/>
<path d="M144.113 107.359C134.666 109.68 128.121 118.013 128.093 127.766C128.065 138.994 134.666 148.966 147.756 157.516C152.548 160.631 162.981 165.575 164.789 165.575C166.596 165.575 177.112 160.575 181.904 157.434C186.259 154.593 188.751 152.545 192.063 149.129C198.445 142.517 201.483 135.606 201.483 127.738C201.455 117.903 195.047 109.817 185.327 107.359C183.355 106.866 182.507 106.786 179.576 106.922C177.303 107.031 175.605 107.25 174.482 107.605C171.798 108.452 168.513 110.31 166.595 112.086L164.788 113.726L162.953 112.06C160.735 110.038 156.545 107.908 153.642 107.279C151.043 106.703 146.579 106.731 144.113 107.359Z" fill="#F06129"/>
<path d="M210.914 122.183C211.981 120.814 212.857 120.13 214.281 119.637C217.511 118.487 221.59 120.239 223.149 123.442C223.449 124.099 224.572 127.659 225.639 131.329C229.199 143.707 229.992 147.487 229.992 151.786C229.992 156.687 229.336 159.207 226.489 165.366C220.521 178.319 219.399 181.276 218.632 186.096C218.03 189.684 217.511 190.697 216.224 190.697L195.476 190.123C194.983 189.629 194.929 189.328 195.038 188.26C195.12 187.576 195.34 185.659 195.503 184.043C195.777 181.743 195.777 179.964 195.531 176.239C195.066 168.928 195.12 166.052 195.777 164.191C196.544 162.027 199.117 157.619 202.565 152.634C206.178 147.404 207.492 146.007 209.408 145.35L210.832 144.83L210.695 143.323C210.614 142.503 210.312 138.313 209.984 134.04C209.354 125.223 209.464 124.101 210.914 122.183Z" fill="#1F2937"/>
<path d="M118.379 122.183C117.312 120.814 116.436 120.13 115.013 119.637C111.783 118.487 107.704 120.239 106.145 123.442C105.844 124.099 104.721 127.659 103.654 131.329C100.095 143.707 99.3012 147.487 99.3012 151.786C99.3012 156.687 99.9577 159.207 102.805 165.366C108.772 178.319 109.894 181.276 110.661 186.096C111.263 189.684 111.783 190.697 113.069 190.697L133.817 190.123C134.31 189.629 134.365 189.328 134.256 188.26C134.173 187.576 133.954 185.659 133.79 184.043C133.517 181.743 133.517 179.964 133.763 176.239C134.228 168.928 134.173 166.052 133.517 164.191C132.75 162.027 130.177 157.619 126.729 152.634C123.115 147.404 121.802 146.007 119.885 145.35L118.462 144.83L118.599 143.323C118.68 142.503 118.981 138.313 119.31 134.04C119.94 125.223 119.829 124.101 118.379 122.183Z" fill="#1F2937"/>
<path d="M89.4167 234.232C89.1394 234.467 88.7767 234.659 88.3287 234.808C87.9021 234.936 87.4007 235 86.8247 235C86.0567 235 85.4167 234.904 84.9047 234.712C84.4141 234.52 84.0941 234.189 83.9447 233.72C83.3474 231.843 82.8567 230.328 82.4727 229.176C82.0887 228.003 81.7901 226.979 81.5767 226.104H81.4167C81.3527 227.363 81.2994 228.515 81.2567 229.56C81.2354 230.584 81.2141 231.587 81.1927 232.568C81.1927 233.549 81.1714 234.541 81.1287 235.544C81.1074 236.547 81.0647 237.656 81.0007 238.872C80.7234 238.979 80.3607 239.064 79.9127 239.128C79.4647 239.213 79.0167 239.256 78.5687 239.256C77.6301 239.256 76.8941 239.107 76.3607 238.808C75.8487 238.509 75.5927 237.965 75.5927 237.176L76.5207 220.856C76.6914 220.579 77.0647 220.28 77.6407 219.96C78.2167 219.64 79.0274 219.48 80.0727 219.48C81.2034 219.48 82.0887 219.661 82.7287 220.024C83.3687 220.365 83.8381 220.931 84.1367 221.72C84.3287 222.232 84.5314 222.819 84.7448 223.48C84.9794 224.141 85.2034 224.824 85.4167 225.528C85.6514 226.232 85.8754 226.936 86.0887 227.64C86.3021 228.323 86.4941 228.941 86.6648 229.496H86.8247C87.3367 227.704 87.8487 225.976 88.3608 224.312C88.8727 222.627 89.3421 221.219 89.7688 220.088C90.0888 219.917 90.4941 219.779 90.9848 219.672C91.4968 219.544 92.0621 219.48 92.6807 219.48C93.7261 219.48 94.5794 219.64 95.2407 219.96C95.9021 220.259 96.2861 220.696 96.3927 221.272C96.4781 221.699 96.5634 222.36 96.6488 223.256C96.7554 224.131 96.8621 225.123 96.9688 226.232C97.0754 227.341 97.1821 228.515 97.2887 229.752C97.3954 230.989 97.4914 232.184 97.5767 233.336C97.6834 234.467 97.7687 235.512 97.8328 236.472C97.8968 237.411 97.9394 238.136 97.9608 238.648C97.5981 238.861 97.2141 239.011 96.8088 239.096C96.4248 239.203 95.9234 239.256 95.3048 239.256C94.4941 239.256 93.8114 239.117 93.2568 238.84C92.7021 238.563 92.4034 238.019 92.3608 237.208C92.2328 234.883 92.1474 232.792 92.1047 230.936C92.0834 229.08 92.0407 227.523 91.9767 226.264H91.8167C91.6034 227.096 91.2941 228.141 90.8888 229.4C90.4834 230.659 89.9928 232.269 89.4167 234.232ZM103.566 235.032C103.331 234.499 103.075 233.901 102.798 233.24C102.542 232.579 102.265 231.821 101.966 230.968C101.689 230.115 101.39 229.144 101.07 228.056C100.771 226.947 100.451 225.677 100.11 224.248C100.409 223.949 100.803 223.693 101.294 223.48C101.806 223.245 102.361 223.128 102.958 223.128C103.705 223.128 104.323 223.288 104.814 223.608C105.305 223.907 105.667 224.483 105.902 225.336L108.43 234.136H108.558C108.814 233.411 109.059 232.621 109.294 231.768C109.55 230.915 109.795 230.04 110.03 229.144C110.265 228.227 110.478 227.32 110.67 226.424C110.883 225.507 111.065 224.611 111.214 223.736C111.982 223.331 112.825 223.128 113.742 223.128C114.489 223.128 115.107 223.288 115.598 223.608C116.089 223.928 116.334 224.483 116.334 225.272C116.334 225.848 116.259 226.52 116.11 227.288C115.961 228.035 115.758 228.835 115.502 229.688C115.267 230.541 114.979 231.427 114.638 232.344C114.318 233.24 113.977 234.125 113.614 235C113.251 235.875 112.878 236.707 112.494 237.496C112.11 238.264 111.737 238.957 111.374 239.576C110.777 240.621 110.222 241.475 109.71 242.136C109.198 242.797 108.707 243.309 108.238 243.672C107.769 244.056 107.299 244.312 106.83 244.44C106.361 244.589 105.87 244.664 105.358 244.664C104.462 244.664 103.737 244.397 103.182 243.864C102.627 243.331 102.297 242.637 102.19 241.784C102.873 241.251 103.555 240.653 104.238 239.992C104.921 239.352 105.539 238.691 106.094 238.008C105.731 237.901 105.337 237.656 104.91 237.272C104.505 236.867 104.057 236.12 103.566 235.032ZM118.725 229.272C118.725 227.608 118.981 226.136 119.493 224.856C120.026 223.576 120.741 222.509 121.637 221.656C122.554 220.781 123.621 220.12 124.837 219.672C126.074 219.224 127.408 219 128.837 219C130.266 219 131.589 219.224 132.805 219.672C134.042 220.12 135.12 220.781 136.037 221.656C136.954 222.509 137.669 223.576 138.181 224.856C138.714 226.136 138.981 227.608 138.981 229.272C138.981 230.936 138.725 232.419 138.213 233.72C137.701 235 136.986 236.077 136.069 236.952C135.173 237.805 134.106 238.456 132.869 238.904C131.632 239.352 130.288 239.576 128.837 239.576C127.386 239.576 126.042 239.352 124.805 238.904C123.568 238.435 122.501 237.763 121.605 236.888C120.709 236.013 120.005 234.936 119.493 233.656C118.981 232.376 118.725 230.915 118.725 229.272ZM124.485 229.272C124.485 231.213 124.88 232.664 125.669 233.624C126.458 234.584 127.514 235.064 128.837 235.064C130.181 235.064 131.248 234.584 132.037 233.624C132.826 232.664 133.221 231.213 133.221 229.272C133.221 227.352 132.826 225.912 132.037 224.952C131.269 223.992 130.213 223.512 128.869 223.512C127.546 223.512 126.48 223.992 125.669 224.952C124.88 225.891 124.485 227.331 124.485 229.272ZM151.143 238.52C150.844 238.776 150.439 238.979 149.927 239.128C149.415 239.299 148.807 239.384 148.103 239.384C147.228 239.384 146.471 239.256 145.831 239C145.191 238.765 144.764 238.424 144.551 237.976C144.316 237.464 144.039 236.653 143.719 235.544C143.42 234.435 143.122 233.219 142.823 231.896C142.524 230.573 142.236 229.229 141.959 227.864C141.703 226.499 141.5 225.293 141.351 224.248C141.65 223.949 142.044 223.693 142.535 223.48C143.047 223.245 143.602 223.128 144.199 223.128C144.946 223.128 145.554 223.299 146.023 223.64C146.514 223.96 146.812 224.525 146.919 225.336C147.132 226.957 147.314 228.301 147.463 229.368C147.612 230.413 147.73 231.277 147.815 231.96C147.922 232.621 147.996 233.133 148.039 233.496C148.103 233.837 148.156 234.115 148.199 234.328H148.327C148.391 233.987 148.498 233.496 148.647 232.856C148.818 232.195 149.01 231.448 149.223 230.616C149.436 229.784 149.66 228.888 149.895 227.928C150.13 226.947 150.364 225.976 150.599 225.016C151.026 224.781 151.442 224.6 151.847 224.472C152.274 224.344 152.796 224.28 153.415 224.28C154.162 224.28 154.802 224.397 155.335 224.632C155.868 224.867 156.21 225.229 156.359 225.72C156.615 226.659 156.86 227.576 157.095 228.472C157.33 229.347 157.543 230.168 157.735 230.936C157.927 231.683 158.098 232.355 158.247 232.952C158.396 233.528 158.503 233.987 158.567 234.328H158.727C158.962 232.685 159.186 230.979 159.399 229.208C159.634 227.437 159.847 225.635 160.039 223.8C160.423 223.565 160.828 223.395 161.255 223.288C161.682 223.181 162.108 223.128 162.535 223.128C163.282 223.128 163.9 223.288 164.391 223.608C164.882 223.928 165.127 224.483 165.127 225.272C165.127 225.613 165.074 226.125 164.967 226.808C164.86 227.491 164.722 228.259 164.551 229.112C164.38 229.965 164.178 230.861 163.943 231.8C163.73 232.739 163.506 233.645 163.271 234.52C163.058 235.395 162.844 236.184 162.631 236.888C162.439 237.592 162.268 238.136 162.119 238.52C161.82 238.776 161.362 238.979 160.743 239.128C160.124 239.299 159.463 239.384 158.759 239.384C156.967 239.384 155.911 238.936 155.591 238.04C155.463 237.656 155.303 237.176 155.111 236.6C154.919 236.003 154.716 235.352 154.503 234.648C154.29 233.944 154.087 233.219 153.895 232.472C153.703 231.704 153.543 230.968 153.415 230.264C153.266 231.011 153.084 231.789 152.871 232.6C152.658 233.389 152.434 234.168 152.199 234.936C151.986 235.683 151.783 236.376 151.591 237.016C151.399 237.635 151.25 238.136 151.143 238.52ZM177.958 229.144C177.958 228.483 177.766 228.003 177.382 227.704C177.019 227.384 176.518 227.224 175.878 227.224C175.451 227.224 175.024 227.277 174.598 227.384C174.192 227.491 173.84 227.651 173.542 227.864V238.968C173.328 239.032 172.987 239.096 172.518 239.16C172.07 239.224 171.6 239.256 171.11 239.256C170.64 239.256 170.214 239.224 169.83 239.16C169.467 239.096 169.158 238.968 168.902 238.776C168.646 238.584 168.443 238.328 168.294 238.008C168.166 237.667 168.102 237.229 168.102 236.696V227.096C168.102 226.52 168.219 226.051 168.454 225.688C168.71 225.325 169.051 224.995 169.478 224.696C170.203 224.184 171.11 223.768 172.198 223.448C173.307 223.128 174.534 222.968 175.878 222.968C178.288 222.968 180.144 223.501 181.446 224.568C182.747 225.613 183.398 227.075 183.398 228.952V238.968C183.184 239.032 182.843 239.096 182.374 239.16C181.926 239.224 181.456 239.256 180.966 239.256C180.496 239.256 180.07 239.224 179.686 239.16C179.323 239.096 179.014 238.968 178.758 238.776C178.502 238.584 178.299 238.328 178.15 238.008C178.022 237.667 177.958 237.229 177.958 236.696V229.144ZM193.252 234.84C193.486 234.883 193.774 234.925 194.116 234.968C194.457 234.989 194.777 235 195.076 235C195.801 235 196.462 234.893 197.06 234.68C197.678 234.467 198.201 234.136 198.628 233.688C199.076 233.24 199.417 232.664 199.652 231.96C199.908 231.235 200.036 230.371 200.036 229.368C200.036 227.448 199.588 226.008 198.692 225.048C197.796 224.067 196.601 223.576 195.108 223.576C194.809 223.576 194.5 223.587 194.18 223.608C193.881 223.629 193.572 223.661 193.252 223.704V234.84ZM195.044 239.512C194.681 239.512 194.265 239.501 193.796 239.48C193.326 239.459 192.836 239.416 192.324 239.352C191.833 239.288 191.332 239.203 190.82 239.096C190.329 239.011 189.87 238.883 189.444 238.712C188.27 238.264 187.684 237.485 187.684 236.376V221.432C187.684 220.984 187.801 220.643 188.036 220.408C188.292 220.152 188.633 219.949 189.06 219.8C189.977 219.501 190.948 219.309 191.972 219.224C192.996 219.117 193.913 219.064 194.724 219.064C196.388 219.064 197.892 219.267 199.236 219.672C200.601 220.077 201.764 220.707 202.724 221.56C203.705 222.392 204.462 223.448 204.996 224.728C205.529 226.008 205.796 227.523 205.796 229.272C205.796 230.979 205.54 232.472 205.028 233.752C204.516 235.011 203.78 236.077 202.82 236.952C201.881 237.805 200.75 238.445 199.428 238.872C198.105 239.299 196.644 239.512 195.044 239.512ZM215.746 235.544C216.109 235.544 216.504 235.512 216.93 235.448C217.378 235.363 217.709 235.256 217.922 235.128V232.568L215.618 232.76C215.021 232.803 214.53 232.931 214.146 233.144C213.762 233.357 213.57 233.677 213.57 234.104C213.57 234.531 213.73 234.883 214.05 235.16C214.392 235.416 214.957 235.544 215.746 235.544ZM215.49 222.968C216.642 222.968 217.688 223.085 218.626 223.32C219.586 223.555 220.397 223.917 221.058 224.408C221.741 224.877 222.264 225.485 222.626 226.232C222.989 226.957 223.17 227.821 223.17 228.824V235.992C223.17 236.547 223.01 237.005 222.69 237.368C222.392 237.709 222.029 238.008 221.602 238.264C220.216 239.096 218.264 239.512 215.746 239.512C214.616 239.512 213.592 239.405 212.674 239.192C211.778 238.979 211 238.659 210.338 238.232C209.698 237.805 209.197 237.261 208.834 236.6C208.493 235.939 208.322 235.171 208.322 234.296C208.322 232.824 208.76 231.693 209.634 230.904C210.509 230.115 211.864 229.624 213.698 229.432L217.89 228.984V228.76C217.89 228.141 217.613 227.704 217.058 227.448C216.525 227.171 215.746 227.032 214.722 227.032C213.912 227.032 213.122 227.117 212.354 227.288C211.586 227.459 210.893 227.672 210.274 227.928C209.997 227.736 209.762 227.448 209.57 227.064C209.378 226.659 209.282 226.243 209.282 225.816C209.282 225.261 209.41 224.824 209.666 224.504C209.944 224.163 210.36 223.875 210.914 223.64C211.533 223.405 212.258 223.235 213.09 223.128C213.944 223.021 214.744 222.968 215.49 222.968ZM232.446 233.656C232.446 234.211 232.617 234.605 232.958 234.84C233.321 235.075 233.822 235.192 234.462 235.192C234.782 235.192 235.113 235.171 235.454 235.128C235.796 235.064 236.094 234.989 236.35 234.904C236.542 235.139 236.702 235.405 236.83 235.704C236.98 235.981 237.054 236.323 237.054 236.728C237.054 237.539 236.745 238.2 236.126 238.712C235.529 239.224 234.462 239.48 232.926 239.48C231.049 239.48 229.598 239.053 228.574 238.2C227.572 237.347 227.07 235.96 227.07 234.04V220.344C227.305 220.28 227.636 220.216 228.062 220.152C228.51 220.067 228.98 220.024 229.47 220.024C230.409 220.024 231.134 220.195 231.646 220.536C232.18 220.856 232.446 221.549 232.446 222.616V224.664H236.638C236.766 224.899 236.884 225.197 236.99 225.56C237.118 225.901 237.182 226.285 237.182 226.712C237.182 227.459 237.012 228.003 236.67 228.344C236.35 228.664 235.913 228.824 235.358 228.824H232.446V233.656ZM246.985 235.544C247.348 235.544 247.742 235.512 248.169 235.448C248.617 235.363 248.948 235.256 249.161 235.128V232.568L246.857 232.76C246.26 232.803 245.769 232.931 245.385 233.144C245.001 233.357 244.809 233.677 244.809 234.104C244.809 234.531 244.969 234.883 245.289 235.16C245.63 235.416 246.196 235.544 246.985 235.544ZM246.729 222.968C247.881 222.968 248.926 223.085 249.865 223.32C250.825 223.555 251.636 223.917 252.297 224.408C252.98 224.877 253.502 225.485 253.865 226.232C254.228 226.957 254.409 227.821 254.409 228.824V235.992C254.409 236.547 254.249 237.005 253.929 237.368C253.63 237.709 253.268 238.008 252.841 238.264C251.454 239.096 249.502 239.512 246.985 239.512C245.854 239.512 244.83 239.405 243.913 239.192C243.017 238.979 242.238 238.659 241.577 238.232C240.937 237.805 240.436 237.261 240.073 236.6C239.732 235.939 239.561 235.171 239.561 234.296C239.561 232.824 239.998 231.693 240.873 230.904C241.748 230.115 243.102 229.624 244.937 229.432L249.129 228.984V228.76C249.129 228.141 248.852 227.704 248.297 227.448C247.764 227.171 246.985 227.032 245.961 227.032C245.15 227.032 244.361 227.117 243.593 227.288C242.825 227.459 242.132 227.672 241.513 227.928C241.236 227.736 241.001 227.448 240.809 227.064C240.617 226.659 240.521 226.243 240.521 225.816C240.521 225.261 240.649 224.824 240.905 224.504C241.182 224.163 241.598 223.875 242.153 223.64C242.772 223.405 243.497 223.235 244.329 223.128C245.182 223.021 245.982 222.968 246.729 222.968Z" fill="black"/>
</svg>