<svg width="400" height="125" viewBox="0 0 400 125" fill="none" xmlns="http://www.w3.org/2000/svg">
<path fill-rule="evenodd" clip-rule="evenodd" d="M182.83 0.414583C174.929 2.35581 169.456 9.32425 169.433 17.4796C169.41 26.8685 174.929 35.2069 185.875 42.3573C189.883 44.9618 198.607 49.0961 200.119 49.0961C201.63 49.0961 210.424 44.9152 214.431 42.2885C218.073 39.9124 220.156 38.1997 222.926 35.3433C228.262 29.8147 230.803 24.0354 230.803 17.4563C230.78 9.23219 225.421 2.47006 217.293 0.414583C215.644 0.0030429 214.935 -0.0646227 212.484 0.0496323C210.584 0.140593 209.164 0.323621 208.224 0.620906C205.98 1.32862 203.233 2.88271 201.629 4.36802L200.118 5.73908L198.584 4.34584C196.729 2.65531 193.225 0.873822 190.798 0.348027C188.624 -0.133397 184.891 -0.110103 182.83 0.414583ZM238.69 12.8111C239.582 11.6659 240.314 11.0943 241.505 10.6818C244.206 9.71997 247.617 11.1855 248.92 13.8641C249.171 14.4134 250.111 17.3901 251.003 20.459C253.979 30.81 254.643 33.9701 254.643 37.565C254.643 41.6636 254.094 43.7707 251.713 48.9212C246.723 59.7526 245.785 62.2255 245.144 66.2563C244.64 69.2563 244.206 70.1036 243.13 70.1036L225.78 69.6232C225.368 69.2107 225.322 68.9583 225.414 68.0654C225.482 67.4938 225.666 65.8904 225.803 64.5394C226.032 62.6158 226.032 61.128 225.826 58.0135C225.437 51.9001 225.482 49.495 226.032 47.9383C226.673 46.1291 228.825 42.4431 231.708 38.2744C234.73 33.9012 235.828 32.7326 237.43 32.1833L238.621 31.7485L238.506 30.4887C238.465 30.0697 238.355 28.5996 238.212 26.7046L238.212 26.6963C238.121 25.4906 238.018 24.1137 237.912 22.7263C237.385 15.353 237.477 14.4146 238.69 12.8111ZM158.495 10.6818C159.686 11.0943 160.418 11.6659 161.31 12.8111C162.523 14.4146 162.615 15.353 162.088 22.7263C161.982 24.1165 161.878 25.4964 161.788 26.7038C161.646 28.5991 161.535 30.0696 161.494 30.4887L161.379 31.7485L162.57 32.1833C164.172 32.7326 165.27 33.9012 168.292 38.2744C171.176 42.4431 173.327 46.1291 173.969 47.9383C174.518 49.495 174.563 51.9001 174.174 58.0135C173.969 61.128 173.969 62.6158 174.197 64.5394C174.334 65.8904 174.518 67.4938 174.586 68.0654C174.678 68.9583 174.632 69.2107 174.22 69.6232L156.87 70.1036C155.794 70.1036 155.36 69.2563 154.856 66.2563C154.215 62.2255 153.277 59.7526 148.287 48.9212C145.906 43.7707 145.357 41.6636 145.357 37.565C145.357 33.9701 146.021 30.81 148.997 20.459C149.889 17.3901 150.829 14.4134 151.08 13.8641C152.384 11.1855 155.794 9.71997 158.495 10.6818Z" fill="#7CD1E3"/>
<path d="M121.624 85.0035L117.016 103.148L112.912 85.0035H112.588H106.036L101.5 103.148L97.1796 85.0035H88.6116L96.8556 111.104H104.992L109.276 96.3435L113.452 111.104H121.588L130.192 85.0035H121.624ZM146.292 111.104H154.824L145.86 85.0035H137.364L128.76 111.104H137.292L138.624 105.272H144.888L146.292 111.104ZM139.92 99.5115L141.468 92.5995H141.864L143.52 99.5115H139.92ZM170.901 85.0035L166.293 103.148L161.973 85.0035H153.405L162.009 111.104H170.505L179.469 85.0035H170.901ZM202.054 90.7635V85.0035H182.362V111.104H202.054V105.344H189.418V100.916H200.11V95.1555H189.418V90.7635H202.054ZM225.85 85.0035H215.374V111.104H225.85C233.626 111.104 239.242 105.488 239.242 97.9995C239.242 90.5115 233.626 85.0035 225.85 85.0035ZM225.85 105.524H222.43V90.5475H225.85C228.442 90.5475 231.61 92.3475 231.61 97.9995C231.61 103.616 228.442 105.524 225.85 105.524ZM258.757 111.104H267.289L258.325 85.0035H249.829L241.225 111.104H249.757L251.089 105.272H257.353L258.757 111.104ZM252.385 99.5115L253.933 92.5995H254.329L255.985 99.5115H252.385ZM286.754 85.0035H265.874V90.7635H272.786V111.104H279.842V90.7635H286.754V85.0035ZM302.843 111.104H311.375L302.411 85.0035H293.915L285.311 111.104H293.843L295.175 105.272H301.439L302.843 111.104ZM296.471 99.5115L298.019 92.5995H298.415L300.071 99.5115H296.471Z" fill="#7CD1E3"/>
</svg>