<svg width="54" height="54" viewBox="0 0 54 54" fill="none" xmlns="http://www.w3.org/2000/svg">
<rect width="54" height="54" rx="27" fill="url(#paint0_linear_662_5)"/>
<path d="M18.8984 14.1456C19.7675 14.3793 20.6366 14.5351 21.5057 14.7688C22.3748 15.0026 23.2438 15.1584 24.1129 15.3921C24.3499 15.47 24.4289 15.3921 24.508 15.1584C24.824 13.8339 25.14 12.5874 25.456 11.2629C25.535 11.0292 25.614 10.9513 25.8511 11.0292C26.6411 11.2629 27.3522 11.4188 28.1423 11.5746C28.3793 11.6525 28.3793 11.7304 28.3003 11.8862C27.9843 13.1328 27.6682 14.4572 27.3522 15.7037C27.3522 15.7817 27.3522 15.8596 27.2732 16.0154C27.9053 16.1712 28.6163 16.327 29.2484 16.4828C29.3274 16.4828 29.4064 16.327 29.4854 16.2491C29.7224 15.2363 29.9594 14.3014 30.2755 13.2886L30.5125 12.3537C30.5125 12.1978 30.5915 12.1199 30.7495 12.1978C31.5396 12.4316 32.3297 12.5874 33.1987 12.8211C33.2777 12.8211 33.2777 12.899 33.3568 12.899C33.1197 13.9118 32.8827 14.8467 32.6457 15.7817C32.5667 16.1712 32.4877 16.5607 32.3297 16.9503C32.2506 17.184 32.3297 17.2619 32.5667 17.3398L35.1739 18.5085C35.964 18.9759 36.675 19.5992 37.2281 20.3783C37.9392 21.5469 38.0182 22.7934 37.7021 24.04C37.4651 24.897 37.1491 25.6761 36.517 26.2993C36.043 26.7668 35.4109 27.0784 34.7789 27.3121C34.6999 27.3121 34.6209 27.3901 34.4628 27.3901C34.7789 27.6238 35.0949 27.7796 35.4109 28.0133C36.359 28.7145 36.9911 29.5715 37.3071 30.6622C37.4651 31.5192 37.3861 32.4541 37.1491 33.3111C36.8331 34.4018 36.438 35.3368 35.727 36.1937C34.8579 37.2066 33.7518 37.7519 32.4877 37.9077C30.8285 38.1415 29.2484 37.9856 27.6682 37.7519C27.4312 37.674 27.2732 37.7519 27.1942 37.9857C26.8782 39.2322 26.5621 40.5566 26.2461 41.8032C26.1671 42.1148 26.1671 42.1927 25.7721 42.0369C25.061 41.8811 24.2709 41.6474 23.5599 41.4915C23.3228 41.4136 23.3228 41.3357 23.4018 41.1799C23.7179 39.8555 24.0339 38.531 24.4289 37.2845C24.4289 37.1287 24.508 37.0507 24.3499 36.9728C23.7179 36.817 23.0858 36.6612 22.3748 36.5054C22.2167 37.2066 21.9797 37.9077 21.8217 38.6089C21.6637 39.3101 21.4267 40.0113 21.2687 40.7125C21.1897 40.8683 21.1897 40.9462 20.9526 40.8683C20.1626 40.6345 19.3725 40.4787 18.5824 40.3229C18.3454 40.245 18.3454 40.1671 18.4244 40.0113C18.7404 38.6868 19.0565 37.3624 19.4515 36.1158C19.4515 36.0379 19.5305 35.96 19.5305 35.8042C17.7133 35.3368 15.8962 34.8693 14 34.4018C14.158 34.0902 14.237 33.8565 14.395 33.5449C14.7111 32.8437 15.0271 32.1425 15.2641 31.5192C15.3431 31.2855 15.4221 31.2855 15.6592 31.2855C16.2122 31.4413 16.8443 31.5971 17.3973 31.675C18.0294 31.8309 18.5034 31.5192 18.5824 30.9739C19.6095 27.0005 20.6366 23.0272 21.5847 18.9759C21.7427 18.3526 21.3477 17.6515 20.6366 17.4177C19.9255 17.184 19.2145 17.0282 18.5824 16.8724C18.4244 16.8724 18.3454 16.7945 18.4244 16.6386C18.6614 15.7817 18.8984 14.8467 19.1355 13.9897C18.8194 14.2235 18.8194 14.2235 18.8984 14.1456ZM22.9278 33.389C23.0068 33.389 23.0858 33.4669 23.0858 33.4669C24.3499 33.7786 25.6931 34.1681 27.0362 34.246C27.9843 34.3239 28.8533 34.3239 29.7224 34.0123C31.2236 33.5448 31.8556 31.5971 30.9865 30.3506C30.5915 29.7273 29.9594 29.3378 29.3274 28.9482C27.9053 28.1691 26.2461 27.8575 24.666 27.5459C24.4289 27.468 24.4289 27.5459 24.3499 27.7796C24.1919 28.5587 23.9549 29.2599 23.7969 30.039C23.4809 31.1297 23.2438 32.2204 22.9278 33.389ZM29.5644 25.4423C29.7224 25.4423 30.1175 25.3644 30.4335 25.2865C31.9346 24.9749 32.7247 23.2609 31.9346 21.9364C31.5396 21.2353 30.8285 20.7678 30.1175 20.4562C29.0114 19.9887 27.9053 19.755 26.7202 19.4434C26.4831 19.3655 26.4041 19.4434 26.3251 19.6771C25.9301 21.3132 25.535 22.8713 25.061 24.5074C24.982 24.6633 25.061 24.7412 25.219 24.8191C25.535 24.897 25.7721 24.9749 26.0881 25.0528C27.2732 25.2086 28.3003 25.4423 29.5644 25.4423Z" fill="white"/>
<circle cx="27" cy="27" r="23.5714" stroke="white" stroke-width="0.857143"/>
<defs>
<linearGradient id="paint0_linear_662_5" x1="8.87143" y1="3.08571" x2="35.8714" y2="54" gradientUnits="userSpaceOnUse">
<stop stop-color="#FF30AB"/>
<stop offset="1" stop-color="#00023A"/>
</linearGradient>
</defs>
</svg>
