<svg width="54" height="54" viewBox="0 0 54 54" fill="none" xmlns="http://www.w3.org/2000/svg">
<rect width="54" height="54" rx="27" fill="url(#paint0_linear_662_22)"/>
<g clip-path="url(#clip0_662_22)">
<path d="M26.4998 18.083C29.3878 18.083 31.7291 16.7213 31.7291 15.0415C31.7291 13.3617 29.3878 12 26.4998 12C23.6117 12 21.2705 13.3617 21.2705 15.0415C21.2705 16.7213 23.6117 18.083 26.4998 18.083Z" fill="white"/>
<path d="M26.4998 41C29.3878 41 31.7291 39.6383 31.7291 37.9585C31.7291 36.2787 29.3878 34.917 26.4998 34.917C23.6117 34.917 21.2705 36.2787 21.2705 37.9585C21.2705 39.6383 23.6117 41 26.4998 41Z" fill="white"/>
<path d="M19.2127 22.2926C20.6568 19.7916 20.6472 17.0827 19.1914 16.2422C17.7356 15.4016 15.3848 16.7477 13.9408 19.2488C12.4968 21.7498 12.5063 24.4587 13.9621 25.2993C15.4179 26.1398 17.7687 24.7937 19.2127 22.2926Z" fill="white"/>
<path d="M39.0554 33.7512C40.4994 31.2502 40.4908 28.5418 39.0361 27.7019C37.5814 26.862 35.2315 28.2087 33.7875 30.7097C32.3435 33.2108 32.3521 35.9191 33.8068 36.759C35.2615 37.5989 37.6114 36.2523 39.0554 33.7512Z" fill="white"/>
<path d="M19.1924 36.7578C20.6482 35.9173 20.6577 33.2084 19.2137 30.7074C17.7697 28.2063 15.4189 26.8602 13.9631 27.7007C12.5073 28.5413 12.4978 31.2502 13.9418 33.7512C15.3858 36.2523 17.7366 37.5984 19.1924 36.7578Z" fill="white"/>
<path d="M39.039 25.3C40.4937 24.4601 40.5024 21.7518 39.0583 19.2507C37.6143 16.7497 35.2644 15.403 33.8097 16.2429C32.355 17.0828 32.3464 19.7912 33.7904 22.2922C35.2344 24.7933 37.5843 26.1399 39.039 25.3Z" fill="white"/>
</g>
<circle cx="27" cy="27" r="23.5714" stroke="white" stroke-width="0.857143"/>
<defs>
<linearGradient id="paint0_linear_662_22" x1="8.87143" y1="3.08571" x2="35.8714" y2="54" gradientUnits="userSpaceOnUse">
<stop stop-color="#FF30AB"/>
<stop offset="1" stop-color="#00023A"/>
</linearGradient>
<clipPath id="clip0_662_22">
<rect width="29" height="29" fill="white" transform="translate(12 12)"/>
</clipPath>
</defs>
</svg>
