<svg width="54" height="54" viewBox="0 0 54 54" fill="none" xmlns="http://www.w3.org/2000/svg">
<rect width="54" height="54" rx="27" fill="url(#paint0_linear_662_18)"/>
<path d="M34.5 31.1769C34.5 32.8276 33.9846 34.249 32.9537 35.4411C31.9228 36.6333 30.5837 37.3696 28.9364 37.6501V40.4821C28.9364 40.6332 28.8898 40.7573 28.7965 40.8544C28.7033 40.9515 28.5842 41 28.4391 41H26.3411C26.2064 41 26.0899 40.9488 25.9914 40.8463C25.893 40.7438 25.8438 40.6224 25.8438 40.4821V37.6501C25.16 37.553 24.4995 37.3858 23.8624 37.1484C23.2252 36.9111 22.6994 36.671 22.285 36.4283C21.8706 36.1855 21.4872 35.9266 21.135 35.6515C20.7827 35.3764 20.5418 35.1741 20.4123 35.0446C20.2828 34.9152 20.1922 34.8181 20.1404 34.7533C19.9642 34.5268 19.9539 34.3056 20.1093 34.0898L21.71 31.9051C21.7825 31.7972 21.9016 31.7325 22.0674 31.7109C22.2228 31.6894 22.3471 31.7379 22.4404 31.8566L22.4715 31.889C23.6422 32.957 24.901 33.6313 26.2479 33.9118C26.6312 33.9981 27.0145 34.0413 27.3979 34.0413C28.2371 34.0413 28.9753 33.8093 29.6124 33.3454C30.2496 32.8815 30.5682 32.2234 30.5682 31.3711C30.5682 31.069 30.4905 30.7831 30.3351 30.5134C30.1797 30.2437 30.0061 30.0171 29.8145 29.8337C29.6228 29.6503 29.3198 29.448 28.9053 29.2268C28.4909 29.0057 28.149 28.8331 27.8796 28.709C27.6103 28.5849 27.1959 28.4096 26.6364 28.183C26.2323 28.0104 25.9137 27.8756 25.6806 27.7785C25.4475 27.6814 25.1289 27.5384 24.7249 27.3496C24.3208 27.1608 23.997 26.9936 23.7536 26.8479C23.5101 26.7023 23.2174 26.5108 22.8755 26.2734C22.5336 26.0361 22.2565 25.8068 22.0441 25.5857C21.8317 25.3645 21.6064 25.1002 21.3681 24.7927C21.1298 24.4852 20.9459 24.1723 20.8164 23.8541C20.6869 23.5358 20.5781 23.1771 20.49 22.7779C20.402 22.3787 20.3579 21.958 20.3579 21.5156C20.3579 20.0268 20.8656 18.7214 21.8809 17.5993C22.8962 16.4773 24.2172 15.7545 25.8438 15.4308V12.5179C25.8438 12.3776 25.893 12.2562 25.9914 12.1537C26.0899 12.0512 26.2064 12 26.3411 12H28.4391C28.5842 12 28.7033 12.0485 28.7965 12.1456C28.8898 12.2427 28.9364 12.3668 28.9364 12.5179V15.3661C29.527 15.4308 30.0994 15.5549 30.6537 15.7383C31.208 15.9217 31.6586 16.1024 32.0057 16.2804C32.3528 16.4584 32.6817 16.6607 32.9925 16.8873C33.3034 17.1138 33.5054 17.2703 33.5986 17.3566C33.6919 17.4429 33.7696 17.5184 33.8317 17.5831C34.0079 17.7773 34.0338 17.9823 33.9095 18.1981L32.6507 20.5608C32.5678 20.7227 32.4486 20.809 32.2932 20.8198C32.1482 20.8521 32.0083 20.8144 31.8736 20.7065C31.8425 20.6741 31.7674 20.6094 31.6483 20.5123C31.5291 20.4152 31.3271 20.2722 31.0422 20.0834C30.7573 19.8946 30.4542 19.722 30.1331 19.5656C29.8119 19.4091 29.4259 19.2689 28.9753 19.1448C28.5246 19.0207 28.0817 18.9587 27.6465 18.9587C26.6623 18.9587 25.8593 19.1907 25.2377 19.6546C24.6161 20.1185 24.3053 20.7173 24.3053 21.4509C24.3053 21.7314 24.3493 21.9903 24.4374 22.2277C24.5254 22.465 24.6782 22.6889 24.8958 22.8993C25.1134 23.1097 25.318 23.2877 25.5097 23.4333C25.7013 23.579 25.9914 23.7462 26.38 23.935C26.7685 24.1238 27.0819 24.2694 27.3202 24.3719C27.5585 24.4744 27.9211 24.6228 28.408 24.817C28.9571 25.0327 29.3767 25.2027 29.6668 25.3267C29.9569 25.4508 30.3506 25.6396 30.8479 25.8931C31.3452 26.1467 31.7363 26.3759 32.0213 26.5809C32.3062 26.7859 32.6273 27.0556 32.9848 27.3901C33.3422 27.7245 33.6168 28.0671 33.8084 28.4177C34.0001 28.7683 34.1633 29.181 34.298 29.6557C34.4327 30.1304 34.5 30.6375 34.5 31.1769Z" fill="white"/>
<circle cx="27" cy="27" r="23.5714" stroke="white" stroke-width="0.857143"/>
<defs>
<linearGradient id="paint0_linear_662_18" x1="8.87143" y1="3.08571" x2="35.8714" y2="54" gradientUnits="userSpaceOnUse">
<stop stop-color="#FF30AB"/>
<stop offset="1" stop-color="#00023A"/>
</linearGradient>
</defs>
</svg>
