<svg width="192" height="80" viewBox="0 0 192 80" fill="none" xmlns="http://www.w3.org/2000/svg">
<path fill-rule="evenodd" clip-rule="evenodd" d="M60.9395 35.9259H63.3769C63.3769 35.9259 63.3769 30.6021 57.5433 30.4984C57.5433 30.4984 52.4528 29.9557 51.4139 34.2336C51.4139 34.2336 50.8465 36.9713 52.3569 38.3042C53.6971 39.4491 55.3347 40.1905 57.0797 40.4432C58.5182 40.6826 61.9305 41.6724 61.5869 44.6495C61.2432 47.6266 53.228 48.7441 53.0042 42.6862H50.5349C50.5349 42.6862 50.1433 48.1213 55.6094 49.2709C61.0754 50.42 64.208 47.1636 63.9523 43.4524C63.6965 39.7407 59.8927 38.7274 57.1357 38.1286C54.3787 37.5303 53.5316 36.197 53.7713 34.8084C54.0111 33.4194 55.8092 32.8451 57.2476 32.8451C58.1402 32.792 59.0194 33.0811 59.7056 33.6537C60.3918 34.2263 60.8332 35.0393 60.9395 35.9259ZM66.9685 36.1255H69.4219V46.8767H75.2476V36.1255H77.7648V49.4786H66.9685V36.1255ZM88.761 36.2461C89.1937 36.2419 89.626 36.2898 90.0475 36.3896C90.7954 36.5811 91.485 36.9537 92.0553 37.4745C92.6252 37.9949 93.0579 38.6476 93.3157 39.3749C93.6253 40.1685 93.7827 41.0131 93.7792 41.865V43.4613C93.7797 43.8952 93.7393 44.3278 93.6596 44.7544C92.6844 49.5111 89.1045 49.2798 89.1045 49.2798H86.8347C85.616 49.1766 84.4778 48.6284 83.6384 47.7392L83.3187 49.4952H81.257V30.5951H83.6544V37.5229C84.6151 36.6612 85.872 36.2037 87.1628 36.2461H88.761ZM90.3323 46.0444C90.8507 45.5266 91.1423 44.8242 91.1423 44.0918V41.3142C91.1423 40.5818 90.8507 39.8794 90.3323 39.3616C89.8138 38.8438 89.1105 38.5525 88.3772 38.5525H86.5551C85.8218 38.5525 85.1185 38.8438 84.6001 39.3616C84.0816 39.8794 83.7902 40.5818 83.7902 41.3142V44.0918C83.7902 44.8242 84.0816 45.5266 84.6001 46.0444C85.1185 46.5622 85.8218 46.8535 86.5551 46.8535H88.3772C89.1105 46.8535 89.8138 46.5622 90.3323 46.0444ZM94.1703 30.5951H96.7035L100.563 46.8535H101.019L104.12 30.5951H108.595L111.815 46.9173H112.246L116.186 30.763H118.688L114.229 49.4952H109.769L106.589 33.2292H106.141L103.129 49.4952H98.6774L94.1703 30.5951ZM130.103 36.1849V46.8642H131.813V49.3784H127.961L127.673 47.9097C127.673 47.9097 126.347 50.0011 122.879 49.3784C119.41 48.7556 118.611 45.8346 119.41 43.3684C120.209 40.9023 123.886 40.9738 123.886 40.9738H127.641V38.5796H120.449V36.1849H130.103ZM123.334 47.0955C126.738 47.7979 127.586 44.9887 127.586 44.9887V43.2245H123.798C122.119 43.5359 121.856 44.4379 121.856 44.4379C121.75 44.7082 121.705 44.999 121.724 45.2889C121.743 45.5785 121.827 45.8607 121.968 46.1147C122.11 46.3687 122.305 46.5884 122.541 46.758C122.777 46.9276 123.048 47.0428 123.334 47.0955ZM137.299 30.833H134.901V49.5177H137.299V30.833ZM140.035 30.833H142.433V49.5177H140.035V30.833ZM151.89 36.3732C151.89 36.3732 146.544 35.4472 145.025 40.3637C145.025 40.3637 144.154 44.2107 145.545 46.8049C146.13 47.7322 146.965 48.4757 147.955 48.9503C148.944 49.4244 150.048 49.6103 151.139 49.4865C155.174 49.1914 156.565 47.0923 156.565 45.496H154.015C154.015 45.496 154.015 47.0122 151.882 47.0362C151.777 47.0374 151.67 47.039 151.562 47.0407C149.492 47.0723 147.091 47.1091 147.167 44.0591H156.948C156.948 44.0591 157.875 36.9955 151.89 36.3732ZM147.239 41.7364C147.135 40.5316 148.342 38.3605 151.379 38.5438C152.226 38.5438 153.039 38.8805 153.639 39.4792C154.238 40.078 154.575 40.8901 154.575 41.7364H147.239ZM163.249 30.6546H160.828L160.859 36.2259H158.598V38.7161H160.828V49.5067H168.747V46.9048H163.273V38.66H167.796V36.2259H163.249V30.6546Z" fill="white"/>
<g clip-path="url(#clip0_436_9845)">
<path d="M45.7619 35.2571V30.4993L26.6911 22.8571L22.881 24.79L22.9011 39.5986L37.169 45.3376L29.5487 48.5789V46.0724L26.0502 44.6537L22.9011 46.1405L22.9011 55.21L26.6944 57.1429L45.7619 48.5491V42.4532L28.6012 35.5916V31.4286L42.2165 36.8628L45.7619 35.2571Z" fill="white"/>
</g>
<defs>
<clipPath id="clip0_436_9845">
<rect width="22.8809" height="34.2857" fill="white" transform="translate(22.881 22.8571)"/>
</clipPath>
</defs>
</svg>
