<svg width="156" height="32" viewBox="0 0 156 32" fill="none" xmlns="http://www.w3.org/2000/svg">
<path d="M42.6574 25.9822H46.4739V8.71978H53.7253V5.4317H35.5234V8.71978H42.6574V25.9822Z" fill="black"/>
<path d="M51.4838 22.2244C51.4838 24.8078 53.3627 26.4225 56.181 26.4225C58.559 26.4225 60.0562 25.0134 60.6728 22.9289H61.9351C61.9939 25.2189 62.5517 25.9822 64.959 25.9822H66.4856V23.1638H65.1058C64.3425 23.1638 64.225 23.017 64.225 22.2831V16.3822C64.225 12.8299 62.0232 10.9216 58.0012 10.9216C54.0379 10.9216 51.5718 13.0354 51.2783 15.2372L54.537 16.0886C54.9186 14.5913 56.0049 13.6519 58.0012 13.6519C59.8507 13.6519 60.6728 14.4445 60.6728 15.9418V16.4409C57.8838 16.7051 55.6526 17.2629 53.9792 18.1436C52.3058 18.995 51.4838 20.3748 51.4838 22.2244ZM60.6728 19.9638C60.6728 22.4592 59.1461 23.7216 57.326 23.7216C55.9168 23.7216 55.1241 23.0464 55.1241 21.8721C55.1241 19.9932 57.1792 19.1712 60.6728 18.7895V19.9638Z" fill="black"/>
<path d="M68.8209 25.9822H72.4026V5.4317H68.8209V25.9822Z" fill="black"/>
<path d="M76.6443 9.04271H80.4608V5.40234H76.6443V9.04271ZM76.7911 25.9822H80.3434V11.362H76.7911V25.9822Z" fill="black"/>
<path d="M83.3835 22.2244C84.0294 24.8078 86.789 26.3932 90.0771 26.3932C94.0991 26.3932 96.5358 24.5436 96.5358 21.6959C96.5358 20.3455 96.0367 19.3179 95.0679 18.6134C94.0991 17.9088 92.9248 17.4097 91.545 17.1455L89.6367 16.7932C87.8753 16.4409 87.4055 16.0005 87.4055 15.1491C87.4055 14.1803 88.2569 13.5051 89.8129 13.5051C91.4863 13.5051 92.5432 14.4739 93.0129 15.7363L96.0367 14.4445C95.3615 12.6537 93.4239 10.9216 89.9303 10.9216C86.4367 10.9216 84 12.7712 84 15.4721C84 18.2317 85.7615 19.2592 88.7267 19.8757L90.6643 20.228C92.3083 20.551 92.8367 21.1381 92.8367 22.0482C92.8367 23.0757 91.8973 23.7216 90.2239 23.7216C87.9046 23.7216 86.9652 22.4299 86.701 21.1381L83.3835 22.2244Z" fill="black"/>
<path d="M99.7269 25.9822H103.309V18.7601C103.309 17.1161 103.426 15.7656 104.336 14.7088C104.776 14.1803 105.452 13.9161 106.362 13.9161C108.123 13.9161 109.004 14.973 109.004 17.0574V25.9822H112.527V18.7601C112.527 17.0867 112.615 15.7656 113.525 14.7088C113.965 14.1803 114.67 13.9161 115.58 13.9161C117.253 13.9161 118.222 14.9143 118.222 17.0574V25.9822H121.775V16.4409C121.775 12.8886 119.72 10.9216 116.901 10.9216C114.905 10.9216 113.29 12.3308 112.674 14.3565H111.411C110.912 12.1546 109.356 10.9216 107.389 10.9216C105.246 10.9216 103.984 12.3601 103.426 14.3565H101.753C102.369 13.5051 102.898 12.2134 102.898 11.362H99.7269V25.9822Z" fill="black"/>
<path d="M125.079 22.2244C125.079 24.8078 126.958 26.4225 129.776 26.4225C132.154 26.4225 133.651 25.0134 134.268 22.9289H135.53C135.589 25.2189 136.147 25.9822 138.554 25.9822H140.081V23.1638H138.701C137.938 23.1638 137.82 23.017 137.82 22.2831V16.3822C137.82 12.8299 135.618 10.9216 131.596 10.9216C127.633 10.9216 125.167 13.0354 124.873 15.2372L128.132 16.0886C128.514 14.5913 129.6 13.6519 131.596 13.6519C133.446 13.6519 134.268 14.4445 134.268 15.9418V16.4409C131.479 16.7051 129.248 17.2629 127.574 18.1436C125.901 18.995 125.079 20.3748 125.079 22.2244ZM134.268 19.9638C134.268 22.4592 132.741 23.7216 130.921 23.7216C129.512 23.7216 128.719 23.0464 128.719 21.8721C128.719 19.9932 130.774 19.1712 134.268 18.7895V19.9638Z" fill="black"/>
<path d="M142.416 25.9822H145.998V19.2886C145.998 17.5271 146.115 16.0005 147.084 14.8262C147.583 14.2097 148.346 13.9161 149.345 13.9161C151.018 13.9161 151.987 14.9436 151.987 17.0574V25.9822H155.568V16.3528C155.568 12.9767 153.836 10.9216 150.548 10.9216C148.141 10.9216 146.614 12.7712 145.968 14.7381H144.295C145.117 13.5345 145.704 12.2134 145.734 11.362H142.416V25.9822Z" fill="black"/>
<path fill-rule="evenodd" clip-rule="evenodd" d="M7.17712 13.1515L7.32683 7.23716C7.32683 4.12066 9.15032 2.57679 11.788 3.35865C12.02 3.4274 12.3531 3.7397 12.3531 4.01683L12.4072 9.68576C12.4097 9.94902 12.6238 10.1611 12.8871 10.1611C13.1522 10.1611 13.367 9.94624 13.367 9.68118V2.82605C13.367 1.30734 14.5982 0.0761719 16.1169 0.0761719C17.6356 0.0761719 18.8668 1.30734 18.8668 2.82605V9.68118C18.8668 9.94624 19.0817 10.1611 19.3467 10.1611C19.61 10.1611 19.8241 9.94902 19.8266 9.68576L19.8807 4.01992C19.8807 3.74031 20.2306 3.42701 20.4645 3.35865C22.7505 2.69062 24.8512 3.93685 24.8512 7.17639L24.9963 13.0982C22.5333 14.3554 20.1635 14.6142 17.4463 13.7696C16.4094 13.2612 15.6624 13.3509 14.5939 13.7691C11.8993 14.3744 9.60812 14.4017 7.17712 13.1515ZM6.50716 13.7105L6.50717 13.7105L6.50719 13.7105C7.02177 13.9571 7.5365 14.2037 8.06802 14.3852L9.15495 14.7564C11.0014 15.3382 12.8238 15.103 14.6126 14.5461C15.5428 14.0795 16.5034 14.1533 17.4551 14.5461C19.3376 15.323 20.9775 15.3211 22.9715 14.7702L22.9737 14.7564L24.0606 14.3852C24.5921 14.2037 25.1069 13.957 25.6215 13.7105C27.0396 13.0309 29.2476 13.2418 30.7388 14.9421C31.4224 15.7215 30.8935 16.8492 29.9095 17.1756C29.4351 17.3329 29.0054 17.5995 28.6037 17.897C28.5582 17.9307 28.5119 17.9644 28.465 17.9981C27.2259 18.8873 26.4284 20.2193 26.3491 21.7424L26.3125 22.4453C26.3151 22.691 26.3104 22.9377 26.2975 23.1848C25.935 26.6525 23.6978 29.6413 20.4727 30.9663C17.6559 32.1237 14.4963 32.1237 11.6794 30.9663C8.45438 29.6413 6.2172 26.6525 5.85465 23.1848L5.77952 21.7424C5.70019 20.2193 4.90276 18.8873 3.66357 17.9981C3.61668 17.9644 3.5704 17.9307 3.52488 17.897C3.12323 17.5995 2.69353 17.3329 2.21908 17.1756C1.23513 16.8492 0.706245 15.7215 1.38978 14.9421C2.88101 13.2418 5.08901 13.0309 6.50714 13.7105L6.50716 13.7105ZM22.7927 22.5828C22.7927 22.5828 19.7803 26.9226 16.0643 26.9226C12.3483 26.9226 9.33586 22.5828 9.33586 22.5828C9.33586 22.5828 12.3483 18.2429 16.0643 18.2429C19.7803 18.2429 22.7927 22.5828 22.7927 22.5828ZM16.0643 25.3414C17.5693 25.3414 18.7893 24.1214 18.7893 22.6164C18.7893 21.1114 17.5693 19.8914 16.0643 19.8914C14.5593 19.8914 13.3393 21.1114 13.3393 22.6164C13.3393 24.1214 14.5593 25.3414 16.0643 25.3414Z" fill="black"/>
</svg>
