<svg width="24" height="14" viewBox="0 0 24 14" fill="none" xmlns="http://www.w3.org/2000/svg">
<path d="M7.24043 13.3875C7.40085 13.2271 7.48485 13.0229 7.49243 12.775C7.49943 12.5271 7.42272 12.3229 7.26231 12.1625L2.97481 7.875H22.3779C22.6258 7.875 22.8338 7.791 23.0018 7.623C23.1692 7.45558 23.2529 7.24791 23.2529 7C23.2529 6.75208 23.1692 6.54412 23.0018 6.37612C22.8338 6.2087 22.6258 6.125 22.3779 6.125H2.97481L7.26231 1.8375C7.42272 1.67708 7.49943 1.47291 7.49243 1.225C7.48485 0.97708 7.40085 0.772913 7.24043 0.612497C7.08002 0.45208 6.87585 0.371872 6.62793 0.371872C6.38001 0.371872 6.17585 0.45208 6.01543 0.612497L0.240433 6.3875C0.152931 6.46041 0.0908051 6.55141 0.0540562 6.6605C0.017889 6.77016 -0.00019455 6.88333 -0.00019455 7C-0.00019455 7.11666 0.017889 7.22604 0.0540562 7.32812C0.0908051 7.43021 0.152931 7.525 0.240433 7.6125L6.01543 13.3875C6.17585 13.5479 6.38001 13.6281 6.62793 13.6281C6.87585 13.6281 7.08002 13.5479 7.24043 13.3875Z" fill="white"/>
</svg>
