<svg width="25" height="24" viewBox="0 0 25 24" fill="none" xmlns="http://www.w3.org/2000/svg">
<path d="M21.5 7V6.25C21.5 4.458 20.042 3 18.25 3H6.75C4.958 3 3.5 4.458 3.5 6.25V7H21.5ZM3.5 8.5V17.75C3.5 19.542 4.958 21 6.75 21H18.25C20.042 21 21.5 19.542 21.5 17.75V8.5H3.5ZM8.25 18C7.5595 18 7 17.4405 7 16.75C7 16.0595 7.5595 15.5 8.25 15.5C8.9405 15.5 9.5 16.0595 9.5 16.75C9.5 17.4405 8.9405 18 8.25 18ZM8.25 13.5C7.5595 13.5 7 12.9405 7 12.25C7 11.5595 7.5595 11 8.25 11C8.9405 11 9.5 11.5595 9.5 12.25C9.5 12.9405 8.9405 13.5 8.25 13.5ZM12.5 18C11.8095 18 11.25 17.4405 11.25 16.75C11.25 16.0595 11.8095 15.5 12.5 15.5C13.1905 15.5 13.75 16.0595 13.75 16.75C13.75 17.4405 13.1905 18 12.5 18ZM12.5 13.5C11.8095 13.5 11.25 12.9405 11.25 12.25C11.25 11.5595 11.8095 11 12.5 11C13.1905 11 13.75 11.5595 13.75 12.25C13.75 12.9405 13.1905 13.5 12.5 13.5ZM16.75 13.5C16.0595 13.5 15.5 12.9405 15.5 12.25C15.5 11.5595 16.0595 11 16.75 11C17.4405 11 18 11.5595 18 12.25C18 12.9405 17.4405 13.5 16.75 13.5Z" fill="white" fill-opacity="0.5"/>
</svg>
