<svg width="24" height="24" viewBox="0 0 24 24" fill="none" xmlns="http://www.w3.org/2000/svg">
<path d="M17.4913 5.48514C17.227 5.49138 16.976 5.60198 16.7931 5.79276L12.0001 10.5857L7.20712 5.79276C7.11381 5.69685 7.00221 5.62063 6.87892 5.56863C6.75563 5.51663 6.62315 5.4899 6.48934 5.49003C6.29049 5.49027 6.09623 5.54979 5.93137 5.66098C5.76651 5.77217 5.63854 5.92998 5.56381 6.11425C5.48907 6.29852 5.47096 6.50089 5.5118 6.6955C5.55263 6.89011 5.65055 7.06813 5.79305 7.20682L10.586 11.9998L5.79305 16.7928C5.69708 16.8849 5.62046 16.9953 5.56767 17.1174C5.51489 17.2395 5.487 17.371 5.48565 17.504C5.48429 17.6371 5.5095 17.769 5.55979 17.8922C5.61008 18.0154 5.68444 18.1273 5.77852 18.2214C5.8726 18.3154 5.9845 18.3898 6.10768 18.4401C6.23086 18.4904 6.36283 18.5156 6.49587 18.5142C6.62891 18.5129 6.76035 18.485 6.88247 18.4322C7.0046 18.3794 7.11497 18.3028 7.20712 18.2068L12.0001 13.4139L16.7931 18.2068C16.8852 18.3028 16.9956 18.3794 17.1177 18.4322C17.2398 18.485 17.3713 18.5129 17.5043 18.5142C17.6373 18.5156 17.7693 18.4904 17.8925 18.4401C18.0157 18.3898 18.1276 18.3154 18.2217 18.2214C18.3157 18.1273 18.3901 18.0154 18.4404 17.8922C18.4907 17.769 18.5159 17.6371 18.5145 17.504C18.5132 17.371 18.4853 17.2395 18.4325 17.1174C18.3797 16.9953 18.3031 16.8849 18.2071 16.7928L13.4141 11.9998L18.2071 7.20682C18.3526 7.06729 18.4526 6.88704 18.4939 6.6897C18.5351 6.49237 18.5158 6.28717 18.4384 6.10102C18.361 5.91486 18.2291 5.75644 18.0601 5.64654C17.8911 5.53664 17.6928 5.48038 17.4913 5.48514Z" fill="white" fill-opacity="0.5"/>
</svg>
