<svg width="25" height="24" viewBox="0 0 25 24" fill="none" xmlns="http://www.w3.org/2000/svg">
<path d="M13.0185 4.20812C12.729 3.93062 12.2715 3.93062 11.982 4.20812L6.232 9.70812C6.0105 9.92012 5.9405 10.2451 6.0545 10.5296C6.1685 10.8141 6.4435 11.0001 6.75 11.0001H18.25C18.556 11.0001 18.832 10.8136 18.9465 10.5296C19.0605 10.2456 18.99 9.92012 18.769 9.70812L13.0185 4.20812ZM18.25 13.0001H6.75C6.4435 13.0001 6.168 13.1866 6.054 13.4706C5.94 13.7546 6.0105 14.0801 6.2315 14.2921L11.9815 19.7921C12.1265 19.9306 12.313 20.0001 12.5 20.0001C12.687 20.0001 12.8735 19.9306 13.0185 19.7921L18.7685 14.2921C18.9895 14.0801 19.06 13.7551 18.946 13.4706C18.832 13.1866 18.556 13.0001 18.25 13.0001Z" fill="white" fill-opacity="0.5"/>
</svg>
    