<svg width="65" height="69" viewBox="0 0 65 69" fill="none" xmlns="http://www.w3.org/2000/svg">
<g id="Logo">
<g id="Logo_2" filter="url(#filter0_d_878_388)">
<path fill-rule="evenodd" clip-rule="evenodd" d="M47.1137 23.2718C48.1781 23.2057 49 22.3336 49 21.2896V16.625C49 14.0746 46.8847 12 44.2844 12L34.8321 12C33.7275 12 32.8321 12.8954 32.8321 14V14.6429C32.8321 15.7396 31.9293 16.625 30.8111 16.625C29.6928 16.625 28.7901 15.7396 28.7901 14.6429V14C28.7901 12.8954 27.8946 12 26.7901 12L20.7156 12C18.1153 12 16 14.0746 16 16.625V44.375C16 46.9254 18.1153 49 20.7156 49H26.7901C27.8946 49 28.7901 48.1046 28.7901 47V46.3571C28.7901 45.2604 29.6928 44.375 30.8111 44.375C31.9293 44.375 32.832 45.2604 32.832 46.3571V47C32.832 48.1046 33.7275 49 34.832 49L44.2843 49C46.8847 49 49 46.9254 49 44.375V39.7104C49 38.6664 48.1781 37.7943 47.1137 37.7282C43.2604 37.4904 40.2424 34.3057 40.2424 30.5C40.2424 26.6943 43.2604 23.5096 47.1137 23.2718ZM30.8111 40.4107C31.9293 40.4107 32.832 39.5254 32.832 38.4286V34.4643C32.832 33.3675 31.9293 32.4821 30.8111 32.4821C29.6928 32.4821 28.7901 33.3675 28.7901 34.4643V38.4286C28.7901 39.5254 29.6928 40.4107 30.8111 40.4107ZM30.8111 28.5179C31.9293 28.5179 32.832 27.6325 32.832 26.5357V22.5714C32.832 21.4746 31.9293 20.5893 30.8111 20.5893C29.6928 20.5893 28.7901 21.4746 28.7901 22.5714V26.5357C28.7901 27.6325 29.6928 28.5179 30.8111 28.5179Z" fill="white"/>
</g>
<g id="Intersect" filter="url(#filter1_d_878_388)">
<path fill-rule="evenodd" clip-rule="evenodd" d="M28.8378 45.926C25.2141 42.0042 23 36.7607 23 31C23 25.0822 25.3365 19.7101 29.1374 15.756C29.5005 16.2809 30.1139 16.625 30.8111 16.625C31.9293 16.625 32.8321 15.7396 32.8321 14.6429V14C32.8321 12.8954 33.7275 12 34.8321 12H44.2844C46.8847 12 49 14.0746 49 16.625V21.2896C49 22.3336 48.1781 23.2057 47.1137 23.2718C43.2604 23.5096 40.2424 26.6943 40.2424 30.5C40.2424 34.3057 43.2604 37.4904 47.1137 37.7282C48.1781 37.7943 49 38.6664 49 39.7104V44.375C49 46.9254 46.8847 49 44.2843 49L34.832 49C33.7275 49 32.832 48.1046 32.832 47V46.3571C32.832 45.2604 31.9293 44.375 30.8111 44.375C29.8438 44.375 29.0378 45.0374 28.8378 45.926ZM32.832 38.4286C32.832 39.5254 31.9293 40.4107 30.8111 40.4107C29.6928 40.4107 28.7901 39.5254 28.7901 38.4286V34.4643C28.7901 33.3675 29.6928 32.4821 30.8111 32.4821C31.9293 32.4821 32.832 33.3675 32.832 34.4643V38.4286ZM32.832 26.5357C32.832 27.6325 31.9293 28.5179 30.8111 28.5179C29.6928 28.5179 28.7901 27.6325 28.7901 26.5357V22.5714C28.7901 21.4746 29.6928 20.5893 30.8111 20.5893C31.9293 20.5893 32.832 21.4746 32.832 22.5714V26.5357Z" fill="#D45161"/>
</g>
</g>
<defs>
<filter id="filter0_d_878_388" x="0" y="0" width="65" height="69" filterUnits="userSpaceOnUse" color-interpolation-filters="sRGB">
<feFlood flood-opacity="0" result="BackgroundImageFix"/>
<feColorMatrix in="SourceAlpha" type="matrix" values="0 0 0 0 0 0 0 0 0 0 0 0 0 0 0 0 0 0 127 0" result="hardAlpha"/>
<feOffset dy="4"/>
<feGaussianBlur stdDeviation="8"/>
<feComposite in2="hardAlpha" operator="out"/>
<feColorMatrix type="matrix" values="0 0 0 0 1 0 0 0 0 1 0 0 0 0 1 0 0 0 0.1 0"/>
<feBlend mode="normal" in2="BackgroundImageFix" result="effect1_dropShadow_878_388"/>
<feBlend mode="normal" in="SourceGraphic" in2="effect1_dropShadow_878_388" result="shape"/>
</filter>
<filter id="filter1_d_878_388" x="7" y="0" width="58" height="69" filterUnits="userSpaceOnUse" color-interpolation-filters="sRGB">
<feFlood flood-opacity="0" result="BackgroundImageFix"/>
<feColorMatrix in="SourceAlpha" type="matrix" values="0 0 0 0 0 0 0 0 0 0 0 0 0 0 0 0 0 0 127 0" result="hardAlpha"/>
<feOffset dy="4"/>
<feGaussianBlur stdDeviation="8"/>
<feComposite in2="hardAlpha" operator="out"/>
<feColorMatrix type="matrix" values="0 0 0 0 1 0 0 0 0 0.501961 0 0 0 0 0.211765 0 0 0 0.25 0"/>
<feBlend mode="normal" in2="BackgroundImageFix" result="effect1_dropShadow_878_388"/>
<feBlend mode="normal" in="SourceGraphic" in2="effect1_dropShadow_878_388" result="shape"/>
</filter>
</defs>
</svg>
