<svg width="16" height="16" viewBox="0 0 16 16" fill="none" xmlns="http://www.w3.org/2000/svg">
<path d="M8.00004 1.3335C4.87537 1.3335 2.33337 3.8755 2.33337 7.00016C2.33337 8.3455 2.81637 9.65116 3.69771 10.6828C3.79837 10.7972 6.17337 13.4958 6.96671 14.2522C7.25637 14.5285 7.62804 14.6668 8.00004 14.6668C8.37204 14.6668 8.74371 14.5285 9.03371 14.2522C9.95604 13.3725 12.2084 10.7905 12.307 10.6772C13.1837 9.65116 13.6667 8.3455 13.6667 7.00016C13.6667 3.8755 11.1247 1.3335 8.00004 1.3335ZM8.00004 8.66683C7.07971 8.66683 6.33337 7.9205 6.33337 7.00016C6.33337 6.07983 7.07971 5.3335 8.00004 5.3335C8.92037 5.3335 9.66671 6.07983 9.66671 7.00016C9.66671 7.9205 8.92037 8.66683 8.00004 8.66683Z" fill="white" fill-opacity="0.5"/>
</svg>
