<svg width="24" height="24" viewBox="0 0 24 24" fill="none" xmlns="http://www.w3.org/2000/svg">
<path d="M10.25 3C6.25778 3 3 6.25778 3 10.25C3 14.2422 6.25778 17.5 10.25 17.5C11.8866 17.5 13.3945 16.9465 14.6104 16.0254L19.293 20.707C19.3851 20.803 19.4955 20.8796 19.6176 20.9324C19.7397 20.9852 19.8712 21.0131 20.0042 21.0144C20.1373 21.0158 20.2692 20.9906 20.3924 20.9403C20.5156 20.89 20.6275 20.8157 20.7216 20.7216C20.8157 20.6275 20.89 20.5156 20.9403 20.3924C20.9906 20.2692 21.0158 20.1373 21.0144 20.0042C21.0131 19.8712 20.9852 19.7397 20.9324 19.6176C20.8796 19.4955 20.803 19.3851 20.707 19.293L16.0254 14.6104C16.9465 13.3945 17.5 11.8866 17.5 10.25C17.5 6.25778 14.2422 3 10.25 3ZM10.25 5C13.1613 5 15.5 7.33866 15.5 10.25C15.5 11.6479 14.957 12.9103 14.0742 13.8486C13.9883 13.9108 13.9128 13.9863 13.8506 14.0723C12.9121 14.9562 11.6489 15.5 10.25 15.5C7.33866 15.5 5 13.1613 5 10.25C5 7.33866 7.33866 5 10.25 5Z" fill="white" fill-opacity="0.5"/>
</svg>
