<svg width="205" height="193" viewBox="0 0 205 193" fill="none" xmlns="http://www.w3.org/2000/svg">
<path fill-rule="evenodd" clip-rule="evenodd" d="M24.3901 51.1728C24.3901 42.8567 31.1329 36.122 39.441 36.122H177.909C186.217 36.122 192.959 42.8648 192.959 51.1728V75.4629C192.96 76.5203 192.682 77.5593 192.154 78.4752C191.625 79.3911 190.865 80.1517 189.949 80.6805C187.2 82.2635 184.916 84.5432 183.328 87.2897C181.741 90.0363 180.905 93.1528 180.905 96.3253C180.905 99.4978 181.741 102.614 183.328 105.361C184.916 108.107 187.2 110.387 189.949 111.97C190.865 112.499 191.625 113.259 192.154 114.175C192.682 115.091 192.96 116.13 192.959 117.188V141.478C192.959 149.786 186.217 156.529 177.909 156.529H39.441C35.4492 156.529 31.621 154.943 28.7984 152.12C25.9759 149.298 24.3901 145.47 24.3901 141.478V117.188C24.3887 116.131 24.6653 115.093 25.1923 114.177C25.7193 113.261 26.478 112.5 27.3923 111.97C30.1416 110.387 32.4252 108.107 34.0131 105.361C35.6009 102.614 36.437 99.4978 36.437 96.3253C36.437 93.1528 35.6009 90.0363 34.0131 87.2897C32.4252 84.5432 30.1416 82.2635 27.3923 80.6805C26.478 80.1507 25.7193 79.3897 25.1923 78.4738C24.6653 77.5579 24.3887 76.5195 24.3901 75.4629V51.1728ZM144.797 42.1423C146.393 42.1423 147.925 42.7766 149.054 43.9056C150.183 45.0347 150.817 46.566 150.817 48.1627V54.183C150.817 55.7797 150.183 57.311 149.054 58.44C147.925 59.569 146.393 60.2033 144.797 60.2033C143.2 60.2033 141.669 59.569 140.54 58.44C139.411 57.311 138.776 55.7797 138.776 54.183V48.1627C138.776 46.566 139.411 45.0347 140.54 43.9056C141.669 42.7766 143.2 42.1423 144.797 42.1423ZM150.817 78.2643C150.817 76.6676 150.183 75.1363 149.054 74.0073C147.925 72.8783 146.393 72.244 144.797 72.244C143.2 72.244 141.669 72.8783 140.54 74.0073C139.411 75.1363 138.776 76.6676 138.776 78.2643V84.2846C138.776 85.8813 139.411 87.4126 140.54 88.5417C141.669 89.6707 143.2 90.305 144.797 90.305C146.393 90.305 147.925 89.6707 149.054 88.5417C150.183 87.4126 150.817 85.8813 150.817 84.2846V78.2643ZM144.797 102.346C146.393 102.346 147.925 102.98 149.054 104.109C150.183 105.238 150.817 106.769 150.817 108.366V114.386C150.817 115.983 150.183 117.514 149.054 118.643C147.925 119.772 146.393 120.407 144.797 120.407C143.2 120.407 141.669 119.772 140.54 118.643C139.411 117.514 138.776 115.983 138.776 114.386V108.366C138.776 106.769 139.411 105.238 140.54 104.109C141.669 102.98 143.2 102.346 144.797 102.346ZM150.817 138.468C150.817 136.871 150.183 135.34 149.054 134.211C147.925 133.082 146.393 132.447 144.797 132.447C143.2 132.447 141.669 133.082 140.54 134.211C139.411 135.34 138.776 136.871 138.776 138.468V144.488C138.776 146.085 139.411 147.616 140.54 148.745C141.669 149.874 143.2 150.508 144.797 150.508C146.393 150.508 147.925 149.874 149.054 148.745C150.183 147.616 150.817 146.085 150.817 144.488V138.468ZM60.5121 96.3253C60.5121 94.7286 61.1464 93.1973 62.2754 92.0683C63.4045 90.9393 64.9358 90.305 66.5325 90.305H108.675C110.271 90.305 111.803 90.9393 112.932 92.0683C114.061 93.1973 114.695 94.7286 114.695 96.3253C114.695 97.922 114.061 99.4533 112.932 100.582C111.803 101.711 110.271 102.346 108.675 102.346H66.5325C64.9358 102.346 63.4045 101.711 62.2754 100.582C61.1464 99.4533 60.5121 97.922 60.5121 96.3253ZM66.5325 114.386C64.9358 114.386 63.4045 115.021 62.2754 116.15C61.1464 117.279 60.5121 118.81 60.5121 120.407C60.5121 122.003 61.1464 123.535 62.2754 124.664C63.4045 125.793 64.9358 126.427 66.5325 126.427H90.6138C92.2105 126.427 93.7418 125.793 94.8708 124.664C95.9998 123.535 96.6341 122.003 96.6341 120.407C96.6341 118.81 95.9998 117.279 94.8708 116.15C93.7418 115.021 92.2105 114.386 90.6138 114.386H66.5325Z" fill="#EFBA89"/>
<circle cx="30.8735" cy="160.542" r="30.8735" fill="#56C4A9"/>
<path d="M29.6693 169.465C28.8953 170.229 27.8504 170.655 26.7629 170.651C25.6754 170.648 24.6336 170.213 23.8651 169.444L19.3575 164.937C18.2255 163.804 18.2461 161.973 19.4193 160.882C20.5307 159.811 22.3008 159.853 23.3711 160.923L26.7672 164.319L40.0016 151.085C41.1131 149.973 42.9037 149.973 44.0152 151.085L44.0975 151.167C45.209 152.278 45.209 154.09 44.0769 155.201L29.6693 169.465Z" fill="white"/>
</svg>
