<svg width="198" height="198" viewBox="0 0 198 198" fill="none" xmlns="http://www.w3.org/2000/svg">
<circle cx="99.66" cy="99.6602" r="79.86" fill="#2F80ED"/>
<path d="M99 16.5002C53.5095 16.5002 16.5 53.5097 16.5 99.0002C16.5 144.491 53.5095 181.5 99 181.5C144.491 181.5 181.5 144.491 181.5 99.0002C181.5 53.5097 144.491 16.5002 99 16.5002ZM33 99.0002C33 91.5835 34.287 84.4637 36.5558 77.806L49.5 90.7502L66 107.25V123.75L82.5 140.25L90.75 148.5V164.431C58.2533 160.347 33 132.594 33 99.0002ZM151.223 139.202C145.835 134.863 137.668 132 132 132V123.75C132 119.374 130.262 115.177 127.167 112.083C124.073 108.989 119.876 107.25 115.5 107.25H82.5V82.5002C86.8761 82.5002 91.0729 80.7619 94.1673 77.6675C97.2616 74.5732 99 70.3763 99 66.0002V57.7502H107.25C111.626 57.7502 115.823 56.0119 118.917 52.9175C122.012 49.8232 123.75 45.6263 123.75 41.2502V37.8595C147.906 47.6687 165 71.3627 165 99.0002C164.999 113.559 160.151 127.703 151.223 139.202Z" fill="#56C4A9"/>
<path d="M125.41 123.09C123.004 123.093 120.698 124.05 118.996 125.751C117.295 127.453 116.338 129.759 116.335 132.165C116.335 139.931 124.585 145.798 124.936 146.046C125.076 146.139 125.242 146.189 125.41 146.189C125.579 146.189 125.744 146.139 125.885 146.046C126.235 145.798 134.485 139.931 134.485 132.165C134.483 129.759 133.526 127.453 131.824 125.751C130.123 124.05 127.816 123.093 125.41 123.09ZM125.41 128.865C126.063 128.865 126.701 129.059 127.244 129.421C127.786 129.784 128.209 130.299 128.459 130.902C128.709 131.505 128.774 132.169 128.647 132.809C128.52 133.449 128.205 134.037 127.744 134.499C127.282 134.96 126.694 135.275 126.054 135.402C125.414 135.529 124.75 135.464 124.147 135.214C123.544 134.964 123.029 134.541 122.666 133.999C122.304 133.456 122.11 132.818 122.11 132.165C122.11 131.29 122.458 130.451 123.077 129.832C123.696 129.213 124.535 128.865 125.41 128.865Z" fill="#CF5858"/>
<path d="M60.7303 67.6503C58.3243 67.653 56.0176 68.61 54.3163 70.3113C52.615 72.0126 51.658 74.3193 51.6553 76.7253C51.6553 84.4906 59.9053 90.3584 60.2559 90.6059C60.3964 90.6995 60.5615 90.7494 60.7303 90.7494C60.8991 90.7494 61.0641 90.6995 61.2046 90.6059C61.5553 90.3584 69.8053 84.4906 69.8053 76.7253C69.8025 74.3193 68.8456 72.0126 67.1443 70.3113C65.443 68.61 63.1363 67.653 60.7303 67.6503ZM60.7303 73.4253C61.383 73.4253 62.021 73.6188 62.5637 73.9814C63.1063 74.344 63.5293 74.8594 63.7791 75.4624C64.0288 76.0654 64.0942 76.7289 63.9669 77.3691C63.8395 78.0092 63.5252 78.5972 63.0637 79.0587C62.6022 79.5202 62.0142 79.8345 61.3741 79.9619C60.7339 80.0892 60.0704 80.0238 59.4674 79.7741C58.8644 79.5243 58.349 79.1013 57.9864 78.5587C57.6238 78.016 57.4303 77.3779 57.4303 76.7253C57.4303 75.8501 57.778 75.0107 58.3968 74.3918C59.0157 73.7729 59.8551 73.4253 60.7303 73.4253Z" fill="#CF5858"/>
<path d="M100.33 28.0502C97.9244 28.053 95.6177 29.01 93.9164 30.7113C92.2151 32.4126 91.2581 34.7192 91.2554 37.1252C91.2554 44.8905 99.5054 50.7584 99.856 51.0059C99.9965 51.0994 100.162 51.1493 100.33 51.1493C100.499 51.1493 100.664 51.0994 100.805 51.0059C101.155 50.7584 109.405 44.8905 109.405 37.1252C109.403 34.7192 108.446 32.4126 106.744 30.7113C105.043 29.01 102.736 28.053 100.33 28.0502ZM100.33 33.8252C100.983 33.8252 101.621 34.0188 102.164 34.3814C102.706 34.744 103.129 35.2594 103.379 35.8624C103.629 36.4654 103.694 37.1289 103.567 37.769C103.44 38.4092 103.125 38.9972 102.664 39.4587C102.202 39.9202 101.614 40.2345 100.974 40.3618C100.334 40.4892 99.6705 40.4238 99.0675 40.174C98.4645 39.9243 97.9491 39.5013 97.5865 38.9586C97.2239 38.4159 97.0304 37.7779 97.0304 37.1252C97.0304 36.25 97.378 35.4106 97.9969 34.7918C98.6158 34.1729 99.4552 33.8252 100.33 33.8252Z" fill="#CF5858"/>
</svg>
