<svg width="459" height="556" viewBox="0 0 459 556" fill="none" xmlns="http://www.w3.org/2000/svg">
<g filter="url(#filter0_d_1_369)">
<path d="M343.879 233L99.6603 374C94.8773 376.761 93.2386 382.877 96 387.66L118.541 426.702C119.33 428.07 120.432 429.231 121.757 430.09L148.54 447.475C151.227 449.218 152.915 452.143 153.082 455.342L154.746 487.229C154.828 488.806 155.283 490.341 156.072 491.708L176 526.224C178.761 531.007 184.877 532.646 189.66 529.885L433.879 388.885C438.662 386.123 440.301 380.007 437.54 375.224L417.585 340.662C416.813 339.324 415.741 338.183 414.454 337.329L387.865 319.685C385.256 317.953 383.609 315.1 383.414 311.975L381.428 280.126C381.332 278.585 380.88 277.086 380.107 275.749L357.54 236.66C354.778 231.877 348.662 230.239 343.879 233Z" fill="#EEFFFB"/>
</g>
<path d="M151.997 384.041L148.921 385.817C148.698 385.525 148.449 385.288 148.175 385.107C147.902 384.927 147.608 384.806 147.295 384.747C146.981 384.687 146.654 384.693 146.312 384.764C145.973 384.829 145.631 384.961 145.286 385.16C144.675 385.513 144.235 385.967 143.965 386.522C143.699 387.074 143.61 387.702 143.699 388.405C143.792 389.106 144.071 389.858 144.535 390.662C145.018 391.499 145.541 392.131 146.106 392.56C146.672 392.982 147.255 393.211 147.856 393.247C148.458 393.277 149.058 393.119 149.657 392.773C149.993 392.579 150.274 392.359 150.499 392.115C150.728 391.868 150.9 391.602 151.014 391.317C151.13 391.026 151.187 390.722 151.185 390.406C151.185 390.084 151.124 389.755 151.002 389.421L154.088 387.664C154.357 388.252 154.512 388.895 154.554 389.593C154.6 390.288 154.518 390.994 154.309 391.711C154.097 392.424 153.731 393.105 153.21 393.756C152.693 394.404 152.002 394.978 151.137 395.478C149.997 396.136 148.831 396.475 147.64 396.496C146.451 396.51 145.318 396.186 144.241 395.523C143.164 394.86 142.226 393.837 141.428 392.455C140.628 391.069 140.214 389.742 140.187 388.473C140.16 387.204 140.453 386.059 141.066 385.038C141.679 384.017 142.546 383.183 143.665 382.537C144.428 382.096 145.195 381.796 145.966 381.635C146.734 381.47 147.482 381.448 148.208 381.57C148.932 381.688 149.617 381.951 150.263 382.36C150.909 382.769 151.487 383.329 151.997 384.041ZM162.89 388.7C161.897 389.273 160.927 389.563 159.979 389.569C159.033 389.568 158.157 389.314 157.35 388.807C156.545 388.293 155.863 387.552 155.304 386.585C154.743 385.613 154.443 384.652 154.402 383.702C154.364 382.745 154.582 381.859 155.057 381.044C155.534 380.222 156.269 379.524 157.261 378.951C158.253 378.379 159.223 378.092 160.169 378.093C161.117 378.087 161.993 378.341 162.798 378.855C163.605 379.362 164.289 380.102 164.85 381.073C165.409 382.041 165.707 383.003 165.746 383.96C165.786 384.91 165.567 385.796 165.091 386.618C164.616 387.433 163.882 388.128 162.89 388.7ZM161.598 386.42C161.959 386.212 162.2 385.925 162.322 385.559C162.445 385.193 162.458 384.775 162.362 384.306C162.27 383.834 162.075 383.34 161.776 382.823C161.473 382.299 161.141 381.878 160.778 381.563C160.419 381.245 160.051 381.047 159.673 380.97C159.295 380.893 158.926 380.959 158.565 381.167C158.192 381.383 157.94 381.676 157.81 382.046C157.683 382.415 157.666 382.835 157.758 383.306C157.854 383.776 158.054 384.273 158.357 384.798C158.655 385.314 158.983 385.732 159.342 386.05C159.704 386.365 160.077 386.56 160.459 386.635C160.845 386.707 161.225 386.636 161.598 386.42ZM168.997 377.752L172.108 383.14L169.1 384.877L163.646 375.429L166.506 373.778L167.507 375.513L167.612 375.452C167.487 374.753 167.582 374.094 167.897 373.475C168.21 372.852 168.715 372.339 169.412 371.936C170.076 371.553 170.739 371.37 171.399 371.387C172.062 371.399 172.682 371.592 173.261 371.969C173.841 372.34 174.334 372.881 174.739 373.592L178.216 379.614L175.208 381.351L172.072 375.919C171.774 375.392 171.404 375.059 170.962 374.92C170.525 374.779 170.069 374.845 169.593 375.12C169.278 375.302 169.039 375.533 168.878 375.812C168.718 376.085 168.646 376.386 168.661 376.716C168.681 377.044 168.793 377.389 168.997 377.752ZM184.591 376.171C183.595 376.746 182.621 377.035 181.671 377.037C180.725 377.036 179.85 376.781 179.048 376.272C178.243 375.758 177.562 375.019 177.006 374.055C176.447 373.088 176.147 372.129 176.107 371.179C176.069 370.222 176.286 369.334 176.759 368.515C177.236 367.693 177.968 366.996 178.956 366.426C179.83 365.921 180.682 365.64 181.512 365.582C182.346 365.521 183.112 365.675 183.811 366.042C184.512 366.403 185.096 366.965 185.564 367.728L182.753 369.351C182.416 368.9 182.033 368.616 181.604 368.497C181.179 368.377 180.751 368.44 180.32 368.689C179.972 368.89 179.723 369.165 179.574 369.513C179.423 369.858 179.384 370.263 179.456 370.73C179.531 371.19 179.729 371.699 180.051 372.256C180.373 372.814 180.717 373.244 181.083 373.547C181.451 373.843 181.823 374.013 182.199 374.059C182.572 374.1 182.934 374.02 183.282 373.819C183.561 373.658 183.773 373.456 183.917 373.214C184.066 372.97 184.144 372.693 184.15 372.382C184.155 372.068 184.08 371.734 183.925 371.381L186.736 369.758C187.157 370.554 187.355 371.347 187.33 372.137C187.31 372.926 187.069 373.669 186.608 374.367C186.149 375.058 185.477 375.66 184.591 376.171ZM194.932 370.201C193.944 370.771 192.978 371.069 192.036 371.094C191.095 371.112 190.223 370.87 189.418 370.366C188.615 369.857 187.924 369.099 187.344 368.095C186.78 367.119 186.481 366.155 186.445 365.202C186.406 364.246 186.621 363.362 187.088 362.551C187.552 361.736 188.26 361.054 189.211 360.505C189.884 360.117 190.559 359.866 191.237 359.753C191.916 359.641 192.576 359.672 193.219 359.848C193.862 360.023 194.47 360.348 195.043 360.82C195.615 361.289 196.124 361.91 196.571 362.685L197.005 363.436L188.793 368.176L187.785 366.43L193.198 363.305C193.009 362.987 192.768 362.746 192.476 362.581C192.184 362.416 191.869 362.339 191.53 362.348C191.193 362.352 190.858 362.449 190.526 362.641C190.19 362.835 189.932 363.085 189.753 363.39C189.572 363.692 189.478 364.017 189.471 364.365C189.462 364.709 189.547 365.046 189.726 365.374L190.752 367.152C190.975 367.537 191.246 367.832 191.566 368.035C191.883 368.235 192.228 368.334 192.599 368.333C192.97 368.332 193.348 368.22 193.734 367.998C194 367.844 194.221 367.667 194.396 367.468C194.57 367.269 194.694 367.052 194.767 366.819C194.84 366.585 194.855 366.341 194.812 366.087L197.62 364.573C197.863 365.258 197.922 365.943 197.798 366.627C197.675 367.305 197.373 367.952 196.893 368.568C196.41 369.181 195.756 369.725 194.932 370.201ZM200.849 366.547L195.394 357.099L198.316 355.412L199.31 357.135L199.409 357.078C199.221 356.355 199.235 355.73 199.449 355.201C199.661 354.669 200.025 354.253 200.542 353.955C200.681 353.875 200.831 353.802 200.99 353.737C201.147 353.668 201.3 353.616 201.448 353.579L202.958 356.193C202.786 356.227 202.575 356.297 202.324 356.403C202.078 356.507 201.865 356.611 201.684 356.715C201.328 356.921 201.052 357.187 200.857 357.513C200.664 357.832 200.567 358.18 200.567 358.558C200.568 358.929 200.677 359.303 200.895 359.681L203.857 364.81L200.849 366.547ZM208.457 349.557L209.736 351.772L203.775 355.213L202.497 352.999L208.457 349.557ZM202.439 350.014L205.447 348.278L210.493 357.018C210.599 357.202 210.714 357.335 210.838 357.417C210.963 357.492 211.098 357.521 211.241 357.504C211.382 357.483 211.532 357.426 211.692 357.334C211.807 357.268 211.922 357.188 212.037 357.094C212.154 356.993 212.241 356.916 212.297 356.862L214.006 358.77C213.886 358.894 213.713 359.063 213.486 359.276C213.263 359.486 212.976 359.704 212.624 359.929C211.938 360.369 211.286 360.636 210.668 360.73C210.052 360.818 209.488 360.728 208.978 360.459C208.472 360.189 208.038 359.731 207.677 359.087L202.439 350.014Z" fill="#B32F3F"/>
<path d="M154.356 416.735L353.542 301.735" stroke="#B22F3F" stroke-opacity="0.25" stroke-width="2"/>
<path d="M164.158 432.918L163.606 431.961L168.631 429.06L169.183 430.016L167.236 431.14L170.32 436.482L169.189 437.136L166.105 431.794L164.158 432.918ZM173.187 434.827L170.459 430.104L171.573 429.461L174.3 434.185L173.187 434.827ZM170.632 429.11C170.456 429.212 170.27 429.241 170.076 429.198C169.88 429.152 169.734 429.046 169.638 428.88C169.541 428.712 169.522 428.533 169.582 428.343C169.641 428.15 169.758 428.003 169.934 427.901C170.113 427.798 170.299 427.77 170.492 427.817C170.687 427.861 170.833 427.966 170.93 428.134C171.026 428.301 171.045 428.48 170.986 428.672C170.928 428.861 170.81 429.007 170.632 429.11ZM177.559 432.426C177.087 432.699 176.622 432.829 176.164 432.817C175.709 432.804 175.284 432.668 174.891 432.408C174.499 432.145 174.165 431.775 173.889 431.297C173.612 430.818 173.46 430.341 173.432 429.868C173.404 429.392 173.498 428.955 173.716 428.555C173.935 428.153 174.275 427.819 174.736 427.552C175.12 427.331 175.5 427.206 175.877 427.177C176.255 427.145 176.606 427.206 176.93 427.36C177.253 427.513 177.525 427.752 177.746 428.078L176.682 428.692C176.508 428.49 176.296 428.359 176.046 428.301C175.797 428.24 175.539 428.286 175.27 428.441C175.043 428.573 174.878 428.75 174.777 428.972C174.675 429.193 174.641 429.444 174.676 429.728C174.713 430.01 174.823 430.31 175.007 430.627C175.193 430.949 175.4 431.199 175.628 431.376C175.855 431.551 176.089 431.652 176.332 431.679C176.575 431.703 176.812 431.648 177.044 431.514C177.208 431.419 177.337 431.304 177.431 431.168C177.525 431.028 177.582 430.874 177.602 430.704C177.621 430.534 177.598 430.355 177.533 430.166L178.597 429.551C178.763 429.901 178.836 430.254 178.815 430.61C178.792 430.965 178.677 431.3 178.468 431.614C178.257 431.927 177.954 432.198 177.559 432.426ZM180.602 428.57L179.823 427.228L180.001 427.125L180.604 424.247L181.904 423.496L181.159 427.026L180.928 427.16L180.602 428.57ZM180.443 430.638L176.807 424.34L177.92 423.697L181.556 429.995L180.443 430.638ZM183.408 428.926L180.629 427.664L180.927 426.447L184.739 428.158L183.408 428.926ZM187.324 426.788C186.85 427.062 186.384 427.2 185.926 427.202C185.469 427.201 185.043 427.072 184.649 426.815C184.254 426.557 183.914 426.181 183.629 425.687C183.348 425.201 183.194 424.721 183.167 424.247C183.14 423.771 183.235 423.333 183.451 422.935C183.665 422.535 183.998 422.205 184.449 421.945C184.74 421.777 185.042 421.665 185.355 421.61C185.669 421.552 185.981 421.563 186.293 421.643C186.606 421.722 186.907 421.879 187.196 422.114C187.483 422.347 187.747 422.671 187.986 423.085L188.183 423.426L184.311 425.662L183.878 424.911L186.683 423.292C186.557 423.08 186.402 422.917 186.216 422.803C186.028 422.687 185.826 422.627 185.608 422.624C185.393 422.62 185.178 422.68 184.965 422.803C184.738 422.934 184.57 423.105 184.461 423.315C184.352 423.523 184.301 423.745 184.307 423.979C184.315 424.209 184.378 424.431 184.498 424.643L184.876 425.298C185.035 425.573 185.221 425.78 185.435 425.919C185.648 426.055 185.875 426.124 186.116 426.124C186.356 426.123 186.596 426.052 186.838 425.912C187 425.819 187.134 425.712 187.239 425.591C187.343 425.468 187.417 425.333 187.461 425.188C187.506 425.042 187.514 424.888 187.486 424.726L188.593 424.243C188.686 424.556 188.7 424.868 188.634 425.179C188.568 425.488 188.426 425.78 188.206 426.058C187.985 426.333 187.691 426.577 187.324 426.788ZM189.944 418.854L190.441 419.715L187.726 421.283L187.229 420.422L189.944 418.854ZM187.246 418.903L188.359 418.26L190.919 422.695C191.006 422.845 191.095 422.947 191.186 423C191.278 423.051 191.37 423.069 191.463 423.054C191.555 423.039 191.648 423.005 191.74 422.951C191.809 422.911 191.87 422.869 191.922 422.826C191.975 422.781 192.015 422.746 192.041 422.72L192.731 423.482C192.683 423.537 192.611 423.609 192.515 423.697C192.42 423.784 192.295 423.876 192.14 423.971C191.866 424.14 191.59 424.243 191.314 424.28C191.036 424.315 190.774 424.271 190.529 424.15C190.287 424.028 190.081 423.819 189.913 423.522L187.246 418.903ZM193.305 414.815L196.941 421.113L195.8 421.772L192.164 415.473L193.305 414.815ZM200.311 419.167L198.176 420.4L194.54 414.101L196.717 412.844C197.343 412.483 197.953 412.299 198.547 412.292C199.143 412.282 199.697 412.442 200.21 412.771C200.723 413.101 201.168 413.593 201.546 414.247C201.925 414.903 202.128 415.537 202.157 416.15C202.187 416.761 202.046 417.325 201.735 417.841C201.425 418.356 200.95 418.798 200.311 419.167ZM198.747 418.754L199.685 418.212C200.124 417.959 200.444 417.668 200.645 417.338C200.845 417.007 200.926 416.639 200.889 416.234C200.851 415.827 200.692 415.382 200.414 414.901C200.136 414.419 199.831 414.062 199.5 413.829C199.168 413.594 198.812 413.482 198.432 413.491C198.052 413.496 197.649 413.622 197.223 413.869L196.251 414.43L198.747 418.754Z" fill="#B22F3F" fill-opacity="0.5"/>
<path d="M176.005 452.94L175.529 452.116L176.478 448.71C176.565 448.378 176.631 448.09 176.676 447.845C176.721 447.601 176.733 447.381 176.714 447.187C176.695 446.993 176.635 446.809 176.535 446.635C176.42 446.436 176.277 446.292 176.105 446.203C175.932 446.111 175.744 446.072 175.541 446.085C175.338 446.099 175.136 446.163 174.935 446.279C174.728 446.399 174.572 446.547 174.465 446.723C174.358 446.897 174.306 447.086 174.31 447.292C174.316 447.496 174.381 447.706 174.506 447.921L173.42 448.548C173.189 448.148 173.08 447.748 173.092 447.348C173.104 446.947 173.223 446.573 173.449 446.227C173.678 445.879 174 445.585 174.416 445.345C174.838 445.101 175.255 444.965 175.666 444.939C176.077 444.912 176.45 444.985 176.785 445.158C177.122 445.33 177.392 445.592 177.596 445.944C177.732 446.18 177.821 446.438 177.862 446.718C177.903 446.997 177.89 447.341 177.822 447.749C177.756 448.156 177.633 448.674 177.452 449.304L177.004 451.034L177.029 451.078L179.772 449.494L180.323 450.447L176.005 452.94ZM179.884 442.188C180.187 442.016 180.511 441.9 180.856 441.84C181.202 441.777 181.558 441.795 181.922 441.897C182.286 441.996 182.647 442.201 183.008 442.512C183.368 442.824 183.714 443.267 184.045 443.841C184.36 444.381 184.582 444.898 184.711 445.392C184.841 445.882 184.883 446.336 184.837 446.754C184.791 447.171 184.661 447.545 184.446 447.874C184.232 448.203 183.935 448.477 183.555 448.695C183.158 448.925 182.76 449.051 182.362 449.073C181.967 449.093 181.597 449.023 181.252 448.861C180.907 448.699 180.613 448.456 180.368 448.133L181.491 447.485C181.693 447.702 181.924 447.833 182.186 447.879C182.448 447.921 182.715 447.865 182.985 447.708C183.422 447.456 183.649 447.072 183.666 446.557C183.682 446.042 183.496 445.447 183.107 444.772L183.064 444.797C183.067 445.035 183.027 445.266 182.943 445.49C182.858 445.711 182.734 445.916 182.571 446.102C182.41 446.288 182.217 446.446 181.991 446.576C181.622 446.789 181.239 446.893 180.842 446.887C180.447 446.88 180.075 446.772 179.725 446.564C179.377 446.355 179.088 446.053 178.858 445.659C178.621 445.249 178.503 444.826 178.503 444.391C178.505 443.953 178.621 443.542 178.852 443.156C179.083 442.769 179.427 442.446 179.884 442.188ZM180.42 443.108C180.198 443.236 180.03 443.406 179.914 443.618C179.8 443.826 179.744 444.052 179.748 444.296C179.753 444.536 179.821 444.769 179.951 444.995C180.082 445.217 180.249 445.391 180.453 445.517C180.659 445.641 180.879 445.707 181.112 445.714C181.348 445.72 181.578 445.659 181.801 445.53C181.967 445.434 182.104 445.313 182.211 445.166C182.318 445.02 182.392 444.859 182.433 444.685C182.476 444.508 182.484 444.329 182.46 444.149C182.437 443.968 182.378 443.797 182.283 443.636C182.158 443.421 181.992 443.252 181.785 443.128C181.579 443.004 181.356 442.937 181.115 442.928C180.877 442.918 180.645 442.978 180.42 443.108ZM189.239 445.414C188.829 445.651 188.417 445.786 188.004 445.819C187.591 445.85 187.21 445.786 186.863 445.625C186.518 445.464 186.239 445.212 186.026 444.87L187.133 444.231C187.302 444.478 187.536 444.624 187.834 444.671C188.13 444.716 188.421 444.656 188.706 444.492C188.929 444.363 189.099 444.197 189.214 443.993C189.329 443.79 189.384 443.568 189.379 443.328C189.374 443.088 189.303 442.851 189.166 442.618C189.031 442.379 188.859 442.197 188.65 442.072C188.441 441.947 188.217 441.883 187.978 441.882C187.738 441.878 187.502 441.943 187.271 442.077C187.081 442.184 186.916 442.326 186.774 442.503C186.633 442.68 186.543 442.858 186.504 443.036L185.376 443.462L183.83 440.024L187.484 437.915L188.034 438.868L185.325 440.432L186.108 442.207L186.144 442.186C186.182 441.981 186.281 441.772 186.443 441.559C186.603 441.343 186.81 441.162 187.064 441.015C187.445 440.795 187.838 440.689 188.241 440.696C188.643 440.702 189.021 440.812 189.375 441.026C189.728 441.24 190.021 441.549 190.254 441.953C190.495 442.37 190.613 442.796 190.608 443.234C190.604 443.668 190.486 444.076 190.254 444.459C190.022 444.839 189.684 445.157 189.239 445.414ZM194.836 442.183C194.533 442.355 194.209 442.472 193.863 442.535C193.515 442.597 193.159 442.577 192.795 442.475C192.429 442.372 192.066 442.165 191.706 441.854C191.344 441.54 190.998 441.094 190.666 440.514C190.355 439.975 190.134 439.461 190.005 438.973C189.876 438.484 189.835 438.032 189.883 437.616C189.929 437.199 190.059 436.826 190.274 436.497C190.49 436.167 190.787 435.893 191.165 435.675C191.56 435.446 191.956 435.322 192.351 435.301C192.749 435.28 193.12 435.35 193.465 435.511C193.809 435.671 194.101 435.907 194.341 436.219L193.219 436.867C193.021 436.659 192.792 436.534 192.531 436.493C192.271 436.45 192.005 436.506 191.735 436.662C191.298 436.914 191.071 437.298 191.054 437.813C191.04 438.328 191.222 438.916 191.603 439.58L191.646 439.555C191.642 439.317 191.683 439.087 191.768 438.865C191.853 438.644 191.977 438.44 192.137 438.254C192.299 438.065 192.492 437.906 192.718 437.776C193.087 437.562 193.469 437.459 193.864 437.467C194.261 437.472 194.635 437.58 194.986 437.791C195.336 437.999 195.624 438.302 195.852 438.701C196.093 439.114 196.214 439.541 196.213 439.981C196.212 440.419 196.096 440.831 195.864 441.216C195.633 441.601 195.29 441.923 194.836 442.183ZM194.297 441.264C194.52 441.135 194.689 440.965 194.803 440.754C194.916 440.544 194.971 440.317 194.967 440.073C194.963 439.829 194.894 439.593 194.759 439.365C194.631 439.138 194.464 438.963 194.258 438.838C194.054 438.713 193.834 438.647 193.599 438.641C193.363 438.635 193.133 438.696 192.91 438.825C192.744 438.921 192.607 439.042 192.5 439.189C192.394 439.335 192.319 439.495 192.278 439.67C192.235 439.842 192.226 440.02 192.249 440.203C192.274 440.383 192.333 440.556 192.427 440.724C192.556 440.942 192.724 441.114 192.931 441.241C193.138 441.367 193.361 441.435 193.601 441.444C193.842 441.453 194.074 441.393 194.297 441.264ZM198.095 440.186L197.619 439.362L198.568 435.956C198.656 435.624 198.722 435.336 198.766 435.091C198.811 434.847 198.824 434.628 198.805 434.433C198.786 434.239 198.726 434.055 198.625 433.881C198.51 433.682 198.367 433.538 198.195 433.449C198.022 433.357 197.834 433.318 197.631 433.331C197.428 433.345 197.227 433.409 197.026 433.525C196.819 433.645 196.662 433.793 196.556 433.969C196.449 434.143 196.397 434.332 196.401 434.538C196.407 434.742 196.472 434.952 196.596 435.167L195.51 435.794C195.28 435.394 195.17 434.994 195.182 434.594C195.194 434.193 195.313 433.819 195.54 433.473C195.768 433.125 196.09 432.831 196.507 432.591C196.929 432.347 197.346 432.212 197.757 432.185C198.168 432.158 198.54 432.231 198.875 432.404C199.212 432.576 199.483 432.838 199.686 433.191C199.822 433.426 199.911 433.684 199.952 433.964C199.993 434.243 199.98 434.587 199.912 434.995C199.847 435.402 199.723 435.921 199.543 436.55L199.095 438.281L199.119 438.324L201.863 436.74L202.413 437.693L198.095 440.186ZM201.975 429.434C202.277 429.262 202.601 429.146 202.946 429.086C203.293 429.023 203.648 429.042 204.013 429.143C204.376 429.242 204.738 429.447 205.098 429.759C205.458 430.07 205.804 430.513 206.136 431.087C206.45 431.627 206.672 432.144 206.801 432.638C206.932 433.128 206.974 433.583 206.928 434C206.882 434.417 206.751 434.791 206.537 435.12C206.322 435.449 206.025 435.723 205.646 435.942C205.248 436.171 204.85 436.297 204.453 436.319C204.057 436.339 203.687 436.269 203.342 436.107C202.998 435.945 202.703 435.702 202.459 435.379L203.581 434.731C203.783 434.948 204.015 435.079 204.276 435.125C204.539 435.167 204.805 435.111 205.076 434.954C205.512 434.702 205.739 434.318 205.756 433.803C205.773 433.288 205.587 432.693 205.197 432.018L205.154 432.043C205.158 432.281 205.117 432.512 205.033 432.736C204.948 432.957 204.824 433.162 204.661 433.349C204.501 433.534 204.307 433.692 204.082 433.822C203.713 434.035 203.33 434.139 202.933 434.133C202.538 434.126 202.165 434.019 201.816 433.81C201.468 433.601 201.179 433.299 200.948 432.905C200.712 432.495 200.593 432.072 200.594 431.637C200.595 431.199 200.711 430.788 200.943 430.402C201.173 430.015 201.517 429.692 201.975 429.434ZM202.51 430.355C202.289 430.482 202.12 430.652 202.005 430.864C201.89 431.072 201.835 431.298 201.839 431.542C201.843 431.782 201.911 432.015 202.041 432.241C202.172 432.463 202.34 432.637 202.543 432.763C202.749 432.887 202.969 432.953 203.203 432.96C203.439 432.966 203.668 432.905 203.892 432.776C204.058 432.68 204.194 432.559 204.301 432.412C204.408 432.266 204.482 432.106 204.524 431.931C204.566 431.754 204.575 431.575 204.55 431.395C204.528 431.214 204.469 431.043 204.373 430.882C204.249 430.667 204.083 430.498 203.875 430.374C203.669 430.25 203.446 430.183 203.206 430.174C202.968 430.164 202.736 430.224 202.51 430.355ZM211.329 432.66C210.919 432.897 210.508 433.032 210.095 433.065C209.681 433.097 209.301 433.032 208.954 432.871C208.609 432.71 208.33 432.458 208.116 432.117L209.223 431.477C209.393 431.724 209.626 431.871 209.924 431.917C210.221 431.962 210.511 431.902 210.796 431.738C211.02 431.609 211.189 431.443 211.304 431.24C211.419 431.036 211.474 430.815 211.47 430.574C211.465 430.334 211.394 430.097 211.257 429.865C211.121 429.626 210.949 429.443 210.74 429.318C210.531 429.193 210.307 429.129 210.069 429.128C209.829 429.124 209.593 429.189 209.361 429.323C209.171 429.43 209.006 429.572 208.865 429.749C208.724 429.926 208.634 430.104 208.595 430.282L207.467 430.708L205.921 427.27L209.574 425.161L210.125 426.114L207.415 427.678L208.198 429.453L208.235 429.432C208.272 429.227 208.372 429.018 208.533 428.805C208.693 428.589 208.9 428.408 209.154 428.261C209.536 428.041 209.928 427.935 210.332 427.943C210.734 427.948 211.112 428.058 211.465 428.272C211.818 428.486 212.112 428.796 212.345 429.199C212.585 429.616 212.703 430.042 212.698 430.48C212.695 430.914 212.577 431.322 212.344 431.705C212.112 432.085 211.774 432.403 211.329 432.66ZM216.926 429.429C216.624 429.601 216.299 429.718 215.953 429.782C215.606 429.843 215.25 429.823 214.885 429.722C214.519 429.618 214.156 429.411 213.796 429.1C213.435 428.786 213.088 428.34 212.756 427.76C212.445 427.221 212.225 426.707 212.096 426.219C211.967 425.73 211.926 425.278 211.973 424.863C212.019 424.445 212.149 424.072 212.364 423.743C212.581 423.413 212.878 423.139 213.255 422.921C213.651 422.692 214.046 422.568 214.442 422.547C214.839 422.526 215.21 422.596 215.555 422.757C215.899 422.917 216.191 423.153 216.431 423.465L215.309 424.113C215.112 423.905 214.883 423.78 214.621 423.739C214.361 423.696 214.096 423.752 213.825 423.908C213.388 424.16 213.162 424.544 213.145 425.059C213.13 425.574 213.313 426.163 213.693 426.826L213.736 426.801C213.732 426.563 213.773 426.333 213.859 426.111C213.944 425.89 214.067 425.686 214.228 425.5C214.389 425.311 214.583 425.152 214.808 425.022C215.177 424.809 215.559 424.706 215.954 424.713C216.351 424.718 216.725 424.827 217.076 425.037C217.426 425.245 217.715 425.548 217.942 425.947C218.183 426.36 218.304 426.787 218.304 427.227C218.303 427.665 218.186 428.077 217.955 428.462C217.723 428.847 217.381 429.169 216.926 429.429ZM216.387 428.51C216.611 428.381 216.779 428.211 216.893 428.001C217.007 427.79 217.061 427.563 217.057 427.319C217.053 427.076 216.984 426.839 216.849 426.611C216.721 426.384 216.554 426.209 216.348 426.084C216.145 425.959 215.925 425.893 215.689 425.887C215.453 425.881 215.224 425.942 215 426.071C214.834 426.167 214.698 426.288 214.591 426.435C214.484 426.581 214.41 426.742 214.368 426.916C214.326 427.088 214.316 427.266 214.34 427.449C214.364 427.629 214.424 427.802 214.517 427.97C214.646 428.188 214.814 428.36 215.021 428.487C215.228 428.613 215.452 428.681 215.692 428.69C215.932 428.699 216.164 428.639 216.387 428.51ZM219.111 419.655L222.747 425.953L221.606 426.612L218.611 421.424L218.574 421.445L217.644 423.237L217.041 422.191L218.025 420.282L219.111 419.655ZM226.744 423.806C226.237 424.098 225.729 424.221 225.218 424.174C224.708 424.124 224.215 423.912 223.74 423.539C223.266 423.162 222.83 422.63 222.434 421.944C222.039 421.256 221.799 420.615 221.714 420.022C221.629 419.426 221.694 418.896 221.908 418.434C222.124 417.97 222.484 417.592 222.989 417.301C223.493 417.01 224 416.887 224.51 416.932C225.019 416.976 225.51 417.185 225.982 417.557C226.456 417.929 226.891 418.457 227.286 419.142C227.684 419.831 227.927 420.475 228.014 421.076C228.101 421.673 228.038 422.204 227.823 422.67C227.61 423.135 227.25 423.513 226.744 423.806ZM226.188 422.843C226.582 422.616 226.781 422.243 226.784 421.724C226.789 421.202 226.573 420.562 226.136 419.806C225.847 419.306 225.553 418.915 225.251 418.635C224.95 418.356 224.655 418.184 224.365 418.122C224.073 418.058 223.798 418.101 223.537 418.252C223.146 418.478 222.948 418.851 222.946 419.372C222.942 419.891 223.156 420.526 223.587 421.278C223.875 421.781 224.169 422.175 224.469 422.458C224.771 422.74 225.068 422.913 225.359 422.977C225.649 423.039 225.926 422.995 226.188 422.843ZM232.362 420.517C231.952 420.754 231.541 420.889 231.128 420.922C230.714 420.953 230.334 420.888 229.987 420.728C229.642 420.566 229.363 420.314 229.149 419.973L230.256 419.334C230.426 419.58 230.66 419.727 230.957 419.774C231.254 419.819 231.545 419.759 231.83 419.594C232.053 419.465 232.222 419.299 232.337 419.096C232.453 418.893 232.508 418.671 232.503 418.431C232.498 418.19 232.427 417.954 232.29 417.721C232.155 417.482 231.983 417.3 231.773 417.174C231.564 417.049 231.341 416.986 231.102 416.984C230.862 416.98 230.626 417.046 230.394 417.179C230.205 417.286 230.039 417.428 229.898 417.605C229.757 417.782 229.667 417.96 229.628 418.139L228.5 418.564L226.954 415.127L230.608 413.017L231.158 413.971L228.449 415.535L229.231 417.31L229.268 417.288C229.306 417.083 229.405 416.874 229.566 416.661C229.726 416.446 229.933 416.265 230.187 416.118C230.569 415.898 230.961 415.791 231.365 415.799C231.767 415.805 232.145 415.914 232.498 416.129C232.852 416.343 233.145 416.652 233.378 417.056C233.618 417.472 233.736 417.899 233.732 418.336C233.728 418.77 233.61 419.179 233.377 419.562C233.146 419.942 232.807 420.26 232.362 420.517ZM235.603 418.531L235.127 417.707L236.076 414.301C236.164 413.969 236.23 413.681 236.274 413.436C236.319 413.192 236.332 412.972 236.313 412.778C236.294 412.584 236.234 412.4 236.133 412.226C236.018 412.027 235.875 411.883 235.703 411.793C235.53 411.702 235.342 411.663 235.139 411.676C234.936 411.689 234.735 411.754 234.534 411.87C234.327 411.99 234.17 412.137 234.064 412.313C233.957 412.487 233.905 412.677 233.909 412.883C233.915 413.087 233.98 413.297 234.104 413.512L233.018 414.139C232.788 413.739 232.678 413.339 232.69 412.938C232.702 412.538 232.821 412.164 233.048 411.818C233.276 411.47 233.598 411.176 234.015 410.935C234.437 410.692 234.854 410.556 235.265 410.529C235.676 410.503 236.049 410.576 236.383 410.749C236.72 410.92 236.991 411.183 237.194 411.535C237.33 411.771 237.419 412.029 237.46 412.308C237.501 412.588 237.488 412.932 237.42 413.34C237.355 413.747 237.231 414.265 237.051 414.894L236.603 416.625L236.627 416.668L239.371 415.085L239.921 416.038L235.603 418.531Z" fill="#B32F3F"/>
<rect x="184.021" y="468.116" width="2" height="25.1397" transform="rotate(-30 184.021 468.116)" fill="#B32F3F"/>
<rect x="187.485" y="466.116" width="5" height="25.1397" transform="rotate(-30 187.485 466.116)" fill="#B32F3F"/>
<rect x="195.279" y="461.616" width="4" height="25.1397" transform="rotate(-30 195.279 461.616)" fill="#B32F3F"/>
<rect x="199.609" y="459.116" width="2" height="25.1397" transform="rotate(-30 199.609 459.116)" fill="#B32F3F"/>
<rect x="202.207" y="457.616" width="2" height="25.1397" transform="rotate(-30 202.207 457.616)" fill="#B32F3F"/>
<rect x="206.537" y="455.116" width="3" height="25.1397" transform="rotate(-30 206.537 455.116)" fill="#B32F3F"/>
<rect x="212.599" y="451.616" width="3" height="25.1397" transform="rotate(-30 212.599 451.616)" fill="#B32F3F"/>
<rect x="216.063" y="449.616" width="4" height="25.1397" transform="rotate(-30 216.063 449.616)" fill="#B32F3F"/>
<rect x="220.394" y="447.116" width="2" height="25.1397" transform="rotate(-30 220.394 447.116)" fill="#B32F3F"/>
<rect x="225.59" y="444.116" width="2" height="25.1397" transform="rotate(-30 225.59 444.116)" fill="#B32F3F"/>
<rect x="228.188" y="442.616" width="4" height="25.1397" transform="rotate(-30 228.188 442.616)" fill="#B32F3F"/>
<rect x="234.25" y="439.116" width="2" height="25.1397" transform="rotate(-30 234.25 439.116)" fill="#B32F3F"/>
<rect x="237.714" y="437.116" width="5" height="25.1397" transform="rotate(-30 237.714 437.116)" fill="#B32F3F"/>
<rect x="245.508" y="432.616" width="4" height="25.1397" transform="rotate(-30 245.508 432.616)" fill="#B32F3F"/>
<rect x="249.838" y="430.116" width="2" height="25.1397" transform="rotate(-30 249.838 430.116)" fill="#B32F3F"/>
<rect x="252.437" y="428.616" width="2" height="25.1397" transform="rotate(-30 252.437 428.616)" fill="#B32F3F"/>
<rect x="256.767" y="426.116" width="3" height="25.1397" transform="rotate(-30 256.767 426.116)" fill="#B32F3F"/>
<rect x="262.829" y="422.616" width="3" height="25.1397" transform="rotate(-30 262.829 422.616)" fill="#B32F3F"/>
<rect x="266.293" y="420.616" width="4" height="25.1397" transform="rotate(-30 266.293 420.616)" fill="#B32F3F"/>
<rect x="270.623" y="418.116" width="2" height="25.1397" transform="rotate(-30 270.623 418.116)" fill="#B32F3F"/>
<rect x="275.819" y="415.116" width="2" height="25.1397" transform="rotate(-30 275.819 415.116)" fill="#B32F3F"/>
<rect x="278.417" y="413.616" width="4" height="25.1397" transform="rotate(-30 278.417 413.616)" fill="#B32F3F"/>
<rect x="324.317" y="387.116" width="2" height="25.1397" transform="rotate(-30 324.317 387.116)" fill="#B32F3F"/>
<rect x="327.781" y="385.116" width="5" height="25.1397" transform="rotate(-30 327.781 385.116)" fill="#B32F3F"/>
<rect x="335.575" y="380.616" width="4" height="25.1397" transform="rotate(-30 335.575 380.616)" fill="#B32F3F"/>
<rect x="339.905" y="378.116" width="2" height="25.1397" transform="rotate(-30 339.905 378.116)" fill="#B32F3F"/>
<rect x="342.503" y="376.616" width="2" height="25.1397" transform="rotate(-30 342.503 376.616)" fill="#B32F3F"/>
<rect x="346.833" y="374.116" width="3" height="25.1397" transform="rotate(-30 346.833 374.116)" fill="#B32F3F"/>
<rect x="352.896" y="370.616" width="3" height="25.1397" transform="rotate(-30 352.896 370.616)" fill="#B32F3F"/>
<rect x="356.36" y="368.616" width="4" height="25.1397" transform="rotate(-30 356.36 368.616)" fill="#B32F3F"/>
<rect x="360.69" y="366.116" width="2" height="25.1397" transform="rotate(-30 360.69 366.116)" fill="#B32F3F"/>
<rect x="365.886" y="363.116" width="2" height="25.1397" transform="rotate(-30 365.886 363.116)" fill="#B32F3F"/>
<rect x="368.484" y="361.616" width="4" height="25.1397" transform="rotate(-30 368.484 361.616)" fill="#B32F3F"/>
<rect x="286.211" y="409.116" width="2" height="25.1397" transform="rotate(-30 286.211 409.116)" fill="#B32F3F"/>
<rect x="292.274" y="405.616" width="4" height="25.1397" transform="rotate(-30 292.274 405.616)" fill="#B32F3F"/>
<rect x="296.604" y="403.116" width="3" height="25.1397" transform="rotate(-30 296.604 403.116)" fill="#B32F3F"/>
<rect x="300.068" y="401.116" width="3" height="25.1397" transform="rotate(-30 300.068 401.116)" fill="#B32F3F"/>
<rect x="303.532" y="399.116" width="4" height="25.1397" transform="rotate(-30 303.532 399.116)" fill="#B32F3F"/>
<rect x="310.46" y="395.116" width="2" height="25.1397" transform="rotate(-30 310.46 395.116)" fill="#B32F3F"/>
<rect x="313.058" y="393.616" width="2" height="25.1397" transform="rotate(-30 313.058 393.616)" fill="#B32F3F"/>
<rect x="317.388" y="391.116" width="3" height="25.1397" transform="rotate(-30 317.388 391.116)" fill="#B32F3F"/>
<rect x="320.852" y="389.116" width="2" height="25.1397" transform="rotate(-30 320.852 389.116)" fill="#B32F3F"/>
<rect x="374.546" y="358.116" width="2" height="25.1397" transform="rotate(-30 374.546 358.116)" fill="#B32F3F"/>
<rect x="379.742" y="355.116" width="4" height="25.1397" transform="rotate(-30 379.742 355.116)" fill="#B32F3F"/>
<g clip-path="url(#clip0_1_369)">
<path d="M332.961 274.226C332.87 274.116 332.756 274.027 332.628 273.964C332.5 273.901 332.359 273.866 332.216 273.862C332.073 273.858 331.931 273.885 331.8 273.941C331.668 273.996 331.55 274.08 331.453 274.185L326.484 279.579C326.34 279.736 326.249 279.935 326.226 280.146C326.202 280.358 326.247 280.572 326.354 280.757L330.42 287.799C329.861 287.732 329.295 287.855 328.815 288.15C328.335 288.444 327.968 288.891 327.774 289.42C327.58 289.949 327.57 290.528 327.746 291.063C327.922 291.598 328.273 292.057 328.743 292.368C329.213 292.678 329.774 292.821 330.335 292.772C330.896 292.724 331.425 292.488 331.835 292.101C332.245 291.715 332.512 291.202 332.594 290.645C332.676 290.088 332.567 289.519 332.286 289.031L328.72 282.855L333.688 277.46L336.348 282.067C335.789 282 335.223 282.123 334.743 282.418C334.263 282.712 333.896 283.159 333.702 283.688C333.508 284.217 333.498 284.796 333.674 285.331C333.85 285.865 334.202 286.325 334.672 286.636C335.141 286.946 335.702 287.089 336.264 287.04C336.825 286.992 337.353 286.755 337.763 286.369C338.173 285.983 338.441 285.47 338.522 284.913C338.604 284.356 338.496 283.787 338.214 283.299L333.054 274.362C333.026 274.314 332.995 274.269 332.961 274.226Z" fill="#B32F3F"/>
</g>
<g filter="url(#filter1_bd_1_369)">
<path d="M312 181H30C24.4772 181 20 185.477 20 191V235.751C20 237.337 20.3775 238.901 21.1013 240.313L35.5707 268.536C37.0391 271.4 37.0391 274.796 35.5707 277.66L21.1013 305.884C20.3775 307.296 20 308.86 20 310.446V350C20 355.523 24.4772 360 30 360H312C317.523 360 322 355.523 322 350V310.392C322 308.84 321.639 307.31 320.945 305.921L306.773 277.57C305.366 274.755 305.366 271.442 306.773 268.627L320.945 240.276C321.639 238.887 322 237.357 322 235.804V191C322 185.477 317.523 181 312 181Z" fill="#603E42" fill-opacity="0.8" shape-rendering="crispEdges"/>
</g>
<path d="M70.304 215.724H66.7528C66.7055 215.36 66.6084 215.031 66.4616 214.737C66.3149 214.444 66.1207 214.193 65.8793 213.984C65.6378 213.776 65.3513 213.617 65.0199 213.509C64.6932 213.395 64.331 213.338 63.9332 213.338C63.2277 213.338 62.6193 213.511 62.108 213.857C61.6013 214.202 61.2107 214.702 60.9361 215.355C60.6662 216.009 60.5312 216.799 60.5312 217.727C60.5312 218.693 60.6686 219.503 60.9432 220.156C61.2225 220.805 61.6132 221.295 62.1151 221.626C62.6217 221.953 63.2206 222.116 63.9119 222.116C64.3002 222.116 64.6529 222.067 64.9702 221.967C65.2921 221.868 65.5739 221.723 65.8153 221.534C66.0616 221.34 66.2628 221.106 66.419 220.831C66.58 220.552 66.6913 220.237 66.7528 219.886L70.304 219.908C70.2424 220.552 70.0554 221.186 69.7429 221.811C69.4351 222.436 69.0114 223.007 68.4716 223.523C67.9318 224.034 67.2737 224.441 66.4972 224.744C65.7254 225.047 64.84 225.199 63.8409 225.199C62.5246 225.199 61.3456 224.91 60.304 224.332C59.267 223.75 58.4479 222.902 57.8466 221.79C57.2453 220.677 56.9446 219.323 56.9446 217.727C56.9446 216.127 57.25 214.77 57.8608 213.658C58.4716 212.545 59.2978 211.7 60.3395 211.122C61.3812 210.545 62.5483 210.256 63.8409 210.256C64.7216 210.256 65.536 210.379 66.2841 210.625C67.0322 210.866 67.6903 211.222 68.2585 211.69C68.8267 212.154 69.2884 212.725 69.6435 213.402C69.9986 214.079 70.2188 214.853 70.304 215.724ZM72.3157 225V214.091H75.7887V225H72.3157ZM74.0558 212.82C73.5681 212.82 73.149 212.659 72.7987 212.337C72.4483 212.01 72.2731 211.617 72.2731 211.158C72.2731 210.703 72.4483 210.315 72.7987 209.993C73.149 209.666 73.5681 209.503 74.0558 209.503C74.5482 209.503 74.9672 209.666 75.3129 209.993C75.6632 210.315 75.8384 210.703 75.8384 211.158C75.8384 211.617 75.6632 212.01 75.3129 212.337C74.9672 212.659 74.5482 212.82 74.0558 212.82ZM81.4723 218.778V225H77.9993V214.091H81.3018V216.094H81.4226C81.6641 215.426 82.076 214.903 82.6584 214.524C83.2408 214.141 83.9344 213.949 84.7393 213.949C85.5064 213.949 86.1716 214.122 86.7351 214.467C87.3033 214.808 87.7436 215.286 88.0561 215.902C88.3733 216.513 88.5296 217.228 88.5249 218.047V225H85.0518V218.729C85.0566 218.123 84.9027 217.649 84.5902 217.308C84.2824 216.967 83.8539 216.797 83.3047 216.797C82.9401 216.797 82.6181 216.877 82.3388 217.038C82.0642 217.195 81.8511 217.42 81.6996 217.713C81.5528 218.007 81.477 218.362 81.4723 218.778ZM95.7745 225.206C94.6334 225.206 93.6486 224.981 92.82 224.531C91.9961 224.077 91.3616 223.43 90.9165 222.592C90.4762 221.75 90.256 220.748 90.256 219.588C90.256 218.461 90.4786 217.476 90.9237 216.634C91.3687 215.786 91.9961 215.128 92.8058 214.659C93.6154 214.186 94.5695 213.949 95.668 213.949C96.4445 213.949 97.1547 214.07 97.7987 214.311C98.4426 214.553 98.9989 214.91 99.4677 215.384C99.9364 215.857 100.301 216.442 100.561 217.138C100.822 217.829 100.952 218.622 100.952 219.517V220.384H91.4705V218.366H97.7205C97.7158 217.997 97.6282 217.668 97.4577 217.379C97.2873 217.09 97.0529 216.866 96.7546 216.705C96.4611 216.539 96.1225 216.456 95.739 216.456C95.3507 216.456 95.0027 216.544 94.695 216.719C94.3872 216.889 94.1433 217.124 93.9634 217.422C93.7835 217.715 93.6888 218.049 93.6793 218.423V220.476C93.6793 220.921 93.7669 221.312 93.9421 221.648C94.1173 221.979 94.3659 222.237 94.6879 222.422C95.0098 222.607 95.3933 222.699 95.8384 222.699C96.1462 222.699 96.4255 222.656 96.6765 222.571C96.9274 222.486 97.1429 222.36 97.3228 222.195C97.5027 222.029 97.6377 221.825 97.7276 221.584L100.917 221.676C100.784 222.391 100.493 223.014 100.043 223.544C99.5979 224.07 99.0131 224.479 98.2887 224.773C97.5643 225.062 96.7262 225.206 95.7745 225.206ZM102.726 225V214.091H106.028V216.094H106.149C106.376 215.431 106.76 214.908 107.3 214.524C107.839 214.141 108.483 213.949 109.232 213.949C109.989 213.949 110.638 214.143 111.178 214.531C111.717 214.92 112.061 215.44 112.207 216.094H112.321C112.525 215.445 112.922 214.927 113.514 214.538C114.106 214.145 114.804 213.949 115.609 213.949C116.642 213.949 117.48 214.28 118.124 214.943C118.768 215.601 119.089 216.506 119.089 217.656V225H115.616V218.452C115.616 217.907 115.477 217.493 115.197 217.209C114.918 216.92 114.556 216.776 114.111 216.776C113.633 216.776 113.256 216.932 112.982 217.244C112.712 217.552 112.577 217.966 112.577 218.487V225H109.239V218.416C109.239 217.91 109.101 217.509 108.827 217.216C108.552 216.922 108.19 216.776 107.74 216.776C107.437 216.776 107.17 216.849 106.938 216.996C106.705 217.138 106.523 217.341 106.391 217.607C106.263 217.872 106.199 218.184 106.199 218.544V225H102.726ZM124.317 225.185C123.621 225.185 123.003 225.069 122.463 224.837C121.928 224.6 121.504 224.245 121.192 223.771C120.884 223.293 120.73 222.694 120.73 221.974C120.73 221.368 120.837 220.857 121.05 220.44C121.263 220.024 121.556 219.685 121.93 219.425C122.304 219.164 122.735 218.968 123.223 218.835C123.711 218.698 124.232 218.606 124.786 218.558C125.406 218.501 125.905 218.442 126.284 218.381C126.663 218.314 126.938 218.222 127.108 218.104C127.283 217.981 127.371 217.808 127.371 217.585V217.55C127.371 217.185 127.245 216.903 126.994 216.705C126.743 216.506 126.405 216.406 125.979 216.406C125.519 216.406 125.15 216.506 124.871 216.705C124.591 216.903 124.414 217.178 124.338 217.528L121.135 217.415C121.23 216.752 121.473 216.16 121.866 215.639C122.264 215.114 122.809 214.702 123.5 214.403C124.196 214.1 125.032 213.949 126.007 213.949C126.703 213.949 127.345 214.032 127.932 214.197C128.519 214.358 129.03 214.595 129.466 214.908C129.902 215.215 130.238 215.594 130.474 216.044C130.716 216.494 130.837 217.008 130.837 217.585V225H127.57V223.48H127.484C127.29 223.849 127.042 224.162 126.739 224.418C126.44 224.673 126.088 224.865 125.68 224.993C125.278 225.121 124.823 225.185 124.317 225.185ZM125.389 222.912C125.763 222.912 126.099 222.836 126.398 222.685C126.701 222.533 126.942 222.325 127.122 222.06C127.302 221.79 127.392 221.477 127.392 221.122V220.085C127.293 220.137 127.172 220.185 127.03 220.227C126.893 220.27 126.741 220.31 126.575 220.348C126.41 220.386 126.239 220.419 126.064 220.447C125.889 220.476 125.721 220.502 125.56 220.526C125.233 220.578 124.954 220.658 124.722 220.767C124.494 220.876 124.319 221.018 124.196 221.193C124.078 221.364 124.018 221.567 124.018 221.804C124.018 222.164 124.146 222.438 124.402 222.628C124.662 222.817 124.991 222.912 125.389 222.912Z" fill="#F3F3F3"/>
<path d="M56 245H286" stroke="#F3F3F3" stroke-opacity="0.25" stroke-width="2"/>
<path d="M56.3977 263.832V262.727H62.2003V263.832H59.9524V270H58.6456V263.832H56.3977ZM63.2621 270V264.545H64.5476V270H63.2621ZM63.9084 263.771C63.7048 263.771 63.5296 263.704 63.3828 263.569C63.236 263.432 63.1626 263.267 63.1626 263.075C63.1626 262.881 63.236 262.717 63.3828 262.582C63.5296 262.444 63.7048 262.376 63.9084 262.376C64.1143 262.376 64.2895 262.444 64.4339 262.582C64.5807 262.717 64.6541 262.881 64.6541 263.075C64.6541 263.267 64.5807 263.432 64.4339 263.569C64.2895 263.704 64.1143 263.771 63.9084 263.771ZM68.2488 270.107C67.7042 270.107 67.2367 269.987 66.8461 269.748C66.4578 269.509 66.1583 269.179 65.9476 268.757C65.7393 268.333 65.6351 267.846 65.6351 267.294C65.6351 266.74 65.7417 266.251 65.9547 265.827C66.1678 265.401 66.4685 265.07 66.8567 264.833C67.2473 264.594 67.709 264.474 68.2417 264.474C68.6844 264.474 69.0762 264.556 69.4171 264.719C69.7604 264.88 70.0338 265.109 70.2374 265.405C70.441 265.698 70.557 266.042 70.5854 266.435H69.3567C69.307 266.172 69.1886 265.953 69.0016 265.778C68.8169 265.6 68.5695 265.511 68.2594 265.511C67.9966 265.511 67.7658 265.582 67.5669 265.724C67.3681 265.864 67.213 266.065 67.1017 266.328C66.9928 266.591 66.9384 266.906 66.9384 267.273C66.9384 267.644 66.9928 267.964 67.1017 268.232C67.2106 268.497 67.3633 268.701 67.5598 268.846C67.7587 268.988 67.9919 269.059 68.2594 269.059C68.4488 269.059 68.6181 269.023 68.7672 268.952C68.9187 268.879 69.0454 268.774 69.1472 268.636C69.249 268.499 69.3188 268.332 69.3567 268.136H70.5854C70.5546 268.522 70.441 268.864 70.2445 269.162C70.048 269.458 69.7805 269.69 69.4419 269.858C69.1034 270.024 68.7057 270.107 68.2488 270.107ZM72.8129 268.288L72.8093 266.737H73.0153L74.9755 264.545H76.4776L74.0664 267.23H73.8001L72.8129 268.288ZM71.641 270V262.727H72.9265V270H71.641ZM75.0643 270L73.2887 267.518L74.1552 266.612L76.6019 270H75.0643ZM79.5245 270.107C78.9776 270.107 78.5053 269.993 78.1076 269.766C77.7122 269.536 77.408 269.212 77.195 268.793C76.9819 268.371 76.8754 267.875 76.8754 267.305C76.8754 266.744 76.9819 266.251 77.195 265.827C77.4104 265.401 77.7111 265.07 78.0969 264.833C78.4828 264.594 78.9362 264.474 79.457 264.474C79.7932 264.474 80.1104 264.529 80.4087 264.638C80.7094 264.744 80.9746 264.91 81.2042 265.135C81.4362 265.36 81.6185 265.646 81.7511 265.994C81.8836 266.34 81.9499 266.752 81.9499 267.23V267.624H77.479V266.758H80.7177C80.7153 266.512 80.6621 266.293 80.5579 266.101C80.4537 265.907 80.3081 265.754 80.1211 265.643C79.9364 265.531 79.721 265.476 79.4748 265.476C79.212 265.476 78.9812 265.54 78.7823 265.668C78.5835 265.793 78.4284 265.959 78.3171 266.165C78.2082 266.368 78.1526 266.592 78.1502 266.836V267.592C78.1502 267.91 78.2082 268.182 78.3242 268.409C78.4402 268.634 78.6024 268.807 78.8107 268.928C79.0191 269.046 79.2629 269.105 79.5423 269.105C79.7293 269.105 79.8986 269.079 80.0501 269.027C80.2016 268.973 80.333 268.893 80.4442 268.789C80.5555 268.685 80.6396 268.556 80.6964 268.402L81.8967 268.537C81.8209 268.854 81.6765 269.131 81.4634 269.368C81.2527 269.602 80.9828 269.785 80.6538 269.915C80.3247 270.043 79.9483 270.107 79.5245 270.107ZM85.7612 264.545V265.54H82.6255V264.545H85.7612ZM83.3997 263.239H84.6852V268.359C84.6852 268.532 84.7112 268.665 84.7633 268.757C84.8178 268.847 84.8888 268.909 84.9764 268.942C85.064 268.975 85.161 268.991 85.2676 268.991C85.3481 268.991 85.4215 268.986 85.4877 268.974C85.5564 268.962 85.6085 268.951 85.644 268.942L85.8606 269.947C85.792 269.97 85.6937 269.996 85.5659 270.025C85.4404 270.053 85.2865 270.07 85.1042 270.075C84.7823 270.084 84.4922 270.036 84.2342 269.929C83.9761 269.82 83.7714 269.652 83.6199 269.425C83.4707 269.197 83.3973 268.913 83.3997 268.572V263.239ZM90.6911 262.727V270H89.3736V262.727H90.6911ZM94.5822 270H92.1177V262.727H94.6319C95.354 262.727 95.9743 262.873 96.4927 263.164C97.0136 263.453 97.4136 263.868 97.693 264.411C97.9724 264.953 98.112 265.601 98.112 266.357C98.112 267.114 97.9712 267.765 97.6895 268.31C97.4101 268.854 97.0065 269.272 96.4785 269.563C95.9529 269.854 95.3208 270 94.5822 270ZM93.4352 268.86H94.5183C95.0249 268.86 95.4475 268.768 95.786 268.583C96.1246 268.396 96.3791 268.118 96.5495 267.749C96.72 267.377 96.8052 266.913 96.8052 266.357C96.8052 265.8 96.72 265.339 96.5495 264.972C96.3791 264.602 96.127 264.326 95.7931 264.144C95.4617 263.96 95.0498 263.867 94.5574 263.867H93.4352V268.86Z" fill="#F3F3F3" fill-opacity="0.5"/>
<path d="M59.2315 287.099C58.7036 287.099 58.2348 287.011 57.8253 286.833C57.4181 286.656 57.0985 286.413 56.8665 286.105C56.6368 285.795 56.5232 285.443 56.5256 285.05C56.5232 284.745 56.5895 284.464 56.7244 284.209C56.8594 283.953 57.0417 283.74 57.2713 283.57C57.5033 283.397 57.7614 283.287 58.0455 283.239V283.19C57.6714 283.107 57.3684 282.916 57.1364 282.618C56.9067 282.317 56.7931 281.97 56.7955 281.577C56.7931 281.203 56.8973 280.87 57.108 280.576C57.3187 280.282 57.6075 280.052 57.9744 279.884C58.3414 279.713 58.7604 279.628 59.2315 279.628C59.6979 279.628 60.1134 279.713 60.478 279.884C60.8449 280.052 61.1338 280.282 61.3445 280.576C61.5575 280.87 61.6641 281.203 61.6641 281.577C61.6641 281.97 61.5469 282.317 61.3125 282.618C61.0805 282.916 60.781 283.107 60.4141 283.19V283.239C60.6982 283.287 60.9538 283.397 61.1811 283.57C61.4107 283.74 61.593 283.953 61.728 284.209C61.8653 284.464 61.9339 284.745 61.9339 285.05C61.9339 285.443 61.8179 285.795 61.5859 286.105C61.3539 286.413 61.0343 286.656 60.6271 286.833C60.2223 287.011 59.7571 287.099 59.2315 287.099ZM59.2315 286.084C59.5038 286.084 59.7405 286.038 59.9418 285.945C60.143 285.851 60.2992 285.718 60.4105 285.548C60.5218 285.377 60.5786 285.181 60.581 284.958C60.5786 284.726 60.5182 284.521 60.3999 284.344C60.2839 284.164 60.1241 284.023 59.9205 283.921C59.7192 283.819 59.4896 283.768 59.2315 283.768C58.9711 283.768 58.7391 283.819 58.5355 283.921C58.3319 284.023 58.1709 284.164 58.0526 284.344C57.9366 284.521 57.8797 284.726 57.8821 284.958C57.8797 285.181 57.9342 285.377 58.0455 285.548C58.1567 285.716 58.313 285.847 58.5142 285.942C58.7178 286.036 58.9569 286.084 59.2315 286.084ZM59.2315 282.771C59.4541 282.771 59.6506 282.726 59.821 282.636C59.9938 282.546 60.13 282.42 60.2294 282.259C60.3288 282.098 60.3797 281.912 60.3821 281.702C60.3797 281.493 60.33 281.311 60.233 281.155C60.1359 280.996 60.0009 280.874 59.8281 280.789C59.6553 280.701 59.4564 280.658 59.2315 280.658C59.0019 280.658 58.7995 280.701 58.6243 280.789C58.4515 280.874 58.3165 280.996 58.2195 281.155C58.1248 281.311 58.0786 281.493 58.081 281.702C58.0786 281.912 58.1259 282.098 58.223 282.259C58.3224 282.418 58.4586 282.543 58.6314 282.636C58.8066 282.726 59.0066 282.771 59.2315 282.771ZM65.7115 287.099C65.2001 287.099 64.7456 287.012 64.3478 286.837C63.9525 286.661 63.64 286.418 63.4103 286.105C63.1807 285.793 63.0588 285.432 63.0446 285.022H64.3798C64.3916 285.219 64.4567 285.39 64.5751 285.537C64.6935 285.681 64.8509 285.794 65.0474 285.874C65.2439 285.955 65.4641 285.995 65.7079 285.995C65.9683 285.995 66.1992 285.95 66.4004 285.86C66.6016 285.768 66.7591 285.64 66.8727 285.477C66.9863 285.313 67.042 285.125 67.0396 284.912C67.042 284.692 66.9851 284.498 66.8691 284.33C66.7531 284.161 66.585 284.03 66.3649 283.935C66.1471 283.841 65.8843 283.793 65.5765 283.793H64.9338V282.778H65.5765C65.8298 282.778 66.0512 282.734 66.2406 282.646C66.4324 282.559 66.5827 282.436 66.6916 282.277C66.8005 282.116 66.8538 281.93 66.8514 281.719C66.8538 281.513 66.8076 281.335 66.7129 281.183C66.6206 281.029 66.4892 280.91 66.3187 280.825C66.1506 280.739 65.9529 280.697 65.7257 280.697C65.5031 280.697 65.2972 280.737 65.1078 280.817C64.9184 280.898 64.7657 281.013 64.6497 281.162C64.5337 281.309 64.4721 281.484 64.465 281.688H63.1973C63.2067 281.28 63.3239 280.923 63.5488 280.615C63.7761 280.305 64.0791 280.063 64.4579 279.891C64.8367 279.715 65.2617 279.628 65.7328 279.628C66.2181 279.628 66.6395 279.719 66.997 279.901C67.3568 280.081 67.635 280.324 67.8315 280.629C68.028 280.935 68.1262 281.272 68.1262 281.641C68.1286 282.051 68.0079 282.394 67.764 282.671C67.5225 282.948 67.2053 283.129 66.8123 283.214V283.271C67.3237 283.342 67.7155 283.532 67.9877 283.839C68.2624 284.145 68.3985 284.525 68.3961 284.979C68.3961 285.387 68.2801 285.751 68.0481 286.073C67.8185 286.393 67.5012 286.644 67.0964 286.826C66.694 287.008 66.2323 287.099 65.7115 287.099ZM69.6151 287V286.048L72.1399 283.573C72.3814 283.329 72.5826 283.113 72.7436 282.923C72.9046 282.734 73.0253 282.55 73.1058 282.373C73.1863 282.195 73.2266 282.006 73.2266 281.805C73.2266 281.575 73.1745 281.379 73.0703 281.215C72.9661 281.049 72.8229 280.922 72.6406 280.832C72.4583 280.742 72.2512 280.697 72.0192 280.697C71.7801 280.697 71.5705 280.746 71.3906 280.846C71.2107 280.943 71.071 281.081 70.9716 281.261C70.8745 281.441 70.826 281.656 70.826 281.904H69.5724C69.5724 281.442 69.6778 281.041 69.8885 280.7C70.0992 280.359 70.3892 280.095 70.7585 279.908C71.1302 279.721 71.5563 279.628 72.0369 279.628C72.5246 279.628 72.9531 279.719 73.3224 279.901C73.6918 280.084 73.9782 280.333 74.1818 280.651C74.3878 280.968 74.4908 281.33 74.4908 281.737C74.4908 282.009 74.4387 282.277 74.3345 282.54C74.2304 282.803 74.0469 283.094 73.7841 283.413C73.5237 283.733 73.1579 284.12 72.6868 284.575L71.4332 285.849V285.899H74.6009V287H69.6151ZM76.0923 287L79.1854 280.878V280.828H75.5952V279.727H80.549V280.853L77.4595 287H76.0923ZM84.6532 279.727V287H83.3358V281.009H83.2931L81.5922 282.096V280.888L83.3997 279.727H84.6532ZM89.085 287.099C88.5571 287.099 88.0884 287.011 87.6788 286.833C87.2716 286.656 86.952 286.413 86.72 286.105C86.4904 285.795 86.3767 285.443 86.3791 285.05C86.3767 284.745 86.443 284.464 86.5779 284.209C86.7129 283.953 86.8952 283.74 87.1248 283.57C87.3568 283.397 87.6149 283.287 87.899 283.239V283.19C87.5249 283.107 87.2219 282.916 86.9899 282.618C86.7602 282.317 86.6466 281.97 86.649 281.577C86.6466 281.203 86.7508 280.87 86.9615 280.576C87.1722 280.282 87.461 280.052 87.8279 279.884C88.1949 279.713 88.6139 279.628 89.085 279.628C89.5514 279.628 89.9669 279.713 90.3315 279.884C90.6984 280.052 90.9873 280.282 91.198 280.576C91.411 280.87 91.5176 281.203 91.5176 281.577C91.5176 281.97 91.4004 282.317 91.166 282.618C90.934 282.916 90.6345 283.107 90.2676 283.19V283.239C90.5517 283.287 90.8074 283.397 91.0346 283.57C91.2643 283.74 91.4466 283.953 91.5815 284.209C91.7188 284.464 91.7875 284.745 91.7875 285.05C91.7875 285.443 91.6715 285.795 91.4395 286.105C91.2074 286.413 90.8878 286.656 90.4806 286.833C90.0758 287.011 89.6106 287.099 89.085 287.099ZM89.085 286.084C89.3573 286.084 89.594 286.038 89.7953 285.945C89.9965 285.851 90.1528 285.718 90.264 285.548C90.3753 285.377 90.4321 285.181 90.4345 284.958C90.4321 284.726 90.3717 284.521 90.2534 284.344C90.1374 284.164 89.9776 284.023 89.774 283.921C89.5727 283.819 89.3431 283.768 89.085 283.768C88.8246 283.768 88.5926 283.819 88.389 283.921C88.1854 284.023 88.0244 284.164 87.9061 284.344C87.7901 284.521 87.7333 284.726 87.7356 284.958C87.7333 285.181 87.7877 285.377 87.899 285.548C88.0102 285.716 88.1665 285.847 88.3677 285.942C88.5713 286.036 88.8104 286.084 89.085 286.084ZM89.085 282.771C89.3076 282.771 89.5041 282.726 89.6745 282.636C89.8474 282.546 89.9835 282.42 90.0829 282.259C90.1824 282.098 90.2333 281.912 90.2356 281.702C90.2333 281.493 90.1835 281.311 90.0865 281.155C89.9894 280.996 89.8545 280.874 89.6816 280.789C89.5088 280.701 89.31 280.658 89.085 280.658C88.8554 280.658 88.653 280.701 88.4778 280.789C88.305 280.874 88.17 280.996 88.073 281.155C87.9783 281.311 87.9321 281.493 87.9345 281.702C87.9321 281.912 87.9795 282.098 88.0765 282.259C88.176 282.418 88.3121 282.543 88.4849 282.636C88.6601 282.726 88.8601 282.771 89.085 282.771ZM95.4798 279.628C95.8278 279.63 96.1663 279.692 96.4954 279.812C96.8268 279.931 97.1251 280.125 97.3903 280.395C97.6554 280.662 97.8661 281.021 98.0224 281.471C98.1786 281.921 98.2567 282.477 98.2567 283.14C98.2591 283.765 98.1928 284.324 98.0579 284.816C97.9253 285.306 97.7347 285.72 97.4862 286.059C97.2376 286.397 96.9381 286.656 96.5877 286.833C96.2373 287.011 95.8432 287.099 95.4052 287.099C94.9459 287.099 94.5387 287.009 94.1836 286.83C93.8308 286.65 93.5456 286.403 93.3278 286.091C93.11 285.778 92.9762 285.421 92.9265 285.018H94.2227C94.2889 285.307 94.4239 285.537 94.6275 285.707C94.8335 285.875 95.0927 285.96 95.4052 285.96C95.9094 285.96 96.2977 285.741 96.57 285.303C96.8422 284.865 96.9783 284.256 96.9783 283.477H96.9286C96.8126 283.686 96.6623 283.866 96.4776 284.017C96.293 284.166 96.0835 284.281 95.8491 284.362C95.6171 284.442 95.3709 284.482 95.1104 284.482C94.6843 284.482 94.3008 284.38 93.9599 284.177C93.6213 283.973 93.3526 283.694 93.1538 283.339C92.9573 282.984 92.8578 282.578 92.8555 282.121C92.8555 281.647 92.9644 281.222 93.1822 280.846C93.4023 280.467 93.7089 280.169 94.1019 279.951C94.4949 279.731 94.9542 279.623 95.4798 279.628ZM95.4833 280.693C95.2276 280.693 94.9968 280.756 94.7908 280.881C94.5872 281.004 94.4263 281.173 94.3079 281.386C94.1919 281.596 94.1339 281.832 94.1339 282.092C94.1362 282.35 94.1942 282.585 94.3079 282.795C94.4239 283.006 94.5813 283.173 94.7802 283.296C94.9814 283.419 95.2111 283.481 95.4691 283.481C95.6609 283.481 95.8396 283.444 96.0053 283.371C96.171 283.297 96.3155 283.196 96.4386 283.065C96.564 282.933 96.6611 282.782 96.7298 282.614C96.8008 282.446 96.8351 282.269 96.8327 282.082C96.8327 281.833 96.7736 281.603 96.6552 281.393C96.5392 281.182 96.3794 281.013 96.1758 280.885C95.9746 280.757 95.7437 280.693 95.4833 280.693ZM99.3079 285.651V284.603L102.394 279.727H103.267V281.219H102.735L100.657 284.511V284.567H104.965V285.651H99.3079ZM102.777 287V285.331L102.792 284.862V279.727H104.034V287H102.777ZM108.628 287.099C108.154 287.099 107.731 287.011 107.357 286.833C106.982 286.653 106.685 286.407 106.465 286.094C106.247 285.782 106.131 285.424 106.117 285.022H107.396C107.419 285.32 107.548 285.564 107.783 285.754C108.017 285.941 108.299 286.034 108.628 286.034C108.886 286.034 109.116 285.975 109.317 285.857C109.518 285.738 109.677 285.574 109.793 285.363C109.909 285.152 109.965 284.912 109.963 284.642C109.965 284.367 109.907 284.124 109.789 283.911C109.671 283.697 109.509 283.531 109.303 283.41C109.097 283.287 108.86 283.225 108.592 283.225C108.375 283.223 108.16 283.263 107.95 283.346C107.739 283.429 107.572 283.538 107.449 283.673L106.259 283.477L106.639 279.727H110.858V280.828H107.729L107.52 282.756H107.562C107.697 282.598 107.888 282.466 108.134 282.362C108.38 282.256 108.65 282.202 108.944 282.202C109.384 282.202 109.777 282.307 110.123 282.515C110.469 282.721 110.741 283.005 110.94 283.367C111.138 283.729 111.238 284.144 111.238 284.61C111.238 285.091 111.127 285.519 110.904 285.896C110.684 286.27 110.377 286.564 109.984 286.78C109.594 286.993 109.142 287.099 108.628 287.099ZM114.952 279.628C115.3 279.63 115.639 279.692 115.968 279.812C116.299 279.931 116.598 280.125 116.863 280.395C117.128 280.662 117.339 281.021 117.495 281.471C117.651 281.921 117.729 282.477 117.729 283.14C117.732 283.765 117.665 284.324 117.531 284.816C117.398 285.306 117.207 285.72 116.959 286.059C116.71 286.397 116.411 286.656 116.06 286.833C115.71 287.011 115.316 287.099 114.878 287.099C114.419 287.099 114.011 287.009 113.656 286.83C113.304 286.65 113.018 286.403 112.8 286.091C112.583 285.778 112.449 285.421 112.399 285.018H113.695C113.762 285.307 113.897 285.537 114.1 285.707C114.306 285.875 114.565 285.96 114.878 285.96C115.382 285.96 115.77 285.741 116.043 285.303C116.315 284.865 116.451 284.256 116.451 283.477H116.401C116.285 283.686 116.135 283.866 115.95 284.017C115.766 284.166 115.556 284.281 115.322 284.362C115.09 284.442 114.844 284.482 114.583 284.482C114.157 284.482 113.773 284.38 113.433 284.177C113.094 283.973 112.825 283.694 112.626 283.339C112.43 282.984 112.33 282.578 112.328 282.121C112.328 281.647 112.437 281.222 112.655 280.846C112.875 280.467 113.182 280.169 113.575 279.951C113.968 279.731 114.427 279.623 114.952 279.628ZM114.956 280.693C114.7 280.693 114.469 280.756 114.263 280.881C114.06 281.004 113.899 281.173 113.781 281.386C113.665 281.596 113.607 281.832 113.607 282.092C113.609 282.35 113.667 282.585 113.781 282.795C113.897 283.006 114.054 283.173 114.253 283.296C114.454 283.419 114.684 283.481 114.942 283.481C115.134 283.481 115.312 283.444 115.478 283.371C115.644 283.297 115.788 283.196 115.911 283.065C116.037 282.933 116.134 282.782 116.202 282.614C116.273 282.446 116.308 282.269 116.305 282.082C116.305 281.833 116.246 281.603 116.128 281.393C116.012 281.182 115.852 281.013 115.648 280.885C115.447 280.757 115.216 280.693 114.956 280.693ZM121.497 287.099C120.969 287.099 120.5 287.011 120.091 286.833C119.684 286.656 119.364 286.413 119.132 286.105C118.902 285.795 118.789 285.443 118.791 285.05C118.789 284.745 118.855 284.464 118.99 284.209C119.125 283.953 119.307 283.74 119.537 283.57C119.769 283.397 120.027 283.287 120.311 283.239V283.19C119.937 283.107 119.634 282.916 119.402 282.618C119.172 282.317 119.059 281.97 119.061 281.577C119.059 281.203 119.163 280.87 119.374 280.576C119.584 280.282 119.873 280.052 120.24 279.884C120.607 279.713 121.026 279.628 121.497 279.628C121.964 279.628 122.379 279.713 122.744 279.884C123.111 280.052 123.399 280.282 123.61 280.576C123.823 280.87 123.93 281.203 123.93 281.577C123.93 281.97 123.812 282.317 123.578 282.618C123.346 282.916 123.047 283.107 122.68 283.19V283.239C122.964 283.287 123.219 283.397 123.447 283.57C123.676 283.74 123.859 283.953 123.994 284.209C124.131 284.464 124.2 284.745 124.2 285.05C124.2 285.443 124.084 285.795 123.852 286.105C123.62 286.413 123.3 286.656 122.893 286.833C122.488 287.011 122.023 287.099 121.497 287.099ZM121.497 286.084C121.769 286.084 122.006 286.038 122.207 285.945C122.409 285.851 122.565 285.718 122.676 285.548C122.787 285.377 122.844 285.181 122.847 284.958C122.844 284.726 122.784 284.521 122.665 284.344C122.549 284.164 122.39 284.023 122.186 283.921C121.985 283.819 121.755 283.768 121.497 283.768C121.237 283.768 121.005 283.819 120.801 283.921C120.598 284.023 120.437 284.164 120.318 284.344C120.202 284.521 120.145 284.726 120.148 284.958C120.145 285.181 120.2 285.377 120.311 285.548C120.422 285.716 120.579 285.847 120.78 285.942C120.983 286.036 121.223 286.084 121.497 286.084ZM121.497 282.771C121.72 282.771 121.916 282.726 122.087 282.636C122.259 282.546 122.396 282.42 122.495 282.259C122.594 282.098 122.645 281.912 122.648 281.702C122.645 281.493 122.596 281.311 122.499 281.155C122.402 280.996 122.267 280.874 122.094 280.789C121.921 280.701 121.722 280.658 121.497 280.658C121.268 280.658 121.065 280.701 120.89 280.789C120.717 280.874 120.582 280.996 120.485 281.155C120.39 281.311 120.344 281.493 120.347 281.702C120.344 281.912 120.392 282.098 120.489 282.259C120.588 282.418 120.724 282.543 120.897 282.636C121.072 282.726 121.272 282.771 121.497 282.771ZM125.236 285.651V284.603L128.322 279.727H129.195V281.219H128.662L126.585 284.511V284.567H130.893V285.651H125.236ZM128.705 287V285.331L128.719 284.862V279.727H129.962V287H128.705Z" fill="#F3F3F3"/>
<rect x="56" y="304" width="2" height="25" fill="#F3F3F3"/>
<rect x="60" y="304" width="5" height="25" fill="#F3F3F3"/>
<rect x="69" y="304" width="4" height="25" fill="#F3F3F3"/>
<rect x="74" y="304" width="2" height="25" fill="#F3F3F3"/>
<rect x="77" y="304" width="2" height="25" fill="#F3F3F3"/>
<rect x="82" y="304" width="3" height="25" fill="#F3F3F3"/>
<rect x="89" y="304" width="3" height="25" fill="#F3F3F3"/>
<rect x="93" y="304" width="4" height="25" fill="#F3F3F3"/>
<rect x="98" y="304" width="2" height="25" fill="#F3F3F3"/>
<rect x="104" y="304" width="2" height="25" fill="#F3F3F3"/>
<rect x="107" y="304" width="4" height="25" fill="#F3F3F3"/>
<rect x="114" y="304" width="2" height="25" fill="#F3F3F3"/>
<rect x="118" y="304" width="5" height="25" fill="#F3F3F3"/>
<rect x="127" y="304" width="4" height="25" fill="#F3F3F3"/>
<rect x="132" y="304" width="2" height="25" fill="#F3F3F3"/>
<rect x="135" y="304" width="2" height="25" fill="#F3F3F3"/>
<rect x="140" y="304" width="3" height="25" fill="#F3F3F3"/>
<rect x="147" y="304" width="3" height="25" fill="#F3F3F3"/>
<rect x="151" y="304" width="4" height="25" fill="#F3F3F3"/>
<rect x="156" y="304" width="2" height="25" fill="#F3F3F3"/>
<rect x="162" y="304" width="2" height="25" fill="#F3F3F3"/>
<rect x="165" y="304" width="4" height="25" fill="#F3F3F3"/>
<rect x="218" y="304" width="2" height="25" fill="#F3F3F3"/>
<rect x="222" y="304" width="5" height="25" fill="#F3F3F3"/>
<rect x="231" y="304" width="4" height="25" fill="#F3F3F3"/>
<rect x="236" y="304" width="2" height="25" fill="#F3F3F3"/>
<rect x="239" y="304" width="2" height="25" fill="#F3F3F3"/>
<rect x="244" y="304" width="3" height="25" fill="#F3F3F3"/>
<rect x="251" y="304" width="3" height="25" fill="#F3F3F3"/>
<rect x="255" y="304" width="4" height="25" fill="#F3F3F3"/>
<rect x="260" y="304" width="2" height="25" fill="#F3F3F3"/>
<rect x="266" y="304" width="2" height="25" fill="#F3F3F3"/>
<rect x="269" y="304" width="4" height="25" fill="#F3F3F3"/>
<rect x="174" y="304" width="2" height="25" fill="#F3F3F3"/>
<rect x="181" y="304" width="4" height="25" fill="#F3F3F3"/>
<rect x="186" y="304" width="3" height="25" fill="#F3F3F3"/>
<rect x="190" y="304" width="3" height="25" fill="#F3F3F3"/>
<rect x="194" y="304" width="4" height="25" fill="#F3F3F3"/>
<rect x="202" y="304" width="2" height="25" fill="#F3F3F3"/>
<rect x="205" y="304" width="2" height="25" fill="#F3F3F3"/>
<rect x="210" y="304" width="3" height="25" fill="#F3F3F3"/>
<rect x="214" y="304" width="2" height="25" fill="#F3F3F3"/>
<rect x="276" y="304" width="2" height="25" fill="#F3F3F3"/>
<rect x="282" y="304" width="4" height="25" fill="#F3F3F3"/>
<g clip-path="url(#clip1_1_369)">
<path d="M273.981 207.968C279.504 207.968 283.981 212.445 283.981 217.968C283.982 219.521 283.621 221.052 282.927 222.441C282.233 223.829 281.225 225.037 279.982 225.968H281.981C282.246 225.968 282.5 226.073 282.688 226.261C282.876 226.448 282.981 226.703 282.981 226.968C282.981 227.233 282.876 227.488 282.688 227.675C282.5 227.863 282.246 227.968 281.981 227.968H273.981C268.458 227.968 263.981 223.491 263.981 217.968C263.981 212.445 268.458 207.968 273.981 207.968ZM273.981 219.968C273.45 219.968 272.942 220.179 272.567 220.554C272.192 220.929 271.981 221.438 271.981 221.968C271.981 222.498 272.192 223.007 272.567 223.382C272.942 223.757 273.45 223.968 273.981 223.968C274.511 223.968 275.02 223.757 275.395 223.382C275.77 223.007 275.981 222.498 275.981 221.968C275.981 221.438 275.77 220.929 275.395 220.554C275.02 220.179 274.511 219.968 273.981 219.968ZM269.981 215.968C269.45 215.968 268.942 216.179 268.567 216.554C268.192 216.929 267.981 217.438 267.981 217.968C267.981 218.498 268.192 219.007 268.567 219.382C268.942 219.757 269.45 219.968 269.981 219.968C270.511 219.968 271.02 219.757 271.395 219.382C271.77 219.007 271.981 218.498 271.981 217.968C271.981 217.438 271.77 216.929 271.395 216.554C271.02 216.179 270.511 215.968 269.981 215.968ZM277.981 215.968C277.45 215.968 276.942 216.179 276.567 216.554C276.192 216.929 275.981 217.438 275.981 217.968C275.981 218.498 276.192 219.007 276.567 219.382C276.942 219.757 277.45 219.968 277.981 219.968C278.511 219.968 279.02 219.757 279.395 219.382C279.77 219.007 279.981 218.498 279.981 217.968C279.981 217.438 279.77 216.929 279.395 216.554C279.02 216.179 278.511 215.968 277.981 215.968ZM273.981 211.968C273.45 211.968 272.942 212.179 272.567 212.554C272.192 212.929 271.981 213.438 271.981 213.968C271.981 214.498 272.192 215.007 272.567 215.382C272.942 215.757 273.45 215.968 273.981 215.968C274.511 215.968 275.02 215.757 275.395 215.382C275.77 215.007 275.981 214.498 275.981 213.968C275.981 213.438 275.77 212.929 275.395 212.554C275.02 212.179 274.511 211.968 273.981 211.968Z" fill="#F3F3F3"/>
</g>
<g filter="url(#filter2_d_1_369)">
<path d="M368.638 89.5752L96.2467 16.5882C90.912 15.1588 85.4286 18.3246 83.9992 23.6593L72.3312 67.205C71.9225 68.7301 71.8808 70.3303 72.2094 71.8746L78.8556 103.106C79.5222 106.239 78.648 109.501 76.5044 111.88L55.133 135.605C54.0763 136.778 53.3123 138.184 52.9037 139.709L42.5882 178.207C41.1587 183.542 44.3246 189.025 49.6592 190.455L322.05 263.442C327.385 264.871 332.868 261.705 334.298 256.371L344.627 217.821C345.027 216.329 345.076 214.765 344.77 213.251L338.445 181.973C337.824 178.904 338.677 175.722 340.749 173.374L361.865 149.449C362.887 148.291 363.627 146.912 364.027 145.42L375.709 101.823C377.138 96.4879 373.972 91.0046 368.638 89.5752Z" fill="#D45161"/>
</g>
<path d="M113.566 54.8229L114.305 52.065L126.18 55.247L125.441 58.0048L121.181 56.8633L118.155 68.1553L114.807 67.2582L117.833 55.9662L113.566 54.8229ZM122.98 69.448L125.803 58.9106L129.062 59.7838L128.547 61.7046L128.657 61.7341C129.035 61.0904 129.487 60.6575 130.012 60.4355C130.539 60.2089 131.09 60.1728 131.666 60.3272C131.822 60.3689 131.979 60.4232 132.137 60.4902C132.297 60.5526 132.442 60.6234 132.573 60.7025L131.792 63.6181C131.646 63.5204 131.448 63.4205 131.195 63.3187C130.948 63.218 130.723 63.1407 130.522 63.0868C130.124 62.9802 129.741 62.9732 129.374 63.0658C129.011 63.155 128.697 63.3329 128.429 63.5995C128.167 63.8627 127.98 64.2047 127.867 64.6254L126.334 70.3469L122.98 69.448ZM133.637 72.4949C132.965 72.3147 132.398 72.0428 131.937 71.679C131.481 71.3118 131.164 70.8591 130.985 70.3209C130.811 69.7793 130.817 69.1609 131.004 68.4657C131.161 67.8803 131.396 67.414 131.71 67.0666C132.023 66.7193 132.394 66.4683 132.823 66.3136C133.252 66.1588 133.719 66.0806 134.224 66.0787C134.731 66.0723 135.258 66.1179 135.805 66.2156C136.419 66.3212 136.917 66.3933 137.299 66.4319C137.682 66.4659 137.971 66.4478 138.166 66.3776C138.367 66.304 138.497 66.1598 138.554 65.9448L138.563 65.9105C138.658 65.5584 138.609 65.2538 138.418 64.9967C138.228 64.7397 137.926 64.556 137.515 64.4457C137.071 64.3269 136.689 64.3273 136.367 64.4471C136.046 64.5669 135.803 64.7862 135.639 65.105L132.575 64.1662C132.838 63.5505 133.227 63.0419 133.741 62.6405C134.261 62.2358 134.894 61.9788 135.639 61.8696C136.39 61.757 137.236 61.827 138.178 62.0794C138.85 62.2596 139.449 62.5057 139.973 62.8177C140.498 63.1252 140.931 63.4862 141.271 63.9008C141.612 64.3108 141.839 64.7637 141.951 65.2594C142.068 65.7564 142.051 66.2839 141.902 66.8419L139.983 74.004L136.827 73.1584L137.22 71.6903L137.138 71.6683C136.855 71.9747 136.534 72.2123 136.175 72.3808C135.821 72.5506 135.431 72.6445 135.004 72.6626C134.582 72.6819 134.127 72.626 133.637 72.4949ZM135.261 70.5772C135.623 70.674 135.967 70.6878 136.294 70.6187C136.626 70.5507 136.914 70.412 137.156 70.2025C137.4 69.9883 137.567 69.7098 137.659 69.3668L137.928 68.3652C137.818 68.3897 137.689 68.4042 137.541 68.4086C137.397 68.4142 137.241 68.4139 137.071 68.4076C136.901 68.4013 136.728 68.3892 136.551 68.3713C136.374 68.3534 136.205 68.335 136.044 68.3162C135.715 68.282 135.424 68.2874 135.172 68.3326C134.924 68.3789 134.718 68.4708 134.554 68.6082C134.395 68.7422 134.285 68.9235 134.224 69.1522C134.131 69.4998 134.183 69.7981 134.381 70.0472C134.584 70.2976 134.877 70.4742 135.261 70.5772ZM154.702 66.6541L148.263 76.2227L144.421 75.1933L143.636 63.689L147.169 64.6357L147.166 72.4141L147.276 72.4435L151.169 65.7074L154.702 66.6541ZM157.698 78.9639C156.595 78.6685 155.702 78.1964 155.018 77.5475C154.34 76.8952 153.895 76.1067 153.682 75.182C153.474 74.2539 153.521 73.2296 153.821 72.1091C154.113 71.0206 154.583 70.1269 155.231 69.428C155.88 68.7246 156.656 68.2512 157.56 68.008C158.464 67.7602 159.447 67.7785 160.508 68.0628C161.258 68.2638 161.913 68.5642 162.473 68.9641C163.032 69.364 163.477 69.8533 163.807 70.432C164.137 71.0107 164.338 71.6699 164.41 72.4096C164.482 73.1447 164.403 73.9445 164.171 74.8089L163.947 75.6458L154.788 73.1918L155.31 71.2435L161.348 72.8611C161.439 72.5032 161.439 72.1626 161.349 71.8395C161.259 71.5164 161.091 71.2385 160.845 71.0058C160.604 70.7698 160.298 70.6021 159.928 70.5028C159.553 70.4024 159.194 70.3969 158.852 70.4865C158.51 70.5714 158.214 70.7347 157.963 70.9763C157.713 71.2133 157.535 71.5112 157.429 71.8701L156.898 73.8527C156.783 74.2826 156.766 74.6826 156.849 75.0526C156.932 75.4181 157.105 75.7317 157.369 75.9934C157.632 76.2551 157.978 76.4436 158.408 76.5588C158.706 76.6384 158.986 76.6695 159.251 76.6522C159.515 76.6348 159.756 76.5694 159.973 76.4559C160.189 76.3424 160.372 76.1806 160.522 75.9707L163.578 76.8852C163.265 77.5415 162.823 78.0675 162.251 78.4633C161.685 78.8558 161.014 79.1001 160.238 79.1961C159.464 79.2876 158.617 79.2102 157.698 78.9639ZM171.585 67.4131L167.82 81.463L164.465 80.5641L168.23 66.5142L171.585 67.4131Z" fill="#222222"/>
<path d="M104.704 85.4821L326.867 145.01" stroke="#222222" stroke-opacity="0.25" stroke-width="2"/>
<path d="M100.192 103.856L100.478 102.789L106.083 104.291L105.797 105.358L103.626 104.776L102.029 110.734L100.767 110.396L102.364 104.438L100.192 103.856ZM105.226 111.591L106.638 106.322L107.88 106.655L106.468 111.923L105.226 111.591ZM107.463 105.742C107.266 105.689 107.114 105.578 107.007 105.41C106.901 105.239 106.873 105.061 106.922 104.876C106.973 104.689 107.086 104.549 107.263 104.456C107.44 104.362 107.627 104.341 107.824 104.394C108.023 104.447 108.174 104.558 108.278 104.728C108.385 104.897 108.413 105.075 108.363 105.262C108.313 105.447 108.2 105.587 108.023 105.682C107.848 105.775 107.662 105.795 107.463 105.742ZM110.015 112.984C109.489 112.843 109.069 112.607 108.753 112.275C108.44 111.943 108.236 111.547 108.142 111.085C108.05 110.622 108.076 110.124 108.219 109.591C108.362 109.056 108.592 108.611 108.907 108.257C109.223 107.901 109.599 107.658 110.036 107.53C110.475 107.4 110.952 107.404 111.466 107.542C111.894 107.657 112.251 107.837 112.538 108.083C112.828 108.328 113.033 108.619 113.153 108.957C113.274 109.294 113.297 109.655 113.223 110.042L112.036 109.724C112.056 109.458 111.998 109.215 111.863 108.998C111.731 108.778 111.515 108.629 111.215 108.548C110.961 108.48 110.72 108.489 110.491 108.575C110.263 108.658 110.061 108.813 109.885 109.038C109.712 109.263 109.578 109.553 109.483 109.908C109.387 110.267 109.357 110.59 109.393 110.876C109.429 111.161 109.524 111.398 109.676 111.588C109.832 111.777 110.038 111.906 110.297 111.975C110.48 112.024 110.652 112.034 110.815 112.004C110.98 111.972 111.13 111.903 111.264 111.797C111.398 111.69 111.508 111.547 111.596 111.367L112.783 111.685C112.653 112.05 112.455 112.351 112.188 112.588C111.921 112.823 111.603 112.978 111.232 113.053C110.862 113.125 110.457 113.103 110.015 112.984ZM114.895 112.409L115.293 110.909L115.492 110.963L117.952 109.354L119.403 109.742L116.379 111.712L116.122 111.643L114.895 112.409ZM113.32 113.759L115.202 106.734L116.444 107.067L114.561 114.092L113.32 113.759ZM116.626 114.645L115.554 111.788L116.625 111.138L118.112 115.043L116.626 114.645ZM120.907 115.903C120.379 115.761 119.952 115.529 119.627 115.207C119.304 114.883 119.094 114.49 118.997 114.031C118.9 113.568 118.926 113.062 119.073 112.511C119.218 111.969 119.449 111.521 119.764 111.166C120.083 110.811 120.459 110.568 120.893 110.439C121.328 110.308 121.796 110.31 122.299 110.445C122.624 110.532 122.917 110.667 123.176 110.849C123.439 111.03 123.653 111.259 123.816 111.535C123.982 111.812 124.084 112.136 124.122 112.507C124.161 112.875 124.118 113.29 123.994 113.752L123.892 114.133L119.574 112.976L119.798 112.139L122.926 112.977C122.988 112.738 122.993 112.513 122.942 112.301C122.892 112.086 122.79 111.901 122.639 111.745C122.489 111.59 122.295 111.481 122.057 111.417C121.804 111.349 121.564 111.351 121.339 111.423C121.114 111.493 120.922 111.613 120.761 111.783C120.603 111.951 120.491 112.153 120.426 112.388L120.23 113.118C120.148 113.425 120.134 113.703 120.187 113.952C120.241 114.2 120.353 114.409 120.523 114.579C120.693 114.747 120.913 114.868 121.183 114.94C121.364 114.988 121.534 115.007 121.694 114.996C121.854 114.983 122.002 114.94 122.136 114.868C122.271 114.796 122.385 114.693 122.48 114.56L123.605 115.001C123.449 115.287 123.238 115.517 122.971 115.691C122.707 115.863 122.399 115.969 122.047 116.01C121.696 116.048 121.316 116.012 120.907 115.903ZM128.37 112.145L128.113 113.106L125.084 112.294L125.342 111.334L128.37 112.145ZM126.428 110.272L127.669 110.604L126.344 115.551C126.299 115.718 126.29 115.852 126.317 115.955C126.346 116.056 126.399 116.134 126.475 116.189C126.551 116.243 126.64 116.284 126.743 116.312C126.821 116.333 126.893 116.346 126.96 116.352C127.03 116.358 127.083 116.361 127.119 116.361L127.069 117.388C126.996 117.393 126.894 117.393 126.764 117.387C126.635 117.382 126.482 117.359 126.305 117.316C125.991 117.242 125.724 117.12 125.502 116.95C125.281 116.778 125.127 116.563 125.039 116.304C124.954 116.046 124.957 115.752 125.047 115.424L126.428 110.272ZM133.603 111.665L131.721 118.69L130.448 118.349L132.33 111.324L133.603 111.665ZM135.479 119.697L133.099 119.059L134.981 112.034L137.41 112.685C138.107 112.872 138.668 113.173 139.094 113.588C139.522 114.002 139.801 114.507 139.931 115.103C140.06 115.699 140.027 116.362 139.832 117.091C139.636 117.823 139.331 118.415 138.918 118.868C138.507 119.322 138.009 119.621 137.424 119.766C136.841 119.911 136.193 119.888 135.479 119.697ZM134.666 118.299L135.712 118.579C136.202 118.71 136.634 118.731 137.009 118.64C137.384 118.547 137.702 118.344 137.962 118.031C138.223 117.717 138.425 117.29 138.569 116.753C138.713 116.216 138.751 115.748 138.681 115.349C138.612 114.948 138.44 114.617 138.164 114.354C137.892 114.09 137.518 113.894 137.042 113.767L135.959 113.476L134.666 118.299Z" fill="#222222" fill-opacity="0.5"/>
<path d="M96.9068 127.163C96.4129 127.03 95.9965 126.828 95.6577 126.556C95.3211 126.284 95.0824 125.968 94.9414 125.606C94.8005 125.245 94.7762 124.865 94.8685 124.466L96.1582 124.811C96.1188 125.004 96.1372 125.187 96.2136 125.359C96.2905 125.529 96.4135 125.679 96.5825 125.807C96.7514 125.936 96.9537 126.032 97.1892 126.095C97.4408 126.162 97.6754 126.179 97.893 126.144C98.1113 126.107 98.2965 126.024 98.4485 125.895C98.6005 125.767 98.703 125.6 98.7559 125.393C98.8151 125.181 98.8105 124.979 98.7419 124.787C98.6734 124.594 98.545 124.424 98.3569 124.275C98.171 124.128 97.9294 124.014 97.6322 123.934L97.0113 123.768L97.2742 122.787L97.895 122.953C98.1397 123.019 98.3648 123.034 98.5705 122.998C98.7784 122.963 98.9554 122.883 99.1017 122.758C99.2485 122.631 99.3481 122.465 99.4003 122.261C99.4559 122.063 99.4576 121.878 99.4053 121.707C99.356 121.535 99.26 121.385 99.1174 121.259C98.9771 121.133 98.7972 121.04 98.5777 120.982C98.3627 120.924 98.1534 120.91 97.9496 120.938C97.7458 120.967 97.5686 121.038 97.4179 121.153C97.2679 121.264 97.1631 121.418 97.1035 121.612L95.879 121.284C95.9935 120.893 96.1992 120.578 96.4961 120.339C96.7959 120.099 97.1511 119.944 97.5618 119.875C97.973 119.804 98.4061 119.829 98.8612 119.951C99.33 120.077 99.7134 120.274 100.012 120.542C100.313 120.809 100.518 121.116 100.629 121.462C100.74 121.807 100.748 122.159 100.652 122.515C100.548 122.912 100.343 123.212 100.036 123.416C99.7306 123.621 99.3773 123.714 98.9757 123.695L98.9609 123.75C99.4365 123.951 99.7659 124.235 99.9493 124.603C100.135 124.969 100.169 125.371 100.049 125.81C99.9433 126.203 99.7369 126.525 99.4295 126.776C99.1249 127.025 98.7536 127.186 98.3153 127.257C97.8794 127.329 97.4099 127.297 96.9068 127.163ZM100.703 128.077L100.949 127.158L104.029 125.42C104.325 125.247 104.576 125.09 104.78 124.949C104.985 124.807 105.149 124.661 105.273 124.511C105.396 124.36 105.484 124.188 105.536 123.993C105.596 123.771 105.596 123.568 105.538 123.383C105.48 123.196 105.375 123.036 105.222 122.902C105.069 122.768 104.881 122.671 104.657 122.611C104.426 122.549 104.211 122.542 104.011 122.592C103.812 122.639 103.641 122.737 103.499 122.885C103.358 123.033 103.256 123.228 103.192 123.468L101.981 123.144C102.1 122.698 102.306 122.337 102.598 122.063C102.889 121.788 103.238 121.608 103.643 121.523C104.05 121.438 104.486 121.458 104.951 121.583C105.422 121.709 105.812 121.908 106.121 122.179C106.431 122.451 106.643 122.767 106.758 123.126C106.874 123.485 106.88 123.862 106.775 124.255C106.704 124.518 106.585 124.763 106.416 124.99C106.248 125.217 105.995 125.451 105.658 125.691C105.324 125.933 104.871 126.212 104.298 126.529L102.757 127.436L102.744 127.484L105.804 128.304L105.519 129.367L100.703 128.077ZM111.442 123.425L109.56 130.45L108.287 130.109L109.838 124.322L109.797 124.311L107.872 124.921L108.185 123.754L110.231 123.101L111.442 123.425ZM111.601 130.997L116.173 125.884L116.186 125.836L112.718 124.907L113.003 123.843L117.788 125.125L117.496 126.213L112.921 131.351L111.601 130.997ZM119.342 133.174C118.833 133.037 118.403 132.83 118.053 132.553C117.706 132.276 117.46 131.959 117.315 131.602C117.174 131.243 117.155 130.874 117.259 130.495C117.336 130.199 117.472 129.945 117.669 129.733C117.865 129.521 118.097 129.362 118.363 129.257C118.631 129.15 118.909 129.111 119.196 129.139L119.209 129.091C118.869 128.914 118.625 128.651 118.479 128.303C118.335 127.953 118.315 127.589 118.419 127.21C118.513 126.848 118.7 126.552 118.98 126.323C119.259 126.094 119.598 125.946 119.996 125.879C120.394 125.809 120.821 125.835 121.276 125.957C121.727 126.078 122.106 126.268 122.414 126.527C122.725 126.784 122.944 127.082 123.072 127.42C123.202 127.759 123.218 128.109 123.121 128.47C123.02 128.849 122.817 129.154 122.512 129.384C122.211 129.612 121.873 129.719 121.497 129.704L121.484 129.752C121.746 129.871 121.964 130.043 122.139 130.269C122.317 130.493 122.438 130.746 122.502 131.028C122.568 131.311 122.562 131.599 122.483 131.894C122.381 132.274 122.178 132.584 121.874 132.823C121.57 133.06 121.199 133.212 120.759 133.278C120.322 133.345 119.85 133.31 119.342 133.174ZM119.605 132.193C119.868 132.264 120.109 132.28 120.327 132.243C120.546 132.204 120.731 132.116 120.883 131.98C121.035 131.844 121.14 131.669 121.2 131.455C121.258 131.23 121.253 131.017 121.184 130.815C121.119 130.611 121.001 130.433 120.831 130.282C120.662 130.132 120.454 130.023 120.205 129.957C119.953 129.889 119.716 129.878 119.493 129.924C119.27 129.97 119.078 130.064 118.917 130.207C118.759 130.349 118.651 130.532 118.593 130.756C118.533 130.971 118.535 131.175 118.598 131.368C118.662 131.559 118.779 131.727 118.949 131.87C119.121 132.014 119.34 132.122 119.605 132.193ZM120.463 128.993C120.678 129.05 120.879 129.058 121.067 129.015C121.257 128.973 121.421 128.887 121.559 128.757C121.697 128.627 121.794 128.461 121.851 128.258C121.902 128.056 121.902 127.867 121.848 127.691C121.796 127.513 121.697 127.36 121.552 127.233C121.408 127.104 121.227 127.01 121.01 126.952C120.788 126.892 120.581 126.882 120.389 126.922C120.2 126.959 120.038 127.042 119.903 127.17C119.772 127.297 119.68 127.461 119.628 127.663C119.571 127.865 119.569 128.057 119.621 128.238C119.676 128.417 119.775 128.573 119.918 128.707C120.064 128.839 120.246 128.935 120.463 128.993ZM125.602 134.851C125.108 134.719 124.691 134.517 124.352 134.244C124.016 133.973 123.777 133.657 123.636 133.295C123.495 132.934 123.471 132.554 123.563 132.154L124.853 132.5C124.814 132.693 124.832 132.875 124.908 133.048C124.985 133.218 125.108 133.367 125.277 133.496C125.446 133.625 125.648 133.72 125.884 133.784C126.136 133.851 126.37 133.867 126.588 133.832C126.806 133.795 126.991 133.713 127.143 133.584C127.295 133.456 127.398 133.288 127.451 133.082C127.51 132.87 127.505 132.668 127.437 132.475C127.368 132.283 127.24 132.113 127.052 131.964C126.866 131.816 126.624 131.703 126.327 131.623L125.706 131.457L125.969 130.475L126.59 130.642C126.834 130.707 127.06 130.722 127.265 130.687C127.473 130.652 127.65 130.572 127.796 130.447C127.943 130.319 128.043 130.154 128.095 129.95C128.151 129.751 128.152 129.567 128.1 129.396C128.051 129.223 127.955 129.074 127.812 128.947C127.672 128.822 127.492 128.729 127.272 128.67C127.058 128.613 126.848 128.598 126.644 128.627C126.441 128.656 126.263 128.727 126.113 128.841C125.963 128.953 125.858 129.106 125.798 129.301L124.574 128.973C124.688 128.582 124.894 128.267 125.191 128.028C125.491 127.787 125.846 127.633 126.257 127.564C126.668 127.492 127.101 127.518 127.556 127.64C128.025 127.765 128.408 127.962 128.706 128.231C129.007 128.498 129.213 128.804 129.324 129.15C129.435 129.496 129.442 129.847 129.347 130.204C129.243 130.6 129.038 130.901 128.73 131.105C128.425 131.31 128.072 131.403 127.67 131.384L127.656 131.438C128.131 131.639 128.461 131.924 128.644 132.292C128.83 132.658 128.863 133.06 128.743 133.498C128.638 133.892 128.432 134.214 128.124 134.465C127.82 134.714 127.448 134.874 127.01 134.946C126.574 135.018 126.105 134.986 125.602 134.851ZM129.398 135.766L129.644 134.846L132.724 133.109C133.02 132.936 133.27 132.779 133.475 132.637C133.68 132.496 133.844 132.35 133.967 132.2C134.091 132.049 134.179 131.876 134.231 131.682C134.29 131.46 134.291 131.257 134.233 131.072C134.175 130.885 134.07 130.725 133.917 130.59C133.764 130.456 133.576 130.359 133.352 130.299C133.121 130.237 132.905 130.231 132.706 130.281C132.507 130.328 132.336 130.425 132.193 130.574C132.053 130.722 131.951 130.917 131.886 131.157L130.676 130.832C130.795 130.386 131.001 130.026 131.293 129.751C131.584 129.476 131.933 129.297 132.338 129.212C132.745 129.127 133.181 129.147 133.645 129.271C134.116 129.398 134.507 129.597 134.816 129.868C135.126 130.14 135.338 130.455 135.452 130.814C135.569 131.174 135.575 131.551 135.47 131.944C135.399 132.207 135.28 132.452 135.111 132.679C134.942 132.906 134.69 133.139 134.353 133.38C134.019 133.621 133.565 133.901 132.993 134.218L131.452 135.125L131.439 135.173L134.499 135.993L134.214 137.056L129.398 135.766ZM137.814 138.123C137.356 138.001 136.97 137.806 136.655 137.537C136.34 137.267 136.117 136.952 135.985 136.593C135.855 136.235 135.836 135.859 135.926 135.467L137.161 135.798C137.107 136.092 137.168 136.361 137.346 136.605C137.524 136.846 137.772 137.009 138.089 137.094C138.339 137.161 138.576 137.164 138.801 137.101C139.026 137.039 139.222 136.921 139.388 136.748C139.555 136.574 139.672 136.357 139.739 136.095C139.813 135.831 139.82 135.58 139.761 135.344C139.702 135.107 139.588 134.904 139.42 134.734C139.253 134.562 139.041 134.441 138.782 134.372C138.572 134.313 138.355 134.297 138.13 134.322C137.905 134.348 137.716 134.41 137.562 134.508L136.463 134.012L137.801 130.488L141.876 131.58L141.591 132.643L138.569 131.833L137.868 133.642L137.909 133.653C138.08 133.534 138.298 133.457 138.563 133.42C138.828 133.381 139.103 133.399 139.386 133.475C139.812 133.589 140.164 133.791 140.444 134.082C140.725 134.371 140.914 134.715 141.013 135.117C141.111 135.518 141.1 135.944 140.979 136.395C140.855 136.859 140.636 137.244 140.324 137.55C140.015 137.854 139.642 138.059 139.207 138.166C138.774 138.271 138.31 138.256 137.814 138.123ZM141.51 139.011L141.756 138.092L144.835 136.354C145.132 136.181 145.382 136.024 145.587 135.883C145.791 135.742 145.955 135.596 146.079 135.445C146.203 135.294 146.291 135.122 146.343 134.927C146.402 134.706 146.403 134.502 146.344 134.317C146.287 134.13 146.181 133.97 146.029 133.836C145.876 133.702 145.687 133.605 145.463 133.545C145.232 133.483 145.017 133.477 144.818 133.526C144.619 133.573 144.448 133.671 144.305 133.819C144.165 133.968 144.063 134.162 143.998 134.402L142.787 134.078C142.907 133.632 143.113 133.271 143.404 132.997C143.696 132.722 144.045 132.542 144.45 132.457C144.857 132.372 145.293 132.392 145.757 132.517C146.228 132.643 146.619 132.842 146.928 133.114C147.238 133.385 147.45 133.701 147.564 134.06C147.681 134.42 147.687 134.796 147.581 135.189C147.511 135.452 147.391 135.697 147.223 135.924C147.054 136.151 146.802 136.385 146.465 136.625C146.131 136.867 145.677 137.146 145.105 137.463L143.564 138.37L143.551 138.418L146.611 139.238L146.326 140.301L141.51 139.011ZM150.004 141.39C149.51 141.258 149.094 141.055 148.755 140.783C148.419 140.512 148.18 140.195 148.039 139.834C147.898 139.473 147.874 139.092 147.966 138.693L149.256 139.039C149.216 139.232 149.235 139.414 149.311 139.587C149.388 139.757 149.511 139.906 149.68 140.035C149.849 140.163 150.051 140.259 150.287 140.322C150.538 140.39 150.773 140.406 150.991 140.371C151.209 140.334 151.394 140.251 151.546 140.123C151.698 139.995 151.801 139.827 151.853 139.621C151.913 139.409 151.908 139.206 151.84 139.014C151.771 138.822 151.643 138.651 151.454 138.503C151.269 138.355 151.027 138.241 150.73 138.162L150.109 137.995L150.372 137.014L150.993 137.181C151.237 137.246 151.462 137.261 151.668 137.226C151.876 137.191 152.053 137.111 152.199 136.986C152.346 136.858 152.446 136.692 152.498 136.488C152.554 136.29 152.555 136.105 152.503 135.935C152.454 135.762 152.358 135.613 152.215 135.486C152.075 135.36 151.895 135.268 151.675 135.209C151.46 135.152 151.251 135.137 151.047 135.166C150.843 135.195 150.666 135.266 150.516 135.38C150.366 135.492 150.261 135.645 150.201 135.84L148.977 135.512C149.091 135.121 149.297 134.806 149.594 134.567C149.894 134.326 150.249 134.171 150.659 134.102C151.071 134.031 151.504 134.057 151.959 134.178C152.428 134.304 152.811 134.501 153.109 134.77C153.41 135.037 153.616 135.343 153.727 135.689C153.838 136.035 153.845 136.386 153.75 136.743C153.646 137.139 153.44 137.439 153.133 137.644C152.828 137.849 152.475 137.942 152.073 137.922L152.059 137.977C152.534 138.178 152.864 138.463 153.047 138.83C153.233 139.196 153.266 139.599 153.146 140.037C153.041 140.43 152.835 140.752 152.527 141.003C152.223 141.253 151.851 141.413 151.413 141.484C150.977 141.556 150.508 141.525 150.004 141.39ZM156.272 143.069C155.762 142.933 155.332 142.726 154.983 142.448C154.635 142.171 154.389 141.854 154.245 141.497C154.103 141.138 154.085 140.769 154.189 140.39C154.265 140.094 154.402 139.84 154.599 139.628C154.795 139.416 155.026 139.258 155.292 139.153C155.561 139.046 155.839 139.006 156.126 139.034L156.138 138.986C155.799 138.809 155.555 138.546 155.408 138.198C155.264 137.848 155.244 137.484 155.348 137.105C155.443 136.743 155.63 136.448 155.909 136.219C156.189 135.99 156.528 135.841 156.925 135.774C157.324 135.704 157.751 135.73 158.206 135.852C158.656 135.973 159.036 136.163 159.344 136.422C159.655 136.679 159.874 136.977 160.001 137.315C160.131 137.654 160.148 138.004 160.051 138.365C159.949 138.745 159.746 139.049 159.442 139.279C159.141 139.507 158.802 139.614 158.426 139.599L158.413 139.647C158.676 139.766 158.894 139.939 159.069 140.164C159.247 140.389 159.368 140.642 159.432 140.923C159.498 141.206 159.492 141.495 159.413 141.79C159.311 142.169 159.108 142.479 158.804 142.718C158.5 142.956 158.128 143.107 157.689 143.173C157.252 143.24 156.78 143.205 156.272 143.069ZM156.535 142.088C156.798 142.159 157.039 142.176 157.257 142.138C157.476 142.099 157.661 142.011 157.813 141.876C157.964 141.74 158.07 141.565 158.13 141.35C158.188 141.126 158.182 140.912 158.114 140.71C158.048 140.506 157.931 140.329 157.76 140.178C157.592 140.027 157.384 139.919 157.134 139.852C156.883 139.785 156.645 139.774 156.422 139.819C156.199 139.865 156.007 139.959 155.847 140.102C155.689 140.244 155.581 140.427 155.523 140.652C155.463 140.866 155.465 141.07 155.528 141.263C155.592 141.455 155.709 141.622 155.879 141.766C156.051 141.91 156.27 142.017 156.535 142.088ZM157.393 138.888C157.607 138.946 157.809 138.953 157.997 138.91C158.187 138.868 158.351 138.782 158.489 138.652C158.626 138.523 158.724 138.356 158.781 138.153C158.832 137.952 158.831 137.763 158.778 137.587C158.725 137.408 158.627 137.256 158.482 137.128C158.337 136.999 158.157 136.905 157.939 136.847C157.718 136.788 157.511 136.778 157.319 136.817C157.13 136.854 156.968 136.937 156.833 137.065C156.701 137.192 156.609 137.356 156.558 137.558C156.501 137.761 156.499 137.952 156.551 138.133C156.606 138.312 156.705 138.468 156.848 138.602C156.994 138.735 157.175 138.83 157.393 138.888ZM164.383 137.507C164.718 137.6 165.029 137.747 165.316 137.949C165.605 138.149 165.843 138.414 166.03 138.743C166.217 139.07 166.327 139.471 166.362 139.946C166.396 140.421 166.328 140.978 166.156 141.619C165.997 142.223 165.788 142.745 165.53 143.186C165.275 143.625 164.984 143.976 164.656 144.239C164.329 144.501 163.972 144.673 163.588 144.754C163.204 144.835 162.8 144.819 162.377 144.705C161.933 144.586 161.563 144.394 161.267 144.128C160.973 143.863 160.761 143.552 160.631 143.193C160.502 142.835 160.465 142.455 160.521 142.054L161.773 142.389C161.763 142.685 161.833 142.942 161.986 143.159C162.141 143.375 162.37 143.523 162.672 143.604C163.159 143.735 163.591 143.624 163.967 143.271C164.343 142.918 164.632 142.366 164.834 141.614L164.786 141.601C164.62 141.772 164.428 141.907 164.211 142.005C163.994 142.102 163.762 142.158 163.514 142.175C163.269 142.193 163.021 142.168 162.77 142.101C162.358 141.991 162.014 141.793 161.737 141.508C161.463 141.224 161.276 140.884 161.176 140.49C161.078 140.096 161.087 139.678 161.203 139.236C161.325 138.779 161.54 138.397 161.848 138.089C162.159 137.78 162.532 137.572 162.968 137.463C163.405 137.352 163.876 137.367 164.383 137.507ZM164.11 138.537C163.863 138.471 163.624 138.472 163.393 138.54C163.164 138.606 162.965 138.727 162.796 138.902C162.629 139.076 162.512 139.288 162.445 139.54C162.38 139.79 162.376 140.031 162.431 140.264C162.488 140.497 162.597 140.699 162.758 140.87C162.92 141.041 163.126 141.16 163.375 141.226C163.56 141.276 163.743 141.287 163.922 141.259C164.101 141.231 164.267 141.17 164.419 141.076C164.575 140.98 164.707 140.86 164.817 140.716C164.929 140.572 165.008 140.409 165.055 140.228C165.119 139.988 165.121 139.751 165.061 139.516C165.004 139.283 164.893 139.078 164.73 138.902C164.568 138.726 164.362 138.605 164.11 138.537Z" fill="#222222"/>
<rect x="89.3481" y="142.79" width="2" height="25.1397" transform="rotate(15 89.3481 142.79)" fill="#222222"/>
<rect x="93.2119" y="143.825" width="5" height="25.1397" transform="rotate(15 93.2119 143.825)" fill="#222222"/>
<rect x="101.905" y="146.155" width="4" height="25.1397" transform="rotate(15 101.905 146.155)" fill="#222222"/>
<rect x="106.735" y="147.449" width="2" height="25.1397" transform="rotate(15 106.735 147.449)" fill="#222222"/>
<rect x="109.633" y="148.225" width="2" height="25.1397" transform="rotate(15 109.633 148.225)" fill="#222222"/>
<rect x="114.462" y="149.519" width="3" height="25.1397" transform="rotate(15 114.462 149.519)" fill="#222222"/>
<rect x="121.224" y="151.331" width="3" height="25.1397" transform="rotate(15 121.224 151.331)" fill="#222222"/>
<rect x="125.087" y="152.366" width="4" height="25.1397" transform="rotate(15 125.087 152.366)" fill="#222222"/>
<rect x="129.917" y="153.661" width="2" height="25.1397" transform="rotate(15 129.917 153.661)" fill="#222222"/>
<rect x="135.713" y="155.213" width="2" height="25.1397" transform="rotate(15 135.713 155.213)" fill="#222222"/>
<rect x="138.61" y="155.99" width="4" height="25.1397" transform="rotate(15 138.61 155.99)" fill="#222222"/>
<rect x="145.372" y="157.802" width="2" height="25.1397" transform="rotate(15 145.372 157.802)" fill="#222222"/>
<rect x="149.236" y="158.837" width="5" height="25.1397" transform="rotate(15 149.236 158.837)" fill="#222222"/>
<rect x="157.929" y="161.166" width="4" height="25.1397" transform="rotate(15 157.929 161.166)" fill="#222222"/>
<rect x="162.758" y="162.46" width="2" height="25.1397" transform="rotate(15 162.758 162.46)" fill="#222222"/>
<rect x="165.656" y="163.237" width="2" height="25.1397" transform="rotate(15 165.656 163.237)" fill="#222222"/>
<rect x="170.486" y="164.531" width="3" height="25.1397" transform="rotate(15 170.486 164.531)" fill="#222222"/>
<rect x="177.247" y="166.343" width="3" height="25.1397" transform="rotate(15 177.247 166.343)" fill="#222222"/>
<rect x="181.111" y="167.378" width="4" height="25.1397" transform="rotate(15 181.111 167.378)" fill="#222222"/>
<rect x="185.941" y="168.672" width="2" height="25.1397" transform="rotate(15 185.941 168.672)" fill="#222222"/>
<rect x="191.736" y="170.225" width="2" height="25.1397" transform="rotate(15 191.736 170.225)" fill="#222222"/>
<rect x="194.634" y="171.001" width="4" height="25.1397" transform="rotate(15 194.634 171.001)" fill="#222222"/>
<rect x="245.828" y="184.719" width="2" height="25.1397" transform="rotate(15 245.828 184.719)" fill="#222222"/>
<rect x="249.692" y="185.754" width="5" height="25.1397" transform="rotate(15 249.692 185.754)" fill="#222222"/>
<rect x="258.385" y="188.083" width="4" height="25.1397" transform="rotate(15 258.385 188.083)" fill="#222222"/>
<rect x="263.215" y="189.378" width="2" height="25.1397" transform="rotate(15 263.215 189.378)" fill="#222222"/>
<rect x="266.113" y="190.154" width="2" height="25.1397" transform="rotate(15 266.113 190.154)" fill="#222222"/>
<rect x="270.942" y="191.448" width="3" height="25.1397" transform="rotate(15 270.942 191.448)" fill="#222222"/>
<rect x="277.704" y="193.26" width="3" height="25.1397" transform="rotate(15 277.704 193.26)" fill="#222222"/>
<rect x="281.567" y="194.295" width="4" height="25.1397" transform="rotate(15 281.567 194.295)" fill="#222222"/>
<rect x="286.397" y="195.589" width="2" height="25.1397" transform="rotate(15 286.397 195.589)" fill="#222222"/>
<rect x="292.193" y="197.142" width="2" height="25.1397" transform="rotate(15 292.193 197.142)" fill="#222222"/>
<rect x="295.09" y="197.919" width="4" height="25.1397" transform="rotate(15 295.09 197.919)" fill="#222222"/>
<rect x="203.327" y="173.331" width="2" height="25.1397" transform="rotate(15 203.327 173.331)" fill="#222222"/>
<rect x="210.089" y="175.142" width="4" height="25.1397" transform="rotate(15 210.089 175.142)" fill="#222222"/>
<rect x="214.919" y="176.437" width="3" height="25.1397" transform="rotate(15 214.919 176.437)" fill="#222222"/>
<rect x="218.782" y="177.472" width="3" height="25.1397" transform="rotate(15 218.782 177.472)" fill="#222222"/>
<rect x="222.646" y="178.507" width="4" height="25.1397" transform="rotate(15 222.646 178.507)" fill="#222222"/>
<rect x="230.373" y="180.578" width="2" height="25.1397" transform="rotate(15 230.373 180.578)" fill="#222222"/>
<rect x="233.271" y="181.354" width="2" height="25.1397" transform="rotate(15 233.271 181.354)" fill="#222222"/>
<rect x="238.101" y="182.648" width="3" height="25.1397" transform="rotate(15 238.101 182.648)" fill="#222222"/>
<rect x="241.964" y="183.684" width="2" height="25.1397" transform="rotate(15 241.964 183.684)" fill="#222222"/>
<rect x="301.852" y="199.73" width="2" height="25.1397" transform="rotate(15 301.852 199.73)" fill="#222222"/>
<rect x="307.647" y="201.283" width="4" height="25.1397" transform="rotate(15 307.647 201.283)" fill="#222222"/>
<path d="M332.677 110.036C333.093 110.762 332.846 111.685 332.125 112.096L327.355 114.867L327.011 124.342L325.279 125.357L323.465 117.136L318.683 119.914L318.388 122.407L317.079 123.159L316.206 119.615L313.586 117.07L314.891 116.296L317.209 117.302L321.954 114.545L315.795 108.824L317.534 107.822L325.859 112.259L330.629 109.488C331.321 109.069 332.287 109.328 332.677 110.036Z" fill="#222222"/>
<defs>
<filter id="filter0_d_1_369" x="74.6586" y="215.659" width="384.223" height="339.567" filterUnits="userSpaceOnUse" color-interpolation-filters="sRGB">
<feFlood flood-opacity="0" result="BackgroundImageFix"/>
<feColorMatrix in="SourceAlpha" type="matrix" values="0 0 0 0 0 0 0 0 0 0 0 0 0 0 0 0 0 0 127 0" result="hardAlpha"/>
<feOffset dy="4"/>
<feGaussianBlur stdDeviation="10"/>
<feComposite in2="hardAlpha" operator="out"/>
<feColorMatrix type="matrix" values="0 0 0 0 0 0 0 0 0 0 0 0 0 0 0 0 0 0 0.15 0"/>
<feBlend mode="normal" in2="BackgroundImageFix" result="effect1_dropShadow_1_369"/>
<feBlend mode="normal" in="SourceGraphic" in2="effect1_dropShadow_1_369" result="shape"/>
</filter>
<filter id="filter1_bd_1_369" x="-10" y="151" width="362" height="239" filterUnits="userSpaceOnUse" color-interpolation-filters="sRGB">
<feFlood flood-opacity="0" result="BackgroundImageFix"/>
<feGaussianBlur in="BackgroundImageFix" stdDeviation="15"/>
<feComposite in2="SourceAlpha" operator="in" result="effect1_backgroundBlur_1_369"/>
<feColorMatrix in="SourceAlpha" type="matrix" values="0 0 0 0 0 0 0 0 0 0 0 0 0 0 0 0 0 0 127 0" result="hardAlpha"/>
<feOffset dy="4"/>
<feGaussianBlur stdDeviation="10"/>
<feComposite in2="hardAlpha" operator="out"/>
<feColorMatrix type="matrix" values="0 0 0 0 0 0 0 0 0 0 0 0 0 0 0 0 0 0 0.15 0"/>
<feBlend mode="normal" in2="effect1_backgroundBlur_1_369" result="effect2_dropShadow_1_369"/>
<feBlend mode="normal" in="SourceGraphic" in2="effect2_dropShadow_1_369" result="shape"/>
</filter>
<filter id="filter2_d_1_369" x="22.2449" y="0.244965" width="373.807" height="287.54" filterUnits="userSpaceOnUse" color-interpolation-filters="sRGB">
<feFlood flood-opacity="0" result="BackgroundImageFix"/>
<feColorMatrix in="SourceAlpha" type="matrix" values="0 0 0 0 0 0 0 0 0 0 0 0 0 0 0 0 0 0 127 0" result="hardAlpha"/>
<feOffset dy="4"/>
<feGaussianBlur stdDeviation="10"/>
<feComposite in2="hardAlpha" operator="out"/>
<feColorMatrix type="matrix" values="0 0 0 0 0 0 0 0 0 0 0 0 0 0 0 0 0 0 0.15 0"/>
<feBlend mode="normal" in2="BackgroundImageFix" result="effect1_dropShadow_1_369"/>
<feBlend mode="normal" in="SourceGraphic" in2="effect1_dropShadow_1_369" result="shape"/>
</filter>
<clipPath id="clip0_1_369">
<rect width="20" height="20" fill="white" transform="translate(317.608 279.608) rotate(-30)"/>
</clipPath>
<clipPath id="clip1_1_369">
<rect width="24" height="24" fill="white" transform="translate(261.981 205.968)"/>
</clipPath>
</defs>
</svg>
