<svg width="100" height="100" viewBox="0 0 100 100" fill="none" xmlns="http://www.w3.org/2000/svg">
<path d="M100 78.125C100 83.9266 97.6953 89.4906 93.593 93.593C89.4906 97.6953 83.9266 100 78.125 100C72.3234 100 66.7594 97.6953 62.657 93.593C58.5547 89.4906 56.25 83.9266 56.25 78.125C56.25 72.3234 58.5547 66.7594 62.657 62.657C66.7594 58.5547 72.3234 56.25 78.125 56.25C83.9266 56.25 89.4906 58.5547 93.593 62.657C97.6953 66.7594 100 72.3234 100 78.125ZM69.6625 69.6625C69.3715 69.9528 69.1406 70.2976 68.983 70.6773C68.8255 71.0569 68.7444 71.464 68.7444 71.875C68.7444 72.286 68.8255 72.6931 68.983 73.0727C69.1406 73.4524 69.3715 73.7972 69.6625 74.0875L73.7063 78.125L69.6625 82.1625C69.0757 82.7493 68.7461 83.5452 68.7461 84.375C68.7461 85.2048 69.0757 86.0007 69.6625 86.5875C70.2493 87.1743 71.0452 87.5039 71.875 87.5039C72.7048 87.5039 73.5007 87.1743 74.0875 86.5875L78.125 82.5437L82.1625 86.5875C82.7493 87.1743 83.5452 87.5039 84.375 87.5039C85.2048 87.5039 86.0007 87.1743 86.5875 86.5875C87.1743 86.0007 87.5039 85.2048 87.5039 84.375C87.5039 83.5452 87.1743 82.7493 86.5875 82.1625L82.5437 78.125L86.5875 74.0875C87.1743 73.5007 87.5039 72.7048 87.5039 71.875C87.5039 71.0452 87.1743 70.2493 86.5875 69.6625C86.0007 69.0757 85.2048 68.7461 84.375 68.7461C83.5452 68.7461 82.7493 69.0757 82.1625 69.6625L78.125 73.7063L74.0875 69.6625C73.7972 69.3715 73.4524 69.1406 73.0727 68.983C72.6931 68.8255 72.286 68.7444 71.875 68.7444C71.464 68.7444 71.0569 68.8255 70.6773 68.983C70.2976 69.1406 69.9528 69.3715 69.6625 69.6625Z" fill="#D45161"/>
<path d="M15.625 31.25C16.4538 31.25 17.2487 30.9208 17.8347 30.3347C18.4208 29.7487 18.75 28.9538 18.75 28.125C18.75 27.2962 18.4208 26.5013 17.8347 25.9153C17.2487 25.3292 16.4538 25 15.625 25C14.7962 25 14.0013 25.3292 13.4153 25.9153C12.8292 26.5013 12.5 27.2962 12.5 28.125C12.5 28.9538 12.8292 29.7487 13.4153 30.3347C14.0013 30.9208 14.7962 31.25 15.625 31.25ZM25 31.25C25.8288 31.25 26.6237 30.9208 27.2097 30.3347C27.7958 29.7487 28.125 28.9538 28.125 28.125C28.125 27.2962 27.7958 26.5013 27.2097 25.9153C26.6237 25.3292 25.8288 25 25 25C24.1712 25 23.3763 25.3292 22.7903 25.9153C22.2042 26.5013 21.875 27.2962 21.875 28.125C21.875 28.9538 22.2042 29.7487 22.7903 30.3347C23.3763 30.9208 24.1712 31.25 25 31.25ZM37.5 28.125C37.5 28.9538 37.1708 29.7487 36.5847 30.3347C35.9987 30.9208 35.2038 31.25 34.375 31.25C33.5462 31.25 32.7513 30.9208 32.1653 30.3347C31.5792 29.7487 31.25 28.9538 31.25 28.125C31.25 27.2962 31.5792 26.5013 32.1653 25.9153C32.7513 25.3292 33.5462 25 34.375 25C35.2038 25 35.9987 25.3292 36.5847 25.9153C37.1708 26.5013 37.5 27.2962 37.5 28.125Z" fill="white"/>
<path d="M0 25C0 21.6848 1.31696 18.5054 3.66117 16.1612C6.00537 13.817 9.18479 12.5 12.5 12.5H81.25C84.5652 12.5 87.7446 13.817 90.0888 16.1612C92.433 18.5054 93.75 21.6848 93.75 25V50C93.75 50.8288 93.4208 51.6237 92.8347 52.2097C92.2487 52.7958 91.4538 53.125 90.625 53.125C89.7962 53.125 89.0013 52.7958 88.4153 52.2097C87.8292 51.6237 87.5 50.8288 87.5 50V43.75H6.25V75C6.25 76.6576 6.90848 78.2473 8.08058 79.4194C9.25268 80.5915 10.8424 81.25 12.5 81.25H46.875C47.7038 81.25 48.4987 81.5792 49.0847 82.1653C49.6708 82.7513 50 83.5462 50 84.375C50 85.2038 49.6708 85.9987 49.0847 86.5847C48.4987 87.1708 47.7038 87.5 46.875 87.5H12.5C9.18479 87.5 6.00537 86.183 3.66117 83.8388C1.31696 81.4946 0 78.3152 0 75V25ZM6.25 37.5H87.5V25C87.5 23.3424 86.8415 21.7527 85.6694 20.5806C84.4973 19.4085 82.9076 18.75 81.25 18.75H12.5C10.8424 18.75 9.25268 19.4085 8.08058 20.5806C6.90848 21.7527 6.25 23.3424 6.25 25V37.5Z" fill="white"/>
</svg>
