<svg width="49" height="49" viewBox="0 0 49 49" fill="none" xmlns="http://www.w3.org/2000/svg">
<g clip-path="url(#clip0_2499_13831)">
<path d="M39.0577 0.560392L30.267 -8.22392C30.0905 -8.40048 29.8511 -8.49978 29.6014 -8.5H14.5317C13.9488 -8.5 13.3898 -8.26863 12.9777 -7.85678C12.5655 -7.44494 12.334 -6.88636 12.334 -6.30392V21.3039C12.334 21.8864 12.5655 22.4449 12.9777 22.8568C13.3898 23.2686 13.9488 23.5 14.5317 23.5H37.1363C37.7192 23.5 38.2782 23.2686 38.6903 22.8568C39.1024 22.4449 39.334 21.8864 39.334 21.3039V1.22549C39.3338 0.975959 39.2344 0.736728 39.0577 0.560392ZM30.5433 -5.28745L36.1191 0.284314H30.5433V-5.28745ZM37.1363 21.6176H14.5317C14.4484 21.6176 14.3685 21.5846 14.3097 21.5258C14.2508 21.4669 14.2177 21.3871 14.2177 21.3039V-6.30392C14.2177 -6.38713 14.2508 -6.46692 14.3097 -6.52576C14.3685 -6.58459 14.4484 -6.61765 14.5317 -6.61765H28.6596V1.22549C28.6596 1.47511 28.7588 1.7145 28.9354 1.891C29.1121 2.06751 29.3516 2.16667 29.6014 2.16667H37.4503V21.3039C37.4503 21.3871 37.4172 21.4669 37.3583 21.5258C37.2994 21.5846 37.2196 21.6176 37.1363 21.6176ZM30.5433 11.2647C30.5433 11.5143 30.4441 11.7537 30.2674 11.9302C30.0908 12.1067 29.8512 12.2059 29.6014 12.2059H26.7758V15.0294C26.7758 15.279 26.6766 15.5184 26.5 15.6949C26.3233 15.8714 26.0838 15.9706 25.834 15.9706C25.5842 15.9706 25.3446 15.8714 25.168 15.6949C24.9914 15.5184 24.8921 15.279 24.8921 15.0294V12.2059H22.0665C21.8167 12.2059 21.5772 12.1067 21.4005 11.9302C21.2239 11.7537 21.1247 11.5143 21.1247 11.2647C21.1247 11.0151 21.2239 10.7757 21.4005 10.5992C21.5772 10.4227 21.8167 10.3235 22.0665 10.3235H24.8921V7.5C24.8921 7.25038 24.9914 7.01099 25.168 6.83449C25.3446 6.65798 25.5842 6.55882 25.834 6.55882C26.0838 6.55882 26.3233 6.65798 26.5 6.83449C26.6766 7.01099 26.7758 7.25038 26.7758 7.5V10.3235H29.6014C29.8512 10.3235 30.0908 10.4227 30.2674 10.5992C30.4441 10.7757 30.5433 11.0151 30.5433 11.2647Z" fill="#B0B0B1"/>
</g>
<path d="M32.2315 32.3525L26.9815 27.1025C26.8761 26.997 26.7331 26.9376 26.584 26.9375H17.584C17.2359 26.9375 16.902 27.0758 16.6559 27.3219C16.4098 27.5681 16.2715 27.9019 16.2715 28.25V44.75C16.2715 45.0981 16.4098 45.4319 16.6559 45.6781C16.902 45.9242 17.2359 46.0625 17.584 46.0625H31.084C31.4321 46.0625 31.7659 45.9242 32.0121 45.6781C32.2582 45.4319 32.3965 45.0981 32.3965 44.75V32.75C32.3964 32.6009 32.337 32.4579 32.2315 32.3525ZM27.1465 28.8575L30.4765 32.1875H27.1465V28.8575ZM31.084 44.9375H17.584C17.5343 44.9375 17.4866 44.9177 17.4514 44.8826C17.4162 44.8474 17.3965 44.7997 17.3965 44.75V28.25C17.3965 28.2003 17.4162 28.1526 17.4514 28.1174C17.4866 28.0823 17.5343 28.0625 17.584 28.0625H26.0215V32.75C26.0215 32.8992 26.0807 33.0423 26.1862 33.1477C26.2917 33.2532 26.4348 33.3125 26.584 33.3125H31.2715V44.75C31.2715 44.7997 31.2517 44.8474 31.2166 44.8826C31.1814 44.9177 31.1337 44.9375 31.084 44.9375ZM27.1465 38.75C27.1465 38.8992 27.0872 39.0423 26.9817 39.1477C26.8762 39.2532 26.7332 39.3125 26.584 39.3125H24.8965V41C24.8965 41.1492 24.8372 41.2923 24.7317 41.3977C24.6262 41.5032 24.4832 41.5625 24.334 41.5625C24.1848 41.5625 24.0417 41.5032 23.9362 41.3977C23.8307 41.2923 23.7715 41.1492 23.7715 41V39.3125H22.084C21.9348 39.3125 21.7917 39.2532 21.6862 39.1477C21.5807 39.0423 21.5215 38.8992 21.5215 38.75C21.5215 38.6008 21.5807 38.4577 21.6862 38.3523C21.7917 38.2468 21.9348 38.1875 22.084 38.1875H23.7715V36.5C23.7715 36.3508 23.8307 36.2077 23.9362 36.1023C24.0417 35.9968 24.1848 35.9375 24.334 35.9375C24.4832 35.9375 24.6262 35.9968 24.7317 36.1023C24.8372 36.2077 24.8965 36.3508 24.8965 36.5V38.1875H26.584C26.7332 38.1875 26.8762 38.2468 26.9817 38.3523C27.0872 38.4577 27.1465 38.6008 27.1465 38.75Z" fill="black"/>
<defs>
<clipPath id="clip0_2499_13831">
<rect width="48" height="14" fill="white" transform="translate(0.333984 0.5)"/>
</clipPath>
</defs>
</svg>
