<svg width="46" height="46" viewBox="0 0 46 46" fill="none" xmlns="http://www.w3.org/2000/svg">
<path d="M45.98 14.805C45.9743 14.7768 45.966 14.7491 45.955 14.7225C45.9465 14.6868 45.9356 14.6518 45.9225 14.6175C45.9092 14.5854 45.8933 14.5545 45.875 14.525C45.86 14.4975 45.8475 14.47 45.8325 14.445C45.7964 14.3906 45.7545 14.3403 45.7075 14.295L31.7075 0.295C31.6821 0.270015 31.6545 0.24742 31.625 0.2275C31.4487 0.0825754 31.2282 0.00229946 31 0H1C0.734784 0 0.48043 0.105357 0.292893 0.292893C0.105357 0.48043 0 0.734784 0 1V31C0.00159323 31.2279 0.0809755 31.4484 0.225 31.625C0.24492 31.6545 0.267515 31.6821 0.2925 31.7075L14.2925 45.7075C14.3854 45.8003 14.4958 45.8739 14.6171 45.9241C14.7385 45.9743 14.8686 46.0001 15 46H45C45.2652 46 45.5196 45.8946 45.7071 45.7071C45.8946 45.5196 46 45.2652 46 45V15C45.9995 14.9345 45.9928 14.8692 45.98 14.805ZM32 3.415L42.585 14H32V3.415ZM14 42.585L3.415 32H14V42.585ZM14 30H2V3.415L14 15.415V30ZM3.415 2H30V14H15.415L3.415 2ZM30 16V30H16V16H30ZM16 44V32H30.585L42.585 44H16ZM44 42.585L32 30.585V16H44V42.585Z" fill="#D0DFE4"/>
</svg>
