<svg width="64" height="64" viewBox="0 0 64 64" fill="none" xmlns="http://www.w3.org/2000/svg">
<g id="CubeTransparent">
<path id="Vector" d="M54.98 23.805C54.9743 23.7768 54.966 23.7491 54.955 23.7225C54.9465 23.6868 54.9356 23.6518 54.9225 23.6175C54.9092 23.5854 54.8933 23.5545 54.875 23.525C54.86 23.4975 54.8475 23.47 54.8325 23.445C54.7964 23.3906 54.7545 23.3403 54.7075 23.295L40.7075 9.295C40.6821 9.27002 40.6545 9.24742 40.625 9.2275C40.4487 9.08258 40.2282 9.0023 40 9H10C9.73478 9 9.48043 9.10536 9.29289 9.29289C9.10536 9.48043 9 9.73478 9 10V40C9.00159 40.2279 9.08098 40.4484 9.225 40.625C9.24492 40.6545 9.26751 40.6821 9.2925 40.7075L23.2925 54.7075C23.3854 54.8003 23.4958 54.8739 23.6171 54.9241C23.7385 54.9743 23.8686 55.0001 24 55H54C54.2652 55 54.5196 54.8946 54.7071 54.7071C54.8946 54.5196 55 54.2652 55 54V24C54.9995 23.9345 54.9928 23.8692 54.98 23.805ZM41 12.415L51.585 23H41V12.415ZM23 51.585L12.415 41H23V51.585ZM23 39H11V12.415L23 24.415V39ZM12.415 11H39V23H24.415L12.415 11ZM39 25V39H25V25H39ZM25 53V41H39.585L51.585 53H25ZM53 51.585L41 39.585V25H53V51.585Z" fill="white"/>
</g>
</svg>
