<svg width="24" height="24" viewBox="0 0 24 24" fill="none" xmlns="http://www.w3.org/2000/svg">
<path d="M20.9353 7.25415L16.7466 3.06446C16.6073 2.92514 16.4419 2.81462 16.2599 2.73921C16.0779 2.66381 15.8828 2.625 15.6858 2.625C15.4888 2.625 15.2937 2.66381 15.1117 2.73921C14.9297 2.81462 14.7643 2.92514 14.625 3.06446L3.06469 14.6257C2.9248 14.7645 2.81389 14.9297 2.73841 15.1117C2.66292 15.2938 2.62438 15.489 2.62501 15.686V19.8757C2.62501 20.2735 2.78304 20.6551 3.06435 20.9364C3.34565 21.2177 3.72718 21.3757 4.12501 21.3757H8.3147C8.51175 21.3763 8.70697 21.3378 8.88899 21.2623C9.07102 21.1868 9.23622 21.0759 9.37501 20.936L20.9353 9.37571C21.0746 9.23642 21.1852 9.07104 21.2606 8.88903C21.336 8.70702 21.3748 8.51194 21.3748 8.31493C21.3748 8.11792 21.336 7.92284 21.2606 7.74082C21.1852 7.55881 21.0746 7.39344 20.9353 7.25415ZM17.625 10.5645L13.4353 6.37571L15.6853 4.12571L19.875 8.31446L17.625 10.5645Z" fill="#858597"/>
</svg>
