<svg width="54" height="46" viewBox="0 0 54 46" fill="none" xmlns="http://www.w3.org/2000/svg">
<path d="M53.9275 24.6275L45.9275 4.6275C45.839 4.40821 45.6757 4.22735 45.4666 4.11705C45.2574 4.00675 45.0159 3.97413 44.785 4.025L28 7.75V1C28 0.734784 27.8946 0.48043 27.7071 0.292893C27.5196 0.105357 27.2652 0 27 0C26.7348 0 26.4804 0.105357 26.2929 0.292893C26.1054 0.48043 26 0.734784 26 1V8.1975L8.7825 12.025C8.62416 12.0603 8.47679 12.1336 8.35309 12.2386C8.2294 12.3435 8.1331 12.477 8.0725 12.6275L0.0725002 32.6275C0.0247791 32.7459 0.000169187 32.8723 0 33C0 38.1 5.52 40 9 40C12.48 40 18 38.1 18 33C17.9998 32.8723 17.9752 32.7459 17.9275 32.6275L10.365 13.72L26 10.25V44H21C20.7348 44 20.4804 44.1054 20.2929 44.2929C20.1054 44.4804 20 44.7348 20 45C20 45.2652 20.1054 45.5196 20.2929 45.7071C20.4804 45.8946 20.7348 46 21 46H33C33.2652 46 33.5196 45.8946 33.7071 45.7071C33.8946 45.5196 34 45.2652 34 45C34 44.7348 33.8946 44.4804 33.7071 44.2929C33.5196 44.1054 33.2652 44 33 44H28V9.8025L43.3675 6.3875L36.0725 24.6375C36.026 24.7528 36.0014 24.8757 36 25C36 30.1 41.52 32 45 32C48.48 32 54 30.1 54 25C53.9998 24.8723 53.9752 24.7459 53.9275 24.6275ZM9 38C7.2125 38 2.1575 37.11 2 33.1825L9 15.6825L16 33.1825C15.8425 37.11 10.7875 38 9 38ZM45 30C43.2125 30 38.1575 29.11 38 25.1825L45 7.6825L52 25.1825C51.8425 29.11 46.7875 30 45 30Z" fill="#D0DFE4"/>
</svg>
