<svg width="217" height="24" viewBox="0 0 217 24" fill="none" xmlns="http://www.w3.org/2000/svg">
<path fill-rule="evenodd" clip-rule="evenodd" d="M4.61335 0.04054C4.61335 0.0641748 4.4739 0.081687 4.2789 0.0824978C4.0657 0.0834302 3.90772 0.104958 3.8431 0.14189C3.78735 0.173754 3.67335 0.200471 3.58972 0.201282C3.50613 0.202052 3.4377 0.220943 3.4377 0.24324C3.4377 0.265537 3.37384 0.28378 3.29581 0.28378C3.21777 0.28378 3.15392 0.300038 3.15392 0.319943C3.15392 0.339807 3.10831 0.367536 3.05257 0.381522C2.99682 0.395509 2.95122 0.424858 2.95122 0.446709C2.95122 0.468601 2.90561 0.48648 2.84987 0.48648C2.79412 0.48648 2.74852 0.504723 2.74852 0.52702C2.74852 0.549317 2.71146 0.56756 2.66618 0.56756C2.62085 0.56756 2.5733 0.594924 2.56049 0.62837C2.54764 0.661815 2.5026 0.68918 2.4604 0.68918C2.4182 0.68918 2.38366 0.705437 2.38366 0.725343C2.38366 0.745207 2.33805 0.772936 2.28231 0.786922C2.22656 0.800908 2.18096 0.830258 2.18096 0.852109C2.18096 0.874001 2.15359 0.89188 2.12015 0.89188C2.0867 0.89188 2.05934 0.910123 2.05934 0.93242C2.05934 0.954717 2.03165 0.97296 1.9978 0.97296C1.96399 0.97296 1.87427 1.03681 1.7985 1.11485C1.72269 1.19289 1.64092 1.25674 1.61676 1.25674C1.59264 1.25674 1.57286 1.27498 1.57286 1.29728C1.57286 1.31958 1.4634 1.44728 1.32962 1.58106C1.19583 1.71484 1.08638 1.84502 1.08638 1.87031C1.08638 1.89565 1.04077 1.95861 0.985026 2.0103C0.929283 2.06195 0.883676 2.13244 0.883676 2.16694C0.883676 2.20148 0.865433 2.2297 0.843136 2.2297C0.820839 2.2297 0.802596 2.25706 0.802596 2.29051C0.802596 2.32395 0.784718 2.35132 0.762827 2.35132C0.740976 2.35132 0.711625 2.39693 0.697638 2.45267C0.683652 2.50841 0.655922 2.55402 0.636057 2.55402C0.616152 2.55402 0.599896 2.59963 0.599896 2.65537C0.599896 2.71111 0.582018 2.75672 0.560127 2.75672C0.538276 2.75672 0.508925 2.80233 0.494938 2.85807C0.480952 2.91381 0.453222 2.95942 0.433358 2.95942C0.413452 2.95942 0.397196 3.02327 0.397196 3.10131C0.397196 3.17935 0.378953 3.2432 0.356656 3.2432C0.334359 3.2432 0.315467 3.28427 0.314697 3.33441C0.313886 3.38456 0.28717 3.47124 0.255306 3.52698C0.223442 3.58272 0.196726 3.69676 0.195915 3.78035C0.195145 3.86399 0.177713 3.93238 0.157159 3.93238C0.136605 3.93238 0.110578 4.06466 0.0992676 4.22629C0.087957 4.38793 0.0604302 4.73 0.0380927 4.98642C-0.0124607 5.56655 -0.0127845 8.42401 0.0376473 9.16204C0.058201 9.46305 0.0850379 9.85069 0.0973215 10.0235C0.109565 10.1963 0.136442 10.3377 0.157037 10.3377C0.177631 10.3377 0.194496 10.4187 0.194496 10.5177C0.194496 10.6168 0.211684 10.7084 0.232684 10.7214C0.253684 10.7344 0.283157 10.8267 0.298116 10.9265C0.313075 11.0263 0.341495 11.108 0.361278 11.108C0.381021 11.108 0.397196 11.1536 0.397196 11.2093C0.397196 11.265 0.413412 11.3107 0.433236 11.3107C0.45302 11.3107 0.481235 11.3745 0.49587 11.4525C0.510505 11.5306 0.539897 11.5944 0.561181 11.5944C0.582464 11.5944 0.599896 11.6317 0.599896 11.6773C0.599896 11.7229 0.645503 11.8093 0.701246 11.8694C0.756988 11.9295 0.802596 12.0017 0.802596 12.0298C0.802596 12.0579 0.818852 12.0809 0.838757 12.0809C0.858622 12.0809 0.886352 12.1265 0.900338 12.1823C0.914325 12.238 0.943675 12.2836 0.965527 12.2836C0.987418 12.2836 1.0053 12.3027 1.0053 12.326C1.0053 12.3493 1.0509 12.414 1.10665 12.4697C1.16239 12.5255 1.208 12.5895 1.208 12.6119C1.208 12.6583 1.8017 13.2566 1.84776 13.2566C1.86426 13.2566 1.92693 13.3022 1.98705 13.3579C2.04713 13.4137 2.10754 13.4593 2.12128 13.4593C2.13498 13.4593 2.17163 13.4821 2.20272 13.51C2.33687 13.6303 2.38272 13.662 2.42249 13.662C2.44572 13.662 2.46474 13.6782 2.46474 13.6981C2.46474 13.718 2.51034 13.7457 2.56609 13.7597C2.62183 13.7737 2.66744 13.8031 2.66744 13.8249C2.66744 13.8468 2.73129 13.8647 2.80933 13.8647C2.88736 13.8647 2.95122 13.8809 2.95122 13.9008C2.95122 13.9207 2.99682 13.9484 3.05257 13.9624C3.10831 13.9764 3.15392 14.0058 3.15392 14.0276C3.15392 14.0495 3.21777 14.0674 3.29581 14.0674C3.37384 14.0674 3.4377 14.0856 3.4377 14.1079C3.4377 14.1302 3.49299 14.1485 3.56061 14.1485C3.62823 14.1485 3.74904 14.1758 3.82907 14.2093C3.90913 14.2427 4.05447 14.2701 4.15209 14.2701C4.24971 14.2701 4.32958 14.2883 4.32958 14.3106C4.32958 14.3375 6.78224 14.3512 11.6065 14.3512C16.4308 14.3512 18.8834 14.3648 18.8834 14.3917C18.8834 14.414 18.908 14.4322 18.938 14.4322C19.0395 14.4322 19.171 14.5861 19.1947 14.7326C19.2077 14.8127 19.2342 14.8782 19.2536 14.8782C19.273 14.8782 19.2888 14.9329 19.2888 14.9998C19.2888 15.0667 19.2706 15.1214 19.2483 15.1214C19.2219 15.1214 19.2078 15.7092 19.2078 16.8038C19.2078 17.8984 19.2219 18.4862 19.2483 18.4862C19.2706 18.4862 19.2888 18.5318 19.2888 18.5876C19.2888 18.6433 19.2729 18.6889 19.2534 18.6889C19.2339 18.6889 19.2065 18.7461 19.1925 18.816C19.166 18.9482 19.0325 19.0943 18.938 19.0943C18.908 19.0943 18.8834 19.1126 18.8834 19.1349C18.8834 19.1618 15.7213 19.1754 9.47815 19.1754H0.072876L0.0734847 21.5166C0.0738496 22.8043 0.0886456 23.8806 0.106362 23.9086C0.152577 23.9814 18.3498 23.984 19.3192 23.9114C19.6816 23.8843 19.978 23.8474 19.978 23.8295C19.978 23.8116 20.0692 23.797 20.1807 23.797C20.2922 23.797 20.3834 23.7808 20.3834 23.7611C20.3834 23.7413 20.4655 23.7128 20.5658 23.6977C20.6662 23.6827 20.7483 23.6533 20.7483 23.6323C20.7483 23.6114 20.7939 23.5943 20.8496 23.5943C20.9054 23.5943 20.951 23.576 20.951 23.5537C20.951 23.5314 20.9966 23.5132 21.0523 23.5132C21.1081 23.5132 21.1537 23.4953 21.1537 23.4734C21.1537 23.4516 21.1993 23.4222 21.255 23.4082C21.3108 23.3942 21.3564 23.3665 21.3564 23.3467C21.3564 23.3267 21.402 23.3105 21.4577 23.3105C21.5135 23.3105 21.5591 23.2926 21.5591 23.2707C21.5591 23.2489 21.6047 23.2195 21.6604 23.2055C21.7162 23.1915 21.7618 23.1638 21.7618 23.144C21.7618 23.1241 21.7983 23.1078 21.8428 23.1078C21.8874 23.1078 21.9239 23.0896 21.9239 23.0673C21.9239 23.045 21.9513 23.0267 21.9847 23.0267C22.0182 23.0267 22.0455 22.9993 22.0455 22.9659C22.0455 22.9325 22.0646 22.9051 22.0878 22.9051C22.132 22.9051 22.1871 22.8646 22.3497 22.7125C22.4034 22.6624 22.4664 22.6213 22.4897 22.6213C22.513 22.6213 22.532 22.6018 22.532 22.5779C22.532 22.5217 22.6352 22.4186 22.6913 22.4186C22.7152 22.4186 22.7347 22.3991 22.7347 22.3752C22.7347 22.3513 22.7576 22.3063 22.7854 22.2752C22.8945 22.1535 22.9374 22.0967 22.9374 22.0739C22.9374 22.0608 22.983 22.0045 23.0388 21.9487C23.0945 21.893 23.1401 21.8209 23.1401 21.7884C23.1401 21.756 23.1584 21.7294 23.1807 21.7294C23.203 21.7294 23.2212 21.7099 23.2212 21.686C23.2212 21.6621 23.244 21.6171 23.2719 21.586C23.4013 21.4418 23.4239 21.403 23.4239 21.3257C23.4239 21.2802 23.4402 21.243 23.4601 21.243C23.4799 21.243 23.5077 21.1973 23.5217 21.1416C23.5356 21.0859 23.565 21.0403 23.5868 21.0403C23.6087 21.0403 23.6266 20.9946 23.6266 20.9389C23.6266 20.8832 23.6449 20.8376 23.6671 20.8376C23.6894 20.8376 23.7077 20.7748 23.7077 20.6981C23.7077 20.6213 23.7249 20.5479 23.7459 20.535C23.7669 20.522 23.7964 20.4297 23.8113 20.3299C23.8263 20.2301 23.8547 20.1484 23.8745 20.1484C23.8942 20.1484 23.9104 20.0404 23.9104 19.9085C23.9104 19.7527 23.9281 19.6627 23.9611 19.6518C24.0342 19.6274 24.0331 14.061 23.9599 14.0366C23.9273 14.0257 23.9104 13.9244 23.9104 13.7397C23.9104 13.5854 23.8942 13.4593 23.8745 13.4593C23.8547 13.4593 23.8263 13.3776 23.8113 13.2778C23.7964 13.178 23.7669 13.0857 23.7459 13.0727C23.7249 13.0597 23.7077 12.9863 23.7077 12.9096C23.7077 12.8329 23.6894 12.7701 23.6671 12.7701C23.6449 12.7701 23.6266 12.7258 23.6266 12.6716C23.6266 12.6175 23.5992 12.5458 23.5658 12.5124C23.5324 12.4789 23.505 12.4138 23.505 12.3676C23.505 12.3214 23.4867 12.2836 23.4644 12.2836C23.4422 12.2836 23.4239 12.2466 23.4239 12.2013C23.4239 12.156 23.3965 12.1084 23.3631 12.0956C23.3297 12.0827 23.3023 12.0377 23.3023 11.9955C23.3023 11.9533 23.284 11.9188 23.2617 11.9188C23.2395 11.9188 23.2212 11.8914 23.2212 11.8579C23.2212 11.8245 23.203 11.7971 23.1807 11.7971C23.1584 11.7971 23.1401 11.7706 23.1401 11.7382C23.1401 11.7057 23.0945 11.6336 23.0388 11.5779C22.983 11.5221 22.9374 11.4652 22.9374 11.4515C22.9374 11.4377 22.9146 11.4011 22.8868 11.37C22.7664 11.2358 22.7347 11.19 22.7347 11.1502C22.7347 11.127 22.7152 11.108 22.6913 11.108C22.6352 11.108 22.532 11.0048 22.532 10.9487C22.532 10.9248 22.513 10.9053 22.4897 10.9053C22.4664 10.9053 22.4034 10.8642 22.3497 10.814C22.1996 10.6737 22.1326 10.6215 22.1026 10.6215C22.0875 10.6215 22.0329 10.5759 21.9812 10.5201C21.9295 10.4644 21.859 10.4188 21.8245 10.4188C21.79 10.4188 21.7618 10.4005 21.7618 10.3782C21.7618 10.3559 21.7344 10.3377 21.701 10.3377C21.6675 10.3377 21.6402 10.3103 21.6402 10.2769C21.6402 10.2391 21.6019 10.2161 21.5388 10.2161C21.4831 10.2161 21.4374 10.1978 21.4374 10.1755C21.4374 10.1532 21.4055 10.1344 21.3665 10.1337C21.3275 10.133 21.2601 10.1056 21.2169 10.0729C21.1736 10.0402 21.0961 10.0134 21.0446 10.0134C20.9931 10.0134 20.951 9.99513 20.951 9.97284C20.951 9.95054 20.9054 9.9323 20.8496 9.9323C20.7939 9.9323 20.7483 9.91608 20.7483 9.89626C20.7483 9.87647 20.6844 9.84826 20.6064 9.83362C20.5283 9.81899 20.4645 9.7896 20.4645 9.76831C20.4645 9.74703 20.355 9.7296 20.2212 9.7296C20.0875 9.7296 19.978 9.71476 19.978 9.6966C19.978 9.67843 19.6268 9.63964 19.1976 9.61037C18.6044 9.56991 17.2406 9.55994 13.5119 9.56869C4.8748 9.589 5.1186 9.592 4.99058 9.46398C4.96147 9.43487 4.93767 9.39936 4.93767 9.38501C4.93767 9.37066 4.91031 9.33158 4.87686 9.29813C4.82441 9.24567 4.81605 8.95419 4.81605 7.17558C4.81605 5.39697 4.82441 5.10548 4.87686 5.05303C4.91031 5.01958 4.93767 4.9805 4.93767 4.96615C4.93767 4.9518 4.96374 4.91401 4.99561 4.88219C5.04543 4.83233 6.34166 4.82426 14.3092 4.82426C23.0314 4.82426 23.5749 4.82016 23.7375 4.75331C23.8324 4.71431 23.9101 4.66109 23.9102 4.63506C23.9103 4.60907 23.9332 4.58021 23.9611 4.57092C24.0175 4.55215 24.0179 4.5252 24.0016 1.73308L23.9915 0H14.3024C7.87005 0 4.61335 0.0136214 4.61335 0.04054ZM31.086 0.04054C31.086 0.0641343 30.9525 0.08108 30.7666 0.08108C30.5744 0.08108 30.3893 0.105282 30.3017 0.14189C30.2217 0.175335 30.1008 0.2027 30.0332 0.2027C29.9656 0.2027 29.9103 0.220943 29.9103 0.24324C29.9103 0.265537 29.8465 0.28378 29.7684 0.28378C29.6904 0.28378 29.6265 0.300038 29.6265 0.319943C29.6265 0.339807 29.5809 0.367536 29.5252 0.381522C29.4694 0.395509 29.4238 0.424858 29.4238 0.446709C29.4238 0.468601 29.3782 0.48648 29.3225 0.48648C29.2667 0.48648 29.2211 0.504723 29.2211 0.52702C29.2211 0.549317 29.1755 0.56756 29.1198 0.56756C29.064 0.56756 29.0184 0.585439 29.0184 0.60733C29.0184 0.629181 28.9728 0.658531 28.9171 0.672517C28.8613 0.686504 28.8157 0.714232 28.8157 0.734097C28.8157 0.754002 28.7818 0.77026 28.7403 0.77026C28.6989 0.77026 28.6307 0.815867 28.5888 0.87161C28.5469 0.927352 28.4792 0.97296 28.4383 0.97296C28.3567 0.97296 28.2482 1.06381 28.2482 1.13224C28.2482 1.15612 28.2292 1.17566 28.2059 1.17566C28.1628 1.17566 28.0802 1.23533 27.9928 1.32959C27.9661 1.35849 27.8574 1.47164 27.7516 1.58102C27.6457 1.6904 27.559 1.799 27.559 1.82235C27.559 1.84575 27.5316 1.86484 27.4982 1.86484C27.4647 1.86484 27.4374 1.8922 27.4374 1.92565C27.4374 1.95909 27.4191 1.98646 27.3968 1.98646C27.3745 1.98646 27.3563 2.01467 27.3563 2.04921C27.3563 2.08371 27.3107 2.15421 27.2549 2.20586C27.1992 2.25755 27.1536 2.32963 27.1536 2.36612C27.1536 2.40256 27.1373 2.4324 27.1174 2.4324C27.0976 2.4324 27.0698 2.47801 27.0558 2.53375C27.0419 2.58949 27.0125 2.6351 26.9907 2.6351C26.9688 2.6351 26.9509 2.68071 26.9509 2.73645C26.9509 2.79219 26.9326 2.8378 26.9103 2.8378C26.8881 2.8378 26.8698 2.87558 26.8698 2.92176C26.8698 2.96797 26.8424 3.03312 26.809 3.06657C26.7756 3.10001 26.7482 3.17169 26.7482 3.22581C26.7482 3.27997 26.7299 3.32428 26.7076 3.32428C26.6854 3.32428 26.6671 3.39725 26.6671 3.48644C26.6671 3.57563 26.6502 3.6486 26.6295 3.6486C26.6088 3.6486 26.5793 3.74894 26.564 3.87157C26.5487 3.9942 26.52 4.09454 26.5003 4.09454C26.4801 4.09454 26.4644 4.78587 26.4644 5.6756C26.4644 6.7026 26.4502 7.25666 26.4239 7.25666C26.3972 7.25666 26.3833 8.46609 26.3833 10.8039C26.3833 13.1417 26.3972 14.3512 26.4239 14.3512C26.4505 14.3512 26.4644 15.2768 26.4644 17.0471C26.4644 18.5507 26.48 19.743 26.4997 19.743C26.5191 19.743 26.5474 19.8524 26.5625 19.9862C26.5777 20.12 26.6074 20.2295 26.6286 20.2295C26.6498 20.2295 26.6671 20.3024 26.6671 20.3916C26.6671 20.4808 26.6854 20.5538 26.7076 20.5538C26.7299 20.5538 26.7482 20.5981 26.7482 20.6522C26.7482 20.7064 26.7756 20.778 26.809 20.8115C26.8424 20.8449 26.8698 20.9101 26.8698 20.9563C26.8698 21.0025 26.8881 21.0403 26.9103 21.0403C26.9326 21.0403 26.9509 21.0859 26.9509 21.1416C26.9509 21.1973 26.9688 21.243 26.9907 21.243C27.0125 21.243 27.0419 21.2886 27.0558 21.3443C27.0698 21.4 27.0976 21.4457 27.1174 21.4457C27.1373 21.4457 27.1536 21.4834 27.1536 21.5296C27.1536 21.5758 27.1764 21.639 27.2043 21.6701C27.3246 21.8043 27.3563 21.8501 27.3563 21.8899C27.3563 21.9131 27.3704 21.9321 27.3876 21.9321C27.4049 21.9321 27.4533 21.996 27.4953 22.074C27.5374 22.1521 27.5871 22.2159 27.6059 22.2159C27.6247 22.2159 27.6401 22.2355 27.6401 22.2593C27.6401 22.3155 27.7432 22.4186 27.7994 22.4186C27.8232 22.4186 27.8428 22.4382 27.8428 22.462C27.8428 22.5093 27.9426 22.6213 27.9847 22.6213C28.0267 22.6213 28.1265 22.7333 28.1265 22.7806C28.1265 22.8045 28.1456 22.824 28.1689 22.824C28.1922 22.824 28.2569 22.8696 28.3127 22.9254C28.3684 22.9811 28.4338 23.0267 28.4581 23.0267C28.4823 23.0267 28.5317 23.0606 28.5677 23.102C28.6038 23.1434 28.6744 23.1903 28.7245 23.2061C28.7747 23.2219 28.8157 23.2519 28.8157 23.2727C28.8157 23.2935 28.8431 23.3105 28.8765 23.3105C28.91 23.3105 28.9374 23.3287 28.9374 23.351C28.9374 23.3733 28.9817 23.3916 29.0358 23.3916C29.0899 23.3916 29.1616 23.4189 29.1951 23.4524C29.2285 23.4858 29.2937 23.5132 29.3399 23.5132C29.386 23.5132 29.4238 23.5314 29.4238 23.5537C29.4238 23.576 29.4877 23.5943 29.5657 23.5943C29.6438 23.5943 29.7076 23.6117 29.7076 23.633C29.7076 23.6543 29.7715 23.6837 29.8495 23.6983C29.9275 23.7129 29.9914 23.7411 29.9914 23.7609C29.9914 23.7808 30.0993 23.797 30.2313 23.797C30.3632 23.797 30.4772 23.8139 30.4846 23.8345C30.4921 23.8552 30.9998 23.8962 31.613 23.9257C33.0975 23.9972 44.5727 23.9872 45.6297 23.9135C46.0143 23.8867 46.329 23.8495 46.329 23.8309C46.329 23.8122 46.4202 23.797 46.5317 23.797C46.6432 23.797 46.7344 23.7808 46.7344 23.7611C46.7344 23.7413 46.8161 23.7129 46.9159 23.6979C47.0157 23.6829 47.108 23.6535 47.121 23.6325C47.134 23.6115 47.1891 23.5943 47.2435 23.5943C47.298 23.5943 47.3425 23.576 47.3425 23.5537C47.3425 23.5314 47.3755 23.5132 47.4158 23.5132C47.4562 23.5132 47.5246 23.4864 47.5679 23.4537C47.6111 23.4209 47.6785 23.3936 47.7175 23.3929C47.7565 23.3921 47.7884 23.3733 47.7884 23.351C47.7884 23.3287 47.8158 23.3105 47.8493 23.3105C47.8827 23.3105 47.9101 23.2926 47.9101 23.2707C47.9101 23.2489 47.9557 23.2195 48.0114 23.2055C48.0672 23.1915 48.1128 23.1638 48.1128 23.144C48.1128 23.1241 48.154 23.1078 48.2045 23.1078C48.255 23.1078 48.3304 23.0623 48.3723 23.0064C48.4142 22.9507 48.4729 22.9051 48.5028 22.9051C48.5667 22.9051 49.1668 22.3209 49.1668 22.2586C49.1668 22.2351 49.1942 22.2159 49.2276 22.2159C49.2611 22.2159 49.2884 22.1964 49.2884 22.1725C49.2884 22.1486 49.3112 22.1036 49.3391 22.0725C49.4594 21.9384 49.4911 21.8925 49.4911 21.8528C49.4911 21.8295 49.5052 21.8105 49.5225 21.8105C49.5397 21.8105 49.5881 21.7467 49.6302 21.6686C49.6722 21.5906 49.722 21.5267 49.7407 21.5267C49.7595 21.5267 49.7749 21.4811 49.7749 21.4254C49.7749 21.3696 49.7928 21.324 49.8147 21.324C49.8365 21.324 49.8659 21.2784 49.8799 21.2227C49.8938 21.1669 49.9216 21.1213 49.9414 21.1213C49.9613 21.1213 49.9776 21.0666 49.9776 20.9997C49.9776 20.9328 49.9914 20.8781 50.0082 20.8781C50.049 20.8781 50.1423 20.6119 50.1681 20.422C50.1795 20.3384 50.2033 20.27 50.221 20.27C50.2387 20.27 50.2621 20.1925 50.2731 20.0977C50.284 20.0029 50.3128 19.8524 50.337 19.7632C50.3648 19.661 50.3814 19.0652 50.382 18.1518C50.3827 17.2132 50.3973 16.7025 50.4235 16.7025C50.4503 16.7025 50.4641 15.493 50.4641 13.1552C50.4641 10.8174 50.4503 9.60798 50.4235 9.60798C50.3969 9.60798 50.3827 8.72558 50.382 7.04382C50.3814 5.3077 50.3667 4.42729 50.3365 4.31751C50.312 4.22832 50.2834 4.05959 50.2729 3.94251C50.2624 3.82543 50.2373 3.72968 50.2171 3.72968C50.1968 3.72968 50.1797 3.67041 50.179 3.59792C50.1783 3.52544 50.151 3.43074 50.1182 3.38748C50.0855 3.34419 50.0587 3.26667 50.0587 3.21519C50.0587 3.1637 50.0404 3.12158 50.0181 3.12158C49.9958 3.12158 49.9776 3.05773 49.9776 2.97969C49.9776 2.90165 49.9597 2.8378 49.9378 2.8378C49.916 2.8378 49.8866 2.79219 49.8726 2.73645C49.8587 2.68071 49.8309 2.6351 49.8111 2.6351C49.7912 2.6351 49.7749 2.59861 49.7749 2.55402C49.7749 2.50943 49.7586 2.47294 49.7387 2.47294C49.7189 2.47294 49.6911 2.42733 49.6772 2.37159C49.6632 2.31585 49.6338 2.27024 49.612 2.27024C49.5901 2.27024 49.5722 2.24287 49.5722 2.20943C49.5722 2.17598 49.554 2.14862 49.5317 2.14862C49.5094 2.14862 49.4911 2.12563 49.4911 2.09754C49.4911 2.06944 49.4455 1.99724 49.3898 1.93712C49.334 1.87704 49.2884 1.81729 49.2884 1.80435C49.2884 1.77865 49.1692 1.64337 48.9932 1.46949C48.7663 1.24523 48.6831 1.17566 48.6416 1.17566C48.6183 1.17566 48.5992 1.1483 48.5992 1.11485C48.5992 1.0814 48.5759 1.05404 48.5474 1.05404C48.5189 1.05404 48.4692 1.01755 48.4371 0.97296C48.4049 0.928366 48.3561 0.89188 48.3286 0.89188C48.3011 0.89188 48.233 0.846272 48.1773 0.79053C48.1215 0.734787 48.0386 0.68918 47.993 0.68918C47.9474 0.68918 47.9101 0.671301 47.9101 0.649409C47.9101 0.627558 47.8645 0.598208 47.8087 0.584222C47.753 0.570236 47.7074 0.542507 47.7074 0.522643C47.7074 0.502738 47.6618 0.48648 47.606 0.48648C47.5503 0.48648 47.5047 0.470265 47.5047 0.450441C47.5047 0.430657 47.4408 0.40244 47.3628 0.387805C47.2847 0.37317 47.2209 0.34378 47.2209 0.322496C47.2209 0.301213 47.157 0.28378 47.079 0.28378C47.001 0.28378 46.9371 0.265537 46.9371 0.24324C46.9371 0.220943 46.8654 0.2027 46.7778 0.2027C46.6903 0.2027 46.5912 0.175335 46.5578 0.14189C46.5137 0.0978635 46.4066 0.08108 46.1697 0.08108C45.9786 0.08108 45.8425 0.0642153 45.8425 0.04054C45.8425 0.013662 43.3561 0 38.4642 0C33.5724 0 31.086 0.013662 31.086 0.04054ZM57.437 0.04054C57.437 0.0639721 57.3044 0.0816063 57.1228 0.0823765C56.911 0.0832279 56.7829 0.103052 56.7299 0.143187C56.6866 0.175902 56.5909 0.2027 56.5171 0.2027C56.4433 0.2027 56.3829 0.220943 56.3829 0.24324C56.3829 0.265537 56.3099 0.28378 56.2208 0.28378C56.1316 0.28378 56.0586 0.300564 56.0586 0.321118C56.0586 0.341631 56.0039 0.370454 55.937 0.38513C55.8701 0.399805 55.8154 0.428628 55.8154 0.449142C55.8154 0.469695 55.7606 0.48648 55.6937 0.48648C55.6269 0.48648 55.572 0.500142 55.5719 0.516885C55.5715 0.557668 55.3371 0.68918 55.2648 0.68918C55.2332 0.68918 55.2073 0.707423 55.2073 0.72972C55.2073 0.752017 55.1799 0.77026 55.1465 0.77026C55.113 0.77026 55.0856 0.788139 55.0856 0.81003C55.0856 0.831881 55.04 0.861231 54.9843 0.875217C54.9286 0.889204 54.8829 0.916932 54.8829 0.936797C54.8829 0.956702 54.8639 0.97296 54.8407 0.97296C54.7965 0.97296 54.7414 1.01346 54.5788 1.16552C54.5251 1.21567 54.4621 1.25674 54.4388 1.25674C54.4155 1.25674 54.3965 1.27628 54.3965 1.30016C54.3965 1.35631 54.2933 1.45944 54.2372 1.45944C54.2133 1.45944 54.1938 1.47898 54.1938 1.50286C54.1938 1.55901 54.0906 1.66214 54.0345 1.66214C54.0106 1.66214 53.9911 1.68119 53.9911 1.7045C53.9911 1.72781 53.95 1.79081 53.8998 1.84445C53.7478 2.00709 53.7073 2.06219 53.7073 2.10638C53.7073 2.12961 53.691 2.14862 53.6711 2.14862C53.6513 2.14862 53.6235 2.19423 53.6095 2.24997C53.5956 2.30571 53.5662 2.35132 53.5443 2.35132C53.5225 2.35132 53.5046 2.38781 53.5046 2.4324C53.5046 2.47699 53.4863 2.51348 53.464 2.51348C53.4417 2.51348 53.4235 2.54774 53.4235 2.58961C53.4235 2.63145 53.3961 2.68841 53.3627 2.71618C53.3292 2.74395 53.3019 2.80091 53.3019 2.84275C53.3019 2.88462 53.2836 2.91888 53.2613 2.91888C53.239 2.91888 53.2208 2.96578 53.2208 3.02311C53.2208 3.08047 53.1934 3.15474 53.16 3.18819C53.1265 3.22163 53.0992 3.29331 53.0992 3.34743C53.0992 3.40159 53.0809 3.4459 53.0586 3.4459C53.0363 3.4459 53.0181 3.50975 53.0181 3.58779C53.0181 3.66583 52.9999 3.72968 52.9776 3.72968C52.9553 3.72968 52.9364 3.81635 52.9356 3.92224C52.9348 4.02813 52.9081 4.16042 52.8762 4.21616C52.8264 4.30324 52.8181 5.69595 52.8168 14.0978L52.8154 23.8781H55.187H57.5586V23.7767C57.5586 23.721 57.5768 23.6754 57.5991 23.6754C57.6259 23.6754 57.6397 22.1302 57.6397 19.1209C57.6397 14.7601 57.6428 14.5636 57.7138 14.4993C57.7546 14.4624 57.8184 14.4322 57.8557 14.4322C57.893 14.4322 57.9234 14.414 57.9234 14.3917C57.9234 14.3648 61.0518 14.3512 67.2274 14.3512C72.9393 14.3512 76.5313 14.3366 76.5313 14.3135C76.5313 14.2927 76.5723 14.2699 76.6225 14.2628C76.6811 14.2544 76.7184 14.2172 76.7267 14.1586C76.7338 14.1084 76.7566 14.0674 76.7774 14.0674C76.8002 14.0674 76.8151 13.2326 76.8151 11.9593C76.8151 10.7518 76.7996 9.85122 76.7789 9.85122C76.759 9.85122 76.7319 9.80776 76.7185 9.75469C76.7039 9.69619 76.6502 9.64426 76.5824 9.62294C76.5207 9.60352 72.3688 9.58499 67.3287 9.58162C62.3007 9.57826 58.097 9.56249 57.987 9.54656C57.7603 9.51368 57.6431 9.40747 57.641 9.23298C57.6403 9.17165 57.6214 9.1215 57.5991 9.1215C57.5768 9.1215 57.5586 9.08501 57.5586 9.04042C57.5586 8.99582 57.5768 8.95934 57.5991 8.95934C57.6255 8.95934 57.6397 8.35801 57.6397 7.23639C57.6397 6.11477 57.6255 5.51344 57.5991 5.51344C57.5768 5.51344 57.5586 5.46783 57.5586 5.41209C57.5586 5.35635 57.5768 5.31074 57.5991 5.31074C57.6214 5.31074 57.6397 5.25459 57.6397 5.186C57.6397 5.1022 57.6785 5.02238 57.7582 4.94276L57.8767 4.82426H67.1196C75.8479 4.82426 76.3695 4.82033 76.4872 4.75331C76.5558 4.71431 76.612 4.66871 76.6121 4.65196C76.6123 4.63522 76.6397 4.62156 76.6732 4.62156C76.711 4.62156 76.734 4.58329 76.734 4.52021C76.734 4.46447 76.7522 4.41886 76.7745 4.41886C76.801 4.41886 76.8151 3.67467 76.8151 2.26736C76.8151 0.456765 76.8059 0.106661 76.7571 0.0579323C76.7073 0.00802757 75.361 0 67.0681 0C60.6744 0 57.437 0.0136214 57.437 0.04054ZM79.1978 2.09794C79.1871 4.44983 79.1873 4.45595 79.2443 4.51299C79.2684 4.53703 79.288 4.58953 79.288 4.62967C79.288 4.67167 79.3181 4.70321 79.359 4.70394C79.398 4.70462 79.4663 4.73272 79.5107 4.76629C79.5817 4.81992 80.1359 4.82673 84.05 4.82227C87.2287 4.81866 88.5127 4.82985 88.5232 4.86127C88.5313 4.88552 88.5559 4.90534 88.578 4.90534C88.6466 4.90534 88.7338 5.01723 88.7338 5.10516C88.7338 5.15134 88.7521 5.18912 88.7744 5.18912C88.8013 5.18912 88.8149 8.33097 88.8149 14.5336V23.8781H91.227H93.6392V18.2633C93.6392 14.5471 93.6255 12.6485 93.5986 12.6485C93.5719 12.6485 93.5581 11.385 93.5581 8.93907C93.5581 6.49317 93.5719 5.22966 93.5986 5.22966C93.6209 5.22966 93.6392 5.18275 93.6392 5.12543C93.6392 5.01853 93.7211 4.90534 93.7984 4.90534C93.8223 4.90534 93.8419 4.8871 93.8419 4.8648C93.8419 4.838 95.4229 4.82426 98.504 4.82426H103.166V2.45267V0.08108H91.1865H79.2069L79.1978 2.09794ZM170.848 0.142823C170.736 0.171485 170.54 0.196659 170.412 0.198808C170.284 0.200956 170.179 0.220943 170.179 0.24324C170.179 0.265537 170.087 0.28378 169.976 0.28378C169.864 0.28378 169.773 0.299995 169.773 0.319819C169.773 0.339603 169.709 0.36782 169.631 0.382455C169.553 0.39709 169.489 0.42648 169.489 0.447764C169.489 0.469047 169.444 0.48648 169.388 0.48648C169.332 0.48648 169.287 0.504723 169.287 0.52702C169.287 0.549317 169.242 0.56756 169.188 0.56756C169.134 0.56756 169.063 0.594924 169.029 0.62837C168.996 0.661815 168.93 0.68918 168.884 0.68918C168.838 0.68918 168.8 0.705437 168.8 0.725343C168.8 0.745207 168.755 0.772936 168.699 0.786922C168.643 0.800908 168.598 0.830258 168.598 0.852109C168.598 0.874001 168.57 0.89188 168.537 0.89188C168.503 0.89188 168.476 0.910123 168.476 0.93242C168.476 0.954717 168.446 0.97296 168.41 0.97296C168.373 0.97296 168.301 1.01857 168.249 1.07431C168.198 1.13005 168.136 1.17566 168.112 1.17566C168.089 1.17566 168.007 1.23951 167.931 1.31755C167.856 1.39559 167.774 1.45944 167.75 1.45944C167.726 1.45944 167.706 1.47898 167.706 1.50286C167.706 1.55013 167.606 1.66214 167.564 1.66214C167.522 1.66214 167.422 1.77415 167.422 1.82142C167.422 1.8453 167.395 1.86484 167.361 1.86484C167.328 1.86484 167.3 1.8922 167.3 1.92565C167.3 1.95909 167.282 1.98646 167.26 1.98646C167.237 1.98646 167.219 2.01467 167.219 2.04921C167.219 2.08371 167.174 2.15421 167.118 2.20586C167.062 2.25755 167.017 2.32963 167.017 2.36612C167.017 2.40256 167 2.4324 166.98 2.4324C166.961 2.4324 166.933 2.47801 166.919 2.53375C166.905 2.58949 166.875 2.6351 166.854 2.6351C166.832 2.6351 166.814 2.68071 166.814 2.73645C166.814 2.79219 166.796 2.8378 166.773 2.8378C166.751 2.8378 166.733 2.88341 166.733 2.93915C166.733 2.99489 166.715 3.0405 166.693 3.0405C166.671 3.0405 166.642 3.08611 166.628 3.14185C166.614 3.19759 166.586 3.2432 166.566 3.2432C166.546 3.2432 166.53 3.31617 166.53 3.40536C166.53 3.49455 166.514 3.56752 166.495 3.56752C166.441 3.56752 166.36 3.95496 166.34 4.30737C166.329 4.4802 166.304 4.62156 166.284 4.62156C166.261 4.62156 166.246 8.3713 166.246 14.2093C166.246 20.574 166.26 23.797 166.287 23.797C166.309 23.797 166.327 23.8245 166.327 23.8581C166.327 23.912 166.607 23.918 168.689 23.9088L171.05 23.8983L171.061 19.2433C171.07 14.9524 171.076 14.583 171.139 14.5204C171.202 14.4575 171.707 14.4525 178.098 14.4525C183.575 14.4525 184.993 14.4629 185.006 14.5032C185.015 14.5311 185.059 14.5539 185.104 14.5539C185.221 14.5539 185.285 14.6357 185.357 14.8792C185.414 15.0709 185.422 15.5983 185.422 19.5071V23.9186H187.768H190.115L190.143 23.8274C190.195 23.6572 190.251 17.023 190.228 13.7431C190.195 9.18117 190.12 4.15924 190.083 4.13508C190.066 4.12393 190.042 4.02359 190.031 3.91211C190.004 3.65882 189.913 3.32428 189.872 3.32428C189.855 3.32428 189.841 3.26043 189.841 3.18239C189.841 3.10435 189.826 3.0405 189.809 3.0405C189.792 3.0405 189.742 2.94928 189.699 2.8378C189.655 2.72631 189.606 2.6351 189.588 2.6351C189.571 2.6351 189.557 2.59805 189.557 2.55276C189.557 2.50744 189.529 2.45989 189.496 2.44707C189.463 2.43422 189.435 2.38918 189.435 2.34698C189.435 2.30478 189.417 2.27024 189.395 2.27024C189.372 2.27024 189.354 2.2507 189.354 2.22682C189.354 2.2029 189.331 2.15794 189.303 2.12685C189.194 2.00446 189.151 1.94831 189.151 1.92484C189.151 1.87222 188.348 1.10232 188.266 1.07625C188.218 1.06101 188.178 1.03158 188.178 1.01078C188.178 0.989986 188.151 0.97296 188.118 0.97296C188.084 0.97296 188.057 0.959298 188.057 0.942555C188.056 0.901771 187.822 0.77026 187.749 0.77026C187.718 0.77026 187.692 0.752017 187.692 0.72972C187.692 0.707423 187.648 0.68918 187.595 0.68918C187.542 0.68918 187.487 0.661815 187.475 0.62837C187.462 0.594924 187.414 0.56756 187.369 0.56756C187.324 0.56756 187.287 0.549317 187.287 0.52702C187.287 0.504723 187.241 0.48648 187.185 0.48648C187.129 0.48648 187.084 0.469047 187.084 0.447764C187.084 0.42648 187.02 0.397049 186.941 0.382373C186.863 0.367698 186.789 0.339483 186.777 0.31974C186.765 0.299956 186.674 0.28378 186.575 0.28378C186.476 0.28378 186.395 0.265537 186.395 0.24324C186.395 0.2207 186.282 0.202052 186.141 0.201282C186.002 0.200512 185.769 0.173754 185.624 0.14189C185.253 0.060283 171.165 0.0611753 170.848 0.142823ZM139.976 9.97284C139.976 16.5133 139.99 19.8241 140.017 19.8241C140.039 19.8241 140.057 19.8885 140.057 19.9672C140.057 20.046 140.085 20.1759 140.118 20.256C140.152 20.336 140.179 20.4358 140.179 20.4776C140.179 20.5195 140.197 20.5538 140.22 20.5538C140.242 20.5538 140.26 20.6176 140.26 20.6957C140.26 20.7737 140.278 20.8376 140.299 20.8376C140.32 20.8376 140.35 20.9014 140.364 20.9794C140.379 21.0575 140.407 21.1213 140.427 21.1213C140.447 21.1213 140.463 21.1669 140.463 21.2227C140.463 21.2784 140.481 21.324 140.503 21.324C140.524 21.324 140.554 21.3696 140.568 21.4254C140.582 21.4811 140.61 21.5267 140.629 21.5267C140.649 21.5267 140.666 21.5541 140.666 21.5875C140.666 21.621 140.684 21.6484 140.706 21.6484C140.728 21.6484 140.747 21.6766 140.747 21.7111C140.747 21.7456 140.792 21.8161 140.848 21.8678C140.904 21.9194 140.949 21.989 140.949 22.0223C140.949 22.0557 140.995 22.1172 141.051 22.159C141.106 22.2009 141.152 22.2504 141.152 22.269C141.152 22.3173 141.26 22.4186 141.311 22.4186C141.335 22.4186 141.355 22.4377 141.355 22.461C141.355 22.516 141.541 22.7024 141.596 22.7024C141.619 22.7024 141.639 22.7298 141.639 22.7632C141.639 22.7966 141.658 22.824 141.681 22.824C141.704 22.824 141.767 22.8651 141.821 22.9152C141.983 23.0673 142.039 23.1078 142.083 23.1078C142.106 23.1078 142.125 23.126 142.125 23.1483C142.125 23.1706 142.152 23.1889 142.186 23.1889C142.219 23.1889 142.247 23.2162 142.247 23.2497C142.247 23.2875 142.285 23.3105 142.348 23.3105C142.404 23.3105 142.449 23.3287 142.449 23.351C142.449 23.3733 142.484 23.3916 142.526 23.3916C142.568 23.3916 142.613 23.4189 142.626 23.4524C142.639 23.4858 142.696 23.5132 142.752 23.5132C142.809 23.5132 142.855 23.5314 142.855 23.5537C142.855 23.576 142.909 23.5943 142.976 23.5943C143.043 23.5943 143.098 23.6123 143.098 23.6343C143.098 23.6564 143.171 23.6861 143.26 23.7003C143.349 23.7146 143.422 23.7422 143.422 23.7616C143.422 23.7811 143.495 23.797 143.584 23.797C143.674 23.797 143.747 23.8117 143.747 23.8297C143.747 23.8478 143.906 23.8867 144.101 23.9163C144.386 23.9596 146.358 23.9731 154.155 23.9851L163.854 24L163.864 22.0235C163.875 19.8234 163.867 19.4046 163.811 19.3849C163.79 19.3774 163.773 19.3455 163.773 19.3139C163.773 19.2797 163.732 19.2565 163.672 19.2565C163.616 19.2565 163.571 19.2383 163.571 19.216C163.571 19.189 160.448 19.1754 154.285 19.1754H145L144.9 19.0759C144.845 19.0212 144.801 18.9518 144.801 18.9218C144.801 18.8918 144.782 18.8486 144.759 18.8258C144.731 18.7976 144.718 15.7961 144.719 9.51834C144.72 4.4221 144.709 0.223052 144.695 0.187052C144.673 0.127864 144.446 0.12162 142.323 0.12162H139.976V9.97284ZM192.597 9.95257C192.597 16.4795 192.611 19.7835 192.638 19.7835C192.66 19.7835 192.679 19.8702 192.68 19.9761C192.681 20.082 192.707 20.2143 192.739 20.27C192.771 20.3257 192.798 20.4307 192.799 20.5031C192.799 20.5755 192.818 20.6349 192.841 20.6349C192.863 20.6349 192.881 20.6885 192.881 20.7541C192.881 20.8197 192.898 20.8837 192.918 20.8964C192.939 20.9091 192.968 20.9741 192.983 21.0407C192.997 21.1073 193.026 21.1619 193.046 21.1619C193.067 21.1619 193.084 21.1997 193.084 21.2458C193.084 21.292 193.107 21.3552 193.134 21.3863C193.261 21.5273 193.286 21.568 193.286 21.6281C193.286 21.6635 193.332 21.7416 193.388 21.8017C193.444 21.8618 193.489 21.934 193.489 21.9621C193.489 21.9902 193.507 22.0132 193.53 22.0132C193.552 22.0132 193.57 22.0406 193.57 22.074C193.57 22.1075 193.59 22.1348 193.614 22.1348C193.661 22.1348 193.773 22.2346 193.773 22.2767C193.773 22.3188 193.885 22.4186 193.932 22.4186C193.956 22.4186 193.976 22.4376 193.976 22.4609C193.976 22.504 194.035 22.5867 194.13 22.6739C194.159 22.7007 194.226 22.7637 194.28 22.8139C194.333 22.864 194.396 22.9051 194.42 22.9051C194.443 22.9051 194.462 22.9325 194.462 22.9659C194.462 22.9993 194.489 23.0267 194.523 23.0267C194.556 23.0267 194.584 23.045 194.584 23.0673C194.584 23.0896 194.62 23.1078 194.665 23.1078C194.709 23.1078 194.746 23.1241 194.746 23.144C194.746 23.1638 194.792 23.1915 194.847 23.2055C194.903 23.2195 194.949 23.2489 194.949 23.2707C194.949 23.2926 194.976 23.3105 195.009 23.3105C195.043 23.3105 195.07 23.3287 195.07 23.351C195.07 23.3733 195.096 23.3916 195.128 23.3916C195.195 23.3916 195.449 23.5198 195.469 23.5639C195.476 23.5806 195.536 23.5943 195.601 23.5943C195.666 23.5943 195.719 23.6123 195.719 23.6343C195.719 23.6564 195.792 23.6861 195.881 23.7003C195.97 23.7146 196.043 23.7422 196.043 23.7616C196.043 23.7811 196.125 23.797 196.226 23.797C196.326 23.797 196.408 23.8129 196.408 23.8324C196.408 23.852 196.586 23.8912 196.803 23.9196C197.389 23.9961 211.62 23.9931 212.188 23.9163C212.406 23.8869 212.583 23.8481 212.583 23.8299C212.583 23.8118 212.666 23.797 212.766 23.797C212.866 23.797 212.948 23.7787 212.948 23.7564C212.948 23.7341 212.99 23.7159 213.042 23.7159C213.093 23.7159 213.171 23.6891 213.214 23.6564C213.258 23.6236 213.343 23.5963 213.404 23.5956C213.466 23.5948 213.516 23.576 213.516 23.5537C213.516 23.5314 213.55 23.5132 213.592 23.5132C213.634 23.5132 213.691 23.4858 213.719 23.4524C213.746 23.4189 213.803 23.3916 213.845 23.3916C213.887 23.3916 213.921 23.3733 213.921 23.351C213.921 23.3287 213.959 23.3105 214.004 23.3105C214.05 23.3105 214.13 23.2649 214.181 23.2091C214.233 23.1534 214.306 23.1078 214.343 23.1078C214.381 23.1078 214.457 23.0622 214.513 23.0064C214.569 22.9507 214.633 22.9051 214.656 22.9051C214.71 22.9051 214.813 22.8011 214.813 22.7458C214.813 22.7219 214.832 22.7024 214.856 22.7024C214.911 22.7024 215.3 22.3137 215.3 22.2584C215.3 22.235 215.319 22.2159 215.343 22.2159C215.398 22.2159 215.502 22.1131 215.502 22.0585C215.502 22.0356 215.548 21.9713 215.604 21.9156C215.659 21.8598 215.705 21.7789 215.705 21.7356C215.705 21.6924 215.731 21.6471 215.762 21.6351C215.794 21.623 215.843 21.5481 215.872 21.4686C215.901 21.3891 215.939 21.324 215.956 21.324C215.974 21.324 215.989 21.2921 215.99 21.2531C215.991 21.2141 216.018 21.1467 216.051 21.1035C216.084 21.0602 216.11 20.9826 216.11 20.9312C216.11 20.8797 216.129 20.8376 216.151 20.8376C216.173 20.8376 216.192 20.7954 216.192 20.7439C216.192 20.6925 216.218 20.615 216.251 20.5717C216.284 20.5284 216.311 20.4428 216.312 20.3815C216.313 20.3201 216.331 20.27 216.354 20.27C216.376 20.27 216.394 20.163 216.394 20.0301C216.394 19.8743 216.412 19.7844 216.445 19.7734C216.485 19.7599 216.496 17.7648 216.496 9.97811C216.496 1.33036 216.489 0.195281 216.435 0.161309C216.398 0.138282 215.459 0.122594 214.091 0.122229C212.165 0.121702 211.798 0.130702 211.75 0.179552C211.7 0.229376 211.691 1.54579 211.69 9.6355C211.689 17.3857 211.68 19.046 211.635 19.1045C211.585 19.1705 211.427 19.1754 209.346 19.1754C207.165 19.1754 207.109 19.1735 207.03 19.0943C206.949 19.0137 206.948 18.9592 206.948 9.59204C206.948 1.03851 206.943 0.168565 206.884 0.146228C206.849 0.132687 205.785 0.12162 204.521 0.12162C202.786 0.12162 202.21 0.13358 202.173 0.170268C202.135 0.207808 202.124 2.3529 202.124 9.57867V18.9384L202.006 19.0569L201.887 19.1754H199.754H197.621L197.521 19.0759C197.466 19.0212 197.422 18.9402 197.422 18.8959C197.422 18.8516 197.402 18.8035 197.379 18.789C197.349 18.7706 197.345 15.9693 197.365 9.5048C197.389 1.99769 197.384 0.235133 197.342 0.184296C197.296 0.12908 197.011 0.12162 194.944 0.12162H192.597V9.95257ZM31.4103 4.8648C31.4103 4.8871 31.3829 4.90534 31.3495 4.90534C31.3117 4.90534 31.2887 4.94361 31.2887 5.00669C31.2887 5.06243 31.2704 5.10804 31.2481 5.10804C31.2213 5.10804 31.2076 7.42559 31.2076 11.9796C31.2076 16.5335 31.2213 18.8511 31.2481 18.8511C31.2704 18.8511 31.2887 18.8947 31.2887 18.9481C31.2887 19.0177 31.3172 19.0522 31.39 19.0705C31.4458 19.0844 31.4914 19.1138 31.4914 19.1356C31.4914 19.1615 33.9189 19.1754 38.4237 19.1754C42.6843 19.1754 45.356 19.1609 45.356 19.1376C45.356 19.1168 45.3933 19.088 45.4388 19.0735C45.4879 19.0579 45.5311 18.9992 45.5452 18.9289C45.5582 18.8638 45.5849 18.8106 45.6044 18.8106C45.6245 18.8106 45.6398 15.8473 45.6398 11.9593C45.6398 7.41882 45.6262 5.10804 45.5993 5.10804C45.577 5.10804 45.5587 5.07561 45.5587 5.03596C45.5587 4.99631 45.5221 4.93246 45.4772 4.89407C45.4007 4.8286 44.9611 4.82426 38.403 4.82426C33.7682 4.82426 31.4103 4.83792 31.4103 4.8648ZM171.202 4.93218C171.174 4.94345 171.152 4.98759 171.152 5.03032C171.152 5.07309 171.133 5.10804 171.111 5.10804C171.085 5.10804 171.071 5.85187 171.071 7.25848V9.40897L171.18 9.51859L171.29 9.62825L178.214 9.63871L185.137 9.64921L185.28 9.49852L185.422 9.34783V7.27137C185.422 5.47967 185.413 5.18656 185.361 5.13411C185.327 5.10066 185.3 5.06158 185.3 5.04723C185.3 5.03288 185.274 4.99509 185.242 4.96327C185.192 4.91349 184.204 4.90578 178.219 4.90854C174.388 4.91028 171.23 4.92095 171.202 4.93218Z" fill="#E9E9E9" fill-opacity="0.991"/>
<rect x="112.896" y="9.53613" width="12.4458" height="12.4458" fill="#FACC15"/>
</svg>
