<svg width="64" height="64" viewBox="0 0 64 64" fill="none" xmlns="http://www.w3.org/2000/svg">
<g id="Planet">
<path id="Vector" d="M60.415 15.6699C58.7325 12.7749 53.77 12.2199 46.415 14.0949C42.8083 11.1926 38.4097 9.4462 33.7944 9.08414C29.1792 8.72207 24.562 9.76119 20.5469 12.0656C16.5317 14.37 13.3054 17.8324 11.2899 22.0001C9.27433 26.1678 8.56338 30.8467 9.25 35.4249C3.905 40.8474 1.89 45.4249 3.58 48.3299C4.6125 50.1074 6.83 51.0074 10.08 51.0074C12.1589 50.97 14.2276 50.7076 16.25 50.2249C16.685 50.1274 17.13 50.0199 17.58 49.9049C20.9587 52.624 25.0374 54.3324 29.3454 54.833C33.6534 55.3335 38.0151 54.6059 41.9273 52.7339C45.8395 50.862 49.1427 47.9221 51.4558 44.2535C53.7688 40.5848 54.9975 36.3369 55 31.9999C55.0017 30.8512 54.9182 29.7038 54.75 28.5674C57.9425 25.3174 60.0775 22.2474 60.75 19.6999C61.1725 18.1349 61.0575 16.7799 60.415 15.6699ZM32 10.9999C36.8547 11.0058 41.5579 12.691 45.3117 15.7695C49.0656 18.848 51.6388 23.1303 52.595 27.8899C48.5525 31.8124 42.895 36.0099 36.4725 39.6999C29.645 43.6224 23.27 46.2624 18.07 47.6999C14.8869 44.8723 12.6384 41.1439 11.6228 37.0091C10.6073 32.8743 10.8725 28.5284 12.3834 24.5478C13.8943 20.5672 16.5794 17.1399 20.0828 14.7204C23.5862 12.3008 27.7423 11.0033 32 10.9999ZM5.3125 47.3249C4.25 45.4999 5.9375 41.9249 9.75 37.8099C10.7837 41.7691 12.8549 45.3807 15.75 48.2724C10.215 49.4999 6.3675 49.1449 5.3125 47.3249ZM32 52.9999C27.7072 53.0042 23.5173 51.6861 20 49.2249C25.395 47.5799 31.4575 44.8824 37.4625 41.4349C43.525 37.9499 48.865 34.0699 52.92 30.3249C52.965 30.8774 52.995 31.4349 52.995 31.9999C52.9884 37.5666 50.7745 42.9034 46.8387 46.8401C42.903 50.7768 37.5667 52.992 32 52.9999ZM58.82 19.1824C58.2875 21.1824 56.675 23.5949 54.2575 26.1974C53.2173 22.2292 51.1355 18.611 48.2275 15.7174C53.69 14.5124 57.625 14.8524 58.685 16.6749C59.05 17.3074 59.0975 18.1499 58.82 19.1824Z" fill="#EFF4F6"/>
</g>
</svg>
