<svg width="49" height="49" viewBox="0 0 49 49" fill="none" xmlns="http://www.w3.org/2000/svg">
<path d="M39.0577 17.5604L30.267 8.77608C30.0905 8.59952 29.8511 8.50022 29.6014 8.5H14.5317C13.9488 8.5 13.3898 8.73137 12.9777 9.14322C12.5655 9.55506 12.334 10.1136 12.334 10.6961V38.3039C12.334 38.8864 12.5655 39.4449 12.9777 39.8568C13.3898 40.2686 13.9488 40.5 14.5317 40.5H37.1363C37.7192 40.5 38.2782 40.2686 38.6903 39.8568C39.1024 39.4449 39.334 38.8864 39.334 38.3039V18.2255C39.3338 17.976 39.2344 17.7367 39.0577 17.5604ZM30.5433 11.7125L36.1191 17.2843H30.5433V11.7125ZM37.1363 38.6176H14.5317C14.4484 38.6176 14.3685 38.5846 14.3097 38.5258C14.2508 38.4669 14.2177 38.3871 14.2177 38.3039V10.6961C14.2177 10.6129 14.2508 10.5331 14.3097 10.4742C14.3685 10.4154 14.4484 10.3824 14.5317 10.3824H28.6596V18.2255C28.6596 18.4751 28.7588 18.7145 28.9354 18.891C29.1121 19.0675 29.3516 19.1667 29.6014 19.1667H37.4503V38.3039C37.4503 38.3871 37.4172 38.4669 37.3583 38.5258C37.2994 38.5846 37.2196 38.6176 37.1363 38.6176ZM30.5433 28.2647C30.5433 28.5143 30.4441 28.7537 30.2674 28.9302C30.0908 29.1067 29.8512 29.2059 29.6014 29.2059H26.7758V32.0294C26.7758 32.279 26.6766 32.5184 26.5 32.6949C26.3233 32.8714 26.0838 32.9706 25.834 32.9706C25.5842 32.9706 25.3446 32.8714 25.168 32.6949C24.9914 32.5184 24.8921 32.279 24.8921 32.0294V29.2059H22.0665C21.8167 29.2059 21.5772 29.1067 21.4005 28.9302C21.2239 28.7537 21.1247 28.5143 21.1247 28.2647C21.1247 28.0151 21.2239 27.7757 21.4005 27.5992C21.5772 27.4227 21.8167 27.3235 22.0665 27.3235H24.8921V24.5C24.8921 24.2504 24.9914 24.011 25.168 23.8345C25.3446 23.658 25.5842 23.5588 25.834 23.5588C26.0838 23.5588 26.3233 23.658 26.5 23.8345C26.6766 24.011 26.7758 24.2504 26.7758 24.5V27.3235H29.6014C29.8512 27.3235 30.0908 27.4227 30.2674 27.5992C30.4441 27.7757 30.5433 28.0151 30.5433 28.2647Z" fill="#B0B0B1"/>
</svg>
