<svg width="452" height="104" viewBox="0 0 452 104" fill="none" xmlns="http://www.w3.org/2000/svg">
<path d="M108.96 43.3618C99.9925 43.3618 92.6075 47.0484 86.6995 54.5271C80.7915 61.9004 77.8375 70.6431 77.8375 80.4391C77.8375 87.1804 79.7365 92.6578 83.429 96.8711C87.1215 101.084 92.08 103.191 98.3045 103.191C106.639 103.191 113.707 99.7151 119.615 92.7631C123.519 87.7071 125.101 84.6524 125.945 82.4404C128.161 77.0684 129.216 71.4858 129.216 65.9031C129.216 59.2671 127.633 53.8951 124.468 49.6818C121.303 45.4684 116.028 43.3618 108.96 43.3618ZM109.276 87.8124C106.217 90.8671 102.63 92.4471 98.621 92.4471C95.667 92.4471 93.2405 91.3938 91.5525 89.2871C89.8645 87.1804 89.0205 84.2311 89.0205 80.5444C89.0205 73.1711 90.814 66.9564 94.5065 61.9004C98.0935 56.8444 102.735 54.3164 108.327 54.3164C114.657 54.3164 117.716 58.1084 117.716 65.7978C117.822 77.0684 112.441 84.6524 109.276 87.8124ZM447.931 71.0644C445.294 70.2218 442.34 71.4858 441.285 74.1191C436.432 86.2324 430.418 92.3418 423.033 92.3418C419.236 92.3418 417.336 89.0764 417.336 82.6511C417.336 79.0698 418.391 72.0124 420.501 61.5844L422.084 54.2111H437.065C439.597 54.2111 441.918 52.4204 442.34 49.8924C443.078 46.5218 440.441 43.3618 437.065 43.3618H424.51L427.148 31.1431C427.886 27.6671 425.249 24.4018 421.662 24.4018C419.024 24.4018 416.809 26.1924 416.176 28.8258L413.011 43.3618H378.09H377.985C369.017 43.3618 361.632 47.0484 355.724 54.5271C349.816 61.9004 346.862 70.6431 346.862 80.4391C346.862 83.1778 347.179 85.6004 347.812 87.9178C344.963 90.8671 341.904 92.3418 338.633 92.3418C336.418 92.3418 334.835 91.7098 333.886 90.4458C332.936 89.1818 332.409 87.0751 332.409 84.1258C332.409 79.9124 333.253 73.6978 335.046 65.4818L344.225 23.1378C344.963 19.6618 342.326 16.3964 338.739 16.3964C336.101 16.3964 333.78 18.2924 333.253 20.8204L327.767 46.6271C323.863 44.4151 319.854 43.3618 315.529 43.3618C306.456 43.3618 298.86 46.8378 292.741 53.8951C286.728 60.9524 283.668 69.8004 283.668 80.4391C283.668 83.8098 284.09 86.7591 284.934 89.4978C282.507 91.4991 279.975 92.4471 277.232 92.4471C275.017 92.4471 273.434 91.8151 272.274 90.5511C271.219 89.2871 270.691 87.1804 270.691 84.2311C270.691 81.5978 271.219 77.4898 272.379 71.6964C273.012 68.4311 270.691 65.2711 267.315 64.9551C264.572 64.6391 261.935 66.4298 261.197 69.0631C259.086 76.3311 256.449 81.9138 253.495 85.7058C249.908 90.2351 246.004 92.5524 241.89 92.5524C239.463 92.5524 237.459 91.3938 235.876 89.0764C234.399 86.7591 233.661 83.7044 233.661 80.0178C233.661 72.5391 235.454 66.3244 239.147 61.5844C242.839 56.7391 247.587 54.3164 253.495 54.3164C256.449 54.3164 259.403 54.9484 261.935 56.0018C263.517 56.6338 265.416 56.6338 266.893 55.6858C270.691 53.3684 270.269 47.6804 266.26 46.1004C264.045 45.1524 262.884 44.9418 261.935 44.7311C259.403 44.0991 256.238 43.5724 253.706 43.5724C244.738 43.6778 237.142 47.1538 231.129 54.1058C227.858 57.8978 225.432 62.2164 223.955 67.0618C218.68 84.1258 211.717 92.6578 203.382 92.6578C200.534 92.6578 198.424 91.7098 197.158 89.9191C195.786 88.1284 195.153 85.8111 195.153 83.0724C195.153 82.1244 195.153 81.3871 195.259 80.8604C200.534 78.7538 204.859 75.4884 208.024 71.1698C211.189 66.8511 212.877 62.0058 212.877 56.8444C212.877 48.1018 208.13 43.7831 198.529 43.7831C191.777 43.7831 185.869 46.2058 180.594 51.0511L186.502 23.4538C187.241 19.9778 184.603 16.8178 181.122 16.8178C178.484 16.8178 176.269 18.6084 175.741 21.2418L159.494 97.0818C158.756 100.558 161.393 103.718 164.875 103.718C167.512 103.718 169.728 101.927 170.255 99.3991L175.319 76.2258C176.163 73.2764 177.324 70.2218 178.906 67.2724C180.489 64.3231 182.915 61.4791 186.291 58.8458C189.562 56.1071 193.254 54.8431 197.369 54.8431C200.112 54.8431 201.483 56.2124 201.483 59.0564C201.483 62.2164 199.69 65.3764 196.208 68.3258C192.727 71.2751 188.929 73.1711 184.92 73.8031C184.603 77.1738 184.392 79.4911 184.392 80.9658C184.392 88.0231 185.975 93.6058 189.14 97.7138C192.305 101.822 196.947 103.823 203.171 103.823C210.451 103.823 216.781 100.663 222.161 94.4484C222.9 93.6058 223.533 92.7631 224.271 91.8151C225.115 93.9218 226.17 95.8178 227.542 97.3978C231.023 101.611 235.665 103.718 241.573 103.718C249.064 103.718 255.394 100.136 260.563 92.8684C262.779 100.136 268.159 103.718 276.916 103.718C281.874 103.718 286.305 102.138 290.42 98.9778C293.69 102.138 297.91 103.718 302.974 103.718C310.465 103.718 316.795 100.136 321.964 92.8684C324.18 100.136 329.56 103.718 338.317 103.718C343.908 103.718 348.867 101.822 353.192 98.0298C356.885 101.822 361.527 103.718 367.435 103.718C375.769 103.718 382.838 100.242 388.746 93.2898C392.65 88.2338 394.232 85.1791 395.076 82.9671C397.292 77.5951 398.346 72.0124 398.346 66.4298C398.346 62.0058 397.608 58.1084 396.236 54.7378H410.69L409.318 61.0578C406.997 71.9071 405.837 79.2804 405.837 83.1778C405.837 96.8711 411.428 103.718 422.506 103.718C434.849 103.718 444.344 95.3964 451.096 78.6484C452.362 75.3831 450.885 72.1178 447.931 71.0644ZM323.863 64.3231C321.859 73.9084 318.905 80.9658 315.212 85.4951C311.52 90.0244 307.511 92.3418 303.291 92.3418C300.865 92.3418 298.86 91.1831 297.277 88.8658C295.8 86.5484 295.062 83.4938 295.062 79.8071C295.062 72.3284 296.855 66.1138 300.548 61.3738C304.24 56.5284 308.988 54.1058 314.896 54.1058C318.061 54.1058 321.437 55.4751 325.129 58.3191L323.863 64.3231ZM384.842 77.5951C384.842 77.5951 381.572 84.6524 378.512 87.8124C375.453 90.8671 371.866 92.4471 367.857 92.4471C364.903 92.4471 362.477 91.3938 360.788 89.2871C359.1 87.1804 358.256 84.2311 358.256 80.5444C358.256 73.1711 360.05 66.9564 363.742 61.9004C367.435 56.8444 371.971 54.3164 377.563 54.3164C383.893 54.3164 386.952 58.1084 386.952 65.7978C386.952 69.5898 386.319 73.4871 384.842 77.5951ZM156.329 16.3964C153.692 16.3964 151.476 18.1871 150.949 20.8204L134.702 96.6604C133.963 100.136 136.601 103.296 140.082 103.296C142.72 103.296 144.935 101.506 145.463 98.9778L161.815 23.1378C162.554 19.6618 159.916 16.3964 156.329 16.3964ZM39.963 -0.351562C18.019 -0.351562 0.0839844 17.4498 0.0839844 39.4644C0.0839844 43.8884 0.822484 48.2071 2.19398 52.4204C3.14348 55.2644 6.30849 56.8444 9.26249 55.8964C12.111 54.9484 13.6935 51.7884 12.744 48.8391C11.5835 45.5738 11.056 42.0978 11.1615 38.6218C11.5835 23.7698 23.6105 11.5511 38.486 10.8138C55.0495 9.9711 68.7645 23.1378 68.7645 39.4644C68.7645 54.7378 56.7375 67.2724 41.651 68.1151C41.651 68.1151 36.0595 68.4311 33.3165 68.8524C31.945 69.0631 30.89 69.2738 30.1515 69.3791C29.835 69.4844 29.5185 69.1684 29.624 68.8524L30.5735 64.2178L35.6375 40.5178C36.2705 37.5684 34.3715 34.6191 31.4175 33.9871C28.4635 33.3551 25.5095 35.2511 24.8765 38.2004C24.8765 38.2004 12.4275 96.1338 12.322 96.7658C11.689 99.7151 13.588 102.664 16.542 103.296C19.496 103.928 22.45 102.032 23.083 99.0831C23.1885 98.4511 24.8765 90.7618 24.8765 90.7618C26.1425 84.8631 30.9955 80.5444 36.6925 79.8071C37.9585 79.5964 42.917 79.2804 42.917 79.2804C63.4895 77.7004 79.7365 60.5311 79.7365 39.5698C79.842 17.4498 62.0125 -0.351562 39.963 -0.351562Z" fill="#1C1A11"/>
</svg>
