<svg width="58" height="46" viewBox="0 0 58 46" fill="none" xmlns="http://www.w3.org/2000/svg">
<path d="M57.4177 6.65627C55.7352 3.76127 50.7727 3.20627 43.4177 5.08127C39.811 2.17892 35.4124 0.432529 30.7971 0.0704641C26.1818 -0.291601 21.5647 0.747515 17.5496 3.05193C13.5344 5.35634 10.3081 8.81878 8.29255 12.9864C6.27701 17.1541 5.56607 21.833 6.25269 26.4113C0.907686 31.8338 -1.10731 36.4113 0.582685 39.3163C1.61519 41.0938 3.83269 41.9938 7.08269 41.9938C9.16156 41.9563 11.2303 41.694 13.2527 41.2113C13.6877 41.1138 14.1327 41.0063 14.5827 40.8913C17.9614 43.6104 22.0401 45.3187 26.3481 45.8193C30.6561 46.3199 35.0178 45.5922 38.93 43.7203C42.8422 41.8483 46.1454 38.9084 48.4584 35.2398C50.7715 31.5711 52.0002 27.3232 52.0027 22.9863C52.0044 21.8375 51.9208 20.6902 51.7527 19.5538C54.9452 16.3038 57.0802 13.2338 57.7527 10.6863C58.1752 9.12127 58.0602 7.76627 57.4177 6.65627ZM29.0027 1.98627C33.8574 1.99216 38.5606 3.6773 42.3144 6.75581C46.0683 9.83432 48.6415 14.1166 49.5977 18.8763C45.5552 22.7988 39.8977 26.9963 33.4752 30.6863C26.6477 34.6088 20.2727 37.2488 15.0727 38.6863C11.8896 35.8586 9.64111 32.1302 8.62553 27.9954C7.60994 23.8606 7.87517 19.5148 9.38607 15.5342C10.897 11.5536 13.5821 8.12625 17.0855 5.7067C20.5889 3.28714 24.745 1.98965 29.0027 1.98627ZM2.31519 38.3113C1.25269 36.4863 2.94019 32.9113 6.75269 28.7963C7.7864 32.7554 9.85762 36.3671 12.7527 39.2588C7.21769 40.4863 3.37019 40.1313 2.31519 38.3113ZM29.0027 43.9863C24.7099 43.9905 20.5199 42.6724 17.0027 40.2113C22.3977 38.5663 28.4602 35.8688 34.4652 32.4213C40.5277 28.9363 45.8677 25.0563 49.9227 21.3113C49.9677 21.8638 49.9977 22.4213 49.9977 22.9863C49.9911 28.5529 47.7771 33.8897 43.8414 37.8264C39.9056 41.7631 34.5693 43.9783 29.0027 43.9863ZM55.8227 10.1688C55.2902 12.1688 53.6777 14.5813 51.2602 17.1838C50.22 13.2155 48.1382 9.59733 45.2302 6.70376C50.6927 5.49876 54.6277 5.83876 55.6877 7.66126C56.0527 8.29376 56.1002 9.13627 55.8227 10.1688Z" fill="#D0DFE4"/>
</svg>
