<svg width="64" height="64" viewBox="0 0 64 64" fill="none" xmlns="http://www.w3.org/2000/svg">
<g id="Scales">
<path id="Vector" d="M58.9275 33.6275L50.9275 13.6275C50.839 13.4082 50.6757 13.2274 50.4666 13.1171C50.2574 13.0067 50.0159 12.9741 49.785 13.025L33 16.75V10C33 9.73478 32.8946 9.48043 32.7071 9.29289C32.5196 9.10536 32.2652 9 32 9C31.7348 9 31.4804 9.10536 31.2929 9.29289C31.1054 9.48043 31 9.73478 31 10V17.1975L13.7825 21.025C13.6242 21.0603 13.4768 21.1336 13.3531 21.2386C13.2294 21.3435 13.1331 21.477 13.0725 21.6275L5.0725 41.6275C5.02478 41.7459 5.00017 41.8723 5 42C5 47.1 10.52 49 14 49C17.48 49 23 47.1 23 42C22.9998 41.8723 22.9752 41.7459 22.9275 41.6275L15.365 22.72L31 19.25V53H26C25.7348 53 25.4804 53.1054 25.2929 53.2929C25.1054 53.4804 25 53.7348 25 54C25 54.2652 25.1054 54.5196 25.2929 54.7071C25.4804 54.8946 25.7348 55 26 55H38C38.2652 55 38.5196 54.8946 38.7071 54.7071C38.8946 54.5196 39 54.2652 39 54C39 53.7348 38.8946 53.4804 38.7071 53.2929C38.5196 53.1054 38.2652 53 38 53H33V18.8025L48.3675 15.3875L41.0725 33.6375C41.026 33.7528 41.0014 33.8757 41 34C41 39.1 46.52 41 50 41C53.48 41 59 39.1 59 34C58.9998 33.8723 58.9752 33.7459 58.9275 33.6275ZM14 47C12.2125 47 7.1575 46.11 7 42.1825L14 24.6825L21 42.1825C20.8425 46.11 15.7875 47 14 47ZM50 39C48.2125 39 43.1575 38.11 43 34.1825L50 16.6825L57 34.1825C56.8425 38.11 51.7875 39 50 39Z" fill="#EFF4F6"/>
</g>
</svg>
