<svg width="24" height="24" viewBox="0 0 24 24" fill="none" xmlns="http://www.w3.org/2000/svg">
<path d="M21.3013 21.2401L16.6073 16.547C17.9678 14.9136 18.6462 12.8185 18.5014 10.6977C18.3566 8.5768 17.3998 6.5934 15.8299 5.16007C14.26 3.72674 12.1979 2.95383 10.0726 3.00213C7.94738 3.05043 5.92256 3.91622 4.41939 5.41939C2.91622 6.92256 2.05043 8.94738 2.00213 11.0726C1.95383 13.1979 2.72674 15.26 4.16007 16.8299C5.5934 18.3998 7.5768 19.3566 9.69766 19.5014C11.8185 19.6462 13.9136 18.9678 15.547 17.6073L20.2401 22.3013C20.3098 22.371 20.3925 22.4263 20.4836 22.464C20.5746 22.5017 20.6722 22.5211 20.7707 22.5211C20.8693 22.5211 20.9669 22.5017 21.0579 22.464C21.1489 22.4263 21.2317 22.371 21.3013 22.3013C21.371 22.2317 21.4263 22.1489 21.464 22.0579C21.5017 21.9669 21.5211 21.8693 21.5211 21.7707C21.5211 21.6722 21.5017 21.5746 21.464 21.4836C21.4263 21.3925 21.371 21.3098 21.3013 21.2401ZM3.52072 11.2707C3.52072 9.9357 3.9166 8.63065 4.6583 7.52062C5.4 6.41059 6.45421 5.54543 7.68761 5.03454C8.92101 4.52364 10.2782 4.38997 11.5876 4.65042C12.897 4.91087 14.0997 5.55375 15.0437 6.49775C15.9877 7.44176 16.6306 8.64449 16.891 9.95386C17.1515 11.2632 17.0178 12.6204 16.5069 13.8538C15.996 15.0872 15.1309 16.1414 14.0208 16.8831C12.9108 17.6248 11.6057 18.0207 10.2707 18.0207C8.48112 18.0187 6.76538 17.3069 5.49994 16.0415C4.2345 14.7761 3.52271 13.0603 3.52072 11.2707Z" fill="#B0B0B1"/>
</svg>
