<svg width="48" height="48" viewBox="0 0 48 48" fill="none" xmlns="http://www.w3.org/2000/svg">
<path d="M39 10.56V19.52C39 27.9551 35.0125 33.0671 31.6672 35.8703C28.0641 38.8879 24.4797 39.9135 24.3234 39.9551C24.1086 40.015 23.882 40.015 23.6672 39.9551C23.5109 39.9135 19.9313 38.8879 16.3234 35.8703C12.9875 33.0671 9 27.9551 9 19.52V10.56C9 9.88104 9.26339 9.2299 9.73223 8.7498C10.2011 8.26971 10.837 8 11.5 8H36.5C37.163 8 37.7989 8.26971 38.2678 8.7498C38.7366 9.2299 39 9.88104 39 10.56Z" fill="#EFF4F6"/>
</svg>
