<svg width="48" height="48" viewBox="0 0 48 48" fill="none" xmlns="http://www.w3.org/2000/svg">
<path d="M36.5 9H11.5C10.837 9 10.2011 9.26971 9.73223 9.7498C9.26339 10.2299 9 10.881 9 11.56V20.52C9 28.9551 12.9875 34.0671 16.3328 36.8703C19.9359 39.8879 23.5203 40.9135 23.6766 40.9551C23.8914 41.015 24.118 41.015 24.3328 40.9551C24.4891 40.9135 28.0688 39.8879 31.6766 36.8703C35.0125 34.0671 39 28.9551 39 20.52V11.56C39 10.881 38.7366 10.2299 38.2678 9.7498C37.7989 9.26971 37.163 9 36.5 9ZM29 24.36H25.25V28.1999C25.25 28.5394 25.1183 28.865 24.8839 29.105C24.6495 29.3451 24.3315 29.4799 24 29.4799C23.6685 29.4799 23.3505 29.3451 23.1161 29.105C22.8817 28.865 22.75 28.5394 22.75 28.1999V24.36H19C18.6685 24.36 18.3505 24.2251 18.1161 23.9851C17.8817 23.745 17.75 23.4194 17.75 23.08C17.75 22.7405 17.8817 22.4149 18.1161 22.1749C18.3505 21.9348 18.6685 21.8 19 21.8H22.75V17.96C22.75 17.6205 22.8817 17.2949 23.1161 17.0549C23.3505 16.8148 23.6685 16.68 24 16.68C24.3315 16.68 24.6495 16.8148 24.8839 17.0549C25.1183 17.2949 25.25 17.6205 25.25 17.96V21.8H29C29.3315 21.8 29.6495 21.9348 29.8839 22.1749C30.1183 22.4149 30.25 22.7405 30.25 23.08C30.25 23.4194 30.1183 23.745 29.8839 23.9851C29.6495 24.2251 29.3315 24.36 29 24.36Z" fill="#FACC15"/>
<path d="M47.9999 6C48.0012 6.20378 47.9393 6.40294 47.8227 6.57009C47.7061 6.73723 47.5405 6.86414 47.3488 6.93336L44.1258 8.1241L42.9385 11.349C42.8682 11.5399 42.741 11.7048 42.5741 11.8212C42.4072 11.9376 42.2085 12 42.005 12C41.8015 12 41.6028 11.9376 41.4359 11.8212C41.269 11.7048 41.1417 11.5399 41.0714 11.349L39.8767 8.1241L36.6511 6.9371C36.4601 6.86681 36.2953 6.73963 36.1789 6.57273C36.0624 6.40583 36 6.20724 36 6.00375C36 5.80026 36.0624 5.60167 36.1789 5.43476C36.2953 5.26786 36.4601 5.14069 36.6511 5.07039L39.8767 3.8759L41.0639 0.651015C41.1343 0.460052 41.2615 0.295245 41.4284 0.178831C41.5953 0.0624175 41.794 0 41.9975 0C42.201 0 42.3997 0.0624175 42.5666 0.178831C42.7335 0.295245 42.8607 0.460052 42.931 0.651015L44.1258 3.8759L47.3513 5.0629C47.5432 5.13274 47.7086 5.2604 47.8248 5.42825C47.941 5.59611 48.0022 5.79589 47.9999 6Z" fill="#FACC15"/>
</svg>
