<svg xmlns="http://www.w3.org/2000/svg" xmlns:xlink="http://www.w3.org/1999/xlink" width="500" zoomAndPan="magnify" viewBox="0 0 375 374.999991" height="500" preserveAspectRatio="xMidYMid meet" version="1.0"><defs><clipPath id="bd38bbbba3"><path d="M 37.5 179.027344 L 62.015625 179.027344 L 62.015625 233.695312 L 37.5 233.695312 Z M 37.5 179.027344 " clip-rule="nonzero"/></clipPath><clipPath id="996bc5c3d2"><path d="M 312.984375 179.027344 L 337.5 179.027344 L 337.5 233.695312 L 312.984375 233.695312 Z M 312.984375 179.027344 " clip-rule="nonzero"/></clipPath><clipPath id="80baf95f5e"><path d="M 37.5 37.707031 L 337.824219 37.707031 L 337.824219 244.9375 L 37.5 244.9375 Z M 37.5 37.707031 " clip-rule="nonzero"/></clipPath><clipPath id="df9797585d"><path d="M 187.5 37.707031 L 337.5 141.320312 L 187.5 244.9375 L 37.5 141.320312 Z M 187.5 37.707031 " clip-rule="nonzero"/></clipPath><clipPath id="ec36c19cdd"><path d="M 78.65625 66.136719 L 296.582031 66.136719 L 296.582031 216.507812 L 78.65625 216.507812 Z M 78.65625 66.136719 " clip-rule="nonzero"/></clipPath><clipPath id="8e9d270b3a"><path d="M 187.5 66.136719 L 296.34375 141.320312 L 187.5 216.507812 L 78.65625 141.320312 Z M 187.5 66.136719 " clip-rule="nonzero"/></clipPath><clipPath id="7a00bbc9f1"><path d="M 108.1875 86.535156 L 266.984375 86.535156 L 266.984375 196.109375 L 108.1875 196.109375 Z M 108.1875 86.535156 " clip-rule="nonzero"/></clipPath><clipPath id="5ea9baae76"><path d="M 187.5 86.535156 L 266.8125 141.320312 L 187.5 196.109375 L 108.1875 141.320312 Z M 187.5 86.535156 " clip-rule="nonzero"/></clipPath><clipPath id="6ed71f973c"><path d="M 143.246094 96.070312 L 274.410156 96.070312 L 274.410156 186.574219 L 143.246094 186.574219 Z M 143.246094 96.070312 " clip-rule="nonzero"/></clipPath><clipPath id="738381c9d7"><path d="M 208.757812 96.070312 L 274.265625 141.320312 L 208.757812 186.574219 L 143.246094 141.320312 Z M 208.757812 96.070312 " clip-rule="nonzero"/></clipPath><clipPath id="1922ecc784"><path d="M 35.199219 177.847656 L 88.886719 177.847656 L 88.886719 197.152344 L 35.199219 197.152344 Z M 35.199219 177.847656 " clip-rule="nonzero"/></clipPath><clipPath id="2c80a04187"><path d="M 62.015625 197.152344 L 88.835938 177.847656 L 35.199219 177.847656 Z M 62.015625 197.152344 " clip-rule="nonzero"/></clipPath><clipPath id="cd2b9c7977"><path d="M 286.164062 177.847656 L 339.851562 177.847656 L 339.851562 197.152344 L 286.164062 197.152344 Z M 286.164062 177.847656 " clip-rule="nonzero"/></clipPath><clipPath id="f6fa44a1ff"><path d="M 312.984375 197.152344 L 339.800781 177.847656 L 286.164062 177.847656 Z M 312.984375 197.152344 " clip-rule="nonzero"/></clipPath></defs><path stroke-linecap="butt" transform="matrix(0.615144, -0.429066, 0.429066, 0.615144, 175.557459, 319.045203)" fill="none" stroke-linejoin="miter" d="M -0.00219447 15.000211 L 242.248874 15.000644 " stroke="#ffffff" stroke-width="30" stroke-opacity="1" stroke-miterlimit="4"/><g clip-path="url(#bd38bbbba3)"><path fill="#ffffff" d="M 37.5 179.027344 L 62.015625 179.027344 L 62.015625 233.710938 L 37.5 233.710938 Z M 37.5 179.027344 " fill-opacity="1" fill-rule="nonzero"/></g><path stroke-linecap="butt" transform="matrix(0.617834, 0.425183, -0.425183, 0.617834, 50.254912, 215.065488)" fill="none" stroke-linejoin="miter" d="M 0.00118685 14.997616 L 244.367474 15.000582 " stroke="#ffffff" stroke-width="30" stroke-opacity="1" stroke-miterlimit="4"/><g clip-path="url(#996bc5c3d2)"><path fill="#ffffff" d="M 312.984375 179.027344 L 337.5 179.027344 L 337.5 233.710938 L 312.984375 233.710938 Z M 312.984375 179.027344 " fill-opacity="1" fill-rule="nonzero"/></g><g clip-path="url(#80baf95f5e)"><g clip-path="url(#df9797585d)"><path fill="#ffffff" d="M 37.5 37.707031 L 337.824219 37.707031 L 337.824219 244.9375 L 37.5 244.9375 Z M 37.5 37.707031 " fill-opacity="1" fill-rule="nonzero"/></g></g><g clip-path="url(#ec36c19cdd)"><g clip-path="url(#8e9d270b3a)"><path fill="#000000" d="M 78.65625 66.136719 L 296.582031 66.136719 L 296.582031 216.507812 L 78.65625 216.507812 Z M 78.65625 66.136719 " fill-opacity="1" fill-rule="nonzero"/></g></g><g clip-path="url(#7a00bbc9f1)"><g clip-path="url(#5ea9baae76)"><path fill="#ffffff" d="M 108.1875 86.535156 L 266.984375 86.535156 L 266.984375 196.109375 L 108.1875 196.109375 Z M 108.1875 86.535156 " fill-opacity="1" fill-rule="nonzero"/></g></g><g clip-path="url(#6ed71f973c)"><g clip-path="url(#738381c9d7)"><path fill="#000000" d="M 143.246094 96.070312 L 274.410156 96.070312 L 274.410156 186.574219 L 143.246094 186.574219 Z M 143.246094 96.070312 " fill-opacity="1" fill-rule="nonzero"/></g></g><g clip-path="url(#1922ecc784)"><g clip-path="url(#2c80a04187)"><path fill="#000000" d="M 35.199219 177.847656 L 88.8125 177.847656 L 88.8125 197.152344 L 35.199219 197.152344 Z M 35.199219 177.847656 " fill-opacity="1" fill-rule="nonzero"/></g></g><g clip-path="url(#cd2b9c7977)"><g clip-path="url(#f6fa44a1ff)"><path fill="#000000" d="M 286.164062 177.847656 L 339.777344 177.847656 L 339.777344 197.152344 L 286.164062 197.152344 Z M 286.164062 177.847656 " fill-opacity="1" fill-rule="nonzero"/></g></g></svg>