<svg width="24" height="25" viewBox="0 0 24 25" fill="none" xmlns="http://www.w3.org/2000/svg">
<path d="M18 4.58242H17V3.58242C17 3.3172 16.8946 3.06285 16.7071 2.87531C16.5196 2.68778 16.2652 2.58242 16 2.58242C15.7348 2.58242 15.4804 2.68778 15.2929 2.87531C15.1054 3.06285 15 3.3172 15 3.58242V4.58242H9V3.58242C9 3.3172 8.89464 3.06285 8.70711 2.87531C8.51957 2.68778 8.26522 2.58242 8 2.58242C7.73478 2.58242 7.48043 2.68778 7.29289 2.87531C7.10536 3.06285 7 3.3172 7 3.58242V4.58242H6C5.20435 4.58242 4.44129 4.89849 3.87868 5.4611C3.31607 6.02371 3 6.78677 3 7.58242V19.5824C3 20.3781 3.31607 21.1411 3.87868 21.7037C4.44129 22.2663 5.20435 22.5824 6 22.5824H18C18.7956 22.5824 19.5587 22.2663 20.1213 21.7037C20.6839 21.1411 21 20.3781 21 19.5824V7.58242C21 6.78677 20.6839 6.02371 20.1213 5.4611C19.5587 4.89849 18.7956 4.58242 18 4.58242ZM8 17.5824C7.80222 17.5824 7.60888 17.5238 7.44443 17.4139C7.27998 17.304 7.15181 17.1478 7.07612 16.9651C7.00043 16.7824 6.98063 16.5813 7.01921 16.3873C7.0578 16.1933 7.15304 16.0152 7.29289 15.8753C7.43275 15.7355 7.61093 15.6402 7.80491 15.6016C7.99889 15.563 8.19996 15.5829 8.38268 15.6585C8.56541 15.7342 8.72159 15.8624 8.83147 16.0268C8.94135 16.1913 9 16.3846 9 16.5824C9 16.8476 8.89464 17.102 8.70711 17.2895C8.51957 17.4771 8.26522 17.5824 8 17.5824ZM16 17.5824H12C11.7348 17.5824 11.4804 17.4771 11.2929 17.2895C11.1054 17.102 11 16.8476 11 16.5824C11 16.3172 11.1054 16.0628 11.2929 15.8753C11.4804 15.6878 11.7348 15.5824 12 15.5824H16C16.2652 15.5824 16.5196 15.6878 16.7071 15.8753C16.8946 16.0628 17 16.3172 17 16.5824C17 16.8476 16.8946 17.102 16.7071 17.2895C16.5196 17.4771 16.2652 17.5824 16 17.5824ZM19 11.5824H5V7.58242C5 7.3172 5.10536 7.06285 5.29289 6.87531C5.48043 6.68778 5.73478 6.58242 6 6.58242H7V7.58242C7 7.84764 7.10536 8.10199 7.29289 8.28953C7.48043 8.47706 7.73478 8.58242 8 8.58242C8.26522 8.58242 8.51957 8.47706 8.70711 8.28953C8.89464 8.10199 9 7.84764 9 7.58242V6.58242H15V7.58242C15 7.84764 15.1054 8.10199 15.2929 8.28953C15.4804 8.47706 15.7348 8.58242 16 8.58242C16.2652 8.58242 16.5196 8.47706 16.7071 8.28953C16.8946 8.10199 17 7.84764 17 7.58242V6.58242H18C18.2652 6.58242 18.5196 6.68778 18.7071 6.87531C18.8946 7.06285 19 7.3172 19 7.58242V11.5824Z" fill="white"/>
</svg>
