<svg width="174" height="172" viewBox="0 0 174 172" fill="none" xmlns="http://www.w3.org/2000/svg">
<rect x="11.5" y="115.5" width="8" height="56" rx="4" fill="#45CE8C"/>
<rect x="73.5" y="107.5" width="8" height="64" rx="4" fill="#45CE8C"/>
<rect x="42.5" y="87.5" width="8" height="84" rx="4" fill="#CE4545"/>
<rect x="104.5" y="94.5" width="8" height="77" rx="4" fill="#CE4545"/>
<rect x="135.5" y="58.5" width="8" height="113" rx="4" fill="#45CE8C"/>
<path d="M1.52513 93.5251C0.158291 94.892 0.158291 97.108 1.52513 98.4749C2.89196 99.8417 5.10804 99.8417 6.47487 98.4749L1.52513 93.5251ZM54.5 45.5L56.9749 43.0251C55.608 41.6583 53.392 41.6583 52.0251 43.0251L54.5 45.5ZM91.5 82.5L89.0251 84.9749C90.392 86.3417 92.608 86.3417 93.9749 84.9749L91.5 82.5ZM173.5 4C173.5 2.067 171.933 0.5 170 0.5H138.5C136.567 0.5 135 2.067 135 4C135 5.933 136.567 7.5 138.5 7.5H166.5V35.5C166.5 37.433 168.067 39 170 39C171.933 39 173.5 37.433 173.5 35.5V4ZM6.47487 98.4749L56.9749 47.9749L52.0251 43.0251L1.52513 93.5251L6.47487 98.4749ZM52.0251 47.9749L89.0251 84.9749L93.9749 80.0251L56.9749 43.0251L52.0251 47.9749ZM93.9749 84.9749L172.475 6.47487L167.525 1.52513L89.0251 80.0251L93.9749 84.9749Z" fill="#638BF0"/>
</svg>
