<svg width="34" height="30" viewBox="0 0 34 30" fill="none" xmlns="http://www.w3.org/2000/svg">
<path d="M10.1351 11.8919H1.35135C0.605021 11.8919 0 11.2869 0 10.5405V9.47867C0 9.12027 0.145257 8.77685 0.392751 8.51762C2.45127 6.36154 2.44068 5.39571 0.417972 3.37844C0.155232 3.11641 0 2.76278 0 2.39171V1.35135C0 0.605021 0.605021 0 1.35135 0H8.78378H10H31.8919C32.6382 0 33.2432 0.605021 33.2432 1.35135V2.39171C33.2432 2.76278 33.088 3.11641 32.8253 3.37844C30.8026 5.39571 30.792 6.36154 32.8505 8.51762C33.098 8.77685 33.2432 9.12027 33.2432 9.47867V10.5405C33.2432 11.2869 32.6382 11.8919 31.8919 11.8919H23.1081C22.3618 11.8919 21.7568 12.4969 21.7568 13.2432V18.3784C21.7568 19.1247 21.1517 19.7297 20.4054 19.7297H17.973C17.5252 19.7297 17.1622 20.0927 17.1622 20.5405C17.1622 20.9883 17.5252 21.3514 17.973 21.3514H20.4054C21.1517 21.3514 21.7568 21.9564 21.7568 22.7027V28.6486C21.7568 29.395 21.1517 30 20.4054 30H16.6216H12.8378C12.0915 30 11.4865 29.395 11.4865 28.6486V13.2432C11.4865 12.4969 10.8815 11.8919 10.1351 11.8919Z" fill="white"/>
</svg>
