<svg width="25" height="24" viewBox="0 0 25 24" fill="none" xmlns="http://www.w3.org/2000/svg">
<path d="M12.625 12C13.175 12 13.646 11.804 14.038 11.412C14.4293 11.0207 14.625 10.55 14.625 10C14.625 9.45 14.4293 8.979 14.038 8.587C13.646 8.19567 13.175 8 12.625 8C12.075 8 11.6043 8.19567 11.213 8.587C10.821 8.979 10.625 9.45 10.625 10C10.625 10.55 10.821 11.0207 11.213 11.412C11.6043 11.804 12.075 12 12.625 12ZM12.625 22C9.94167 19.7167 7.93767 17.5957 6.613 15.637C5.28767 13.679 4.625 11.8667 4.625 10.2C4.625 7.7 5.42933 5.70833 7.038 4.225C8.646 2.74167 10.5083 2 12.625 2C14.7417 2 16.604 2.74167 18.212 4.225C19.8207 5.70833 20.625 7.7 20.625 10.2C20.625 11.8667 19.9627 13.679 18.638 15.637C17.3127 17.5957 15.3083 19.7167 12.625 22Z" fill="white"/>
</svg>
